<svg xmlns="http://www.w3.org/2000/svg" xmlns:xlink="http://www.w3.org/1999/xlink" width="106" height="106" viewBox="0 0 106 106">
  <defs>
    <filter id="Trazado_982547" x="0" y="0" width="106" height="106" filterUnits="userSpaceOnUse">
      <feOffset dy="3" input="SourceAlpha"/>
      <feGaussianBlur stdDeviation="3" result="blur"/>
      <feFlood flood-opacity="0.161"/>
      <feComposite operator="in" in2="blur"/>
      <feComposite in="SourceGraphic"/>
    </filter>
  </defs>
  <g id="Grupo_1237248" data-name="Grupo 1237248" transform="translate(-620 -1021)">
    <g id="Grupo_1235187" data-name="Grupo 1235187" transform="translate(629 1027)">
      <g id="Grupo_1234665" data-name="Grupo 1234665" transform="translate(0 0)">
        <g id="Grupo_1173169" data-name="Grupo 1173169">
          <g id="Grupo_1172017" data-name="Grupo 1172017">
            <g id="Grupo_1167337" data-name="Grupo 1167337">
              <g id="Grupo_1166720" data-name="Grupo 1166720">
                <g id="Grupo_1164305" data-name="Grupo 1164305">
                  <g id="Grupo_1163948" data-name="Grupo 1163948">
                    <g id="Grupo_1158168" data-name="Grupo 1158168">
                      <g id="Grupo_1152576" data-name="Grupo 1152576">
                        <g id="Grupo_1148633" data-name="Grupo 1148633">
                          <g id="Grupo_1148525" data-name="Grupo 1148525">
                            <g transform="matrix(1, 0, 0, 1, -9, -6)" filter="url(#Trazado_982547)">
                              <g id="Trazado_982547-2" data-name="Trazado 982547" transform="translate(9 6)" fill="#eafafe">
                                <path d="M 44 86.5 C 38.26187515258789 86.5 32.69618606567383 85.37651062011719 27.45755004882812 83.16075897216797 C 22.3968505859375 81.020263671875 17.85157585144043 77.95565032958984 13.94796276092529 74.05204010009766 C 10.04434967041016 70.1484375 6.979737281799316 65.6031494140625 4.839250087738037 60.54246139526367 C 2.62348747253418 55.30381393432617 1.5 49.73812484741211 1.5 44 C 1.5 38.26187515258789 2.62348747253418 32.69618606567383 4.839250087738037 27.45755004882812 C 6.979737281799316 22.3968505859375 10.04434967041016 17.85157585144043 13.94796276092529 13.94796276092529 C 17.85157585144043 10.04434967041016 22.3968505859375 6.979737281799316 27.45755004882812 4.839250087738037 C 32.69618606567383 2.62348747253418 38.26187515258789 1.5 44 1.5 C 49.73812484741211 1.5 55.30381393432617 2.62348747253418 60.54246139526367 4.839250087738037 C 65.6031494140625 6.979737281799316 70.1484375 10.04434967041016 74.05204010009766 13.94796276092529 C 77.95565032958984 17.85157585144043 81.020263671875 22.3968505859375 83.16075897216797 27.45755004882812 C 85.37651062011719 32.69618606567383 86.5 38.26187515258789 86.5 44 C 86.5 49.73812484741211 85.37651062011719 55.30381393432617 83.16075897216797 60.54246139526367 C 81.020263671875 65.6031494140625 77.95565032958984 70.1484375 74.05204010009766 74.05204010009766 C 70.1484375 77.95565032958984 65.6031494140625 81.020263671875 60.54246139526367 83.16075897216797 C 55.30381393432617 85.37651062011719 49.73812484741211 86.5 44 86.5 Z" stroke="none"/>
                                <path d="M 44 3 C 38.46371459960938 3 33.09462738037109 4.083610534667969 28.0418701171875 6.220756530761719 C 23.15997314453125 8.285614013671875 18.77495574951172 11.24228668212891 15.00862884521484 15.00862884521484 C 11.24228668212891 18.77495574951172 8.285614013671875 23.15997314453125 6.220756530761719 28.0418701171875 C 4.083610534667969 33.09462738037109 3 38.46371459960938 3 44 C 3 49.53628540039062 4.083610534667969 54.9053840637207 6.220756530761719 59.9581298828125 C 8.285614013671875 64.84002685546875 11.24228668212891 69.22504425048828 15.00862884521484 72.99138641357422 C 18.77495574951172 76.75771331787109 23.15997314453125 79.71438598632812 28.0418701171875 81.77925872802734 C 33.09462738037109 83.9163818359375 38.46371459960938 85 44 85 C 49.53628540039062 85 54.9053840637207 83.9163818359375 59.95814514160156 81.77925872802734 C 64.84002685546875 79.71438598632812 69.22504425048828 76.75771331787109 72.99138641357422 72.99138641357422 C 76.75771331787109 69.22504425048828 79.71438598632812 64.84002685546875 81.77925872802734 59.95814514160156 C 83.9163818359375 54.9053840637207 85 49.53628540039062 85 44 C 85 38.46371459960938 83.9163818359375 33.09462738037109 81.77925872802734 28.0418701171875 C 79.71438598632812 23.15997314453125 76.75771331787109 18.77495574951172 72.99138641357422 15.00862884521484 C 69.22504425048828 11.24228668212891 64.84002685546875 8.285614013671875 59.9581298828125 6.220756530761719 C 54.9053840637207 4.083610534667969 49.53628540039062 3 44 3 M 44 0 C 68.30054473876953 0 88 19.69947052001953 88 44 C 88 68.30054473876953 68.30054473876953 88 44 88 C 19.69947052001953 88 0 68.30054473876953 0 44 C 0 19.69947052001953 19.69947052001953 0 44 0 Z" stroke="none" fill="#207389"/>
                              </g>
                            </g>
                          </g>
                        </g>
                      </g>
                    </g>
                  </g>
                </g>
              </g>
            </g>
          </g>
        </g>
      </g>
    </g>
    <g id="peligro-biologico" transform="translate(642.741 1009.929)">
      <g id="Grupo_1237246" data-name="Grupo 1237246" transform="translate(0.894 30.964)">
        <path id="Trazado_1255904" data-name="Trazado 1255904" d="M83.735,96.758,57.775,51.98l-3.849.932L27.893,98l1.786,3.093.1-.388,4.4,1.13H80.808A3.383,3.383,0,0,0,83.735,96.758Z" transform="translate(-25.467 -50.265)" fill="#aa9ea9"/>
        <path id="Trazado_1255905" data-name="Trazado 1255905" d="M16.14,84.065,40.961,41.25l-1.138-1.964-.017-.029a3.383,3.383,0,0,0-5.853,0L7.976,84.065A3.383,3.383,0,0,0,10.9,89.144h8.163A3.383,3.383,0,0,1,16.14,84.065Z" transform="translate(-7.515 -37.571)" fill="#9b8e99"/>
        <path id="Trazado_1255906" data-name="Trazado 1255906" d="M93.748,116.838,68.981,74.117a.385.385,0,0,0-.665,0L43.5,117.1a.33.33,0,0,0,.269.5H93.308a.508.508,0,0,0,.44-.763Z" transform="translate(-39.177 -69.6)" fill="#fee97d"/>
        <path id="Trazado_1255907" data-name="Trazado 1255907" d="M68.981,74.117a.385.385,0,0,0-.665,0L43.5,117.1a.33.33,0,0,0,.269.5h3.577a3.365,3.365,0,0,1,.456-1.508L70.559,76.839Z" transform="translate(-39.177 -69.6)" fill="#fedf30"/>
      </g>
      <g id="Grupo_1237247" data-name="Grupo 1237247" transform="translate(0 30.071)">
        <path id="Trazado_1255908" data-name="Trazado 1255908" d="M59.934,77.01,43.487,48.64a.893.893,0,1,0-1.545.9l16.447,28.37a2.49,2.49,0,0,1-2.154,3.739H4.282a2.49,2.49,0,0,1-2.154-3.739L28.1,33.1a2.49,2.49,0,0,1,4.308,0l7.621,13.146a.893.893,0,1,0,1.545-.9L33.958,32.2a4.275,4.275,0,0,0-7.4,0L.583,77.01a4.275,4.275,0,0,0,3.7,6.42H56.235a4.275,4.275,0,0,0,3.7-6.42Z" transform="translate(0 -30.071)"/>
        <path id="Trazado_1255909" data-name="Trazado 1255909" d="M51.545,164.316a.893.893,0,0,0-1.545-.9L31.344,195.6a.893.893,0,0,0,.772,1.341h51.3a.893.893,0,0,0,.772-1.341l-3.658-6.309a.893.893,0,0,0-1.545.9l2.88,4.969h-48.2Z" transform="translate(-27.507 -147.153)"/>
        <path id="Trazado_1255910" data-name="Trazado 1255910" d="M210.72,62.093a.893.893,0,0,0-1.545,0l-5.085,8.771a.893.893,0,1,0,1.545.9l4.312-7.438L229.259,97.63a.893.893,0,0,0,1.545-.9Z" transform="translate(-179.689 -57.889)"/>
        <path id="Trazado_1255911" data-name="Trazado 1255911" d="M162.416,207.024a.893.893,0,0,0-.872-1.558,6.521,6.521,0,0,0-2.765,8.385,7.133,7.133,0,0,0-.532.951,6.528,6.528,0,0,0-5.371,8.213.893.893,0,1,0,1.721-.477,4.745,4.745,0,0,1,3.065-5.771,7.135,7.135,0,0,0,4.879,7.828l-.038.04a4.751,4.751,0,0,1-4.653,1.187.893.893,0,1,0-.493,1.716,6.537,6.537,0,0,0,6.4-1.634,6.6,6.6,0,0,0,.807-.969c.054,0,.107,0,.161,0,.1,0,.2,0,.3-.008a6.537,6.537,0,0,0,7.213,2.607.893.893,0,1,0-.493-1.716,4.751,4.751,0,0,1-4.653-1.187c-.025-.025-.05-.052-.074-.077a7.142,7.142,0,0,0,4.763-7.839,4.746,4.746,0,0,1,3.217,5.82.893.893,0,1,0,1.721.477,6.526,6.526,0,0,0-5.526-8.232,7.146,7.146,0,0,0-.524-.932,6.521,6.521,0,0,0-2.765-8.385.893.893,0,0,0-.872,1.558,4.744,4.744,0,0,1,2.284,5.313,7.121,7.121,0,0,0-9.19,0,4.744,4.744,0,0,1,2.284-5.313ZM159.372,217.8a5.352,5.352,0,0,1,.151-1.259,4.744,4.744,0,0,1,4.047,6.487A5.363,5.363,0,0,1,159.372,217.8Zm6.646,5.2a4.744,4.744,0,0,1,3.915-6.444,5.35,5.35,0,0,1-3.915,6.444Zm-1.291-10.551a5.338,5.338,0,0,1,3.787,1.573,4.737,4.737,0,0,1-7.575,0A5.338,5.338,0,0,1,164.727,212.443Z" transform="translate(-134.468 -184.486)"/>
        <path id="Trazado_1255912" data-name="Trazado 1255912" d="M248.469,120.751v-.767a.893.893,0,1,0-1.786,0v.767a.893.893,0,1,0,1.786,0Z" transform="translate(-217.317 -108.494)"/>
        <path id="Trazado_1255913" data-name="Trazado 1255913" d="M80.733,405.483a.893.893,0,0,0,0,1.786h.99a.893.893,0,1,0,0-1.786Z" transform="translate(-70.335 -360.792)"/>
        <path id="Trazado_1255914" data-name="Trazado 1255914" d="M408.323,407.269a.893.893,0,0,0,0-1.786h-.99a.893.893,0,0,0,0,1.786Z" transform="translate(-358.055 -360.792)"/>
      </g>
    </g>
  </g>
</svg>
