<svg xmlns="http://www.w3.org/2000/svg" xmlns:xlink="http://www.w3.org/1999/xlink" width="106" height="106" viewBox="0 0 106 106">
  <defs>
    <filter id="Trazado_982547" x="0" y="0" width="106" height="106" filterUnits="userSpaceOnUse">
      <feOffset dy="3" input="SourceAlpha"/>
      <feGaussianBlur stdDeviation="3" result="blur"/>
      <feFlood flood-opacity="0.161"/>
      <feComposite operator="in" in2="blur"/>
      <feComposite in="SourceGraphic"/>
    </filter>
  </defs>
  <g id="Grupo_1238511" data-name="Grupo 1238511" transform="translate(-200 -476.5)">
    <g id="Grupo_1237158" data-name="Grupo 1237158" transform="translate(209 482.5)">
      <g id="Grupo_1234670" data-name="Grupo 1234670" transform="translate(0)">
        <g id="Grupo_1173169" data-name="Grupo 1173169">
          <g id="Grupo_1172017" data-name="Grupo 1172017">
            <g id="Grupo_1167337" data-name="Grupo 1167337">
              <g id="Grupo_1166720" data-name="Grupo 1166720">
                <g id="Grupo_1164305" data-name="Grupo 1164305">
                  <g id="Grupo_1163948" data-name="Grupo 1163948">
                    <g id="Grupo_1158168" data-name="Grupo 1158168">
                      <g id="Grupo_1152576" data-name="Grupo 1152576">
                        <g id="Grupo_1148633" data-name="Grupo 1148633">
                          <g id="Grupo_1148525" data-name="Grupo 1148525">
                            <g transform="matrix(1, 0, 0, 1, -9, -6)" filter="url(#Trazado_982547)">
                              <g id="Trazado_982547-2" data-name="Trazado 982547" transform="translate(9 6)" fill="#feeee5">
                                <path d="M 44 86.5 C 38.26187515258789 86.5 32.69618606567383 85.37651062011719 27.45755004882812 83.16075897216797 C 22.3968505859375 81.020263671875 17.85157585144043 77.95565032958984 13.94796276092529 74.05204010009766 C 10.04434967041016 70.1484375 6.979737281799316 65.6031494140625 4.839250087738037 60.54246139526367 C 2.62348747253418 55.30381393432617 1.5 49.73812484741211 1.5 44 C 1.5 38.26187515258789 2.62348747253418 32.69618606567383 4.839250087738037 27.45755004882812 C 6.979737281799316 22.3968505859375 10.04434967041016 17.85157585144043 13.94796276092529 13.94796276092529 C 17.85157585144043 10.04434967041016 22.3968505859375 6.979737281799316 27.45755004882812 4.839250087738037 C 32.69618606567383 2.62348747253418 38.26187515258789 1.5 44 1.5 C 49.73812484741211 1.5 55.30381393432617 2.62348747253418 60.54246139526367 4.839250087738037 C 65.6031494140625 6.979737281799316 70.1484375 10.04434967041016 74.05204010009766 13.94796276092529 C 77.95565032958984 17.85157585144043 81.020263671875 22.3968505859375 83.16075897216797 27.45755004882812 C 85.37651062011719 32.69618606567383 86.5 38.26187515258789 86.5 44 C 86.5 49.73812484741211 85.37651062011719 55.30381393432617 83.16075897216797 60.54246139526367 C 81.020263671875 65.6031494140625 77.95565032958984 70.1484375 74.05204010009766 74.05204010009766 C 70.1484375 77.95565032958984 65.6031494140625 81.020263671875 60.54246139526367 83.16075897216797 C 55.30381393432617 85.37651062011719 49.73812484741211 86.5 44 86.5 Z" stroke="none"/>
                                <path d="M 44 3 C 38.46371459960938 3 33.09462738037109 4.083610534667969 28.0418701171875 6.220756530761719 C 23.15997314453125 8.285614013671875 18.77495574951172 11.24228668212891 15.00862884521484 15.00862884521484 C 11.24228668212891 18.77495574951172 8.285614013671875 23.15997314453125 6.220756530761719 28.0418701171875 C 4.083610534667969 33.09462738037109 3 38.46371459960938 3 44 C 3 49.53628540039062 4.083610534667969 54.9053840637207 6.220756530761719 59.9581298828125 C 8.285614013671875 64.84002685546875 11.24228668212891 69.22504425048828 15.00862884521484 72.99138641357422 C 18.77495574951172 76.75771331787109 23.15997314453125 79.71438598632812 28.0418701171875 81.77925872802734 C 33.09462738037109 83.9163818359375 38.46371459960938 85 44 85 C 49.53628540039062 85 54.9053840637207 83.9163818359375 59.95814514160156 81.77925872802734 C 64.84002685546875 79.71438598632812 69.22504425048828 76.75771331787109 72.99138641357422 72.99138641357422 C 76.75771331787109 69.22504425048828 79.71438598632812 64.84002685546875 81.77925872802734 59.95814514160156 C 83.9163818359375 54.9053840637207 85 49.53628540039062 85 44 C 85 38.46371459960938 83.9163818359375 33.09462738037109 81.77925872802734 28.0418701171875 C 79.71438598632812 23.15997314453125 76.75771331787109 18.77495574951172 72.99138641357422 15.00862884521484 C 69.22504425048828 11.24228668212891 64.84002685546875 8.285614013671875 59.9581298828125 6.220756530761719 C 54.9053840637207 4.083610534667969 49.53628540039062 3 44 3 M 44 0 C 68.30054473876953 0 88 19.69947052001953 88 44 C 88 68.30054473876953 68.30054473876953 88 44 88 C 19.69947052001953 88 0 68.30054473876953 0 44 C 0 19.69947052001953 19.69947052001953 0 44 0 Z" stroke="none" fill="#fd660a"/>
                              </g>
                            </g>
                          </g>
                        </g>
                      </g>
                    </g>
                  </g>
                </g>
              </g>
            </g>
          </g>
        </g>
      </g>
    </g>
    <g id="Artboard501" transform="translate(216.48 481.401)">
      <g id="Grupo_1238510" data-name="Grupo 1238510" transform="translate(6.983 16.723)">
        <g id="Grupo_1238509" data-name="Grupo 1238509" transform="translate(0.894 1.506)">
          <g id="Grupo_1238506" data-name="Grupo 1238506" transform="translate(0 11.305)">
            <path id="Trazado_1257555" data-name="Trazado 1257555" d="M318.353,163.926l-.016-10.727c0-2.013.263-3.9,1.758-5.253a65.282,65.282,0,0,0,7.03-6.536,2.578,2.578,0,0,1,3.567,0,2.5,2.5,0,0,1,0,3.567l.794-.977a5.786,5.786,0,0,0,1.389-3.792l-.039-10.327c-.03-8.027,5.861-5.8,5.938-3.095l.539,19.011a5.938,5.938,0,0,1-1.817,4.5l-8.6,8.6v5.023a1.757,1.757,0,0,1-1.753,1.753h-7.035a1.757,1.757,0,0,1-1.754-1.751Z" transform="translate(-282.151 -124.302)" fill="#f6dccd" fill-rule="evenodd"/>
            <path id="Trazado_1257556" data-name="Trazado 1257556" d="M379.03,271.835a2.547,2.547,0,0,1-.375,3.105c-1.4,1.412-2.816,2.816-4.223,4.223a.965.965,0,0,1-1.365-1.365Z" transform="translate(-330.115 -254.265)" fill="#f1cbbc" fill-rule="evenodd"/>
            <path id="Trazado_1257557" data-name="Trazado 1257557" d="M318.353,316.4l-.016-10.727c0-2.013.263-3.9,1.758-5.253.892-.8,2.174-1.829,3.531-3.031v20.761h-3.519A1.757,1.757,0,0,1,318.353,316.4Z" transform="translate(-282.151 -276.781)" fill="#f1cbbc" fill-rule="evenodd"/>
            <path id="Trazado_1257558" data-name="Trazado 1257558" d="M293.562,437.957l14.944.128a1.318,1.318,0,0,1,1.3,1.325l-.025,2.877a1.318,1.318,0,0,1-1.325,1.3l-14.945-.128a1.318,1.318,0,0,1-1.3-1.325l.025-2.877A1.318,1.318,0,0,1,293.562,437.957Z" transform="translate(-259.137 -400.604)" fill="#d1d1d6" fill-rule="evenodd"/>
            <path id="Trazado_1257559" data-name="Trazado 1257559" d="M303.665,439.073l2.645.023,2.616.022a1.318,1.318,0,0,1,1.3,1.321l.009-1.028a1.318,1.318,0,0,0-1.3-1.325l-2.624-.023-5.27-.045-5.276-.045-1.774-.015a1.319,1.319,0,0,0-1.292,1.021l3.072.026,5.27.045,2.625.023Z" transform="translate(-259.566 -400.605)" fill="#b1b1b5" fill-rule="evenodd"/>
            <path id="Trazado_1257560" data-name="Trazado 1257560" d="M35.448,163.926l.016-10.727c0-2.013-.263-3.9-1.758-5.253a65.281,65.281,0,0,1-7.03-6.536,2.578,2.578,0,0,0-3.566,0,2.5,2.5,0,0,0,0,3.567L22.315,144a5.786,5.786,0,0,1-1.389-3.792l.04-10.327c.03-8.027-5.862-5.8-5.938-3.095L14.489,145.8a5.938,5.938,0,0,0,1.817,4.5l8.6,8.6v5.023a1.757,1.757,0,0,0,1.753,1.753h7.035a1.757,1.757,0,0,0,1.754-1.751Z" transform="translate(-14.486 -124.302)" fill="#f6dccd" fill-rule="evenodd"/>
            <path id="Trazado_1257561" data-name="Trazado 1257561" d="M80.988,271.835a2.547,2.547,0,0,0,.375,3.105c1.4,1.412,2.815,2.816,4.223,4.223a.965.965,0,0,0,1.365-1.365Z" transform="translate(-72.74 -254.265)" fill="#f1cbbc" fill-rule="evenodd"/>
            <path id="Trazado_1257562" data-name="Trazado 1257562" d="M151.5,316.4l.016-10.727c0-2.013-.263-3.9-1.758-5.253-.892-.8-2.174-1.829-3.531-3.031v20.761h3.519A1.757,1.757,0,0,0,151.5,316.4Z" transform="translate(-130.537 -276.781)" fill="#f1cbbc" fill-rule="evenodd"/>
            <path id="Trazado_1257563" data-name="Trazado 1257563" d="M85.245,437.957l-14.945.128A1.318,1.318,0,0,0,69,439.41l.025,2.877a1.318,1.318,0,0,0,1.325,1.3l14.945-.128a1.318,1.318,0,0,0,1.3-1.325l-.025-2.877A1.318,1.318,0,0,0,85.245,437.957Z" transform="translate(-62.506 -400.604)" fill="#d1d1d6" fill-rule="evenodd"/>
            <path id="Trazado_1257564" data-name="Trazado 1257564" d="M75.57,439.073l-2.645.023-2.616.022a1.318,1.318,0,0,0-1.3,1.321L69,439.411a1.318,1.318,0,0,1,1.3-1.325l2.624-.023,5.27-.045,5.276-.045,1.774-.015a1.319,1.319,0,0,1,1.292,1.021L83.465,439l-5.27.045-2.624.023Z" transform="translate(-62.506 -400.605)" fill="#b1b1b5" fill-rule="evenodd"/>
          </g>
          <g id="Grupo_1238507" data-name="Grupo 1238507" transform="translate(13.862)">
            <path id="Trazado_1257565" data-name="Trazado 1257565" d="M146.321,29.524l13.184,5.65a1.332,1.332,0,0,1,.822,1.248V47.429c0,8.734-6.255,15.48-14.719,16.956-8.464-1.476-14.719-8.221-14.719-16.956V36.422a1.332,1.332,0,0,1,.822-1.248l13.185-5.65A1.752,1.752,0,0,1,146.321,29.524Z" transform="translate(-130.89 -29.372)" fill="#6cf5c2" fill-rule="evenodd"/>
            <path id="Trazado_1257566" data-name="Trazado 1257566" d="M361.146,73.778l1.195.513a1.332,1.332,0,0,1,.822,1.248V86.546a16.89,16.89,0,0,1-2.017,8.1Z" transform="translate(-333.725 -68.49)" fill="#00e499" fill-rule="evenodd"/>
          </g>
          <g id="Grupo_1238508" data-name="Grupo 1238508" transform="translate(20.13 8.99)">
            <path id="Trazado_1257567" data-name="Trazado 1257567" d="M189.338,110.685v-5.224a.6.6,0,0,1,.6-.6h4.2a.6.6,0,0,1,.6.6v5.224h5.224a.6.6,0,0,1,.6.6v4.2a.6.6,0,0,1-.6.6h-5.224V121.3a.6.6,0,0,1-.6.6h-4.2a.6.6,0,0,1-.6-.6v-5.224h-5.224a.6.6,0,0,1-.6-.6v-4.2a.6.6,0,0,1,.6-.6Z" transform="translate(-183.519 -104.866)" fill="#fe646f" fill-rule="evenodd"/>
            <path id="Trazado_1257568" data-name="Trazado 1257568" d="M185.305,116.078h-1.191a.6.6,0,0,1-.6-.6v-4.2a.6.6,0,0,1,.6-.6h1.191a.6.6,0,0,0-.6.6v4.2a.6.6,0,0,0,.6.6Zm4.033-5.393v-5.224a.6.6,0,0,1,.6-.6h1.191a.6.6,0,0,0-.6.6v5.224Zm1.786,11.212h-1.191a.6.6,0,0,1-.6-.6v-5.224h1.191V121.3a.6.6,0,0,0,.6.6Z" transform="translate(-183.519 -104.866)" fill="#fd4755" fill-rule="evenodd"/>
          </g>
        </g>
        <path id="Trazado_1257569" data-name="Trazado 1257569" d="M55.645,66.058l1.376.012h.01a2.279,2.279,0,0,1,2.242,2.289v.009s-.028,2.866-.028,2.865a2.266,2.266,0,0,1-2.287,2.242l-14.9-.127A2.272,2.272,0,0,1,39.8,71.074s0-.006,0-.009.028-2.866.028-2.865A2.288,2.288,0,0,1,42.1,65.943h.008l1.1.009L43.2,58.458h0c0-2.276.375-4.416,2.073-5.94a65.288,65.288,0,0,0,6.93-6.435.95.95,0,0,1,.088-.091,3.512,3.512,0,0,1,4.868.03,4.01,4.01,0,0,1,.447.522,4.876,4.876,0,0,0,.109-1.04L57.678,35.2h0c-.013-3.766,1.258-5.537,2.584-6.189a3.6,3.6,0,0,1,3.473.241A3.558,3.558,0,0,1,65.5,32.07l.549,18.975s0,0,0,0a6.937,6.937,0,0,1-2.089,5.194l0,0-8.314,8.3Zm-10.524-.089,8.618.073V64.153a.953.953,0,0,1,.28-.674L62.611,54.9a5.089,5.089,0,0,0,1.538-3.8L63.6,32.125v0a1.628,1.628,0,0,0-.861-1.251c-1.358-.833-3.171-.035-3.155,4.317l.042,10.31v0a6.713,6.713,0,0,1-1.606,4.385l0,0-.7.858-.022.026h0c-1.363,1.548-2.825,2.856-4.344,4.375A.953.953,0,1,1,51.6,53.8c1.481-1.481,2.908-2.755,4.238-4.261a1.549,1.549,0,0,0-.014-2.166l0,0a1.613,1.613,0,0,0-2.2,0,68.2,68.2,0,0,1-7.06,6.563l0,0c-1.282,1.149-1.441,2.805-1.441,4.523Zm-3.02,1.88h0a.365.365,0,0,0-.362.355s0,.006,0,.009-.028,2.863-.028,2.867a.363.363,0,0,0,.355.362h.008l14.909.127h.011a.346.346,0,0,0,.351-.342v-.009s.028-2.863.028-2.868a.381.381,0,0,0-.37-.376Zm2.492,1.467a1.083,1.083,0,1,1-2.011.8,1.083,1.083,0,1,1,2.011-.8ZM17.38,66.058v-1.51l-8.3-8.3a6.883,6.883,0,0,1-2.093-5.2v0L7.52,32.071v0A3.575,3.575,0,0,1,9.3,29.247a3.6,3.6,0,0,1,3.475-.241c1.327.652,2.6,2.423,2.586,6.189h0l-.042,10.31v.005a4.658,4.658,0,0,0,.1,1.039,3.99,3.99,0,0,1,.449-.525,3.515,3.515,0,0,1,4.872-.034.964.964,0,0,1,.09.093,62.677,62.677,0,0,0,6.926,6.43c1.7,1.524,2.075,3.665,2.075,5.942h0l-.011,7.495,1.1-.009h.008a2.3,2.3,0,0,1,2.275,2.242s0,.006,0,.009l.028,2.869v.009a2.288,2.288,0,0,1-2.256,2.275l-14.9.126a2.272,2.272,0,0,1-2.3-2.228s0-.009,0-.014-.014-2.864-.014-2.86a2.272,2.272,0,0,1,2.228-2.3H16Zm10.538-.089.011-7.513c0-1.718-.159-3.373-1.441-4.523h0a65.522,65.522,0,0,1-7.064-6.567,1.609,1.609,0,0,0-2.2,0l-.01.01a1.549,1.549,0,0,0-.014,2.166c1.331,1.507,2.759,2.782,4.227,4.264a.953.953,0,1,1-1.354,1.341c-1.5-1.519-2.965-2.826-4.328-4.372h0l-.016-.019-.717-.858L15,49.881A6.7,6.7,0,0,1,13.413,45.5l.042-10.308c.008-2.366-.477-3.71-1.266-4.314a1.648,1.648,0,0,0-1.9,0,1.644,1.644,0,0,0-.87,1.254L8.89,51.1a5.039,5.039,0,0,0,1.536,3.8l8.58,8.58a.953.953,0,0,1,.279.674v1.889Zm3.02,1.88-14.915.127a.363.363,0,0,0-.353.365s0,.009,0,.014.014,2.86.014,2.863a.363.363,0,0,0,.365.353h.01l14.91-.127h.008a.366.366,0,0,0,.355-.367S31.3,68.22,31.3,68.216a.378.378,0,0,0-.367-.367Zm-.481,1.467a1.083,1.083,0,1,1-1.407-.6A1.073,1.073,0,0,1,30.457,69.316Zm6.438-51.959,14.655,6.282a.952.952,0,0,1,.577.876v11.85A18.063,18.063,0,0,1,37.217,54.089l-.534.093a.949.949,0,0,1-.328,0l-.534-.093a18.063,18.063,0,0,1-14.91-17.726V24.513a.952.952,0,0,1,.577-.876l14.655-6.282A.953.953,0,0,1,36.895,17.356Zm-.375,1.912-13.7,5.873V36.363A16.151,16.151,0,0,0,36.149,52.212l.37.065.37-.065A16.151,16.151,0,0,0,50.221,36.363V25.142ZM32.87,32.088V27.222a.953.953,0,0,1,.953-.953h5.393a.953.953,0,0,1,.953.953v4.866h4.866a.953.953,0,0,1,.953.953v5.393a.953.953,0,0,1-.953.953H40.169v4.866a.953.953,0,0,1-.953.953H33.823a.953.953,0,0,1-.953-.953V39.387H28a.953.953,0,0,1-.953-.953V33.041A.953.953,0,0,1,28,32.088Zm.953,1.905H28.956v3.488h4.866a.953.953,0,0,1,.953.953V43.3h3.488V38.434a.953.953,0,0,1,.953-.953h4.866V33.994H39.216a.953.953,0,0,1-.953-.953V28.175H34.775v4.866A.953.953,0,0,1,33.823,33.994Zm-17.07-13.9a.953.953,0,1,1-1.905,0V17.676a.953.953,0,1,1,1.905,0Zm-3.007,1.1a.953.953,0,1,1,0,1.905H11.332a.953.953,0,1,1,0-1.905Zm1.1,3.007a.953.953,0,0,1,1.905,0v2.413a.953.953,0,0,1-1.905,0Zm3.007-1.1a.953.953,0,1,1,0-1.905h2.413a.953.953,0,1,1,0,1.905ZM58.41,20.089a.953.953,0,1,1-1.905,0V17.676a.953.953,0,1,1,1.905,0Zm-3.007,1.1a.953.953,0,1,1,0,1.905H52.99a.953.953,0,1,1,0-1.905ZM56.5,24.2a.953.953,0,0,1,1.905,0v2.413a.953.953,0,0,1-1.905,0Zm3.007-1.1a.953.953,0,1,1,0-1.905h2.413a.953.953,0,1,1,0,1.905Z" transform="translate(-6.983 -16.723)" fill-rule="evenodd"/>
      </g>
    </g>
  </g>
</svg>
