<svg xmlns="http://www.w3.org/2000/svg" xmlns:xlink="http://www.w3.org/1999/xlink" width="113" height="113" viewBox="0 0 113 113">
  <defs>
    <filter id="Trazado_982547" x="0" y="0" width="113" height="113" filterUnits="userSpaceOnUse">
      <feOffset dy="3" input="SourceAlpha"/>
      <feGaussianBlur stdDeviation="3" result="blur"/>
      <feFlood flood-opacity="0.161"/>
      <feComposite operator="in" in2="blur"/>
      <feComposite in="SourceGraphic"/>
    </filter>
  </defs>
  <g id="Grupo_1237518" data-name="Grupo 1237518" transform="translate(-271.424 -4391.069)">
    <g id="Grupo_1237150" data-name="Grupo 1237150" transform="translate(0 -5547.425)">
      <g id="Grupo_1234688" data-name="Grupo 1234688" transform="translate(0 -44.352)">
        <g id="Grupo_1231178" data-name="Grupo 1231178" transform="translate(0 4365)">
          <g id="Grupo_1230686" data-name="Grupo 1230686" transform="translate(0 -2146.377)">
            <g id="Grupo_1229014" data-name="Grupo 1229014" transform="translate(0 2131.042)">
              <g id="Grupo_1227502" data-name="Grupo 1227502" transform="translate(0 2048.198)">
                <g id="Grupo_1225350" data-name="Grupo 1225350" transform="translate(-0.575 -393.641)">
                  <g id="Grupo_1208121" data-name="Grupo 1208121" transform="translate(0 -1922.377)">
                    <g id="Grupo_1202432" data-name="Grupo 1202432" transform="translate(0 1255.486)">
                      <g id="Grupo_1202055" data-name="Grupo 1202055" transform="translate(0 3240.511)">
                        <g id="Grupo_1177900" data-name="Grupo 1177900" transform="translate(281 1411.003)">
                          <g id="Grupo_1172010" data-name="Grupo 1172010" transform="translate(0)">
                            <g id="Grupo_1171046" data-name="Grupo 1171046">
                              <g id="Grupo_1148525" data-name="Grupo 1148525">
                                <g transform="matrix(1, 0, 0, 1, -9, -6)" filter="url(#Trazado_982547)">
                                  <g id="Trazado_982547-2" data-name="Trazado 982547" transform="translate(9 6)" fill="#d6ccfe">
                                    <path d="M 47.5 93.5 C 41.28937149047852 93.5 35.26533508300781 92.28397369384766 29.59518623352051 89.88570404052734 C 24.11771965026855 87.56893157958984 19.19813346862793 84.25196075439453 14.97309303283691 80.02691650390625 C 10.74804019927979 75.80186462402344 7.431066513061523 70.88229370117188 5.114293098449707 65.40481567382812 C 2.716026782989502 59.73468017578125 1.5 53.71062850952148 1.5 47.5 C 1.5 41.28937149047852 2.716026782989502 35.26533508300781 5.114293098449707 29.59518623352051 C 7.431066513061523 24.11771965026855 10.74804019927979 19.19813346862793 14.97309303283691 14.97309303283691 C 19.19813346862793 10.74804019927979 24.11771965026855 7.431066513061523 29.59518623352051 5.114293098449707 C 35.26533508300781 2.716026782989502 41.28937149047852 1.5 47.5 1.5 C 53.71062850952148 1.5 59.73468017578125 2.716026782989502 65.40481567382812 5.114293098449707 C 70.88229370117188 7.431066513061523 75.80186462402344 10.74804019927979 80.02691650390625 14.97309303283691 C 84.25196075439453 19.19813346862793 87.56893157958984 24.11771965026855 89.88570404052734 29.59518623352051 C 92.28397369384766 35.26533508300781 93.5 41.28937149047852 93.5 47.5 C 93.5 53.71062850952148 92.28397369384766 59.73468017578125 89.88570404052734 65.40481567382812 C 87.56893157958984 70.88229370117188 84.25196075439453 75.80186462402344 80.02691650390625 80.02691650390625 C 75.80186462402344 84.25196075439453 70.88229370117188 87.56893157958984 65.40481567382812 89.88570404052734 C 59.73468017578125 92.28397369384766 53.71062850952148 93.5 47.5 93.5 Z" stroke="none"/>
                                    <path d="M 47.5 3 C 41.49121475219727 3 35.66376876831055 4.176155090332031 30.17950439453125 6.495796203613281 C 24.88084411621094 8.736953735351562 20.12152099609375 11.94598388671875 16.03375244140625 16.03375244140625 C 11.94598388671875 20.12152099609375 8.736953735351562 24.88084411621094 6.495796203613281 30.17950439453125 C 4.176155090332031 35.66376876831055 3 41.49121475219727 3 47.5 C 3 53.50878524780273 4.176155090332031 59.33623123168945 6.495796203613281 64.82049560546875 C 8.736953735351562 70.11915588378906 11.94598388671875 74.87847900390625 16.03375244140625 78.96624755859375 C 20.12152099609375 83.05401611328125 24.88084411621094 86.26304626464844 30.17950439453125 88.50419616699219 C 35.66376876831055 90.82384490966797 41.49121475219727 92 47.5 92 C 53.50878524780273 92 59.33623123168945 90.82384490966797 64.82049560546875 88.50419616699219 C 70.11915588378906 86.26304626464844 74.87847900390625 83.05401611328125 78.96624755859375 78.96624755859375 C 83.05401611328125 74.87847900390625 86.26304626464844 70.11915588378906 88.50419616699219 64.82049560546875 C 90.82384490966797 59.33623123168945 92 53.50878524780273 92 47.5 C 92 41.49121475219727 90.82384490966797 35.66376876831055 88.50419616699219 30.17950439453125 C 86.26304626464844 24.88084411621094 83.05401611328125 20.12152099609375 78.96624755859375 16.03375244140625 C 74.87847900390625 11.94598388671875 70.11915588378906 8.736953735351562 64.82049560546875 6.495796203613281 C 59.33623123168945 4.176155090332031 53.50878524780273 3 47.5 3 M 47.5 0 C 73.7335205078125 0 95 21.2664794921875 95 47.5 C 95 73.7335205078125 73.7335205078125 95 47.5 95 C 21.2664794921875 95 0 73.7335205078125 0 47.5 C 0 21.2664794921875 21.2664794921875 0 47.5 0 Z" stroke="none" fill="#7958fb"/>
                                  </g>
                                </g>
                              </g>
                            </g>
                          </g>
                        </g>
                      </g>
                    </g>
                  </g>
                </g>
              </g>
            </g>
          </g>
        </g>
      </g>
    </g>
    <g id="accidente" transform="translate(293.96 4376.913)">
      <g id="Grupo_1237511" data-name="Grupo 1237511" transform="translate(23.551 45.08)">
        <path id="Trazado_1256393" data-name="Trazado 1256393" d="M200.689,68.281l7.677,2.347,1.369-7.008,3.718,6.786,5.482-2.65-3.2,8.422a3.611,3.611,0,0,0-4.023.553l-2.022,1.824Z" transform="translate(-200.689 -63.621)" fill="#ffce62"/>
      </g>
      <g id="Grupo_1237512" data-name="Grupo 1237512" transform="translate(16.11 74.833)">
        <path id="Trazado_1256394" data-name="Trazado 1256394" d="M164.189,333.848h15.893V317.157H149.918a3.284,3.284,0,0,1-6.433,0h-1.142a5.061,5.061,0,0,0-5.061,5.06v11.631h26.907Z" transform="translate(-137.282 -317.157)" fill="#fff"/>
      </g>
      <g id="Grupo_1237514" data-name="Grupo 1237514" transform="translate(32.904 59.822)">
        <g id="Grupo_1237513" data-name="Grupo 1237513">
          <path id="Trazado_1256395" data-name="Trazado 1256395" d="M302.677,199.584a1.292,1.292,0,0,1-.833-2.014l2.165-3.1-2.839-2.839-3.1,2.165a1.292,1.292,0,0,1-2.014-.834c-.34-1.925-.658-3.72-.658-3.72h-4.015s-.318,1.8-.658,3.72a1.291,1.291,0,0,1-2.013.834l-3.1-2.165-2.839,2.839s1.046,1.494,2.165,3.1a1.292,1.292,0,0,1-.833,2.014l-3.721.657v4.016h9.594a3.957,3.957,0,1,1,6.82,0H306.4v-4.016l-3.721-.657Z" transform="translate(-280.392 -189.247)" fill="#9ebccf"/>
        </g>
      </g>
      <g id="Grupo_1237515" data-name="Grupo 1237515" transform="translate(22.242 67.645)">
        <path id="Trazado_1256396" data-name="Trazado 1256396" d="M195.979,261.519a3.529,3.529,0,0,0-.213-.548l-2.338-4.684a.68.68,0,0,0-1.217,0l-2.338,4.684a3.288,3.288,0,1,0,6.235,1.46A3.278,3.278,0,0,0,195.979,261.519Z" transform="translate(-189.531 -255.91)" fill="#ff5c7d"/>
      </g>
      <g id="Grupo_1237516" data-name="Grupo 1237516" transform="translate(1.174 43.789)">
        <path id="Trazado_1256397" data-name="Trazado 1256397" d="M10,52.617l13.866,6.707a13.233,13.233,0,0,1,4.194,3.183l8.112,9.281a2.83,2.83,0,0,1-4.234,3.757l-6.3-7.007-.074-.141a2.613,2.613,0,0,0-1.182-1.144l-5.609-2.7,5.609,2.7A2.633,2.633,0,1,1,22.1,72l-7.339-3.535a4.612,4.612,0,0,1-2.352-2.632l-1.3-3.707A1.382,1.382,0,0,0,10,61.209V52.617Z" transform="translate(-10.002 -52.617)" fill="#ffc6ae"/>
      </g>
      <g id="Grupo_1237517" data-name="Grupo 1237517" transform="translate(0 42.615)">
        <path id="Trazado_1256398" data-name="Trazado 1256398" d="M199.982,70.5a1.174,1.174,0,0,0,1.766-1.546l-6.284-7.175,3.736,1.142a1.185,1.185,0,0,0,1.495-.9l.747-3.823,2.159,3.941a1.174,1.174,0,0,0,1.54.493l2.827-1.367-2.153,5.666a1.173,1.173,0,1,0,2.194.834l3.2-8.422a1.174,1.174,0,0,0-1.608-1.473l-4.478,2.164-3.182-5.808a1.174,1.174,0,0,0-2.181.339L198.64,60.3l-6.432-1.967a1.173,1.173,0,0,0-1.226,1.9Z" transform="translate(-168.313 -52.327)"/>
        <path id="Trazado_1256399" data-name="Trazado 1256399" d="M59.115,69.661,55.394,69a.123.123,0,0,1-.076-.185l2.165-3.1a1.174,1.174,0,0,0-.132-1.5l-2.839-2.839a1.174,1.174,0,0,0-1.5-.132l-3.1,2.165a.119.119,0,0,1-.185-.077l-.658-3.72a1.174,1.174,0,0,0-1.156-.969H43.9a1.174,1.174,0,0,0-1.156.969s-.318,1.8-.658,3.721a.119.119,0,0,1-.185.076L38.8,61.25a1.174,1.174,0,0,0-1.5.132L34.464,64.22a1.174,1.174,0,0,0-.132,1.5l2.166,3.1a.119.119,0,0,1-.077.184l-3.721.657a1.173,1.173,0,0,0-.97,1.156v2.842H29.96a4.424,4.424,0,0,0-.433-1.477L27.5,68.119a4,4,0,0,0,.731-5.933L20.115,52.9a14.327,14.327,0,0,0-4.564-3.464L1.685,42.732A1.173,1.173,0,1,0,.663,44.845l13.868,6.707a11.992,11.992,0,0,1,3.819,2.9l8.115,9.284a1.654,1.654,0,0,1,.248,1.813,1.657,1.657,0,0,1-2.725.389l-6.2-6.911a3.778,3.778,0,0,0-1.718-1.658l-5.609-2.7A1.174,1.174,0,0,0,9.44,56.779l5.609,2.7a1.478,1.478,0,0,1,.682,1.949,1.462,1.462,0,0,1-1.949.682L6.443,58.576A3.415,3.415,0,0,1,4.69,56.613l-1.3-3.707a2.546,2.546,0,0,0-2.056-1.687,1.174,1.174,0,0,0-.327,2.324.208.208,0,0,1,.168.138l1.3,3.707a5.748,5.748,0,0,0,2.95,3.3l7.339,3.535a3.811,3.811,0,0,0,5.045-1.7L22.238,67.5a4.006,4.006,0,0,0,1.181.905L21.534,72.18a4.49,4.49,0,0,0-.436,1.481,6.241,6.241,0,0,0-6.161,6.232V90.35H8.166a1.174,1.174,0,1,0,0,2.347H32.691a1.174,1.174,0,1,0,0-2.347H17.284V79.893a3.892,3.892,0,0,1,3.888-3.887h.3a4.444,4.444,0,0,0,8.107,0H57.737V90.35H43.017a1.174,1.174,0,1,0,0,2.347H58.911a1.174,1.174,0,0,0,1.174-1.174V70.817a1.174,1.174,0,0,0-.97-1.156ZM23.633,73.23l1.9-3.8,1.893,3.792a2.107,2.107,0,0,1-3.742,1.937A2.076,2.076,0,0,1,23.633,73.23Zm19.491-.405a2.784,2.784,0,1,1,5.438.834h-5.31A2.789,2.789,0,0,1,43.125,72.825Zm7.846.834a5.13,5.13,0,1,0-10.125,0H34.078V71.8l2.752-.486a2.488,2.488,0,0,0,1.591-3.842l-1.6-2.29,1.447-1.447,2.289,1.6A2.488,2.488,0,0,0,44.4,63.747c.184-1.044.362-2.049.487-2.751H46.93l.487,2.75a2.488,2.488,0,0,0,3.842,1.592l2.289-1.6L55,65.184l-1.6,2.289a2.489,2.489,0,0,0,1.591,3.842l2.752.486v1.858Z" transform="translate(0 -42.615)"/>
        <path id="Trazado_1256400" data-name="Trazado 1256400" d="M315.805,450.237a1.174,1.174,0,1,0-.476,1.452A1.183,1.183,0,0,0,315.805,450.237Z" transform="translate(-276.754 -401.777)"/>
        <path id="Trazado_1256401" data-name="Trazado 1256401" d="M382.374,125.506a17.648,17.648,0,0,1,8.755,2.29l-.98.2a1.174,1.174,0,0,0,.463,2.3l3.735-.752a1.185,1.185,0,0,0,.912-1.415l-.9-3.9a1.173,1.173,0,1,0-2.286.53l.232,1a19.971,19.971,0,0,0-9.928-2.6,1.173,1.173,0,0,0,0,2.347Z" transform="translate(-336.467 -113.707)"/>
      </g>
    </g>
  </g>
</svg>
