<svg xmlns="http://www.w3.org/2000/svg" xmlns:xlink="http://www.w3.org/1999/xlink" width="106" height="106" viewBox="0 0 106 106">
  <defs>
    <filter id="Trazado_982547" x="0" y="0" width="106" height="106" filterUnits="userSpaceOnUse">
      <feOffset dy="3" input="SourceAlpha"/>
      <feGaussianBlur stdDeviation="3" result="blur"/>
      <feFlood flood-opacity="0.161"/>
      <feComposite operator="in" in2="blur"/>
      <feComposite in="SourceGraphic"/>
    </filter>
  </defs>
  <g id="Grupo_1237250" data-name="Grupo 1237250" transform="translate(-619.999 -532.822)">
    <g id="Grupo_1237143" data-name="Grupo 1237143" transform="translate(0 -2561.178)">
      <g id="Grupo_1234670" data-name="Grupo 1234670" transform="translate(629 3100)">
        <g id="Grupo_1173169" data-name="Grupo 1173169">
          <g id="Grupo_1172017" data-name="Grupo 1172017">
            <g id="Grupo_1167337" data-name="Grupo 1167337">
              <g id="Grupo_1166720" data-name="Grupo 1166720">
                <g id="Grupo_1164305" data-name="Grupo 1164305">
                  <g id="Grupo_1163948" data-name="Grupo 1163948">
                    <g id="Grupo_1158168" data-name="Grupo 1158168">
                      <g id="Grupo_1152576" data-name="Grupo 1152576">
                        <g id="Grupo_1148633" data-name="Grupo 1148633">
                          <g id="Grupo_1148525" data-name="Grupo 1148525">
                            <g transform="matrix(1, 0, 0, 1, -9, -6)" filter="url(#Trazado_982547)">
                              <g id="Trazado_982547-2" data-name="Trazado 982547" transform="translate(9 6)" fill="#feeee5">
                                <path d="M 44 86.5 C 38.26187515258789 86.5 32.69618606567383 85.37651062011719 27.45755004882812 83.16075897216797 C 22.3968505859375 81.020263671875 17.85157585144043 77.95565032958984 13.94796276092529 74.05204010009766 C 10.04434967041016 70.1484375 6.979737281799316 65.6031494140625 4.839250087738037 60.54246139526367 C 2.62348747253418 55.30381393432617 1.5 49.73812484741211 1.5 44 C 1.5 38.26187515258789 2.62348747253418 32.69618606567383 4.839250087738037 27.45755004882812 C 6.979737281799316 22.3968505859375 10.04434967041016 17.85157585144043 13.94796276092529 13.94796276092529 C 17.85157585144043 10.04434967041016 22.3968505859375 6.979737281799316 27.45755004882812 4.839250087738037 C 32.69618606567383 2.62348747253418 38.26187515258789 1.5 44 1.5 C 49.73812484741211 1.5 55.30381393432617 2.62348747253418 60.54246139526367 4.839250087738037 C 65.6031494140625 6.979737281799316 70.1484375 10.04434967041016 74.05204010009766 13.94796276092529 C 77.95565032958984 17.85157585144043 81.020263671875 22.3968505859375 83.16075897216797 27.45755004882812 C 85.37651062011719 32.69618606567383 86.5 38.26187515258789 86.5 44 C 86.5 49.73812484741211 85.37651062011719 55.30381393432617 83.16075897216797 60.54246139526367 C 81.020263671875 65.6031494140625 77.95565032958984 70.1484375 74.05204010009766 74.05204010009766 C 70.1484375 77.95565032958984 65.6031494140625 81.020263671875 60.54246139526367 83.16075897216797 C 55.30381393432617 85.37651062011719 49.73812484741211 86.5 44 86.5 Z" stroke="none"/>
                                <path d="M 44 3 C 38.46371459960938 3 33.09462738037109 4.083610534667969 28.0418701171875 6.220756530761719 C 23.15997314453125 8.285614013671875 18.77495574951172 11.24228668212891 15.00862884521484 15.00862884521484 C 11.24228668212891 18.77495574951172 8.285614013671875 23.15997314453125 6.220756530761719 28.0418701171875 C 4.083610534667969 33.09462738037109 3 38.46371459960938 3 44 C 3 49.53628540039062 4.083610534667969 54.9053840637207 6.220756530761719 59.9581298828125 C 8.285614013671875 64.84002685546875 11.24228668212891 69.22504425048828 15.00862884521484 72.99138641357422 C 18.77495574951172 76.75771331787109 23.15997314453125 79.71438598632812 28.0418701171875 81.77925872802734 C 33.09462738037109 83.9163818359375 38.46371459960938 85 44 85 C 49.53628540039062 85 54.9053840637207 83.9163818359375 59.95814514160156 81.77925872802734 C 64.84002685546875 79.71438598632812 69.22504425048828 76.75771331787109 72.99138641357422 72.99138641357422 C 76.75771331787109 69.22504425048828 79.71438598632812 64.84002685546875 81.77925872802734 59.95814514160156 C 83.9163818359375 54.9053840637207 85 49.53628540039062 85 44 C 85 38.46371459960938 83.9163818359375 33.09462738037109 81.77925872802734 28.0418701171875 C 79.71438598632812 23.15997314453125 76.75771331787109 18.77495574951172 72.99138641357422 15.00862884521484 C 69.22504425048828 11.24228668212891 64.84002685546875 8.285614013671875 59.9581298828125 6.220756530761719 C 54.9053840637207 4.083610534667969 49.53628540039062 3 44 3 M 44 0 C 68.30054473876953 0 88 19.69947052001953 88 44 C 88 68.30054473876953 68.30054473876953 88 44 88 C 19.69947052001953 88 0 68.30054473876953 0 44 C 0 19.69947052001953 19.69947052001953 0 44 0 Z" stroke="none" fill="#fd660a"/>
                              </g>
                            </g>
                          </g>
                        </g>
                      </g>
                    </g>
                  </g>
                </g>
              </g>
            </g>
          </g>
        </g>
      </g>
    </g>
    <g id="Fill_Outline" data-name="Fill Outline" transform="translate(642.005 550.822)">
      <circle id="Elipse_14661" data-name="Elipse 14661" cx="27" cy="27" r="27" transform="translate(4 3)" fill="#bbf58b"/>
      <circle id="Elipse_14662" data-name="Elipse 14662" cx="24" cy="24" r="24" transform="translate(7 6)" fill="#80e1b8"/>
      <path id="Trazado_1255915" data-name="Trazado 1255915" d="M47,23.911a10.1,10.1,0,0,0-9.48-9.9,9.984,9.984,0,0,0-9.415,5.43,16.2,16.2,0,0,1-5.018,5.494A9.982,9.982,0,0,0,19,33.089a10.1,10.1,0,0,0,9.479,9.9,9.987,9.987,0,0,0,9.417-5.43,16.19,16.19,0,0,1,5.016-5.494A9.98,9.98,0,0,0,47,23.911Z" fill="#3aba80"/>
      <path id="Trazado_1255916" data-name="Trazado 1255916" d="M24.251,9.005a6.17,6.17,0,0,0-5.431,3.17,5.473,5.473,0,0,0-.792,2.283A2.721,2.721,0,0,1,16.651,16.6a5,5,0,1,0,7.059,6.087,3.044,3.044,0,0,1,2-1.93A6,6,0,0,0,24.251,9.005Z" fill="#ffc569"/>
      <path id="Trazado_1255917" data-name="Trazado 1255917" d="M35,25v4A12,12,0,1,1,24.618,47H20.174A16,16,0,1,0,35,25Z" fill="#2070a1"/>
      <path id="Trazado_1255918" data-name="Trazado 1255918" d="M31.646,16.354h10v18h-10Z" transform="translate(28.661 -18.487) rotate(45)" fill="#92e5eb"/>
      <path id="Trazado_1255919" data-name="Trazado 1255919" d="M25.868,31.132h6v4h-6Z" transform="translate(31.883 -10.709) rotate(45)" fill="#34b2e4"/>
      <path id="Trazado_1255920" data-name="Trazado 1255920" d="M24.04,33.96h4v4h-4Z" transform="translate(33.055 -7.88) rotate(45)" fill="#92e5eb"/>
      <path id="Trazado_1255921" data-name="Trazado 1255921" d="M42.132,13.868h6v6h-6Z" transform="translate(25.146 -26.972) rotate(45)" fill="#68cbf2"/>
      <path id="Trazado_1255922" data-name="Trazado 1255922" d="M15,43H31v4H15Z" fill="#92e5eb"/>
      <path id="Trazado_1255923" data-name="Trazado 1255923" d="M30,57H41a4,4,0,0,1,4,4H26A4,4,0,0,1,30,57Z" fill="#34b2e4"/>
      <path id="Trazado_1255924" data-name="Trazado 1255924" d="M39.475,25.6a8,8,0,0,1-10.7.556l-2.03,2.03,7.071,7.071,12.73-12.732-2-2Z" fill="#68cbf2"/>
      <path id="Trazado_1255925" data-name="Trazado 1255925" d="M44.17,27.9a2.6,2.6,0,0,0,.054,3.71,15.973,15.973,0,0,1,1.042,21.655A15.981,15.981,0,0,0,44.17,27.9Z" fill="#34b2e4"/>
      <path id="Trazado_1255926" data-name="Trazado 1255926" d="M47.96,16.282a4,4,0,0,1-5.657,0l-.414-.414-1,1,4.243,4.243,4.242-4.243-1-1Z" fill="#2070a1"/>
      <path id="Trazado_1255927" data-name="Trazado 1255927" d="M28.161,29.6l-1,1,1.121,1.122a2.99,2.99,0,0,1,.264,3.92l1.029,1.029L32.4,33.839Z" fill="#2070a1"/>
      <path id="Trazado_1255928" data-name="Trazado 1255928" d="M26.04,33.132l-1,1,.414.414a2,2,0,0,1,0,2.828l-.414.415,1,1,2.828-2.829Z" fill="#68cbf2"/>
      <path id="Trazado_1255929" data-name="Trazado 1255929" d="M17,43H15v4H31V45H19A2,2,0,0,1,17,43Z" fill="#68cbf2"/>
      <path id="Trazado_1255930" data-name="Trazado 1255930" d="M31,59a1.993,1.993,0,0,1-1.986-1.863A3.991,3.991,0,0,0,26,61H45a3.955,3.955,0,0,0-.555-2Z" fill="#2070a1"/>
      <circle id="Elipse_14663" data-name="Elipse 14663" cx="2" cy="2" r="2" transform="translate(22 13)" fill="#68cbf2"/>
      <path id="Trazado_1255931" data-name="Trazado 1255931" d="M12.6,30.734l1.057-.176A3.5,3.5,0,0,1,16.89,36.3l-1.879,2.193a3.5,3.5,0,0,1-5.577-.337l-.2-.306a3.5,3.5,0,0,1-.093-3.75l1.026-1.71A3.505,3.505,0,0,1,12.6,30.734Z" fill="#ffc569"/>
      <path id="Trazado_1255932" data-name="Trazado 1255932" d="M26.713,15.752a3.044,3.044,0,0,0-2,1.93,5,5,0,0,1-9.421-.008,4.994,4.994,0,1,0,8.421,5.008,3.044,3.044,0,0,1,2-1.93,5.973,5.973,0,0,0,4.107-7.186,6.007,6.007,0,0,1-3.107,2.186Z" fill="#f06e7a"/>
      <path id="Trazado_1255933" data-name="Trazado 1255933" d="M16.011,35.488a3.505,3.505,0,0,1-5.577-.337l-.2-.306a3.5,3.5,0,0,1-.565-1.62l-.524.873a3.5,3.5,0,0,0,.089,3.747l.2.306a3.505,3.505,0,0,0,5.577.337L16.89,36.3a3.5,3.5,0,0,0,.793-2.759Z" fill="#f06e7a"/>
      <g id="Grupo_1237249" data-name="Grupo 1237249">
        <path id="Trazado_1255934" data-name="Trazado 1255934" d="M31,2A28,28,0,0,0,20.283,55.871a1,1,0,1,0,.766-1.848A26,26,0,1,1,54.038,42.049a1,1,0,1,0,1.772.929A28,28,0,0,0,31,2Z" fill="#2f2f31"/>
        <path id="Trazado_1255935" data-name="Trazado 1255935" d="M43.932,26.553l3.321-3.321a1,1,0,0,0,0-1.414l-.707-.707,2.828-2.829.708.708A1,1,0,0,0,51.5,17.576L44.425,10.5a1,1,0,1,0-1.414,1.414l.707.707L40.889,15.45l-.707-.707a1.029,1.029,0,0,0-1.414,0l-4.1,4.1a1,1,0,1,0,1.414,1.414l3.389-3.389.707.707L42.3,19.7l2.829,2.828-6.58,6.58-4.734,4.733-5.657-5.657,5.1-5.1a1,1,0,1,0-1.414-1.414l-5.8,5.8a1,1,0,0,0,0,1.414l.707.707L24.63,31.713a1,1,0,0,0,0,1.414L22.5,35.253a1,1,0,0,0,0,1.414L25.333,39.5a1,1,0,0,0,1.414,0l2.121-2.122a1,1,0,0,0,1.414,0L32.4,35.253l.707.707a1,1,0,0,0,1.414,0L39.5,30.982A10.985,10.985,0,1,1,26.553,48H31a1,1,0,0,0,0-2H16V44H31a1,1,0,0,0,0-2H15a1,1,0,0,0-1,1v4a1,1,0,0,0,1,1h4.528a16.929,16.929,0,0,0,8.4,8.462A5,5,0,0,0,25,61a1,1,0,0,0,1,1H45a1,1,0,0,0,1-1,4.99,4.99,0,0,0-3.511-4.748,17.016,17.016,0,0,0,6.564-5.689A1,1,0,1,0,47.4,49.437,14.984,14.984,0,0,1,21.749,48h2.315A12.987,12.987,0,1,0,41,29.489l1.475-1.475A14.952,14.952,0,0,1,48.9,46.625a1,1,0,1,0,1.854.75,16.956,16.956,0,0,0-6.821-20.822Zm1.2-12.513,2.828,2.828L45.132,19.7l-1.415-1.415L42.3,16.868ZM26.04,37.375,24.625,35.96l1.415-1.414,1.414,1.414Zm3.535-2.122-2.828-2.828,1.414-1.414,2.828,2.828ZM41,58a3.006,3.006,0,0,1,2.829,2H27.171A3.006,3.006,0,0,1,30,58Z" fill="#2f2f31"/>
        <path id="Trazado_1255936" data-name="Trazado 1255936" d="M27,15a3,3,0,1,0-3,3A3,3,0,0,0,27,15Zm-4,0a1,1,0,1,1,1,1A1,1,0,0,1,23,15Z" fill="#2f2f31"/>
        <path id="Trazado_1255937" data-name="Trazado 1255937" d="M24.651,23.019A2.033,2.033,0,0,1,26,21.71a7,7,0,0,0-1.706-13.7,7.207,7.207,0,0,0-6.328,3.653,6.487,6.487,0,0,0-.93,2.7,1.733,1.733,0,0,1-.852,1.358,6,6,0,0,0,1.53,11.153A6.289,6.289,0,0,0,19,27a5.959,5.959,0,0,0,5.651-3.981Zm-6.529,1.889a4.011,4.011,0,0,1-3.065-3.22,3.967,3.967,0,0,1,2.064-4.21,3.7,3.7,0,0,0,1.9-2.917,4.447,4.447,0,0,1,.654-1.869A5.235,5.235,0,0,1,24.037,10h.173a5,5,0,0,1,1.218,9.789,4.037,4.037,0,0,0-2.659,2.553,4.008,4.008,0,0,1-4.647,2.566Z" fill="#2f2f31"/>
        <circle id="Elipse_14664" data-name="Elipse 14664" cx="1" cy="1" r="1" transform="translate(18 20)" fill="#2f2f31"/>
        <path id="Trazado_1255938" data-name="Trazado 1255938" d="M10.267,37.6l-.2-.3A1,1,0,1,0,8.4,38.4l.2.307a4.47,4.47,0,0,0,3.476,2q.141.009.279.009a4.472,4.472,0,0,0,3.414-1.573l1.877-2.193a4.5,4.5,0,0,0-4.16-7.375l-1.055.177A4.5,4.5,0,0,0,9.31,31.873l-1.027,1.71A1,1,0,1,0,10,34.613L11.024,32.9a2.5,2.5,0,0,1,1.737-1.182l1.056-.176a2.5,2.5,0,0,1,2.313,4.1l-1.878,2.192a2.5,2.5,0,0,1-3.985-.24Z" fill="#2f2f31"/>
        <circle id="Elipse_14665" data-name="Elipse 14665" cx="1" cy="1" r="1" transform="translate(12 34)" fill="#2f2f31"/>
        <path id="Trazado_1255939" data-name="Trazado 1255939" d="M53.9,26.011a2.9,2.9,0,0,0-1.282-2.136,1,1,0,1,0-1.109,1.664.913.913,0,0,1,.139,1.4,2.916,2.916,0,0,0,0,4.118,1,1,0,1,0,1.414-1.414.914.914,0,0,1,0-1.29A2.9,2.9,0,0,0,53.9,26.011Z" fill="#2f2f31"/>
        <path id="Trazado_1255940" data-name="Trazado 1255940" d="M37.963,38.071a1.962,1.962,0,0,0-2.018.1l-1.5,1a1,1,0,1,0,1.11,1.664L37,39.8v1.4a1.961,1.961,0,0,0,1.037,1.732A1.8,1.8,0,0,0,40,42.8a1,1,0,1,0,2,0,1.961,1.961,0,0,0-1.037-1.732A1.8,1.8,0,0,0,39,41.2V39.8a1.961,1.961,0,0,0-1.037-1.729Z" fill="#2f2f31"/>
        <circle id="Elipse_14666" data-name="Elipse 14666" cx="1" cy="1" r="1" transform="translate(21 29)" fill="#2f2f31"/>
        <circle id="Elipse_14667" data-name="Elipse 14667" cx="1" cy="1" r="1" transform="translate(41 36)" fill="#2f2f31"/>
        <path id="Trazado_1255941" data-name="Trazado 1255941" d="M35,13a1,1,0,0,0,2,0,4,4,0,0,0-4-4,1,1,0,0,0,0,2A2,2,0,0,1,35,13Z" fill="#2f2f31"/>
        <path id="Trazado_1255942" data-name="Trazado 1255942" d="M34.293,46.707l2,2a1,1,0,1,0,1.414-1.414l-2-2a1,1,0,1,0-1.414,1.414Z" fill="#2f2f31"/>
      </g>
    </g>
  </g>
</svg>
