<svg xmlns="http://www.w3.org/2000/svg" xmlns:xlink="http://www.w3.org/1999/xlink" width="106.16" height="106.16" viewBox="0 0 106.16 106.16">
  <defs>
    <filter id="Trazado_982547" x="0" y="0" width="106.16" height="106.16" filterUnits="userSpaceOnUse">
      <feOffset dy="3" input="SourceAlpha"/>
      <feGaussianBlur stdDeviation="3" result="blur"/>
      <feFlood flood-opacity="0.161"/>
      <feComposite operator="in" in2="blur"/>
      <feComposite in="SourceGraphic"/>
    </filter>
  </defs>
  <g id="Grupo_1238031" data-name="Grupo 1238031" transform="translate(-167.84 -1726.153)">
    <g id="Grupo_1237156" data-name="Grupo 1237156" transform="translate(176.84 1732.153)">
      <g id="Grupo_1234666" data-name="Grupo 1234666">
        <g id="Grupo_1232498" data-name="Grupo 1232498" transform="translate(0)">
          <g id="Grupo_1230692" data-name="Grupo 1230692">
            <g id="Grupo_1224852" data-name="Grupo 1224852">
              <g id="Grupo_1206130" data-name="Grupo 1206130">
                <g id="Grupo_1203672" data-name="Grupo 1203672">
                  <g id="Grupo_1203344" data-name="Grupo 1203344">
                    <g id="Grupo_1177900" data-name="Grupo 1177900">
                      <g id="Grupo_1172010" data-name="Grupo 1172010">
                        <g id="Grupo_1171046" data-name="Grupo 1171046">
                          <g id="Grupo_1148525" data-name="Grupo 1148525">
                            <g transform="matrix(1, 0, 0, 1, -9, -6)" filter="url(#Trazado_982547)">
                              <g id="Trazado_982547-2" data-name="Trazado 982547" transform="translate(9 6)" fill="#e4ebfb">
                                <path d="M 44.0802001953125 86.660400390625 C 38.33124923706055 86.660400390625 32.75506210327148 85.53479766845703 27.50652503967285 83.31484985351562 C 22.43628692626953 81.17032623291016 17.88242530822754 78.09992218017578 13.97144985198975 74.18894958496094 C 10.06047534942627 70.27797698974609 6.99007511138916 65.72411346435547 4.845550060272217 60.65387344360352 C 2.625600099563599 55.40533828735352 1.500000238418579 49.82915115356445 1.500000238418579 44.0802001953125 C 1.500000238418579 38.33124923706055 2.625600099563599 32.75506210327148 4.845550060272217 27.50652503967285 C 6.99007511138916 22.43628692626953 10.06047534942627 17.88242530822754 13.97144985198975 13.97144985198975 C 17.88242530822754 10.06047534942627 22.43628692626953 6.99007511138916 27.50652503967285 4.845550060272217 C 32.75506210327148 2.625600099563599 38.33124923706055 1.500000238418579 44.0802001953125 1.500000238418579 C 49.82915115356445 1.500000238418579 55.40533828735352 2.625600099563599 60.65387344360352 4.845550060272217 C 65.72411346435547 6.99007511138916 70.27797698974609 10.06047534942627 74.18894958496094 13.97144985198975 C 78.09992218017578 17.88242530822754 81.17032623291016 22.43628692626953 83.31484985351562 27.50652503967285 C 85.53479766845703 32.75506210327148 86.660400390625 38.33124923706055 86.660400390625 44.0802001953125 C 86.660400390625 49.82915115356445 85.53479766845703 55.40533828735352 83.31484985351562 60.65387344360352 C 81.17032623291016 65.72411346435547 78.09992218017578 70.27797698974609 74.18894958496094 74.18894958496094 C 70.27797698974609 78.09992218017578 65.72411346435547 81.17032623291016 60.65387344360352 83.31484985351562 C 55.40533828735352 85.53479766845703 49.82915115356445 86.660400390625 44.0802001953125 86.660400390625 Z" stroke="none"/>
                                <path d="M 44.0802001953125 3 C 38.53308486938477 3 33.15349960327148 4.085746765136719 28.09085845947266 6.227058410644531 C 23.19941711425781 8.29595947265625 18.80581665039062 11.25841522216797 15.03211212158203 15.03211212158203 C 11.25841522216797 18.80581665039062 8.29595947265625 23.19941711425781 6.227058410644531 28.09085845947266 C 4.085746765136719 33.15349960327148 3 38.53308486938477 3 44.0802001953125 C 3 49.62731552124023 4.085746765136719 55.00691604614258 6.227058410644531 60.06954193115234 C 8.29595947265625 64.96098327636719 11.25841522216797 69.35458374023438 15.03211212158203 73.12828826904297 C 18.80581665039062 76.90198516845703 23.19941711425781 79.86444091796875 28.09085845947266 81.93334197998047 C 33.15349960327148 84.07466125488281 38.53308486938477 85.160400390625 44.0802001953125 85.160400390625 C 49.62731552124023 85.160400390625 55.00691604614258 84.07466125488281 60.06954193115234 81.93334197998047 C 64.96099853515625 79.86444091796875 69.35458374023438 76.90198516845703 73.12828826904297 73.12828826904297 C 76.90198516845703 69.35458374023438 79.86444091796875 64.96099853515625 81.93334197998047 60.06954193115234 C 84.07466125488281 55.00691604614258 85.160400390625 49.62731552124023 85.160400390625 44.0802001953125 C 85.160400390625 38.53308486938477 84.07466125488281 33.15349960327148 81.93334197998047 28.09085845947266 C 79.86444091796875 23.19941711425781 76.90198516845703 18.80581665039062 73.12828826904297 15.03211212158203 C 69.35458374023438 11.25841522216797 64.96098327636719 8.29595947265625 60.06954193115234 6.227058410644531 C 55.00691604614258 4.085746765136719 49.62731552124023 3 44.0802001953125 3 M 44.0802001953125 0 C 68.42502593994141 0 88.160400390625 19.73538970947266 88.160400390625 44.0802001953125 C 88.160400390625 68.42502593994141 68.42502593994141 88.160400390625 44.0802001953125 88.160400390625 C 19.73538970947266 88.160400390625 0 68.42502593994141 0 44.0802001953125 C 0 19.73538970947266 19.73538970947266 0 44.0802001953125 0 Z" stroke="none" fill="#0045e0"/>
                              </g>
                            </g>
                          </g>
                        </g>
                      </g>
                    </g>
                  </g>
                </g>
              </g>
            </g>
          </g>
        </g>
      </g>
    </g>
    <g id="riesgo-biologico" transform="translate(190.271 1745.585)">
      <path id="Trazado_1257180" data-name="Trazado 1257180" d="M29.733,1A28.733,28.733,0,1,1,1,29.733,28.746,28.746,0,0,1,29.733,1Z" transform="translate(0.916 0.916)" fill="#f2cc00" fill-rule="evenodd"/>
      <g id="Grupo_1238030" data-name="Grupo 1238030" transform="translate(7.183 7.662)">
        <path id="Trazado_1257181" data-name="Trazado 1257181" d="M17.831,14A3.831,3.831,0,1,1,14,17.831,3.832,3.832,0,0,1,17.831,14Z" transform="translate(5.634 5.155)" fill="#4b4a49" fill-rule="evenodd"/>
        <path id="Trazado_1257182" data-name="Trazado 1257182" d="M11.5,5.916l3.831,12.451a11.621,11.621,0,0,1,4.789-.958,11.621,11.621,0,0,1,4.789.958L29.7,5.916A23.241,23.241,0,0,0,20.12,4C14.373,4,11.5,5.916,11.5,5.916Z" transform="translate(3.345 -4)" fill="#4b4a49" fill-rule="evenodd"/>
        <path id="Trazado_1257183" data-name="Trazado 1257183" d="M23.289,16.5s.958.958-.958,3.831S18.5,23.2,18.5,23.2L27.12,33.74s2.873-.958,5.747-5.747A33.707,33.707,0,0,0,36.7,18.416Z" transform="translate(9.754 7.444)" fill="#4b4a49" fill-rule="evenodd"/>
        <path id="Trazado_1257184" data-name="Trazado 1257184" d="M17.159,16.5s-.958.958.958,3.831S21.947,23.2,21.947,23.2L13.328,33.74s-2.873-.958-5.747-5.747A33.707,33.707,0,0,1,3.75,18.416Z" transform="translate(-3.75 7.444)" fill="#4b4a49" fill-rule="evenodd"/>
      </g>
      <path id="Trazado_1257185" data-name="Trazado 1257185" d="M30.641,0A30.648,30.648,0,1,0,61.3,30.641,30.666,30.666,0,0,0,30.641,0Zm0,3.831a26.817,26.817,0,1,1-26.81,26.81A26.788,26.788,0,0,1,30.641,3.831Zm.046,1.908a27.619,27.619,0,0,0-5.122.525,24.713,24.713,0,0,0-4.946,1.6,1.921,1.921,0,0,0-1.032,2.375l.55,1.6.565,1.6.554,1.582.565,1.6.55,1.6.565,1.582.554,1.6.565,1.6a1.913,1.913,0,0,0,2.772,1.017,7.68,7.68,0,0,1,.906-.452,7.282,7.282,0,0,1,.946-.31,8.054,8.054,0,0,1,2.956-.2h.013a7.687,7.687,0,0,1,.973.2,7.336,7.336,0,0,1,.95.31,7.629,7.629,0,0,1,.9.452,1.913,1.913,0,0,0,2.772-1.017l.565-1.586.569-1.582.565-1.6.565-1.584.565-1.586.58-1.6.565-1.582.565-1.6A1.925,1.925,0,0,0,40.753,7.89a24.307,24.307,0,0,0-2.431-.931A24.633,24.633,0,0,0,35.8,6.292a24.518,24.518,0,0,0-5.116-.554Zm0,3.835a21.741,21.741,0,0,1,2.176.126,20.85,20.85,0,0,1,2.147.337,21.156,21.156,0,0,1,2.122.569c.142.046.28.1.421.153l-.508,1.414-.58,1.584-.565,1.6-.565,1.582-.565,1.6-.452,1.245c-.239-.08-.479-.178-.722-.243a11.391,11.391,0,0,0-4.44-.28,11.089,11.089,0,0,0-1.456.28c-.239.063-.471.165-.707.243l-.439-1.245-1.13-3.2-.554-1.586-.565-1.6-.492-1.425c.14-.05.28-.113.421-.159a21.717,21.717,0,0,1,2.122-.55,21.011,21.011,0,0,1,2.151-.339,20.68,20.68,0,0,1,2.178-.113ZM30.641,24.9A5.748,5.748,0,1,0,36.4,30.641,5.763,5.763,0,0,0,30.641,24.9Zm-9.629,3.831a2.008,2.008,0,0,0-.282.031l-1.668.31-1.653.295-1.657.295-1.668.314-1.655.3-1.668.31-1.653.295-1.653.314a1.926,1.926,0,0,0-1.573,2.076,25.309,25.309,0,0,0,.412,2.59,25.607,25.607,0,0,0,1.6,4.9,25.256,25.256,0,0,0,2.574,4.455,24.514,24.514,0,0,0,1.613,2.009A24.8,24.8,0,0,0,13.9,49.081a24.159,24.159,0,0,0,2.025,1.653,1.92,1.92,0,0,0,2.584-.295l1.1-1.287,1.1-1.276,1.09-1.283,1.1-1.276,1.1-1.287,1.1-1.283,1.105-1.276,1.1-1.285a1.917,1.917,0,0,0-.494-2.9,7.9,7.9,0,0,1-.849-.569,7.676,7.676,0,0,1-.764-.663,7.559,7.559,0,0,1-.651-.751,8.05,8.05,0,0,1-.55-.835,7.336,7.336,0,0,1-.441-.875,7.436,7.436,0,0,1-.322-.946,7.519,7.519,0,0,1-.2-.992,7.779,7.779,0,0,1-.056-1.017,1.926,1.926,0,0,0-1.916-1.91l-.067,0Zm9.629,0a1.916,1.916,0,1,1-1.908,1.908A1.888,1.888,0,0,1,30.641,28.733Zm9.648,0H40.23a1.923,1.923,0,0,0-1.916,1.908,7.893,7.893,0,0,1-.071,1.025,6.9,6.9,0,0,1-.521,1.919,7.5,7.5,0,0,1-.433.891,7.931,7.931,0,0,1-.554.824,7.52,7.52,0,0,1-.647.751,7.314,7.314,0,0,1-.764.674,7.757,7.757,0,0,1-.845.557,1.913,1.913,0,0,0-.49,2.914l1.1,1.268,1.1,1.291,1.107,1.276,1.088,1.283,1.107,1.276,1.1,1.287,1.094,1.272,1.1,1.287a1.92,1.92,0,0,0,2.584.3,24.145,24.145,0,0,0,2.021-1.657,24.9,24.9,0,0,0,1.833-1.848,24.5,24.5,0,0,0,1.617-2.006,24.923,24.923,0,0,0,1.395-2.165A24.362,24.362,0,0,0,53.4,40.772a25.059,25.059,0,0,0,.939-2.414,26.268,26.268,0,0,0,1.078-5.091,1.926,1.926,0,0,0-1.561-2.08l-1.668-.306-3.306-.605-1.672-.3-1.655-.3-1.657-.3-1.665-.31-1.653-.3a2.032,2.032,0,0,0-.285-.031ZM19.4,32.9c.05.249.088.5.153.747a11.583,11.583,0,0,0,1.963,3.975,11.66,11.66,0,0,0,.977,1.132c.176.178.377.329.565.494l-.86,1-1.09,1.272L18.9,44.1l-1.1,1.276-.973,1.145c-.113-.1-.243-.184-.354-.283a21.114,21.114,0,0,1-1.542-1.557,20.69,20.69,0,0,1-1.37-1.7A23.3,23.3,0,0,1,11.4,39.213a21.292,21.292,0,0,1-.778-2.04,21,21,0,0,1-.58-2.12c-.029-.14-.04-.283-.067-.423l1.483-.284,1.657-.3,1.668-.31,1.653-.295,1.668-.3Zm22.488,0,1.314.236,1.653.3,1.657.3,1.672.295,1.655.3,1.492.274c-.029.146-.048.3-.079.444a20.647,20.647,0,0,1-.565,2.105,20.651,20.651,0,0,1-1.778,3.984,20.867,20.867,0,0,1-1.186,1.829,20.607,20.607,0,0,1-1.358,1.7,21.222,21.222,0,0,1-1.55,1.557c-.109.1-.234.19-.347.287l-.981-1.153L42.4,44.1l-1.1-1.285L40.186,41.54,39.1,40.257l-.868-1.011c.186-.165.387-.314.561-.49a11.152,11.152,0,0,0,1.818-2.36,11.512,11.512,0,0,0,.659-1.335,11.3,11.3,0,0,0,.471-1.412c.065-.243.1-.5.153-.743Z" fill-rule="evenodd"/>
    </g>
  </g>
</svg>
