<svg xmlns="http://www.w3.org/2000/svg" xmlns:xlink="http://www.w3.org/1999/xlink" width="943.828" height="359.958" viewBox="0 0 943.828 359.958">
  <defs>
    <filter id="Trazado_1255897" x="58.542" y="171.885" width="71.473" height="71.473" filterUnits="userSpaceOnUse">
      <feOffset dy="3" input="SourceAlpha"/>
      <feGaussianBlur stdDeviation="3" result="blur"/>
      <feFlood flood-opacity="0.161"/>
      <feComposite operator="in" in2="blur"/>
      <feComposite in="SourceGraphic"/>
    </filter>
    <filter id="Trazado_1255898" x="73.396" y="185.281" width="41.756" height="44.682" filterUnits="userSpaceOnUse">
      <feOffset dy="3" input="SourceAlpha"/>
      <feGaussianBlur stdDeviation="3" result="blur-2"/>
      <feFlood flood-opacity="0.161"/>
      <feComposite operator="in" in2="blur-2"/>
      <feComposite in="SourceGraphic"/>
    </filter>
    <filter id="Trazado_1255897-2" x="234.542" y="171.885" width="71.473" height="71.473" filterUnits="userSpaceOnUse">
      <feOffset dy="3" input="SourceAlpha"/>
      <feGaussianBlur stdDeviation="3" result="blur-3"/>
      <feFlood flood-opacity="0.161"/>
      <feComposite operator="in" in2="blur-3"/>
      <feComposite in="SourceGraphic"/>
    </filter>
    <filter id="Trazado_1255898-2" x="249.396" y="185.281" width="41.755" height="44.682" filterUnits="userSpaceOnUse">
      <feOffset dy="3" input="SourceAlpha"/>
      <feGaussianBlur stdDeviation="3" result="blur-4"/>
      <feFlood flood-opacity="0.161"/>
      <feComposite operator="in" in2="blur-4"/>
      <feComposite in="SourceGraphic"/>
    </filter>
    <filter id="Trazado_1255897-3" x="637.542" y="171.885" width="71.473" height="71.473" filterUnits="userSpaceOnUse">
      <feOffset dy="3" input="SourceAlpha"/>
      <feGaussianBlur stdDeviation="3" result="blur-5"/>
      <feFlood flood-opacity="0.161"/>
      <feComposite operator="in" in2="blur-5"/>
      <feComposite in="SourceGraphic"/>
    </filter>
    <filter id="Trazado_1255898-3" x="652.396" y="185.281" width="41.755" height="44.682" filterUnits="userSpaceOnUse">
      <feOffset dy="3" input="SourceAlpha"/>
      <feGaussianBlur stdDeviation="3" result="blur-6"/>
      <feFlood flood-opacity="0.161"/>
      <feComposite operator="in" in2="blur-6"/>
      <feComposite in="SourceGraphic"/>
    </filter>
    <filter id="Trazado_1255897-4" x="813.542" y="171.885" width="71.473" height="71.473" filterUnits="userSpaceOnUse">
      <feOffset dy="3" input="SourceAlpha"/>
      <feGaussianBlur stdDeviation="3" result="blur-7"/>
      <feFlood flood-opacity="0.161"/>
      <feComposite operator="in" in2="blur-7"/>
      <feComposite in="SourceGraphic"/>
    </filter>
    <filter id="Trazado_1255898-4" x="828.396" y="185.281" width="41.755" height="44.682" filterUnits="userSpaceOnUse">
      <feOffset dy="3" input="SourceAlpha"/>
      <feGaussianBlur stdDeviation="3" result="blur-8"/>
      <feFlood flood-opacity="0.161"/>
      <feComposite operator="in" in2="blur-8"/>
      <feComposite in="SourceGraphic"/>
    </filter>
  </defs>
  <g id="Grupo_1237242" data-name="Grupo 1237242" transform="translate(-345.385 -2542.042)">
    <g id="Grupo_1237241" data-name="Grupo 1237241">
      <g id="Grupo_1237201" data-name="Grupo 1237201" transform="translate(-4966 -2055)">
        <g id="Grupo_1228424" data-name="Grupo 1228424" transform="translate(5046.096 -2290)">
          <g id="Grupo_1228399" data-name="Grupo 1228399" transform="translate(10.034 5015.813)">
            <g id="Grupo_1219567" data-name="Grupo 1219567" transform="translate(-2591.001 -262.042)">
              <path id="Trazado_1092052" data-name="Trazado 1092052" d="M271.668,96.131,156.167,176.5c-3.948,2.747-6.166,6.473-6.166,10.36V412.712H413.189V186.856c0-3.885-2.218-7.611-6.166-10.36l-115.5-80.365C286.034,92.317,277.149,92.317,271.668,96.131Z" transform="translate(3036.788 2040)" fill="#7958fb"/>
              <path id="Trazado_1092054" data-name="Trazado 1092054" d="M164.656,120.638,84.291,201A14.649,14.649,0,0,0,80,211.363V377.381H263.125V211.363a14.658,14.658,0,0,0-4.29-10.36l-80.365-80.365A9.77,9.77,0,0,0,164.656,120.638Z" transform="translate(2938.916 2075.331)" fill="#fd660a"/>
              <path id="Trazado_1092055" data-name="Trazado 1092055" d="M98.975,144.519,14.51,224.884A14.3,14.3,0,0,0,10,235.244V342.955H202.468V235.242a14.306,14.306,0,0,0-4.509-10.36l-84.465-80.365A10.641,10.641,0,0,0,98.975,144.519Z" transform="translate(2836.255 2109.756)" fill="#98b4f2"/>
              <g id="Grupo_1219555" data-name="Grupo 1219555" transform="translate(2917.419 2426.439)">
                <circle id="Elipse_12054" data-name="Elipse 12054" cx="22.873" cy="22.873" r="22.873" transform="translate(2.197 2.198)" fill="#98b4f2"/>
                <path id="Trazado_1092075" data-name="Trazado 1092075" d="M62.3,217.735a20.676,20.676,0,1,1-20.676,20.676A20.675,20.675,0,0,1,62.3,217.735m0-4.395a25.071,25.071,0,1,0,25.071,25.071A25.1,25.1,0,0,0,62.3,213.34Z" transform="translate(-37.232 -213.34)" fill="#fff"/>
              </g>
              <g id="Grupo_1219556" data-name="Grupo 1219556" transform="translate(3080.593 2421.63)">
                <circle id="Elipse_12055" data-name="Elipse 12055" cx="22.873" cy="22.873" r="22.873" transform="translate(0 17.507) rotate(-22.5)" fill="#fd660a"/>
                <path id="Trazado_1092076" data-name="Trazado 1092076" d="M134.72,217.735a20.676,20.676,0,1,1-20.676,20.676,20.675,20.675,0,0,1,20.676-20.676m0-4.395a25.071,25.071,0,1,0,25.071,25.071A25.1,25.1,0,0,0,134.72,213.34Z" transform="translate(-104.848 -208.531)" fill="#fff"/>
              </g>
              <g id="Grupo_1219560" data-name="Grupo 1219560" transform="translate(2938.676 2443.189)">
                <path id="Trazado_1092080" data-name="Trazado 1092080" d="M49.8,223.657h-.051l-3.174,1.509-.64-2.918,4.4-2.049h3.225v16.645H49.8Z" transform="translate(-45.938 -220.2)" fill="#fff"/>
              </g>
              <g id="Grupo_1219561" data-name="Grupo 1219561" transform="translate(3104.563 2443.05)">
                <path id="Trazado_1092081" data-name="Trazado 1092081" d="M117.5,237.066V234.71l2.151-1.946c3.636-3.252,5.4-5.123,5.455-7.066,0-1.358-.82-2.432-2.74-2.432a6.034,6.034,0,0,0-3.56,1.384l-1.1-2.791a9.217,9.217,0,0,1,5.455-1.716c3.763,0,5.838,2.2,5.838,5.225,0,2.791-2.022,5.018-4.429,7.169l-1.536,1.279v.051h6.273v3.2H117.5Z" transform="translate(-117.5 -220.143)" fill="#fff"/>
              </g>
              <path id="Trazado_1092085" data-name="Trazado 1092085" d="M234.656,95.6l-80.365,65.311a10.9,10.9,0,0,0-4.29,8.419V352.874H333.126V169.325a10.91,10.91,0,0,0-4.29-8.419L248.471,95.6A11.425,11.425,0,0,0,234.656,95.6Z" transform="translate(3285.324 2099.838)" fill="#d6ccfe"/>
              <g id="Grupo_1219565" data-name="Grupo 1219565" transform="translate(3501.816 2426.439)">
                <circle id="Elipse_12056" data-name="Elipse 12056" cx="22.873" cy="22.873" r="22.873" transform="translate(2.198 2.198)" fill="#d6ccfe"/>
                <path id="Trazado_1092077" data-name="Trazado 1092077" d="M202.3,217.735a20.676,20.676,0,1,1-20.676,20.676A20.675,20.675,0,0,1,202.3,217.735m0-4.395a25.071,25.071,0,1,0,25.071,25.071A25.1,25.1,0,0,0,202.3,213.34Z" transform="translate(-177.232 -213.34)" fill="#fff"/>
              </g>
              <g id="Grupo_1219566" data-name="Grupo 1219566" transform="translate(3521.01 2442.908)">
                <path id="Trazado_1092082" data-name="Trazado 1092082" d="M185.887,233.194a9.16,9.16,0,0,0,3.865,1.026c2.024,0,3.047-.974,3.047-2.227,0-1.638-1.638-2.381-3.355-2.381h-1.587v-2.793h1.511c1.306-.024,2.971-.513,2.971-1.919,0-1-.82-1.741-2.459-1.741a7.586,7.586,0,0,0-3.482,1l-.794-2.818a10.437,10.437,0,0,1,5.147-1.255c3.56,0,5.53,1.87,5.53,4.148a3.99,3.99,0,0,1-3.047,3.868v.051a4.136,4.136,0,0,1,3.611,4.046c0,2.945-2.586,5.1-6.812,5.1a9.847,9.847,0,0,1-4.942-1.177Z" transform="translate(-185.093 -220.085)" fill="#fff"/>
              </g>
              <path id="Trazado_1092053" data-name="Trazado 1092053" d="M304.656,120l-80.365,62.315a10.253,10.253,0,0,0-4.29,8.033V319.076H403.126V190.344a10.258,10.258,0,0,0-4.29-8.033L318.471,120A11.865,11.865,0,0,0,304.656,120Z" transform="translate(3386.958 2133.635)" fill="#3cd2fa"/>
              <g id="Grupo_1219558" data-name="Grupo 1219558" transform="translate(3673.45 2426.439)">
                <path id="Trazado_1255492" data-name="Trazado 1255492" d="M22.873,0A22.873,22.873,0,1,1,0,22.873,22.873,22.873,0,0,1,22.873,0Z" transform="translate(2.198 2.198)" fill="#3cd2fa"/>
                <path id="Trazado_1092078" data-name="Trazado 1092078" d="M272.3,217.735a20.676,20.676,0,1,1-20.676,20.676A20.675,20.675,0,0,1,272.3,217.735m0-4.395a25.071,25.071,0,1,0,25.071,25.071A25.1,25.1,0,0,0,272.3,213.34Z" transform="translate(-247.232 -213.34)" fill="#fff"/>
              </g>
            </g>
            <path id="Trazado_1257866" data-name="Trazado 1257866" d="M21.973,17h-2.75l-.8-2.492H14.442L13.653,17H10.918L15,5.8h2.992Zm-4.125-4.43L16.645,8.8A4.907,4.907,0,0,1,16.457,7.8h-.062a4.273,4.273,0,0,1-.2.977l-1.219,3.8Zm16.659,1.023h-8V11.867h8ZM50.058,17h-2.75l-.8-2.492H42.526L41.737,17H39L43.081,5.8h2.992Zm-4.125-4.43L44.729,8.8A4.907,4.907,0,0,1,44.542,7.8h-.062a4.273,4.273,0,0,1-.2.977l-1.219,3.8Zm13.127,3.516a4.526,4.526,0,0,1-1.289,3.449,5.224,5.224,0,0,1-3.734,1.223,5.919,5.919,0,0,1-2.562-.461V18.219a4.907,4.907,0,0,0,2.492.719,2.684,2.684,0,0,0,1.938-.66,2.369,2.369,0,0,0,.688-1.793v-.633h-.031A2.757,2.757,0,0,1,54.067,17.2a3,3,0,0,1-2.43-1.078,4.372,4.372,0,0,1-.9-2.891,4.87,4.87,0,0,1,1-3.227,3.265,3.265,0,0,1,2.633-1.2A2.429,2.429,0,0,1,56.559,9.93h.031V9h2.469Zm-2.437-2.93v-.633a1.945,1.945,0,0,0-.449-1.293A1.453,1.453,0,0,0,55,10.7a1.51,1.51,0,0,0-1.289.641,3.012,3.012,0,0,0-.469,1.8,2.543,2.543,0,0,0,.445,1.582,1.451,1.451,0,0,0,1.219.582,1.511,1.511,0,0,0,1.238-.59A2.418,2.418,0,0,0,56.622,13.156Zm11.689.547H63.092q.125,1.742,2.2,1.742a4.286,4.286,0,0,0,2.32-.625V16.6a6.1,6.1,0,0,1-2.883.594,4.058,4.058,0,0,1-3.008-1.074,4.058,4.058,0,0,1-1.07-3A4.281,4.281,0,0,1,61.8,9.969,3.852,3.852,0,0,1,64.647,8.8a3.5,3.5,0,0,1,2.707,1.039,4,4,0,0,1,.957,2.82Zm-2.289-1.516q0-1.719-1.391-1.719a1.328,1.328,0,0,0-1.027.492,2.234,2.234,0,0,0-.527,1.227ZM77.508,17H75.047V12.555q0-1.859-1.328-1.859a1.318,1.318,0,0,0-1.055.492,1.875,1.875,0,0,0-.414,1.25V17H69.781V9H72.25v1.266h.031A2.829,2.829,0,0,1,74.851,8.8q2.656,0,2.656,3.3Zm6.791-.094a3.649,3.649,0,0,1-1.648.289q-2.609,0-2.609-2.711V10.82h-1.3V9h1.3V7.273l2.461-.7V9h1.8v1.82H82.5v3.234q0,1.25.992,1.25a1.673,1.673,0,0,0,.8-.227Zm8.517-3.2H87.6q.125,1.742,2.2,1.742a4.286,4.286,0,0,0,2.32-.625V16.6a6.1,6.1,0,0,1-2.883.594,4.058,4.058,0,0,1-3.008-1.074,4.058,4.058,0,0,1-1.07-3,4.281,4.281,0,0,1,1.156-3.156A3.852,3.852,0,0,1,89.152,8.8a3.5,3.5,0,0,1,2.707,1.039,4,4,0,0,1,.957,2.82Zm-2.289-1.516q0-1.719-1.391-1.719a1.328,1.328,0,0,0-1.027.492,2.234,2.234,0,0,0-.527,1.227ZM101.2,16.07h-.031V17H98.7V5.156h2.469V10.2h.031a2.929,2.929,0,0,1,2.6-1.4,2.855,2.855,0,0,1,2.383,1.063,4.582,4.582,0,0,1,.836,2.906,4.962,4.962,0,0,1-.977,3.211,3.181,3.181,0,0,1-2.609,1.211A2.521,2.521,0,0,1,101.2,16.07Zm-.07-3.375v.82a1.872,1.872,0,0,0,.445,1.281,1.449,1.449,0,0,0,1.141.508,1.514,1.514,0,0,0,1.309-.652,3.15,3.15,0,0,0,.465-1.848,2.506,2.506,0,0,0-.426-1.551,1.437,1.437,0,0,0-1.215-.559,1.569,1.569,0,0,0-1.23.555A2.107,2.107,0,0,0,101.131,12.7Zm8.744-4.961a1.442,1.442,0,0,1-1.023-.371,1.2,1.2,0,0,1-.4-.91,1.153,1.153,0,0,1,.4-.906,1.671,1.671,0,0,1,2.051,0,1.158,1.158,0,0,1,.395.906,1.191,1.191,0,0,1-.395.922A1.466,1.466,0,0,1,109.875,7.734ZM111.094,17h-2.469V9h2.469Zm5.892.2a4.3,4.3,0,0,1-3.145-1.121,4.064,4.064,0,0,1-1.145-3.043,4.065,4.065,0,0,1,1.188-3.105A4.487,4.487,0,0,1,117.1,8.8a4.249,4.249,0,0,1,3.125,1.121,3.985,3.985,0,0,1,1.133,2.965,4.23,4.23,0,0,1-1.168,3.148A4.348,4.348,0,0,1,116.986,17.2Zm.063-6.5a1.647,1.647,0,0,0-1.359.6A2.653,2.653,0,0,0,115.2,13q0,2.3,1.859,2.3,1.773,0,1.773-2.367Q118.838,10.7,117.049,10.7Zm8.377,6.3h-2.469V5.156h2.469Zm5.892.2a4.3,4.3,0,0,1-3.145-1.121,4.064,4.064,0,0,1-1.145-3.043,4.065,4.065,0,0,1,1.188-3.105A4.487,4.487,0,0,1,131.427,8.8a4.249,4.249,0,0,1,3.125,1.121,3.985,3.985,0,0,1,1.133,2.965,4.23,4.23,0,0,1-1.168,3.148A4.348,4.348,0,0,1,131.317,17.2Zm.063-6.5a1.647,1.647,0,0,0-1.359.6,2.653,2.653,0,0,0-.484,1.7q0,2.3,1.859,2.3,1.773,0,1.773-2.367Q133.169,10.7,131.38,10.7Zm2.648-5.484-2.445,2.523H129.8l2.031-2.523Zm11.1,10.875a4.526,4.526,0,0,1-1.289,3.449,5.224,5.224,0,0,1-3.734,1.223,5.919,5.919,0,0,1-2.562-.461V18.219a4.907,4.907,0,0,0,2.492.719,2.684,2.684,0,0,0,1.938-.66,2.369,2.369,0,0,0,.688-1.793v-.633h-.031a2.757,2.757,0,0,1-2.492,1.344,3,3,0,0,1-2.43-1.078,4.372,4.372,0,0,1-.9-2.891,4.87,4.87,0,0,1,1-3.227,3.265,3.265,0,0,1,2.633-1.2,2.429,2.429,0,0,1,2.188,1.125h.031V9h2.469Zm-2.437-2.93v-.633a1.945,1.945,0,0,0-.449-1.293,1.453,1.453,0,0,0-1.168-.535,1.51,1.51,0,0,0-1.289.641,3.012,3.012,0,0,0-.469,1.8,2.543,2.543,0,0,0,.445,1.582,1.451,1.451,0,0,0,1.219.582,1.511,1.511,0,0,0,1.238-.59A2.418,2.418,0,0,0,142.686,13.156Zm5.752-5.422a1.442,1.442,0,0,1-1.023-.371,1.2,1.2,0,0,1-.4-.91,1.153,1.153,0,0,1,.4-.906,1.671,1.671,0,0,1,2.051,0,1.158,1.158,0,0,1,.395.906,1.191,1.191,0,0,1-.395.922A1.466,1.466,0,0,1,148.438,7.734ZM149.657,17h-2.469V9h2.469Zm8.142-.289a4.881,4.881,0,0,1-2.414.484,4.083,4.083,0,0,1-2.984-1.117A3.859,3.859,0,0,1,151.26,13.2a4.251,4.251,0,0,1,1.223-3.215,4.518,4.518,0,0,1,3.27-1.176,4.2,4.2,0,0,1,2.047.375v2.094a2.814,2.814,0,0,0-1.727-.578,2.275,2.275,0,0,0-1.684.621,2.317,2.317,0,0,0-.621,1.715,2.28,2.28,0,0,0,.594,1.668,2.182,2.182,0,0,0,1.633.605,3.258,3.258,0,0,0,1.8-.578Zm5.431.484a4.3,4.3,0,0,1-3.145-1.121,4.064,4.064,0,0,1-1.145-3.043,4.065,4.065,0,0,1,1.188-3.105A4.487,4.487,0,0,1,163.339,8.8a4.249,4.249,0,0,1,3.125,1.121,3.985,3.985,0,0,1,1.133,2.965,4.23,4.23,0,0,1-1.168,3.148A4.348,4.348,0,0,1,163.23,17.2Zm.063-6.5a1.647,1.647,0,0,0-1.359.6,2.653,2.653,0,0,0-.484,1.7q0,2.3,1.859,2.3,1.773,0,1.773-2.367Q165.082,10.7,163.293,10.7Z" transform="translate(261.598 2126.232)" fill="#0b0a0a"/>
            <path id="Trazado_1257867" data-name="Trazado 1257867" d="M13.828,13.141V17H11.3V5.8h3.953q4.234,0,4.234,3.57a3.426,3.426,0,0,1-1.215,2.73,4.813,4.813,0,0,1-3.246,1.043Zm0-5.406v3.492h.992q2.016,0,2.016-1.766,0-1.727-2.016-1.727Zm18.441,5.859h-8V11.867h8Zm8.222-.453V17H37.967V5.8H41.92q4.234,0,4.234,3.57A3.426,3.426,0,0,1,44.94,12.1a4.813,4.813,0,0,1-3.246,1.043Zm0-5.406v3.492h.992q2.016,0,2.016-1.766,0-1.727-2.016-1.727Zm12.283,3.492a2.142,2.142,0,0,0-1.039-.242,1.5,1.5,0,0,0-1.258.59,2.573,2.573,0,0,0-.453,1.605V17H47.555V9h2.469v1.484h.031a2.136,2.136,0,0,1,2.109-1.625,1.59,1.59,0,0,1,.609.094Zm4.9,5.969a4.3,4.3,0,0,1-3.145-1.121,4.064,4.064,0,0,1-1.145-3.043,4.065,4.065,0,0,1,1.188-3.105A4.487,4.487,0,0,1,57.783,8.8a4.249,4.249,0,0,1,3.125,1.121,3.985,3.985,0,0,1,1.133,2.965,4.23,4.23,0,0,1-1.168,3.148A4.348,4.348,0,0,1,57.673,17.2Zm.063-6.5a1.647,1.647,0,0,0-1.359.6,2.653,2.653,0,0,0-.484,1.7q0,2.3,1.859,2.3,1.773,0,1.773-2.367Q59.525,10.7,57.736,10.7Zm8.408,5.375h-.031V17H63.644V5.156h2.469V10.2h.031a2.929,2.929,0,0,1,2.6-1.4,2.855,2.855,0,0,1,2.383,1.063,4.582,4.582,0,0,1,.836,2.906,4.962,4.962,0,0,1-.977,3.211A3.181,3.181,0,0,1,68.378,17.2,2.521,2.521,0,0,1,66.144,16.07Zm-.07-3.375v.82a1.872,1.872,0,0,0,.445,1.281,1.449,1.449,0,0,0,1.141.508,1.514,1.514,0,0,0,1.309-.652,3.15,3.15,0,0,0,.465-1.848,2.506,2.506,0,0,0-.426-1.551,1.437,1.437,0,0,0-1.215-.559,1.569,1.569,0,0,0-1.23.555A2.107,2.107,0,0,0,66.073,12.7ZM80.067,17H77.731V15.852H77.7A2.607,2.607,0,0,1,75.317,17.2a2.492,2.492,0,0,1-1.832-.66,2.366,2.366,0,0,1-.668-1.762q0-2.328,2.758-2.687l2.172-.289q0-1.312-1.422-1.312a4.853,4.853,0,0,0-2.719.852V9.477a6.116,6.116,0,0,1,1.41-.469,7.413,7.413,0,0,1,1.629-.2q3.422,0,3.422,3.414Zm-2.32-3.25v-.539l-1.453.188q-1.2.156-1.2,1.086a.9.9,0,0,0,.293.691,1.126,1.126,0,0,0,.793.27,1.462,1.462,0,0,0,1.133-.48A1.735,1.735,0,0,0,77.747,13.75Zm6.775,2.32h-.031V17H82.022V5.156h2.469V10.2h.031a2.929,2.929,0,0,1,2.6-1.4,2.855,2.855,0,0,1,2.383,1.063,4.582,4.582,0,0,1,.836,2.906,4.962,4.962,0,0,1-.977,3.211A3.181,3.181,0,0,1,86.756,17.2,2.521,2.521,0,0,1,84.522,16.07Zm-.07-3.375v.82A1.872,1.872,0,0,0,84.9,14.8a1.449,1.449,0,0,0,1.141.508,1.514,1.514,0,0,0,1.309-.652,3.15,3.15,0,0,0,.465-1.848,2.506,2.506,0,0,0-.426-1.551A1.437,1.437,0,0,0,86.17,10.7a1.569,1.569,0,0,0-1.23.555A2.107,2.107,0,0,0,84.452,12.7ZM93.2,7.734a1.442,1.442,0,0,1-1.023-.371,1.2,1.2,0,0,1-.4-.91,1.153,1.153,0,0,1,.4-.906,1.671,1.671,0,0,1,2.051,0,1.158,1.158,0,0,1,.395.906,1.191,1.191,0,0,1-.395.922A1.466,1.466,0,0,1,93.2,7.734ZM94.414,17H91.945V9h2.469Zm4.548,0H96.494V5.156h2.469Zm3.33-9.266a1.442,1.442,0,0,1-1.023-.371,1.2,1.2,0,0,1-.4-.91,1.153,1.153,0,0,1,.4-.906,1.671,1.671,0,0,1,2.051,0,1.158,1.158,0,0,1,.395.906,1.191,1.191,0,0,1-.395.922A1.466,1.466,0,0,1,102.292,7.734ZM103.511,17h-2.469V9h2.469Zm9.908,0H110.95V15.9h-.031a2.768,2.768,0,0,1-2.477,1.3,3.033,3.033,0,0,1-2.414-1.059,4.382,4.382,0,0,1-.914-2.957A4.77,4.77,0,0,1,106.122,10a3.287,3.287,0,0,1,2.641-1.2,2.246,2.246,0,0,1,2.156,1.109h.031V5.156h2.469ZM111,13.109v-.6a1.893,1.893,0,0,0-.453-1.3,1.6,1.6,0,0,0-2.461.129,2.993,2.993,0,0,0-.461,1.77,2.59,2.59,0,0,0,.445,1.625,1.581,1.581,0,0,0,2.457-.031A2.507,2.507,0,0,0,111,13.109ZM122.155,17h-2.336V15.852h-.031A2.607,2.607,0,0,1,117.4,17.2a2.492,2.492,0,0,1-1.832-.66,2.366,2.366,0,0,1-.668-1.762q0-2.328,2.758-2.687l2.172-.289q0-1.312-1.422-1.312a4.853,4.853,0,0,0-2.719.852V9.477a6.116,6.116,0,0,1,1.41-.469,7.413,7.413,0,0,1,1.629-.2q3.422,0,3.422,3.414Zm-2.32-3.25v-.539l-1.453.188q-1.2.156-1.2,1.086a.9.9,0,0,0,.293.691,1.126,1.126,0,0,0,.793.27,1.462,1.462,0,0,0,1.133-.48A1.735,1.735,0,0,0,119.835,13.75Zm12.1,3.25h-2.469V15.9h-.031a2.768,2.768,0,0,1-2.477,1.3,3.033,3.033,0,0,1-2.414-1.059,4.382,4.382,0,0,1-.914-2.957A4.77,4.77,0,0,1,124.641,10a3.287,3.287,0,0,1,2.641-1.2,2.246,2.246,0,0,1,2.156,1.109h.031V5.156h2.469Zm-2.422-3.891v-.6a1.893,1.893,0,0,0-.453-1.3,1.6,1.6,0,0,0-2.461.129,2.993,2.993,0,0,0-.461,1.77,2.59,2.59,0,0,0,.445,1.625,1.581,1.581,0,0,0,2.457-.031A2.507,2.507,0,0,0,129.516,13.109ZM28.639,37H26.17V35.9h-.031a2.768,2.768,0,0,1-2.477,1.3,3.033,3.033,0,0,1-2.414-1.059,4.382,4.382,0,0,1-.914-2.957A4.77,4.77,0,0,1,21.342,30a3.287,3.287,0,0,1,2.641-1.2,2.246,2.246,0,0,1,2.156,1.109h.031V25.156h2.469Zm-2.422-3.891v-.6a1.893,1.893,0,0,0-.453-1.3,1.6,1.6,0,0,0-2.461.129,2.993,2.993,0,0,0-.461,1.77,2.59,2.59,0,0,0,.445,1.625,1.581,1.581,0,0,0,2.457-.031A2.507,2.507,0,0,0,26.217,33.109Zm11.689.594H32.687q.125,1.742,2.2,1.742a4.286,4.286,0,0,0,2.32-.625V36.6a6.1,6.1,0,0,1-2.883.594,3.724,3.724,0,0,1-4.078-4.07A4.281,4.281,0,0,1,31.4,29.969,3.852,3.852,0,0,1,34.242,28.8a3.5,3.5,0,0,1,2.707,1.039,4,4,0,0,1,.957,2.82Zm-2.289-1.516q0-1.719-1.391-1.719a1.328,1.328,0,0,0-1.027.492,2.234,2.234,0,0,0-.527,1.227ZM50.98,33.7H45.761q.125,1.742,2.2,1.742a4.286,4.286,0,0,0,2.32-.625V36.6a6.1,6.1,0,0,1-2.883.594,3.724,3.724,0,0,1-4.078-4.07,4.281,4.281,0,0,1,1.156-3.156A3.852,3.852,0,0,1,47.316,28.8a3.5,3.5,0,0,1,2.707,1.039,4,4,0,0,1,.957,2.82Zm-2.289-1.516q0-1.719-1.391-1.719a1.328,1.328,0,0,0-1.027.492,2.234,2.234,0,0,0-.527,1.227ZM60.176,29l-2.641,3.875L60.161,37H57.317l-1.156-2.156q-.141-.258-.336-.727h-.031a5.073,5.073,0,0,1-.32.7L54.309,37H51.473l2.7-3.984L51.637,29H54.5l1.141,2.242a4.917,4.917,0,0,1,.32.75h.031a5.285,5.285,0,0,1,.336-.766L57.489,29Zm3.611,7.07h-.031V40.68H61.287V29h2.469v1.2h.031a3.142,3.142,0,0,1,4.973-.332,4.54,4.54,0,0,1,.848,2.9,4.922,4.922,0,0,1-.988,3.211A3.222,3.222,0,0,1,65.991,37.2,2.491,2.491,0,0,1,63.787,36.07Zm-.07-3.281v.641a2.037,2.037,0,0,0,.438,1.352A1.424,1.424,0,0,0,65.3,35.3a1.514,1.514,0,0,0,1.309-.652,3.15,3.15,0,0,0,.465-1.848q0-2.109-1.641-2.109a1.541,1.541,0,0,0-1.238.574A2.29,2.29,0,0,0,63.717,32.789ZM75.023,37.2a4.3,4.3,0,0,1-3.145-1.121,4.064,4.064,0,0,1-1.145-3.043,4.065,4.065,0,0,1,1.188-3.105A4.487,4.487,0,0,1,75.133,28.8a4.249,4.249,0,0,1,3.125,1.121,3.985,3.985,0,0,1,1.133,2.965,4.23,4.23,0,0,1-1.168,3.148A4.348,4.348,0,0,1,75.023,37.2Zm.063-6.5a1.647,1.647,0,0,0-1.359.6,2.653,2.653,0,0,0-.484,1.7q0,2.3,1.859,2.3,1.773,0,1.773-2.367Q76.875,30.7,75.086,30.7Zm5.384,6.094v-2a5.256,5.256,0,0,0,1.215.547,4.028,4.028,0,0,0,1.145.18,2.455,2.455,0,0,0,1.035-.18.581.581,0,0,0,.379-.547.506.506,0,0,0-.172-.391,1.6,1.6,0,0,0-.441-.273,5.009,5.009,0,0,0-.59-.211q-.32-.094-.617-.211a5.914,5.914,0,0,1-.84-.387,2.427,2.427,0,0,1-.609-.48A1.889,1.889,0,0,1,80.6,32.2a2.525,2.525,0,0,1-.129-.852,2.192,2.192,0,0,1,.293-1.156,2.393,2.393,0,0,1,.781-.793,3.57,3.57,0,0,1,1.117-.453A5.825,5.825,0,0,1,83.97,28.8a7.261,7.261,0,0,1,1.078.082,8.047,8.047,0,0,1,1.078.238v1.906a3.9,3.9,0,0,0-1-.41,4.235,4.235,0,0,0-1.051-.137,2.328,2.328,0,0,0-.457.043,1.505,1.505,0,0,0-.379.125.7.7,0,0,0-.258.211.486.486,0,0,0-.094.293.541.541,0,0,0,.141.375,1.221,1.221,0,0,0,.367.27,3.625,3.625,0,0,0,.5.2q.277.09.551.184a7.161,7.161,0,0,1,.891.375,2.848,2.848,0,0,1,.684.477,1.872,1.872,0,0,1,.438.641,2.563,2.563,0,0,1-.156,2.09,2.471,2.471,0,0,1-.82.82,3.72,3.72,0,0,1-1.18.461,6.54,6.54,0,0,1-1.387.145A7.149,7.149,0,0,1,80.47,36.789Zm8.814-9.055a1.442,1.442,0,0,1-1.023-.371,1.2,1.2,0,0,1-.4-.91,1.153,1.153,0,0,1,.4-.906,1.671,1.671,0,0,1,2.051,0,1.158,1.158,0,0,1,.395.906,1.191,1.191,0,0,1-.395.922A1.466,1.466,0,0,1,89.284,27.734ZM90.5,37H88.034V29H90.5Zm8.142-.289a4.881,4.881,0,0,1-2.414.484,4.083,4.083,0,0,1-2.984-1.117A3.859,3.859,0,0,1,92.106,33.2a4.251,4.251,0,0,1,1.223-3.215A4.518,4.518,0,0,1,96.6,28.8a4.2,4.2,0,0,1,2.047.375v2.094a2.814,2.814,0,0,0-1.727-.578,2.275,2.275,0,0,0-1.684.621,2.317,2.317,0,0,0-.621,1.715,2.28,2.28,0,0,0,.594,1.668,2.182,2.182,0,0,0,1.633.605,3.258,3.258,0,0,0,1.8-.578Zm2.869-8.977a1.442,1.442,0,0,1-1.023-.371,1.2,1.2,0,0,1-.4-.91,1.153,1.153,0,0,1,.4-.906,1.671,1.671,0,0,1,2.051,0,1.158,1.158,0,0,1,.395.906,1.191,1.191,0,0,1-.395.922A1.466,1.466,0,0,1,101.514,27.734ZM102.733,37h-2.469V29h2.469Zm5.892.2a4.3,4.3,0,0,1-3.145-1.121,4.064,4.064,0,0,1-1.145-3.043,4.065,4.065,0,0,1,1.188-3.105,4.487,4.487,0,0,1,3.211-1.121,4.249,4.249,0,0,1,3.125,1.121,3.985,3.985,0,0,1,1.133,2.965,4.23,4.23,0,0,1-1.168,3.148A4.348,4.348,0,0,1,108.625,37.2Zm.063-6.5a1.647,1.647,0,0,0-1.359.6,2.653,2.653,0,0,0-.484,1.7q0,2.3,1.859,2.3,1.773,0,1.773-2.367Q110.477,30.7,108.688,30.7Zm2.648-5.484-2.445,2.523H107.11l2.031-2.523ZM122.314,37h-2.461V32.555q0-1.859-1.328-1.859a1.318,1.318,0,0,0-1.055.492,1.875,1.875,0,0,0-.414,1.25V37h-2.469V29h2.469v1.266h.031a2.829,2.829,0,0,1,2.57-1.461q2.656,0,2.656,3.3Z" transform="translate(453 2109.232)" fill="#fff"/>
            <path id="Trazado_1257868" data-name="Trazado 1257868" d="M19.361,17H12.642V5.8H19.1V7.852H15.165v2.492h3.664v2.047H15.165v2.563h4.2Zm12.933-3.406h-8V11.867h8ZM44.711,17H37.992V5.8h6.461V7.852H40.515v2.492h3.664v2.047H40.515v2.563h4.2Zm6.775-9.953a2.494,2.494,0,0,0-.914-.187q-1.188,0-1.187,1.289V9h1.828v1.82H49.384V17H46.923V10.82H45.58V9h1.344V8.008a2.88,2.88,0,0,1,.891-2.2,3.4,3.4,0,0,1,2.422-.836,4.253,4.253,0,0,1,1.25.156Zm2.166.688a1.442,1.442,0,0,1-1.023-.371,1.2,1.2,0,0,1-.4-.91,1.153,1.153,0,0,1,.4-.906,1.671,1.671,0,0,1,2.051,0,1.158,1.158,0,0,1,.395.906,1.191,1.191,0,0,1-.395.922A1.466,1.466,0,0,1,53.651,7.734ZM54.87,17H52.4V9H54.87Zm8.142-.289A4.881,4.881,0,0,1,60.6,17.2a4.083,4.083,0,0,1-2.984-1.117A3.859,3.859,0,0,1,56.473,13.2,4.251,4.251,0,0,1,57.7,9.98,4.518,4.518,0,0,1,60.966,8.8a4.2,4.2,0,0,1,2.047.375v2.094a2.814,2.814,0,0,0-1.727-.578,2.275,2.275,0,0,0-1.684.621,2.317,2.317,0,0,0-.621,1.715,2.28,2.28,0,0,0,.594,1.668,2.182,2.182,0,0,0,1.633.605,3.258,3.258,0,0,0,1.8-.578ZM71.287,17H68.952V15.852H68.92A2.607,2.607,0,0,1,66.537,17.2a2.492,2.492,0,0,1-1.832-.66,2.366,2.366,0,0,1-.668-1.762q0-2.328,2.758-2.687l2.172-.289q0-1.312-1.422-1.312a4.853,4.853,0,0,0-2.719.852V9.477a6.116,6.116,0,0,1,1.41-.469,7.413,7.413,0,0,1,1.629-.2q3.422,0,3.422,3.414Zm-2.32-3.25v-.539l-1.453.188q-1.2.156-1.2,1.086a.9.9,0,0,0,.293.691,1.126,1.126,0,0,0,.793.27,1.462,1.462,0,0,0,1.133-.48A1.735,1.735,0,0,0,68.967,13.75ZM79.3,16.711a4.881,4.881,0,0,1-2.414.484,4.083,4.083,0,0,1-2.984-1.117A3.859,3.859,0,0,1,72.766,13.2,4.251,4.251,0,0,1,73.988,9.98,4.518,4.518,0,0,1,77.258,8.8,4.2,4.2,0,0,1,79.3,9.18v2.094a2.814,2.814,0,0,0-1.727-.578,2.275,2.275,0,0,0-1.684.621,2.317,2.317,0,0,0-.621,1.715,2.28,2.28,0,0,0,.594,1.668A2.182,2.182,0,0,0,77.5,15.3a3.258,3.258,0,0,0,1.8-.578Zm2.869-8.977a1.442,1.442,0,0,1-1.023-.371,1.2,1.2,0,0,1-.4-.91,1.153,1.153,0,0,1,.4-.906,1.671,1.671,0,0,1,2.051,0,1.158,1.158,0,0,1,.395.906,1.191,1.191,0,0,1-.395.922A1.466,1.466,0,0,1,82.173,7.734ZM83.392,17H80.923V9h2.469Zm8.736,0H89.792V15.852h-.031A2.607,2.607,0,0,1,87.378,17.2a2.492,2.492,0,0,1-1.832-.66,2.366,2.366,0,0,1-.668-1.762q0-2.328,2.758-2.687l2.172-.289q0-1.312-1.422-1.312a4.853,4.853,0,0,0-2.719.852V9.477a6.116,6.116,0,0,1,1.41-.469,7.413,7.413,0,0,1,1.629-.2q3.422,0,3.422,3.414Zm-2.32-3.25v-.539l-1.453.188q-1.2.156-1.2,1.086a.9.9,0,0,0,.293.691,1.126,1.126,0,0,0,.793.27,1.462,1.462,0,0,0,1.133-.48A1.735,1.735,0,0,0,89.808,13.75ZM106.327,17h-2.469V15.9h-.031a2.768,2.768,0,0,1-2.477,1.3,3.033,3.033,0,0,1-2.414-1.059,4.382,4.382,0,0,1-.914-2.957A4.77,4.77,0,0,1,99.03,10a3.287,3.287,0,0,1,2.641-1.2,2.246,2.246,0,0,1,2.156,1.109h.031V5.156h2.469ZM103.9,13.109v-.6a1.893,1.893,0,0,0-.453-1.3,1.6,1.6,0,0,0-2.461.129,2.993,2.993,0,0,0-.461,1.77,2.59,2.59,0,0,0,.445,1.625,1.581,1.581,0,0,0,2.457-.031A2.507,2.507,0,0,0,103.9,13.109Zm11.689.594h-5.219q.125,1.742,2.2,1.742a4.286,4.286,0,0,0,2.32-.625V16.6a6.1,6.1,0,0,1-2.883.594A4.058,4.058,0,0,1,109,16.121a4.058,4.058,0,0,1-1.07-3,4.281,4.281,0,0,1,1.156-3.156A3.852,3.852,0,0,1,111.93,8.8a3.5,3.5,0,0,1,2.707,1.039,4,4,0,0,1,.957,2.82ZM113.3,12.188q0-1.719-1.391-1.719a1.328,1.328,0,0,0-1.027.492,2.234,2.234,0,0,0-.527,1.227ZM123.949,17H121.48V5.156h2.469Zm8.736,0h-2.336V15.852h-.031a2.607,2.607,0,0,1-2.383,1.344,2.492,2.492,0,0,1-1.832-.66,2.366,2.366,0,0,1-.668-1.762q0-2.328,2.758-2.687l2.172-.289q0-1.312-1.422-1.312a4.853,4.853,0,0,0-2.719.852V9.477a6.116,6.116,0,0,1,1.41-.469,7.413,7.413,0,0,1,1.629-.2q3.422,0,3.422,3.414Zm-2.32-3.25v-.539l-1.453.188q-1.2.156-1.2,1.086a.9.9,0,0,0,.293.691,1.126,1.126,0,0,0,.793.27,1.462,1.462,0,0,0,1.133-.48A1.735,1.735,0,0,0,130.364,13.75Zm3.752,3.039v-2a5.256,5.256,0,0,0,1.215.547,4.028,4.028,0,0,0,1.145.18,2.455,2.455,0,0,0,1.035-.18.581.581,0,0,0,.379-.547.506.506,0,0,0-.172-.391,1.6,1.6,0,0,0-.441-.273,5.009,5.009,0,0,0-.59-.211q-.32-.094-.617-.211a5.914,5.914,0,0,1-.84-.387,2.427,2.427,0,0,1-.609-.48,1.889,1.889,0,0,1-.375-.633,2.525,2.525,0,0,1-.129-.852,2.192,2.192,0,0,1,.293-1.156,2.393,2.393,0,0,1,.781-.793,3.57,3.57,0,0,1,1.117-.453,5.825,5.825,0,0,1,1.309-.145,7.261,7.261,0,0,1,1.078.082,8.047,8.047,0,0,1,1.078.238v1.906a3.9,3.9,0,0,0-1-.41,4.235,4.235,0,0,0-1.051-.137,2.328,2.328,0,0,0-.457.043,1.505,1.505,0,0,0-.379.125.7.7,0,0,0-.258.211.486.486,0,0,0-.094.293.541.541,0,0,0,.141.375,1.221,1.221,0,0,0,.367.27,3.625,3.625,0,0,0,.5.2q.277.09.551.184a7.161,7.161,0,0,1,.891.375,2.848,2.848,0,0,1,.684.477,1.871,1.871,0,0,1,.438.641,2.563,2.563,0,0,1-.156,2.09,2.471,2.471,0,0,1-.82.82,3.72,3.72,0,0,1-1.18.461,6.54,6.54,0,0,1-1.387.145A7.149,7.149,0,0,1,134.116,16.789ZM17.373,37H14.912V32.438q0-1.742-1.281-1.742a1.177,1.177,0,0,0-.992.523,2.151,2.151,0,0,0-.383,1.3V37H9.787V32.391q0-1.7-1.258-1.7a1.206,1.206,0,0,0-1.012.5,2.2,2.2,0,0,0-.379,1.359V37H4.67V29H7.139v1.25H7.17A3.031,3.031,0,0,1,9.756,28.8a2.3,2.3,0,0,1,2.32,1.492A2.959,2.959,0,0,1,14.764,28.8q2.609,0,2.609,3.219Zm9.142-3.3H21.3q.125,1.742,2.2,1.742a4.286,4.286,0,0,0,2.32-.625V36.6a6.1,6.1,0,0,1-2.883.594,3.724,3.724,0,0,1-4.078-4.07,4.281,4.281,0,0,1,1.156-3.156A3.852,3.852,0,0,1,22.851,28.8a3.5,3.5,0,0,1,2.707,1.039,4,4,0,0,1,.957,2.82Zm-2.289-1.516q0-1.719-1.391-1.719a1.328,1.328,0,0,0-1.027.492,2.234,2.234,0,0,0-.527,1.227ZM35.814,37H33.345V35.9h-.031a2.768,2.768,0,0,1-2.477,1.3,3.033,3.033,0,0,1-2.414-1.059,4.382,4.382,0,0,1-.914-2.957A4.77,4.77,0,0,1,28.517,30a3.287,3.287,0,0,1,2.641-1.2,2.246,2.246,0,0,1,2.156,1.109h.031V25.156h2.469Zm-2.422-3.891v-.6a1.893,1.893,0,0,0-.453-1.3,1.6,1.6,0,0,0-2.461.129,2.993,2.993,0,0,0-.461,1.77,2.59,2.59,0,0,0,.445,1.625,1.581,1.581,0,0,0,2.457-.031A2.507,2.507,0,0,0,33.392,33.109Zm5.752-5.375a1.442,1.442,0,0,1-1.023-.371,1.2,1.2,0,0,1-.4-.91,1.153,1.153,0,0,1,.4-.906,1.671,1.671,0,0,1,2.051,0,1.158,1.158,0,0,1,.395.906,1.191,1.191,0,0,1-.395.922A1.466,1.466,0,0,1,39.144,27.734ZM40.362,37H37.894V29h2.469Zm9.908,0H47.8V35.9H47.77a2.768,2.768,0,0,1-2.477,1.3,3.033,3.033,0,0,1-2.414-1.059,4.382,4.382,0,0,1-.914-2.957A4.77,4.77,0,0,1,42.973,30a3.287,3.287,0,0,1,2.641-1.2,2.246,2.246,0,0,1,2.156,1.109H47.8V25.156H50.27Zm-2.422-3.891v-.6a1.893,1.893,0,0,0-.453-1.3,1.6,1.6,0,0,0-2.461.129,2.993,2.993,0,0,0-.461,1.77,2.59,2.59,0,0,0,.445,1.625,1.581,1.581,0,0,0,2.457-.031A2.507,2.507,0,0,0,47.848,33.109ZM59.006,37H56.67V35.852h-.031A2.607,2.607,0,0,1,54.256,37.2a2.492,2.492,0,0,1-1.832-.66,2.366,2.366,0,0,1-.668-1.762q0-2.328,2.758-2.687l2.172-.289q0-1.312-1.422-1.312a4.853,4.853,0,0,0-2.719.852V29.477a6.116,6.116,0,0,1,1.41-.469,7.413,7.413,0,0,1,1.629-.2q3.422,0,3.422,3.414Zm-2.32-3.25v-.539l-1.453.188q-1.2.156-1.2,1.086a.9.9,0,0,0,.293.691,1.126,1.126,0,0,0,.793.27,1.462,1.462,0,0,0,1.133-.48A1.735,1.735,0,0,0,56.686,33.75Zm3.752,3.039v-2a5.256,5.256,0,0,0,1.215.547,4.028,4.028,0,0,0,1.145.18,2.455,2.455,0,0,0,1.035-.18.581.581,0,0,0,.379-.547.506.506,0,0,0-.172-.391,1.6,1.6,0,0,0-.441-.273,5.009,5.009,0,0,0-.59-.211q-.32-.094-.617-.211a5.914,5.914,0,0,1-.84-.387,2.427,2.427,0,0,1-.609-.48,1.889,1.889,0,0,1-.375-.633,2.525,2.525,0,0,1-.129-.852A2.192,2.192,0,0,1,60.73,30.2a2.393,2.393,0,0,1,.781-.793,3.57,3.57,0,0,1,1.117-.453,5.825,5.825,0,0,1,1.309-.145,7.261,7.261,0,0,1,1.078.082,8.047,8.047,0,0,1,1.078.238v1.906a3.9,3.9,0,0,0-1-.41,4.235,4.235,0,0,0-1.051-.137,2.328,2.328,0,0,0-.457.043,1.505,1.505,0,0,0-.379.125.7.7,0,0,0-.258.211.486.486,0,0,0-.094.293.541.541,0,0,0,.141.375,1.221,1.221,0,0,0,.367.27,3.625,3.625,0,0,0,.5.2q.277.09.551.184a7.161,7.161,0,0,1,.891.375,2.848,2.848,0,0,1,.684.477,1.872,1.872,0,0,1,.438.641,2.563,2.563,0,0,1-.156,2.09,2.471,2.471,0,0,1-.82.82,3.72,3.72,0,0,1-1.18.461,6.54,6.54,0,0,1-1.387.145A7.149,7.149,0,0,1,60.437,36.789ZM80.245,37H77.777V35.9h-.031a2.768,2.768,0,0,1-2.477,1.3,3.033,3.033,0,0,1-2.414-1.059,4.382,4.382,0,0,1-.914-2.957A4.77,4.77,0,0,1,72.948,30a3.287,3.287,0,0,1,2.641-1.2,2.246,2.246,0,0,1,2.156,1.109h.031V25.156h2.469Zm-2.422-3.891v-.6a1.893,1.893,0,0,0-.453-1.3,1.6,1.6,0,0,0-2.461.129,2.993,2.993,0,0,0-.461,1.77,2.59,2.59,0,0,0,.445,1.625,1.581,1.581,0,0,0,2.457-.031A2.507,2.507,0,0,0,77.823,33.109Zm11.689.594H84.294q.125,1.742,2.2,1.742a4.286,4.286,0,0,0,2.32-.625V36.6a6.1,6.1,0,0,1-2.883.594,3.724,3.724,0,0,1-4.078-4.07A4.281,4.281,0,0,1,83,29.969,3.852,3.852,0,0,1,85.848,28.8a3.5,3.5,0,0,1,2.707,1.039,4,4,0,0,1,.957,2.82Zm-2.289-1.516q0-1.719-1.391-1.719a1.328,1.328,0,0,0-1.027.492,2.234,2.234,0,0,0-.527,1.227Zm14.238,4.523a4.881,4.881,0,0,1-2.414.484,4.083,4.083,0,0,1-2.984-1.117A3.859,3.859,0,0,1,94.922,33.2a4.251,4.251,0,0,1,1.223-3.215,4.518,4.518,0,0,1,3.27-1.176,4.2,4.2,0,0,1,2.047.375v2.094a2.814,2.814,0,0,0-1.727-.578,2.275,2.275,0,0,0-1.684.621,2.317,2.317,0,0,0-.621,1.715,2.28,2.28,0,0,0,.594,1.668,2.182,2.182,0,0,0,1.633.605,3.258,3.258,0,0,0,1.8-.578Zm5.431.484a4.3,4.3,0,0,1-3.145-1.121,4.064,4.064,0,0,1-1.145-3.043,4.065,4.065,0,0,1,1.188-3.105A4.487,4.487,0,0,1,107,28.8a4.249,4.249,0,0,1,3.125,1.121,3.985,3.985,0,0,1,1.133,2.965,4.23,4.23,0,0,1-1.168,3.148A4.348,4.348,0,0,1,106.892,37.2Zm.063-6.5a1.647,1.647,0,0,0-1.359.6,2.653,2.653,0,0,0-.484,1.7q0,2.3,1.859,2.3,1.773,0,1.773-2.367Q108.744,30.7,106.955,30.7ZM120.589,37h-2.461V32.555q0-1.859-1.328-1.859a1.318,1.318,0,0,0-1.055.492,1.875,1.875,0,0,0-.414,1.25V37h-2.469V29h2.469v1.266h.031a2.829,2.829,0,0,1,2.57-1.461q2.656,0,2.656,3.3Zm6.791-.094a3.649,3.649,0,0,1-1.648.289q-2.609,0-2.609-2.711V30.82h-1.3V29h1.3V27.273l2.461-.7V29h1.8v1.82h-1.8v3.234q0,1.25.992,1.25a1.673,1.673,0,0,0,.8-.227Zm6.611-5.68a2.142,2.142,0,0,0-1.039-.242,1.5,1.5,0,0,0-1.258.59,2.573,2.573,0,0,0-.453,1.605V37h-2.469V29h2.469v1.484h.031a2.136,2.136,0,0,1,2.109-1.625,1.59,1.59,0,0,1,.609.094Zm4.9,5.969a4.3,4.3,0,0,1-3.145-1.121,4.064,4.064,0,0,1-1.145-3.043,4.065,4.065,0,0,1,1.188-3.105A4.487,4.487,0,0,1,139,28.8a4.249,4.249,0,0,1,3.125,1.121,3.985,3.985,0,0,1,1.133,2.965,4.23,4.23,0,0,1-1.168,3.148A4.348,4.348,0,0,1,138.891,37.2Zm.063-6.5a1.647,1.647,0,0,0-1.359.6,2.653,2.653,0,0,0-.484,1.7q0,2.3,1.859,2.3,1.773,0,1.773-2.367Q140.742,30.7,138.953,30.7ZM147.33,37h-2.469V25.156h2.469Z" transform="translate(854.839 2109.232)" fill="#212429"/>
            <path id="Trazado_1257869" data-name="Trazado 1257869" d="M36.768,17H34.221L29.6,9.961a10.179,10.179,0,0,1-.562-.93H29.01q.062.594.063,1.813V17H26.69V5.8h2.719l4.445,6.82q.3.461.563.914h.031a11.978,11.978,0,0,1-.062-1.539V5.8h2.383Zm13.7-3.406h-8V11.867h8ZM66.243,17H63.7L59.079,9.961a10.18,10.18,0,0,1-.562-.93h-.031q.063.594.063,1.813V17H56.165V5.8h2.719l4.445,6.82q.3.461.563.914h.031a11.978,11.978,0,0,1-.062-1.539V5.8h2.383Zm9.923,0H73.705V15.781h-.039A2.792,2.792,0,0,1,71.221,17.2q-2.781,0-2.781-3.367V9H70.9v4.609q0,1.7,1.344,1.7a1.329,1.329,0,0,0,1.063-.465,1.874,1.874,0,0,0,.4-1.262V9h2.461ZM75.159,5.211,72.713,7.734H70.932l2.031-2.523ZM90.949,17H88.488V12.438q0-1.742-1.281-1.742a1.177,1.177,0,0,0-.992.523,2.151,2.151,0,0,0-.383,1.3V17H83.363V12.391q0-1.7-1.258-1.7a1.206,1.206,0,0,0-1.012.5,2.2,2.2,0,0,0-.379,1.359V17H78.246V9h2.469v1.25h.031A3.031,3.031,0,0,1,83.332,8.8a2.3,2.3,0,0,1,2.32,1.492A2.959,2.959,0,0,1,88.34,8.8q2.609,0,2.609,3.219Zm9.142-3.3H94.873q.125,1.742,2.2,1.742a4.286,4.286,0,0,0,2.32-.625V16.6a6.1,6.1,0,0,1-2.883.594A4.058,4.058,0,0,1,93.5,16.121a4.058,4.058,0,0,1-1.07-3,4.281,4.281,0,0,1,1.156-3.156A3.852,3.852,0,0,1,96.427,8.8a3.5,3.5,0,0,1,2.707,1.039,4,4,0,0,1,.957,2.82ZM97.8,12.188q0-1.719-1.391-1.719a1.328,1.328,0,0,0-1.027.492,2.234,2.234,0,0,0-.527,1.227Zm8.978-.961a2.141,2.141,0,0,0-1.039-.242,1.5,1.5,0,0,0-1.258.59,2.573,2.573,0,0,0-.453,1.605V17h-2.469V9h2.469v1.484h.031a2.136,2.136,0,0,1,2.109-1.625,1.59,1.59,0,0,1,.609.094Zm4.9,5.969a4.3,4.3,0,0,1-3.145-1.121,4.064,4.064,0,0,1-1.145-3.043,4.065,4.065,0,0,1,1.188-3.105A4.487,4.487,0,0,1,111.79,8.8a4.249,4.249,0,0,1,3.125,1.121,3.985,3.985,0,0,1,1.133,2.965,4.23,4.23,0,0,1-1.168,3.148A4.348,4.348,0,0,1,111.681,17.2Zm.063-6.5a1.647,1.647,0,0,0-1.359.6A2.653,2.653,0,0,0,109.9,13q0,2.3,1.859,2.3,1.773,0,1.773-2.367Q113.532,10.7,111.743,10.7ZM129.895,17h-2.469V15.9h-.031a2.768,2.768,0,0,1-2.477,1.3,3.033,3.033,0,0,1-2.414-1.059,4.382,4.382,0,0,1-.914-2.957A4.77,4.77,0,0,1,122.6,10a3.287,3.287,0,0,1,2.641-1.2,2.246,2.246,0,0,1,2.156,1.109h.031V5.156h2.469Zm-2.422-3.891v-.6a1.893,1.893,0,0,0-.453-1.3,1.6,1.6,0,0,0-2.461.129,2.993,2.993,0,0,0-.461,1.77,2.59,2.59,0,0,0,.445,1.625A1.581,1.581,0,0,0,127,14.7,2.507,2.507,0,0,0,127.473,13.109Zm11.689.594h-5.219q.125,1.742,2.2,1.742a4.286,4.286,0,0,0,2.32-.625V16.6a6.1,6.1,0,0,1-2.883.594,4.058,4.058,0,0,1-3.008-1.074,4.058,4.058,0,0,1-1.07-3,4.281,4.281,0,0,1,1.156-3.156A3.852,3.852,0,0,1,135.5,8.8,3.5,3.5,0,0,1,138.2,9.844a4,4,0,0,1,.957,2.82Zm-2.289-1.516q0-1.719-1.391-1.719a1.328,1.328,0,0,0-1.027.492,2.234,2.234,0,0,0-.527,1.227ZM12.893,36.07h-.031V40.68H10.393V29h2.469v1.2h.031a2.9,2.9,0,0,1,2.57-1.4,2.892,2.892,0,0,1,2.4,1.066,4.54,4.54,0,0,1,.848,2.9,4.922,4.922,0,0,1-.988,3.211A3.222,3.222,0,0,1,15.1,37.2,2.491,2.491,0,0,1,12.893,36.07Zm-.07-3.281v.641a2.037,2.037,0,0,0,.438,1.352,1.424,1.424,0,0,0,1.148.523,1.514,1.514,0,0,0,1.309-.652,3.15,3.15,0,0,0,.465-1.848q0-2.109-1.641-2.109a1.541,1.541,0,0,0-1.238.574A2.29,2.29,0,0,0,12.822,32.789ZM27.5,33.7H22.285q.125,1.742,2.2,1.742a4.286,4.286,0,0,0,2.32-.625V36.6a6.1,6.1,0,0,1-2.883.594,3.724,3.724,0,0,1-4.078-4.07A4.281,4.281,0,0,1,21,29.969,3.852,3.852,0,0,1,23.84,28.8a3.5,3.5,0,0,1,2.707,1.039,4,4,0,0,1,.957,2.82Zm-2.289-1.516q0-1.719-1.391-1.719a1.328,1.328,0,0,0-1.027.492,2.234,2.234,0,0,0-.527,1.227Zm8.978-.961a2.141,2.141,0,0,0-1.039-.242,1.5,1.5,0,0,0-1.258.59,2.573,2.573,0,0,0-.453,1.605V37H28.974V29h2.469v1.484h.031a2.136,2.136,0,0,1,2.109-1.625,1.59,1.59,0,0,1,.609.094Zm.72,5.563v-2a5.256,5.256,0,0,0,1.215.547,4.028,4.028,0,0,0,1.145.18,2.455,2.455,0,0,0,1.035-.18.581.581,0,0,0,.379-.547.506.506,0,0,0-.172-.391,1.6,1.6,0,0,0-.441-.273,5.009,5.009,0,0,0-.59-.211q-.32-.094-.617-.211a5.914,5.914,0,0,1-.84-.387,2.427,2.427,0,0,1-.609-.48,1.889,1.889,0,0,1-.375-.633,2.525,2.525,0,0,1-.129-.852,2.192,2.192,0,0,1,.293-1.156,2.393,2.393,0,0,1,.781-.793,3.57,3.57,0,0,1,1.117-.453,5.825,5.825,0,0,1,1.309-.145,7.261,7.261,0,0,1,1.078.082,8.047,8.047,0,0,1,1.078.238v1.906a3.9,3.9,0,0,0-1-.41,4.235,4.235,0,0,0-1.051-.137,2.328,2.328,0,0,0-.457.043,1.505,1.505,0,0,0-.379.125.7.7,0,0,0-.258.211.486.486,0,0,0-.094.293.541.541,0,0,0,.141.375,1.221,1.221,0,0,0,.367.27,3.625,3.625,0,0,0,.5.2q.277.09.551.184a7.161,7.161,0,0,1,.891.375,2.848,2.848,0,0,1,.684.477,1.871,1.871,0,0,1,.438.641,2.563,2.563,0,0,1-.156,2.09,2.471,2.471,0,0,1-.82.82,3.72,3.72,0,0,1-1.18.461,6.54,6.54,0,0,1-1.387.145A7.149,7.149,0,0,1,34.913,36.789ZM46.29,37.2a4.3,4.3,0,0,1-3.145-1.121A4.064,4.064,0,0,1,42,33.031a4.065,4.065,0,0,1,1.188-3.105A4.487,4.487,0,0,1,46.4,28.8a4.249,4.249,0,0,1,3.125,1.121,3.985,3.985,0,0,1,1.133,2.965,4.23,4.23,0,0,1-1.168,3.148A4.348,4.348,0,0,1,46.29,37.2Zm.063-6.5a1.647,1.647,0,0,0-1.359.6,2.653,2.653,0,0,0-.484,1.7q0,2.3,1.859,2.3,1.773,0,1.773-2.367Q48.141,30.7,46.352,30.7ZM59.987,37H57.526V32.555q0-1.859-1.328-1.859a1.318,1.318,0,0,0-1.055.492,1.875,1.875,0,0,0-.414,1.25V37H52.26V29h2.469v1.266h.031A2.829,2.829,0,0,1,57.33,28.8q2.656,0,2.656,3.3ZM68.6,37H66.262V35.852H66.23A2.607,2.607,0,0,1,63.848,37.2a2.492,2.492,0,0,1-1.832-.66,2.366,2.366,0,0,1-.668-1.762q0-2.328,2.758-2.687l2.172-.289q0-1.312-1.422-1.312a4.853,4.853,0,0,0-2.719.852V29.477a6.116,6.116,0,0,1,1.41-.469,7.413,7.413,0,0,1,1.629-.2q3.422,0,3.422,3.414Zm-2.32-3.25v-.539l-1.453.188q-1.2.156-1.2,1.086a.9.9,0,0,0,.293.691,1.126,1.126,0,0,0,.793.27,1.462,1.462,0,0,0,1.133-.48A1.735,1.735,0,0,0,66.277,33.75Zm3.752,3.039v-2a5.256,5.256,0,0,0,1.215.547,4.028,4.028,0,0,0,1.145.18,2.455,2.455,0,0,0,1.035-.18.581.581,0,0,0,.379-.547.506.506,0,0,0-.172-.391,1.6,1.6,0,0,0-.441-.273,5.009,5.009,0,0,0-.59-.211q-.32-.094-.617-.211a5.914,5.914,0,0,1-.84-.387,2.427,2.427,0,0,1-.609-.48,1.889,1.889,0,0,1-.375-.633,2.525,2.525,0,0,1-.129-.852,2.192,2.192,0,0,1,.293-1.156A2.393,2.393,0,0,1,71.1,29.4a3.57,3.57,0,0,1,1.117-.453,5.825,5.825,0,0,1,1.309-.145,7.261,7.261,0,0,1,1.078.082,8.047,8.047,0,0,1,1.078.238v1.906a3.9,3.9,0,0,0-1-.41,4.235,4.235,0,0,0-1.051-.137,2.328,2.328,0,0,0-.457.043,1.505,1.505,0,0,0-.379.125.7.7,0,0,0-.258.211.486.486,0,0,0-.094.293.541.541,0,0,0,.141.375,1.221,1.221,0,0,0,.367.27,3.625,3.625,0,0,0,.5.2q.277.09.551.184a7.161,7.161,0,0,1,.891.375,2.848,2.848,0,0,1,.684.477,1.872,1.872,0,0,1,.438.641,2.563,2.563,0,0,1-.156,2.09,2.471,2.471,0,0,1-.82.82,3.72,3.72,0,0,1-1.18.461,6.54,6.54,0,0,1-1.387.145A7.149,7.149,0,0,1,70.029,36.789ZM89.2,33.7H83.977q.125,1.742,2.2,1.742a4.286,4.286,0,0,0,2.32-.625V36.6a6.1,6.1,0,0,1-2.883.594,3.724,3.724,0,0,1-4.078-4.07,4.281,4.281,0,0,1,1.156-3.156A3.852,3.852,0,0,1,85.532,28.8a3.5,3.5,0,0,1,2.707,1.039,4,4,0,0,1,.957,2.82Zm-2.289-1.516q0-1.719-1.391-1.719a1.328,1.328,0,0,0-1.027.492,2.234,2.234,0,0,0-.527,1.227ZM98.393,29l-2.641,3.875L98.377,37H95.534l-1.156-2.156q-.141-.258-.336-.727H94.01a5.073,5.073,0,0,1-.32.7L92.526,37H89.69l2.7-3.984L89.854,29h2.859l1.141,2.242a4.918,4.918,0,0,1,.32.75h.031a5.286,5.286,0,0,1,.336-.766L95.706,29ZM102,36.07h-.031V40.68H99.5V29h2.469v1.2H102a3.142,3.142,0,0,1,4.973-.332,4.54,4.54,0,0,1,.848,2.9,4.922,4.922,0,0,1-.988,3.211,3.222,3.222,0,0,1-2.629,1.211A2.491,2.491,0,0,1,102,36.07Zm-.07-3.281v.641a2.037,2.037,0,0,0,.438,1.352,1.424,1.424,0,0,0,1.148.523,1.514,1.514,0,0,0,1.309-.652,3.15,3.15,0,0,0,.465-1.848q0-2.109-1.641-2.109a1.541,1.541,0,0,0-1.238.574A2.29,2.29,0,0,0,101.934,32.789ZM117.029,37h-2.461V35.781h-.039a2.792,2.792,0,0,1-2.445,1.414q-2.781,0-2.781-3.367V29h2.461v4.609q0,1.7,1.344,1.7a1.329,1.329,0,0,0,1.063-.465,1.874,1.874,0,0,0,.4-1.262V29h2.461Zm9.267-3.3h-5.219q.125,1.742,2.2,1.742a4.286,4.286,0,0,0,2.32-.625V36.6a6.1,6.1,0,0,1-2.883.594,3.724,3.724,0,0,1-4.078-4.07,4.281,4.281,0,0,1,1.156-3.156,3.852,3.852,0,0,1,2.844-1.164,3.5,3.5,0,0,1,2.707,1.039,4,4,0,0,1,.957,2.82Zm-2.289-1.516q0-1.719-1.391-1.719a1.328,1.328,0,0,0-1.027.492,2.234,2.234,0,0,0-.527,1.227Zm3.236,4.6v-2a5.256,5.256,0,0,0,1.215.547,4.028,4.028,0,0,0,1.145.18,2.455,2.455,0,0,0,1.035-.18.581.581,0,0,0,.379-.547.506.506,0,0,0-.172-.391,1.6,1.6,0,0,0-.441-.273,5.009,5.009,0,0,0-.59-.211q-.32-.094-.617-.211a5.912,5.912,0,0,1-.84-.387,2.427,2.427,0,0,1-.609-.48,1.889,1.889,0,0,1-.375-.633,2.525,2.525,0,0,1-.129-.852,2.192,2.192,0,0,1,.293-1.156,2.393,2.393,0,0,1,.781-.793,3.57,3.57,0,0,1,1.117-.453,5.825,5.825,0,0,1,1.309-.145,7.261,7.261,0,0,1,1.078.082,8.047,8.047,0,0,1,1.078.238v1.906a3.9,3.9,0,0,0-1-.41,4.235,4.235,0,0,0-1.051-.137,2.328,2.328,0,0,0-.457.043,1.505,1.505,0,0,0-.379.125.7.7,0,0,0-.258.211.486.486,0,0,0-.094.293.541.541,0,0,0,.141.375,1.221,1.221,0,0,0,.367.27,3.624,3.624,0,0,0,.5.2q.277.09.551.184a7.161,7.161,0,0,1,.891.375,2.848,2.848,0,0,1,.684.477,1.872,1.872,0,0,1,.438.641,2.563,2.563,0,0,1-.156,2.09,2.471,2.471,0,0,1-.82.82,3.72,3.72,0,0,1-1.18.461,6.54,6.54,0,0,1-1.387.145A7.149,7.149,0,0,1,127.243,36.789Zm12.4.117a3.649,3.649,0,0,1-1.648.289q-2.609,0-2.609-2.711V30.82h-1.3V29h1.3V27.273l2.461-.7V29h1.8v1.82h-1.8v3.234q0,1.25.992,1.25a1.673,1.673,0,0,0,.8-.227Zm8.048.094h-2.336V35.852h-.031a2.607,2.607,0,0,1-2.383,1.344,2.492,2.492,0,0,1-1.832-.66,2.366,2.366,0,0,1-.668-1.762q0-2.328,2.758-2.687l2.172-.289q0-1.312-1.422-1.312a4.853,4.853,0,0,0-2.719.852V29.477a6.116,6.116,0,0,1,1.41-.469,7.413,7.413,0,0,1,1.629-.2q3.422,0,3.422,3.414Zm-2.32-3.25v-.539l-1.453.188q-1.2.156-1.2,1.086a.9.9,0,0,0,.293.691,1.126,1.126,0,0,0,.793.27,1.462,1.462,0,0,0,1.133-.48A1.735,1.735,0,0,0,145.371,33.75Zm3.752,3.039v-2a5.256,5.256,0,0,0,1.215.547,4.028,4.028,0,0,0,1.145.18,2.455,2.455,0,0,0,1.035-.18.581.581,0,0,0,.379-.547.506.506,0,0,0-.172-.391,1.6,1.6,0,0,0-.441-.273,5.009,5.009,0,0,0-.59-.211q-.32-.094-.617-.211a5.914,5.914,0,0,1-.84-.387,2.427,2.427,0,0,1-.609-.48,1.889,1.889,0,0,1-.375-.633,2.525,2.525,0,0,1-.129-.852,2.192,2.192,0,0,1,.293-1.156,2.393,2.393,0,0,1,.781-.793,3.57,3.57,0,0,1,1.117-.453,5.825,5.825,0,0,1,1.309-.145,7.261,7.261,0,0,1,1.078.082,8.047,8.047,0,0,1,1.078.238v1.906a3.9,3.9,0,0,0-1-.41,4.235,4.235,0,0,0-1.051-.137,2.328,2.328,0,0,0-.457.043,1.505,1.505,0,0,0-.379.125.7.7,0,0,0-.258.211.486.486,0,0,0-.094.293.541.541,0,0,0,.141.375,1.221,1.221,0,0,0,.367.27,3.625,3.625,0,0,0,.5.2q.277.09.551.184a7.161,7.161,0,0,1,.891.375,2.848,2.848,0,0,1,.684.477,1.871,1.871,0,0,1,.438.641,2.563,2.563,0,0,1-.156,2.09,2.471,2.471,0,0,1-.82.82,3.72,3.72,0,0,1-1.18.461,6.54,6.54,0,0,1-1.387.145A7.149,7.149,0,0,1,149.123,36.789Z" transform="translate(1026.999 2109.232)" fill="#0b0a0a"/>
          </g>
        </g>
        <g id="Grupo_1219563" data-name="Grupo 1219563" transform="translate(6156.463 4713.987)">
          <path id="Trazado_1092083" data-name="Trazado 1092083" d="M262.2,236.845v-3.97h-7.374V230.34l6.3-10.14h4.764v9.757h2v2.918h-2v3.97H262.2Zm0-6.888V226.27c0-1,.051-2.022.127-3.1h-.1c-.537,1.074-.974,2.049-1.538,3.1l-2.227,3.636v.051Z" transform="translate(-254.826 -29.2)" fill="#fff"/>
        </g>
      </g>
      <g id="Grupo_1237221" data-name="Grupo 1237221" transform="translate(408.89 2526.284)">
        <g id="girl" transform="translate(272.081 95.996)">
          <path id="Trazado_1255612" data-name="Trazado 1255612" d="M502.063,164.232l-6,.9c3.589,4.487,18.6,25.773,10.184,58.944l6.739.05C522.533,186.582,502.063,164.232,502.063,164.232Z" transform="translate(-320.412 -110.484)" fill="#1e2a5b"/>
          <path id="Trazado_1255613" data-name="Trazado 1255613" d="M495.652,165.374l-1.537.231.148,4.948c5.4,9.009,13.227,27.708,6.64,53.729l4.932.037C514.247,191.147,499.24,169.861,495.652,165.374Z" transform="translate(-319.998 -110.727)" fill="#14192d"/>
          <path id="Trazado_1255614" data-name="Trazado 1255614" d="M494.3,171.948l1.609,53.691,5.031.038C507.53,199.656,499.708,180.958,494.3,171.948Z" transform="translate(-320.038 -112.123)" fill="#0f121d"/>
          <path id="Trazado_1255615" data-name="Trazado 1255615" d="M359.208,269.981c-7.654,10.823-18.8,23.217-18.8,23.217s10.517,39.874-8.356,53.64c3.133,1.567,6.128,2.005,8.847.867,18.749-7.848,47.62-39.9,47.62-39.9s22.6-61.463,22.956-72.151C411.48,235.658,378.821,242.249,359.208,269.981Z" transform="translate(-285.588 -125.65)" fill="#cbdaff"/>
          <path id="Trazado_1255616" data-name="Trazado 1255616" d="M329.163,299.482l-20.657-34.225s-19.839,25.29-29.432,29.868c0,0,23.265,48.757,41.732,58C339.68,339.357,329.163,299.482,329.163,299.482Z" transform="translate(-274.339 -131.935)" fill="#e1e8fb"/>
          <path id="Trazado_1255617" data-name="Trazado 1255617" d="M396.4,269.27c4.453-27.894,25.257-38.653,35.724-37.469,7.815.883,41.471,2.151,54.9,3.174a10.745,10.745,0,0,1,5.395,1.733l23.56,27.361,7.3,72.07,3.222,56.158H393.168S390.67,305.177,396.4,269.27Z" transform="translate(-298.449 -124.813)" fill="#e1e8fb"/>
          <path id="Trazado_1255618" data-name="Trazado 1255618" d="M412.531,333s5.838,7.147,11.033,7.622,15.642-5.1,15.642-5.1-19.789-7.361-23.884-6.642C410.916,329.658,412.531,333,412.531,333Z" transform="translate(-302.614 -145.434)" fill="#cd4da5"/>
          <g id="plant" transform="translate(50.277 132.845)">
            <g id="Grupo_1237214" data-name="Grupo 1237214" transform="translate(71.093 99.18)">
              <path id="Trazado_1255619" data-name="Trazado 1255619" d="M429.118,413.19a1.021,1.021,0,0,1-.79-.373c-2.069-2.523-.961-5.228-.071-7.4.142-.346.283-.69.411-1.032.31-.822.106-1.252-.385-2.142a7.41,7.41,0,0,1-.788-1.838c-.351-1.406.729-2.911,1.979-4.654.968-1.349,2.172-3.028,1.948-3.913a1.02,1.02,0,0,1,1.978-.5c.455,1.8-.929,3.734-2.268,5.6-.665.928-1.779,2.481-1.656,2.973a5.565,5.565,0,0,0,.595,1.346,4.142,4.142,0,0,1,.508,3.845c-.135.359-.283.721-.432,1.085-.956,2.335-1.45,3.859-.239,5.335a1.021,1.021,0,0,1-.788,1.667Z" transform="translate(-427.15 -390.567)" fill="#f5fffd"/>
            </g>
            <g id="Grupo_1237215" data-name="Grupo 1237215" transform="translate(86.275 106.33)">
              <path id="Trazado_1255620" data-name="Trazado 1255620" d="M453.882,410.579a1.02,1.02,0,0,1-1-.807c-1.636-7.678-5.359-8.078-5.518-8.09a1.02,1.02,0,0,1,.115-2.037c.22.011,5.407.366,7.4,9.7a1.019,1.019,0,0,1-.785,1.209A.98.98,0,0,1,453.882,410.579Z" transform="translate(-446.424 -399.644)" fill="#f5fffd"/>
            </g>
            <g id="Grupo_1237216" data-name="Grupo 1237216" transform="translate(86.055 98.374)">
              <path id="Trazado_1255621" data-name="Trazado 1255621" d="M447.343,404.894a1.02,1.02,0,0,1-1.01-.885,18.044,18.044,0,0,1,.926-8.964,14.036,14.036,0,0,1,3.359-5.216,1.02,1.02,0,1,1,1.415,1.47,12.032,12.032,0,0,0-2.87,4.479,16.026,16.026,0,0,0-.807,7.962,1.024,1.024,0,0,1-1.013,1.155Z" transform="translate(-446.146 -389.543)" fill="#9de08a"/>
            </g>
            <g id="Grupo_1237217" data-name="Grupo 1237217" transform="translate(65.104 92.701)">
              <path id="Trazado_1255622" data-name="Trazado 1255622" d="M424.931,392.743a12.981,12.981,0,0,1-4.735-.929,1.02,1.02,0,1,1,.744-1.9,9.3,9.3,0,0,0,9.811-1.327c1.979-1.659,2.919-3.857,2.687-5.025a1.019,1.019,0,1,1,2-.4c.419,2.1-.969,4.971-3.375,6.989A10.967,10.967,0,0,1,424.931,392.743Z" transform="translate(-419.546 -382.341)" fill="#d5ffff"/>
            </g>
            <g id="Grupo_1237218" data-name="Grupo 1237218" transform="translate(80.905 94.808)">
              <path id="Trazado_1255623" data-name="Trazado 1255623" d="M452.435,394.735a1.019,1.019,0,0,1-.959-.673,11.467,11.467,0,0,0-5.2-6.071c-1.649-.863-3.384-.932-5.654-.935a1.02,1.02,0,0,1,0-2.039h0a12.041,12.041,0,0,1,12.767,8.352,1.019,1.019,0,0,1-.959,1.366Z" transform="translate(-439.607 -385.017)" fill="#d5ffff"/>
            </g>
            <g id="Grupo_1237219" data-name="Grupo 1237219" transform="translate(78.885 99.335)">
              <path id="Trazado_1255624" data-name="Trazado 1255624" d="M446.543,418.438a1.022,1.022,0,0,1-.4-.083c-6.533-2.809-9.5-10.806-9.055-17.255a30.653,30.653,0,0,1,1.689-8.023l.139-.388a6.119,6.119,0,0,0,.323-1.069,1.019,1.019,0,1,1,2.012.331,7.7,7.7,0,0,1-.419,1.44l-.128.355a28.636,28.636,0,0,0-1.579,7.5c-.4,5.731,2.164,12.806,7.825,15.24a1.019,1.019,0,0,1-.4,1.956Z" transform="translate(-437.042 -390.763)" fill="#f5fffd"/>
            </g>
            <path id="Trazado_1255625" data-name="Trazado 1255625" d="M364.945,294.9S339.9,273.648,353.218,268c13.511-5.736,17.414,27.971,17.414,27.971Z" transform="translate(-339.531 -265.222)" fill="#138f8d"/>
            <path id="Trazado_1255626" data-name="Trazado 1255626" d="M372.81,293.93S362.7,258.809,377.132,265.5c15.141,7.021,4.4,36.218,4.4,36.218Z" transform="translate(-343.788 -264.651)" fill="#67c451"/>
            <path id="Trazado_1255627" data-name="Trazado 1255627" d="M383.107,315.2s-36.518,1.433-25.637,13.03c11.419,12.171,35.767-7.2,35.767-7.2Z" transform="translate(-340.832 -275.384)" fill="#67c451"/>
            <path id="Trazado_1255628" data-name="Trazado 1255628" d="M406.122,337.541s-36.253-4.616-27.436,8.619c9.253,13.889,36.464-1.195,36.464-1.195Z" transform="translate(-345.473 -279.962)" fill="#138f8d"/>
            <path id="Trazado_1255629" data-name="Trazado 1255629" d="M399.5,312.114s-1.991-31.49,8.93-23.168C419.887,297.68,405.4,320.3,405.4,320.3Z" transform="translate(-350.155 -269.513)" fill="#138f8d"/>
            <path id="Trazado_1255630" data-name="Trazado 1255630" d="M360.286,299.8s-31.4,3.073-21.441,12.521c10.455,9.916,30.465-8,30.465-8Z" transform="translate(-336.893 -272.114)" fill="#67c451"/>
            <g id="Grupo_1237220" data-name="Grupo 1237220" transform="translate(21.467 25.853)">
              <path id="Trazado_1255631" data-name="Trazado 1255631" d="M425.2,374.641a2.04,2.04,0,0,1-1.964-1.494c-16.052-57.833-57.251-71.558-57.665-71.69a2.039,2.039,0,0,1,1.229-3.889c1.776.56,43.692,14.411,60.365,74.487a2.043,2.043,0,0,1-1.965,2.586Z" transform="translate(-364.146 -297.474)" fill="#9de08a"/>
            </g>
          </g>
          <path id="Trazado_1255632" data-name="Trazado 1255632" d="M486.014,126.607c-.3-2.345-1.506-3.858-3.946-4.059a33.769,33.769,0,0,0-3.644.13,6.4,6.4,0,0,1-4.965-1.68c-1.521-1.67-1.43-4.21-2.208-6.331-1.074-2.925-4.083-5.294-7.272-5.039a14.56,14.56,0,0,0-5.13,1.7,21.233,21.233,0,0,1-5.037,2.006,9.579,9.579,0,0,1-5.956-.737c-2.089-.995-3.871-2.884-6.178-3.4-2.346-.525-4.9.606-6.753,1.959a56.327,56.327,0,0,0-5.355,5.014,8.01,8.01,0,0,1-3.251,2.114c-2.947.805-5.971-1.468-9-1.078-4.75.613-6.42,5.45-7.534,9.461-.64,2.3-1.116,5.66-3,7.3a3.641,3.641,0,0,1-.662.453c2.44,17.576,20.367,21.023,42.562,21.023,18.269,0,36.865-3.248,43.616-12.894a14.551,14.551,0,0,1-1.659-1.446C486.664,137,486.689,131.935,486.014,126.607Z" transform="translate(-301.314 -98.771)" fill="#cd4da5"/>
          <path id="Trazado_1255633" data-name="Trazado 1255633" d="M493.588,124.076c-5.029-14.735-19.31-29-45.205-28.034-23.44.877-40.272,11.16-42.223,25.541a36.971,36.971,0,0,0-.117,10.061,3.668,3.668,0,0,0,.662-.453c1.883-1.639,2.36-5,3-7.3,1.114-4.012,2.783-8.849,7.534-9.462,3.029-.391,6.054,1.882,9,1.078a7.994,7.994,0,0,0,3.252-2.114,56.318,56.318,0,0,1,5.355-5.014c1.857-1.352,4.406-2.484,6.753-1.959,2.308.518,4.09,2.406,6.179,3.4a9.579,9.579,0,0,0,5.956.737,21.279,21.279,0,0,0,5.037-2.006,14.57,14.57,0,0,1,5.13-1.7c3.189-.255,6.2,2.113,7.272,5.039.778,2.12.687,4.661,2.208,6.331a6.4,6.4,0,0,0,4.965,1.68,33.569,33.569,0,0,1,3.644-.13c2.44.2,3.649,1.714,3.946,4.059.675,5.327.651,10.395,4.626,14.5a14.712,14.712,0,0,0,1.659,1.446C495.045,135.738,495.81,130.589,493.588,124.076Z" transform="translate(-301.236 -95.996)" fill="#e764c2"/>
          <path id="Trazado_1255634" data-name="Trazado 1255634" d="M445.683,120.6c-15.1,1.267-22.979,7.29-25.933,13.823,9.982-1.639,18.549-7.024,26.064-13.83Z" transform="translate(-304.208 -101.219)" fill="#1e2a5b"/>
          <path id="Trazado_1255635" data-name="Trazado 1255635" d="M445.438,120.562c-7.515,6.806-16.082,12.191-26.064,13.83a15.492,15.492,0,0,0-1.4,5.935c13.757-.377,26.587-8.394,34.829-19.648A39.321,39.321,0,0,0,445.438,120.562Z" transform="translate(-303.832 -101.186)" fill="#14192d"/>
          <path id="Trazado_1255636" data-name="Trazado 1255636" d="M456.225,121.265c-1.131-.219-2.275-.4-3.432-.524C444.55,132,431.72,140.013,417.964,140.389c0,.15-.012.3-.012.451.023,16.542-2.169,57.463,23.606,61.816,0,0-2.424,16.1.748,17.126,7.079,2.3,25.885,5,40.661-3.44,0,0-1.315-32.451-1.467-51.567-.053-6.635-.106-12.759-.151-17.221q-.019-1.843-.036-3.272C468.876,141.645,458.3,134.431,456.225,121.265Z" transform="translate(-303.818 -101.25)" fill="#f79485"/>
          <path id="Trazado_1255637" data-name="Trazado 1255637" d="M475.377,205.959c-7.633,10.971-17.173,14.232-27.617,14.792l-.628,5.47C473.343,223.886,475.377,205.959,475.377,205.959Z" transform="translate(-310.023 -119.344)" fill="#e86f5e"/>
          <path id="Trazado_1255638" data-name="Trazado 1255638" d="M471.968,122.841a42.136,42.136,0,0,0-5.416-1.435c2.071,13.167,12.652,20.379,25.087,23.019-.006-.44-.011-.861-.016-1.234a14.427,14.427,0,0,0-1.119-5.279A38.2,38.2,0,0,1,471.968,122.841Z" transform="translate(-314.146 -101.391)" fill="#14192d"/>
          <path id="Trazado_1255639" data-name="Trazado 1255639" d="M473.428,123.228a38.193,38.193,0,0,0,18.536,15.07C489.309,131.81,482.177,126.176,473.428,123.228Z" transform="translate(-315.606 -101.778)" fill="#0f121d"/>
          <path id="Trazado_1255640" data-name="Trazado 1255640" d="M410.823,164.273s.107,23.118,7.555,22.766c.25-.012.5-.033.742-.062a9.639,9.639,0,0,0,8.062-7.5c.6-2.563.884-5.767,3.038-7.31a150.022,150.022,0,0,1-7.625-13.582A67.591,67.591,0,0,0,410.823,164.273Z" transform="translate(-302.313 -109.284)" fill="#dde6ff" opacity="0.88"/>
          <path id="Trazado_1255641" data-name="Trazado 1255641" d="M446.847,180.9a14.63,14.63,0,0,0,8.573,2.279c4.234-.246,7.929-1.146,10.953-3.411a91.727,91.727,0,0,1-16.246-27.586,86.853,86.853,0,0,0-24.359,5.04,149.724,149.724,0,0,0,7.625,13.582,5.017,5.017,0,0,1,2.543-.887C439,169.642,441.32,177.358,446.847,180.9Z" transform="translate(-305.486 -107.926)" fill="#cbdaff" opacity="0.88"/>
          <path id="Trazado_1255642" data-name="Trazado 1255642" d="M456.694,152.119A91.733,91.733,0,0,0,472.94,179.7a15.15,15.15,0,0,0,3.285-3.4,30.12,30.12,0,0,0,3.968-8.645,94.767,94.767,0,0,1-10.031-15.6A107.883,107.883,0,0,0,456.694,152.119Z" transform="translate(-312.053 -107.862)" fill="#dde6ff" opacity="0.88"/>
          <path id="Trazado_1255643" data-name="Trazado 1255643" d="M473.793,152.117a94.684,94.684,0,0,0,10.031,15.6,64.609,64.609,0,0,0,2.411-14.091A88.333,88.333,0,0,0,473.793,152.117Z" transform="translate(-315.683 -107.912)" fill="#cbdaff" opacity="0.88"/>
          <path id="Trazado_1255644" data-name="Trazado 1255644" d="M441.893,202.4c-4.58,0-6.541-2.428-6.638-2.552a1.02,1.02,0,0,1,1.6-1.265c.1.128,2.292,2.669,7.91,1.445,5.043-1.1,6.705-4.429,6.721-4.462a1.02,1.02,0,1,1,1.836.888c-.084.173-2.123,4.253-8.121,5.565A15.4,15.4,0,0,1,441.893,202.4Z" transform="translate(-307.455 -117.015)" fill="#f35555"/>
          <path id="Trazado_1255645" data-name="Trazado 1255645" d="M440.647,177.224c-2.016-2.93-4.636-3.915-6.612-1.991a8.609,8.609,0,0,0-2.465,7.565c.725,6.193,5.129,6.1,7.988,5.342,1.416-.373,3.154-1.816,3.347-3.268C443.363,181.436,440.647,177.224,440.647,177.224Z" transform="translate(-306.701 -112.609)" fill="#f35555"/>
          <path id="Trazado_1255646" data-name="Trazado 1255646" d="M485.415,151.912a3.049,3.049,0,0,0-2.595-3.288c-21.227-3.083-36.924-1.3-50.726,1.09-18.3,3.166-25.167,8.055-25.451,8.261a3.059,3.059,0,0,0,3.582,4.96c.061-.043,6.279-4.314,22.913-7.193a146.065,146.065,0,0,1,45.222-1.534V154.2C480.578,152.808,483.189,151.764,485.415,151.912Z" transform="translate(-301.16 -106.822)" fill="#eaefff"/>
          <path id="Trazado_1255647" data-name="Trazado 1255647" d="M507.775,154.23c-2.491-2.012-6.532-.722-9.746,1.294.046,4.461.428,9.514.481,16.149,3.012.189,6.456-1.413,8.919-4.464C511.008,162.776,511.163,156.965,507.775,154.23Z" transform="translate(-320.829 -108.146)" fill="#e86f5e"/>
          <path id="Trazado_1255648" data-name="Trazado 1255648" d="M511.522,233.81c25,18.3,29.462,56.778,33.678,102.169,22.742,5.811,23.413,3.125,35.05,7.374-5.776-26.01-15.323-73.13-36.553-95.555C536.62,240.322,523.273,234.71,511.522,233.81Z" transform="translate(-323.694 -125.258)" fill="#cbdaff"/>
          <path id="Trazado_1255649" data-name="Trazado 1255649" d="M440.852,231.206s19,19.529,46.04-2.291c0,0-5.223,68.916-28.153,74.267,0,0-24.2-32.484-24.968-49.936S440.852,231.206,440.852,231.206Z" transform="translate(-307.174 -124.218)" fill="#e764c2"/>
          <path id="Trazado_1255650" data-name="Trazado 1255650" d="M464,343.146s-20.573-8.044-34.552-6.462-30.548,4.669-27.826,10.155c4.632,9.335,7.615,17.058,27.661,18.112a216.333,216.333,0,0,1,34.454,4.439Z" transform="translate(-300.297 -147.057)" fill="#e764c2"/>
          <path id="Trazado_1255651" data-name="Trazado 1255651" d="M476.152,382.149s68.836,23.707,90.829,9.425c4.872-3.164,9.592-13.8,5.758-25.8-1.2-3.758-5.793-7.273-9.551-8.475-20.279-6.488-57.49-15.032-86.263-17.883Z" transform="translate(-316.184 -147.681)" fill="#f5f7ff"/>
          <path id="Trazado_1255652" data-name="Trazado 1255652" d="M406.514,354.149c5.084-.367,11.561-.429,16-3.144.8-.487.547-2.02-.515-1.9-5.806.644-11.553,1.453-17.4,1.72q-1.018.046-2.038.074c.576,1.168,1.141,2.306,1.732,3.4Q405.409,354.229,406.514,354.149Z" transform="translate(-300.56 -149.736)" fill="#cd4da5"/>
          <path id="Trazado_1255653" data-name="Trazado 1255653" d="M425.977,359.141c-5.81.607-11.561,1.378-17.408,1.607-.109,0-.218,0-.327.008a19.488,19.488,0,0,0,3.17,3.273c4.921-.288,10.884-.461,15.068-2.981C427.281,360.566,427.041,359.03,425.977,359.141Z" transform="translate(-301.765 -151.868)" fill="#cd4da5"/>
          <path id="Trazado_1255654" data-name="Trazado 1255654" d="M443.454,226.345c-10.192-.206-20.424,7.963-13.836,34.847,6.9,28.139,21.218,41.525,27.677,42.1v-1.634C455.215,301.661,444.328,278.543,443.454,226.345Z" transform="translate(-305.861 -123.672)" fill="#f5f7ff"/>
          <path id="Trazado_1255655" data-name="Trazado 1255655" d="M506.4,239.87c-1.805-16.9-13.9-16.009-13.9-16.009s-8.193,45.816-27.18,77.271v1.634c.239.021.47.035.685.035C484.868,302.8,508.691,261.314,506.4,239.87Z" transform="translate(-313.884 -123.144)" fill="#f5f7ff"/>
          <path id="Trazado_1255656" data-name="Trazado 1255656" d="M357.4,276.855c-.579.615-2.213.072-2.607-.3l-16.617-15.649c-.395-.371-.245-1.171.334-1.786s1.368-.812,1.763-.441l16.617,15.649C357.283,274.7,357.978,276.24,357.4,276.855Z" transform="translate(-286.841 -130.498)" fill="#f5f7ff"/>
          <path id="Trazado_1255657" data-name="Trazado 1255657" d="M342.1,258.081h0a14.616,14.616,0,0,1-4.533,4.814h0l-10.7-10.074,4.533-4.814Z" transform="translate(-284.487 -128.272)" fill="#8c8c8c"/>
          <path id="Trazado_1255658" data-name="Trazado 1255658" d="M322.922,252.267l7.358,6.929a16.959,16.959,0,0,0,7.739-8.219l-7.358-6.929A16.959,16.959,0,0,1,322.922,252.267Z" transform="translate(-283.649 -127.432)" fill="#ff6c2f"/>
          <path id="Trazado_1255659" data-name="Trazado 1255659" d="M319.927,249.447l2.359,2.221a16.959,16.959,0,0,0,7.739-8.219l-2.359-2.221A16.959,16.959,0,0,1,319.927,249.447Z" transform="translate(-283.013 -126.833)" fill="#f0f4fb"/>
          <path id="Trazado_1255660" data-name="Trazado 1255660" d="M315.186,244.982a16.959,16.959,0,0,0,7.739-8.219L305.337,220.2,297.6,228.42Z" transform="translate(-278.272 -122.368)" fill="#ff6c2f"/>
          <path id="Trazado_1255661" data-name="Trazado 1255661" d="M308.276,238.476l2.359,2.221a16.959,16.959,0,0,0,7.739-8.219l-2.359-2.221A16.959,16.959,0,0,1,308.276,238.476Z" transform="translate(-280.539 -124.503)" fill="#f0f4fb"/>
          <path id="Trazado_1255662" data-name="Trazado 1255662" d="M289.79,203.016s-.976-3.582-4.808-1.274c-2.312,1.392-7.375,9.688-10.646,15.342.087,1.484.215,2.965.357,4.444,3.7-1.082,9.423-3.065,11.776-5.522C290.076,212.24,289.79,203.016,289.79,203.016Z" transform="translate(-273.333 -118.284)" fill="#cd4da5"/>
          <path id="Trazado_1255663" data-name="Trazado 1255663" d="M303.977,256.928l3.252-4.026-4.787-12.477s1.324-7.719,6.214-12.774a7.384,7.384,0,0,0,.563-9.418c-3.407-4.742-9.012-9.93-14-10.978-7.972-1.674-21.871,8.212-22.151,15.346-.154,3.918,5.6,19.607,10.818,32.958C290.815,257.251,296.85,258.151,303.977,256.928Z" transform="translate(-273.062 -119.58)" fill="#e764c2"/>
          <path id="Trazado_1255664" data-name="Trazado 1255664" d="M295.546,226.1c-.851.843.266,2.39,1.308,1.7a100.468,100.468,0,0,1,16.33-8.64,38.568,38.568,0,0,0-2.654-3.072A47.481,47.481,0,0,0,295.546,226.1Z" transform="translate(-277.772 -121.493)" fill="#cd4da5"/>
          <path id="Trazado_1255665" data-name="Trazado 1255665" d="M285.665,218.815a1.1,1.1,0,0,0,1.555,1.555,59.8,59.8,0,0,1,16.824-9.851,20.106,20.106,0,0,0-4.175-2.4A41.073,41.073,0,0,0,285.665,218.815Z" transform="translate(-275.675 -119.803)" fill="#cd4da5"/>
          <path id="Trazado_1255666" data-name="Trazado 1255666" d="M286.8,268.632c2.627,6.72,5.114,12.835,6.648,16.57,5.552-5.725,11.026-12.237,14.121-16.025A52.12,52.12,0,0,1,286.8,268.632Z" transform="translate(-275.979 -132.651)" fill="#f79485"/>
          <path id="Trazado_1255667" data-name="Trazado 1255667" d="M459.75,168.436c.357,2.564-.785,4.842-2.55,5.088s-3.485-1.634-3.842-4.2.785-4.842,2.55-5.088S459.394,165.872,459.75,168.436Z" transform="translate(-311.33 -110.481)" fill="#2f323a"/>
          <path id="Trazado_1255668" data-name="Trazado 1255668" d="M427.786,173.664c.334,2.4-.733,4.528-2.384,4.758s-3.259-1.528-3.593-3.926.734-4.528,2.384-4.758S427.452,171.266,427.786,173.664Z" transform="translate(-304.633 -111.649)" fill="#2f323a"/>
        </g>
        <g id="jar" transform="translate(340.477 293.12)">
          <path id="Trazado_1255669" data-name="Trazado 1255669" d="M321.452,349.089H298.879l-1.733,14.268h26.039Z" transform="translate(-290.572 -346.859)" fill="#f0f4fb" opacity="0.7"/>
          <path id="Trazado_1255670" data-name="Trazado 1255670" d="M295.374,367.2,288.8,421.324h39.187L321.413,367.2Z" transform="translate(-288.8 -350.705)" fill="#328ab1"/>
          <path id="Trazado_1255671" data-name="Trazado 1255671" d="M322.054,367.2H296.015l-4.131,34.014a8.463,8.463,0,0,0,8.4,9.483h17.5a8.462,8.462,0,0,0,8.4-9.483Z" transform="translate(-289.441 -350.705)" fill="#67bcef"/>
          <circle id="Elipse_14654" data-name="Elipse 14654" cx="3.979" cy="3.979" r="3.979" transform="translate(9.002 40.894)" fill="#43a4de"/>
          <path id="Trazado_1255672" data-name="Trazado 1255672" d="M321.642,399.141a3.22,3.22,0,1,1-6.44,0,3.22,3.22,0,0,1,3.22-3.22A3.289,3.289,0,0,1,321.642,399.141Z" transform="translate(-294.406 -356.803)" fill="#cbdaff"/>
          <path id="Trazado_1255673" data-name="Trazado 1255673" d="M321.3,385.633a2.348,2.348,0,1,1-2.348-2.348A2.348,2.348,0,0,1,321.3,385.633Z" transform="translate(-294.704 -354.12)" fill="#43a4de"/>
          <path id="Trazado_1255674" data-name="Trazado 1255674" d="M310.349,389.935A2.348,2.348,0,1,1,308,387.587,2.348,2.348,0,0,1,310.349,389.935Z" transform="translate(-292.378 -355.033)" fill="#cbdaff"/>
          <path id="Trazado_1255675" data-name="Trazado 1255675" d="M322.164,350.929H297.2a2.335,2.335,0,0,1-2.335-2.335h0a2.335,2.335,0,0,1,2.335-2.335h24.968a2.335,2.335,0,0,1,2.335,2.335h0A2.335,2.335,0,0,1,322.164,350.929Z" transform="translate(-290.087 -346.258)" fill="#67bcef"/>
        </g>
        <g id="misroscope" transform="translate(435.17 259.405)">
          <rect id="Rectngulo_424158" data-name="Rectngulo 424158" width="8.756" height="13.045" transform="translate(26.625 67.65)" fill="#328ab1"/>
          <path id="Trazado_1255676" data-name="Trazado 1255676" d="M581.363,337.664h0a3.117,3.117,0,0,1-2.051-3.9l2.829-9.1a3.116,3.116,0,0,1,3.9-2.051h0a3.116,3.116,0,0,1,2.051,3.9l-2.829,9.1A3.116,3.116,0,0,1,581.363,337.664Z" transform="translate(-560.538 -279.063)" fill="#afafaf"/>
          <path id="Trazado_1255677" data-name="Trazado 1255677" d="M615.123,337.664h0a3.117,3.117,0,0,0,2.051-3.9l-2.829-9.1a3.116,3.116,0,0,0-3.9-2.051h0a3.116,3.116,0,0,0-2.051,3.9l2.829,9.1A3.116,3.116,0,0,0,615.123,337.664Z" transform="translate(-574 -279.063)" fill="#afafaf"/>
          <path id="Trazado_1255678" data-name="Trazado 1255678" d="M599.407,339.837h0a3.117,3.117,0,0,0,3.145-3.088l.088-9.533a3.117,3.117,0,0,0-3.088-3.145h0a3.117,3.117,0,0,0-3.145,3.088l-.088,9.533A3.116,3.116,0,0,0,599.407,339.837Z" transform="translate(-568.476 -279.806)" fill="#8c8c8c"/>
          <rect id="Rectngulo_424159" data-name="Rectngulo 424159" width="7.989" height="27.864" transform="translate(40.806 31.088) rotate(-149.375)" fill="#328ab1"/>
          <path id="Trazado_1255679" data-name="Trazado 1255679" d="M631.475,245.722l7.283,4.311a2.187,2.187,0,0,0,3-.768h0a2.187,2.187,0,0,0-.768-3l-7.283-4.311a2.187,2.187,0,0,0-3,.768h0A2.187,2.187,0,0,0,631.475,245.722Z" transform="translate(-584.254 -241.652)" fill="#ffc32f"/>
          <path id="Trazado_1255680" data-name="Trazado 1255680" d="M605.506,298.439c1.041,7.618-4.71,12.063-12.986,13.194s-15.943-1.481-16.984-9.1,4.8-12.757,13.075-13.888S604.465,290.821,605.506,298.439Z" transform="translate(-558.8 -263.306)" fill="#ff6c2f"/>
          <rect id="Rectngulo_424160" data-name="Rectngulo 424160" width="27.715" height="9.621" transform="translate(16.264 81.181)" fill="#328ab1"/>
          <path id="Trazado_1255681" data-name="Trazado 1255681" d="M613.659,370.194H573.064a2.294,2.294,0,0,1-2.293-2.293h0a2.293,2.293,0,0,1,2.293-2.293h40.595a2.293,2.293,0,0,1,2.293,2.293h0A2.293,2.293,0,0,1,613.659,370.194Z" transform="translate(-556.65 -299.034)" fill="#afafaf"/>
          <path id="Trazado_1255682" data-name="Trazado 1255682" d="M606.664,392.637h-33.6a2.294,2.294,0,0,1-2.293-2.293h0a2.293,2.293,0,0,1,2.293-2.293h33.6a2.294,2.294,0,0,1,2.293,2.293h0A2.293,2.293,0,0,1,606.664,392.637Z" transform="translate(-556.65 -309.423)" fill="#afafaf"/>
          <path id="Trazado_1255683" data-name="Trazado 1255683" d="M608.874,422.351h-64.4v-3.58a12.155,12.155,0,0,1,12.155-12.155h40.086a12.155,12.155,0,0,1,12.155,12.155v3.58Z" transform="translate(-544.478 -318.017)" fill="#ff6c2f"/>
          <path id="Trazado_1255684" data-name="Trazado 1255684" d="M573.424,417.542c0,1.694-3.819,3.068-8.531,3.068s-8.531-1.373-8.531-3.068,3.819-3.068,8.531-3.068S573.424,415.848,573.424,417.542Z" transform="translate(-549.979 -321.655)" fill="#ffc32f"/>
          <path id="Trazado_1255685" data-name="Trazado 1255685" d="M602.017,418.251a2.317,2.317,0,1,1-2.316-2.244A2.281,2.281,0,0,1,602.017,418.251Z" transform="translate(-568.97 -322.365)" fill="#ffc32f"/>
          <path id="Trazado_1255686" data-name="Trazado 1255686" d="M625.3,339.437c-3.775,7.12-10.5,13.78-21.5,18.521H588.867c11.006-4.018,17.729-9.671,21.511-15.706,8.746-13.981-.306-29.371-17.868-31.322a121.151,121.151,0,0,0-17.13-.859c-1.308.091-2.473-2.425.5-3.944,7.51-3.839,16.427-5.138,24.885-4.447a48.074,48.074,0,0,1,7.142,1.058C625.635,307,634.058,322.953,625.3,339.437Z" transform="translate(-558.151 -269.358)" fill="#ffc32f"/>
          <circle id="Elipse_14655" data-name="Elipse 14655" cx="8.756" cy="8.756" r="8.756" transform="translate(47.897 68.868) rotate(-45)" fill="#328ab1"/>
          <circle id="Elipse_14656" data-name="Elipse 14656" cx="5.299" cy="5.299" r="5.299" transform="matrix(0.142, -0.99, 0.99, 0.142, 54.273, 73.36)" fill="#e1e8fb"/>
        </g>
        <g id="table" transform="translate(313.099 363.479)">
          <path id="Trazado_1255687" data-name="Trazado 1255687" d="M266.9,435.583H162.12l-12.236,12.236H254.659Z" transform="translate(-116.285 -435.583)" fill="#d9e4ff"/>
          <path id="Trazado_1255688" data-name="Trazado 1255688" d="M295.139,435.583,282.9,447.819h23.6l12.237-12.236Z" transform="translate(-213.571 -435.583)" fill="#cbdaff"/>
          <path id="Trazado_1255689" data-name="Trazado 1255689" d="M486.087,435.583H451.546L439.31,447.819h34.541Z" transform="translate(-326.299 -435.583)" fill="#d9e4ff"/>
          <path id="Trazado_1255690" data-name="Trazado 1255690" d="M672.411,435.583H641.573L629.336,447.82h43.075a6.119,6.119,0,1,0,0-12.237Z" transform="translate(-461.589 -435.583)" fill="#c2d3ff"/>
          <path id="Trazado_1255691" data-name="Trazado 1255691" d="M495.4,435.583l-12.236,12.236h47.782l12.237-12.236Z" transform="translate(-363.476 -435.583)" fill="#c2d3ff"/>
          <path id="Trazado_1255692" data-name="Trazado 1255692" d="M623.417,435.583H556.061l-12.237,12.236H611.18Z" transform="translate(-443.433 -435.583)" fill="#cbdaff"/>
          <path id="Trazado_1255693" data-name="Trazado 1255693" d="M424.7,435.583H325.105l-12.237,12.236h99.595Z" transform="translate(-258.346 -435.583)" fill="#c2d3ff"/>
          <path id="Trazado_1255694" data-name="Trazado 1255694" d="M63.609,435.583a6.119,6.119,0,1,0,0,12.237h66.657L142.5,435.583Z" transform="translate(-57.49 -435.583)" fill="#c2d3ff"/>
        </g>
      </g>
      <g id="Grupo_1237226" data-name="Grupo 1237226" transform="translate(724.271 2299.981) rotate(19)">
        <path id="Trazado_1255748" data-name="Trazado 1255748" d="M141.755,375.168v25.363a8.453,8.453,0,0,0,16.907,0V375.168Z" transform="translate(-0.85 -9.861)" fill="#e764c2"/>
        <ellipse id="Elipse_14658" data-name="Elipse 14658" cx="4.512" cy="6.548" rx="4.512" ry="6.548" transform="translate(143.165 380.027)" fill="#f0f4fb" opacity="0.5"/>
        <rect id="Rectngulo_424162" data-name="Rectngulo 424162" width="16.906" height="46.557" transform="translate(140.905 318.751)" fill="#f0f4fb" opacity="0.7"/>
        <path id="Trazado_1255749" data-name="Trazado 1255749" d="M158.269,323.739H140.448a3.781,3.781,0,0,1-3.781-3.781v-.06a3.781,3.781,0,0,1,3.781-3.781h17.821a3.781,3.781,0,0,1,3.781,3.781v.06A3.781,3.781,0,0,1,158.269,323.739Z" fill="#328ab1"/>
      </g>
      <g id="Grupo_1237227" data-name="Grupo 1237227" transform="matrix(0.966, -0.259, 0.259, 0.966, 464.088, 2376.833)">
        <path id="Trazado_1255750" data-name="Trazado 1255750" d="M180.718,361.988v28.695a6.675,6.675,0,0,0,13.349,0V361.988Z" transform="translate(-1.742 -15.701)" fill="#67c451"/>
        <ellipse id="Elipse_14659" data-name="Elipse 14659" cx="3.563" cy="5.17" rx="3.563" ry="5.17" transform="translate(180.752 366.578)" fill="#f0f4fb" opacity="0.5"/>
        <rect id="Rectngulo_424163" data-name="Rectngulo 424163" width="13.348" height="28.09" transform="translate(178.976 318.197)" fill="#f0f4fb" opacity="0.7"/>
        <path id="Trazado_1255751" data-name="Trazado 1255751" d="M192.686,322.135H178.615a2.985,2.985,0,0,1-2.985-2.985V319.1a2.985,2.985,0,0,1,2.985-2.985h14.071a2.985,2.985,0,0,1,2.985,2.985v.047A2.985,2.985,0,0,1,192.686,322.135Z" transform="translate(0)" fill="#328ab1"/>
      </g>
      <g id="Grupo_1237228" data-name="Grupo 1237228" transform="matrix(0.966, -0.259, 0.259, 0.966, 594.256, 2442.935)">
        <rect id="Rectngulo_424164" data-name="Rectngulo 424164" width="15.43" height="21" transform="translate(218.462 318.521)" fill="#f0f4fb" opacity="0.7"/>
        <path id="Trazado_1255752" data-name="Trazado 1255752" d="M219.682,346.9v44.64a7.715,7.715,0,0,0,15.43,0V346.9Z" transform="translate(-1.22 -7.379)" fill="#ffc32f"/>
        <ellipse id="Elipse_14660" data-name="Elipse 14660" cx="4.118" cy="5.976" rx="4.118" ry="5.976" transform="translate(220.568 374.446)" fill="#f0f4fb" opacity="0.5"/>
        <path id="Trazado_1255753" data-name="Trazado 1255753" d="M234.308,323.073H218.044a3.451,3.451,0,0,1-3.451-3.451v-.055a3.451,3.451,0,0,1,3.451-3.451h16.265a3.451,3.451,0,0,1,3.451,3.451v.055A3.451,3.451,0,0,1,234.308,323.073Z" fill="#328ab1"/>
      </g>
    </g>
    <g id="plaqueta" transform="translate(412.927 2719.927)">
      <g transform="matrix(1, 0, 0, 1, -67.54, -177.88)" filter="url(#Trazado_1255897)">
        <path id="Trazado_1255897-5" data-name="Trazado 1255897" d="M45.642,7.831A26.737,26.737,0,0,0,7.831,45.642,26.737,26.737,0,0,0,45.642,7.831Zm.1,2.4L43.13,12.847a4.24,4.24,0,1,1-6-6l2.02-2.02a25.188,25.188,0,0,1,4.229,3.028l-2.621,2.621a.891.891,0,0,1-1.26-1.26l.6-.6a.783.783,0,1,0-1.108-1.108l-.6.6a2.458,2.458,0,0,0,3.476,3.476L44.526,8.93l.008.008q.629.63,1.208,1.3Zm-36.8-1.3q.842-.842,1.748-1.593L12.01,8.669a4.24,4.24,0,0,1-6,6l-.874-.874q.469-.778,1-1.525L7.274,13.4A2.458,2.458,0,0,0,11.425,11.2a.783.783,0,0,0-1.538.3.891.891,0,0,1-1.5.8L7.088,11A25.58,25.58,0,0,1,8.939,8.939Zm0,35.6q-.54-.54-1.042-1.108h.421a2.458,2.458,0,0,0,0-4.915.783.783,0,0,0,0,1.567.891.891,0,0,1,0,1.782H6.613A24.978,24.978,0,0,1,3.7,36.922a4.221,4.221,0,0,1,1.265-.193H8.318A4.24,4.24,0,0,1,9.47,45.05q-.269-.254-.532-.515ZM10.8,46.219A5.806,5.806,0,0,0,8.318,35.162H4.969a5.771,5.771,0,0,0-1.853.3A25.305,25.305,0,0,1,4.347,15.214l.559.559a5.807,5.807,0,1,0,8.212-8.212L11.932,6.376A25.229,25.229,0,0,1,37.7,4.068L36.026,5.743a5.807,5.807,0,1,0,8.212,8.212l2.5-2.5A25.183,25.183,0,0,1,46.8,41.938l-1.582-1.582a5.807,5.807,0,0,0-8.212,8.212l.791.791a25.22,25.22,0,0,1-27-3.139Zm33.738-1.685a25.561,25.561,0,0,1-2.452,2.157l-1.6-1.6a.891.891,0,1,1,1.26-1.26.783.783,0,0,0,1.108-1.108A2.458,2.458,0,0,0,39.375,46.2L40.8,47.621q-.76.514-1.552.969l-1.13-1.13a4.24,4.24,0,1,1,6-6l1.7,1.7Q45.2,43.868,44.534,44.534Z" transform="translate(67.54 177.88)" fill="#fff"/>
      </g>
      <g transform="matrix(1, 0, 0, 1, -67.54, -177.88)" filter="url(#Trazado_1255898)">
        <path id="Trazado_1255898-5" data-name="Trazado 1255898" d="M164.283,149.384a2.468,2.468,0,0,0,1.489-1.334,2.532,2.532,0,0,0-1.1-3.182l-2.427-1.4a.094.094,0,0,1-.031-.031,8.342,8.342,0,0,0,0-3.663.062.062,0,0,1,.03-.035l2.427-1.4a2.532,2.532,0,0,0,1.1-3.182,2.458,2.458,0,0,0-3.472-1.123l-2.518,1.454a.088.088,0,0,1-.042.011,8.322,8.322,0,0,0-3.164-1.83.068.068,0,0,1-.015-.045v-2.813a2.527,2.527,0,0,0-2.051-2.514,2.459,2.459,0,0,0-2.865,2.425v2.9a.281.281,0,0,1-.008.041,8.335,8.335,0,0,0-3.167,1.831.063.063,0,0,1-.046-.008l-2.44-1.409a2.527,2.527,0,0,0-3.2.519,2.459,2.459,0,0,0,.667,3.693l2.51,1.449a.094.094,0,0,1,.031.031,8.342,8.342,0,0,0,0,3.663.062.062,0,0,1-.03.035l-2.427,1.4a2.532,2.532,0,0,0-1.1,3.182,2.458,2.458,0,0,0,3.472,1.123l2.517-1.453a.088.088,0,0,1,.042-.011,8.321,8.321,0,0,0,3.164,1.83.068.068,0,0,1,.015.045V152.4a2.452,2.452,0,0,0,2.454,2.547,2.457,2.457,0,0,0,2.461-2.457v-2.9a.287.287,0,0,1,.008-.041,8.335,8.335,0,0,0,3.167-1.831.063.063,0,0,1,.046.008l2.518,1.453A2.462,2.462,0,0,0,164.283,149.384Zm-3.717-3.021a1.594,1.594,0,0,0-1.889.2,6.774,6.774,0,0,1-2.572,1.488,1.612,1.612,0,0,0-1.11,1.538v2.9a.892.892,0,0,1-1.047.878.962.962,0,0,1-.736-.968v-2.813a1.612,1.612,0,0,0-1.11-1.538,6.774,6.774,0,0,1-2.572-1.488,1.569,1.569,0,0,0-1.069-.417,1.639,1.639,0,0,0-.82.222l-2.518,1.453a.892.892,0,0,1-1.26-.411.967.967,0,0,1,.452-1.181l2.427-1.4a1.594,1.594,0,0,0,.775-1.732,6.789,6.789,0,0,1,0-2.978,1.594,1.594,0,0,0-.775-1.732l-2.509-1.449a.892.892,0,0,1-.237-1.345.962.962,0,0,1,1.206-.153l2.44,1.409a1.594,1.594,0,0,0,1.889-.2,6.774,6.774,0,0,1,2.572-1.488,1.612,1.612,0,0,0,1.11-1.538v-2.9a.892.892,0,0,1,1.047-.878.962.962,0,0,1,.736.968v2.813a1.612,1.612,0,0,0,1.11,1.538,6.774,6.774,0,0,1,2.572,1.488,1.594,1.594,0,0,0,1.889.2l2.518-1.454a.891.891,0,0,1,1.26.411.966.966,0,0,1-.452,1.181l-2.427,1.4a1.594,1.594,0,0,0-.775,1.732,6.789,6.789,0,0,1,0,2.978,1.594,1.594,0,0,0,.775,1.732l2.427,1.4a.967.967,0,0,1,.452,1.181.892.892,0,0,1-1.26.411Z" transform="translate(-59.82 63.02)" fill="#fff"/>
      </g>
      <path id="Trazado_1255899" data-name="Trazado 1255899" d="M215.815,226.309A3.4,3.4,0,0,1,211,221.5a.783.783,0,0,0-1.108-1.108,4.969,4.969,0,0,0,7.028,7.028.783.783,0,0,0-1.108-1.108Z" transform="translate(-186.672 -197.166)" fill="#fff"/>
      <path id="Trazado_1255900" data-name="Trazado 1255900" d="M194.845,61.028a2.458,2.458,0,1,0-2.458-2.458A2.46,2.46,0,0,0,194.845,61.028Zm0-3.349a.891.891,0,1,1-.891.891A.892.892,0,0,1,194.845,57.68Z" transform="translate(-172.294 -50.253)" fill="#fff"/>
      <path id="Trazado_1255901" data-name="Trazado 1255901" d="M411.281,269.448a2.458,2.458,0,1,0-2.458-2.458A2.46,2.46,0,0,0,411.281,269.448Zm0-3.349a.891.891,0,1,1-.891.891A.892.892,0,0,1,411.281,266.1Z" transform="translate(-366.126 -236.905)" fill="#fff"/>
      <path id="Trazado_1255902" data-name="Trazado 1255902" d="M202.862,408.823a2.458,2.458,0,1,0,2.458,2.458A2.461,2.461,0,0,0,202.862,408.823Zm0,3.349a.891.891,0,1,1,.891-.891A.892.892,0,0,1,202.862,412.172Z" transform="translate(-179.474 -366.126)" fill="#fff"/>
      <path id="Trazado_1255903" data-name="Trazado 1255903" d="M74.6,232.468a2.458,2.458,0,1,0,2.458,2.458A2.461,2.461,0,0,0,74.6,232.468Zm0,3.349a.891.891,0,1,1,.891-.891A.892.892,0,0,1,74.6,235.817Z" transform="translate(-64.61 -208.189)" fill="#fff"/>
    </g>
    <g id="plaqueta-2" data-name="plaqueta" transform="translate(588.927 2719.927)">
      <g transform="matrix(1, 0, 0, 1, -243.54, -177.88)" filter="url(#Trazado_1255897-2)">
        <path id="Trazado_1255897-6" data-name="Trazado 1255897" d="M45.642,7.831A26.737,26.737,0,0,0,7.831,45.642,26.737,26.737,0,0,0,45.642,7.831Zm.1,2.4L43.13,12.847a4.24,4.24,0,1,1-6-6l2.02-2.02a25.188,25.188,0,0,1,4.229,3.028l-2.621,2.621a.891.891,0,0,1-1.26-1.26l.6-.6a.783.783,0,1,0-1.108-1.108l-.6.6a2.458,2.458,0,0,0,3.476,3.476L44.526,8.93l.008.008q.629.63,1.208,1.3Zm-36.8-1.3q.842-.842,1.748-1.593L12.01,8.669a4.24,4.24,0,0,1-6,6l-.874-.874q.469-.778,1-1.525L7.274,13.4A2.458,2.458,0,0,0,11.425,11.2a.783.783,0,0,0-1.538.3.891.891,0,0,1-1.5.8L7.088,11A25.58,25.58,0,0,1,8.939,8.939Zm0,35.6q-.54-.54-1.042-1.108h.421a2.458,2.458,0,0,0,0-4.915.783.783,0,0,0,0,1.567.891.891,0,0,1,0,1.782H6.613A24.978,24.978,0,0,1,3.7,36.922a4.221,4.221,0,0,1,1.265-.193H8.318A4.24,4.24,0,0,1,9.47,45.05q-.269-.254-.532-.515ZM10.8,46.219A5.806,5.806,0,0,0,8.318,35.162H4.969a5.771,5.771,0,0,0-1.853.3A25.305,25.305,0,0,1,4.347,15.214l.559.559a5.807,5.807,0,1,0,8.212-8.212L11.932,6.376A25.229,25.229,0,0,1,37.7,4.068L36.026,5.743a5.807,5.807,0,1,0,8.212,8.212l2.5-2.5A25.183,25.183,0,0,1,46.8,41.938l-1.582-1.582a5.807,5.807,0,0,0-8.212,8.212l.791.791a25.22,25.22,0,0,1-27-3.139Zm33.738-1.685a25.561,25.561,0,0,1-2.452,2.157l-1.6-1.6a.891.891,0,1,1,1.26-1.26.783.783,0,0,0,1.108-1.108A2.458,2.458,0,0,0,39.375,46.2L40.8,47.621q-.76.514-1.552.969l-1.13-1.13a4.24,4.24,0,1,1,6-6l1.7,1.7Q45.2,43.868,44.534,44.534Z" transform="translate(243.54 177.88)" fill="#fff"/>
      </g>
      <g transform="matrix(1, 0, 0, 1, -243.54, -177.88)" filter="url(#Trazado_1255898-2)">
        <path id="Trazado_1255898-6" data-name="Trazado 1255898" d="M164.283,149.384a2.468,2.468,0,0,0,1.489-1.334,2.532,2.532,0,0,0-1.1-3.182l-2.427-1.4a.094.094,0,0,1-.031-.031,8.342,8.342,0,0,0,0-3.663.062.062,0,0,1,.03-.035l2.427-1.4a2.532,2.532,0,0,0,1.1-3.182,2.458,2.458,0,0,0-3.472-1.123l-2.518,1.454a.088.088,0,0,1-.042.011,8.322,8.322,0,0,0-3.164-1.83.068.068,0,0,1-.015-.045v-2.813a2.527,2.527,0,0,0-2.051-2.514,2.459,2.459,0,0,0-2.865,2.425v2.9a.281.281,0,0,1-.008.041,8.335,8.335,0,0,0-3.167,1.831.063.063,0,0,1-.046-.008l-2.44-1.409a2.527,2.527,0,0,0-3.2.519,2.459,2.459,0,0,0,.667,3.693l2.51,1.449a.094.094,0,0,1,.031.031,8.342,8.342,0,0,0,0,3.663.062.062,0,0,1-.03.035l-2.427,1.4a2.532,2.532,0,0,0-1.1,3.182,2.458,2.458,0,0,0,3.472,1.123l2.517-1.453a.088.088,0,0,1,.042-.011,8.321,8.321,0,0,0,3.164,1.83.068.068,0,0,1,.015.045V152.4a2.452,2.452,0,0,0,2.454,2.547,2.457,2.457,0,0,0,2.461-2.457v-2.9a.287.287,0,0,1,.008-.041,8.335,8.335,0,0,0,3.167-1.831.063.063,0,0,1,.046.008l2.518,1.453A2.462,2.462,0,0,0,164.283,149.384Zm-3.717-3.021a1.594,1.594,0,0,0-1.889.2,6.774,6.774,0,0,1-2.572,1.488,1.612,1.612,0,0,0-1.11,1.538v2.9a.892.892,0,0,1-1.047.878.962.962,0,0,1-.736-.968v-2.813a1.612,1.612,0,0,0-1.11-1.538,6.774,6.774,0,0,1-2.572-1.488,1.569,1.569,0,0,0-1.069-.417,1.639,1.639,0,0,0-.82.222l-2.518,1.453a.892.892,0,0,1-1.26-.411.967.967,0,0,1,.452-1.181l2.427-1.4a1.594,1.594,0,0,0,.775-1.732,6.789,6.789,0,0,1,0-2.978,1.594,1.594,0,0,0-.775-1.732l-2.509-1.449a.892.892,0,0,1-.237-1.345.962.962,0,0,1,1.206-.153l2.44,1.409a1.594,1.594,0,0,0,1.889-.2,6.774,6.774,0,0,1,2.572-1.488,1.612,1.612,0,0,0,1.11-1.538v-2.9a.892.892,0,0,1,1.047-.878.962.962,0,0,1,.736.968v2.813a1.612,1.612,0,0,0,1.11,1.538,6.774,6.774,0,0,1,2.572,1.488,1.594,1.594,0,0,0,1.889.2l2.518-1.454a.891.891,0,0,1,1.26.411.966.966,0,0,1-.452,1.181l-2.427,1.4a1.594,1.594,0,0,0-.775,1.732,6.789,6.789,0,0,1,0,2.978,1.594,1.594,0,0,0,.775,1.732l2.427,1.4a.967.967,0,0,1,.452,1.181.892.892,0,0,1-1.26.411Z" transform="translate(116.18 63.02)" fill="#fff"/>
      </g>
      <path id="Trazado_1255899-2" data-name="Trazado 1255899" d="M215.815,226.309A3.4,3.4,0,0,1,211,221.5a.783.783,0,0,0-1.108-1.108,4.969,4.969,0,0,0,7.028,7.028.783.783,0,0,0-1.108-1.108Z" transform="translate(-186.672 -197.166)" fill="#fff"/>
      <path id="Trazado_1255900-2" data-name="Trazado 1255900" d="M194.845,61.028a2.458,2.458,0,1,0-2.458-2.458A2.46,2.46,0,0,0,194.845,61.028Zm0-3.349a.891.891,0,1,1-.891.891A.892.892,0,0,1,194.845,57.68Z" transform="translate(-172.294 -50.253)" fill="#fff"/>
      <path id="Trazado_1255901-2" data-name="Trazado 1255901" d="M411.281,269.448a2.458,2.458,0,1,0-2.458-2.458A2.46,2.46,0,0,0,411.281,269.448Zm0-3.349a.891.891,0,1,1-.891.891A.892.892,0,0,1,411.281,266.1Z" transform="translate(-366.126 -236.905)" fill="#fff"/>
      <path id="Trazado_1255902-2" data-name="Trazado 1255902" d="M202.862,408.823a2.458,2.458,0,1,0,2.458,2.458A2.461,2.461,0,0,0,202.862,408.823Zm0,3.349a.891.891,0,1,1,.891-.891A.892.892,0,0,1,202.862,412.172Z" transform="translate(-179.474 -366.126)" fill="#fff"/>
      <path id="Trazado_1255903-2" data-name="Trazado 1255903" d="M74.6,232.468a2.458,2.458,0,1,0,2.458,2.458A2.461,2.461,0,0,0,74.6,232.468Zm0,3.349a.891.891,0,1,1,.891-.891A.892.892,0,0,1,74.6,235.817Z" transform="translate(-64.61 -208.189)" fill="#fff"/>
    </g>
    <g id="plaqueta-3" data-name="plaqueta" transform="translate(991.927 2719.927)">
      <g transform="matrix(1, 0, 0, 1, -646.54, -177.88)" filter="url(#Trazado_1255897-3)">
        <path id="Trazado_1255897-7" data-name="Trazado 1255897" d="M45.642,7.831A26.737,26.737,0,0,0,7.831,45.642,26.737,26.737,0,0,0,45.642,7.831Zm.1,2.4L43.13,12.847a4.24,4.24,0,1,1-6-6l2.02-2.02a25.188,25.188,0,0,1,4.229,3.028l-2.621,2.621a.891.891,0,0,1-1.26-1.26l.6-.6a.783.783,0,1,0-1.108-1.108l-.6.6a2.458,2.458,0,0,0,3.476,3.476L44.526,8.93l.008.008q.629.63,1.208,1.3Zm-36.8-1.3q.842-.842,1.748-1.593L12.01,8.669a4.24,4.24,0,0,1-6,6l-.874-.874q.469-.778,1-1.525L7.274,13.4A2.458,2.458,0,0,0,11.425,11.2a.783.783,0,0,0-1.538.3.891.891,0,0,1-1.5.8L7.088,11A25.58,25.58,0,0,1,8.939,8.939Zm0,35.6q-.54-.54-1.042-1.108h.421a2.458,2.458,0,0,0,0-4.915.783.783,0,0,0,0,1.567.891.891,0,0,1,0,1.782H6.613A24.978,24.978,0,0,1,3.7,36.922a4.221,4.221,0,0,1,1.265-.193H8.318A4.24,4.24,0,0,1,9.47,45.05q-.269-.254-.532-.515ZM10.8,46.219A5.806,5.806,0,0,0,8.318,35.162H4.969a5.771,5.771,0,0,0-1.853.3A25.305,25.305,0,0,1,4.347,15.214l.559.559a5.807,5.807,0,1,0,8.212-8.212L11.932,6.376A25.229,25.229,0,0,1,37.7,4.068L36.026,5.743a5.807,5.807,0,1,0,8.212,8.212l2.5-2.5A25.183,25.183,0,0,1,46.8,41.938l-1.582-1.582a5.807,5.807,0,0,0-8.212,8.212l.791.791a25.22,25.22,0,0,1-27-3.139Zm33.738-1.685a25.561,25.561,0,0,1-2.452,2.157l-1.6-1.6a.891.891,0,1,1,1.26-1.26.783.783,0,0,0,1.108-1.108A2.458,2.458,0,0,0,39.375,46.2L40.8,47.621q-.76.514-1.552.969l-1.13-1.13a4.24,4.24,0,1,1,6-6l1.7,1.7Q45.2,43.868,44.534,44.534Z" transform="translate(646.54 177.88)" fill="#fff"/>
      </g>
      <g transform="matrix(1, 0, 0, 1, -646.54, -177.88)" filter="url(#Trazado_1255898-3)">
        <path id="Trazado_1255898-7" data-name="Trazado 1255898" d="M164.283,149.384a2.468,2.468,0,0,0,1.489-1.334,2.532,2.532,0,0,0-1.1-3.182l-2.427-1.4a.094.094,0,0,1-.031-.031,8.342,8.342,0,0,0,0-3.663.062.062,0,0,1,.03-.035l2.427-1.4a2.532,2.532,0,0,0,1.1-3.182,2.458,2.458,0,0,0-3.472-1.123l-2.518,1.454a.088.088,0,0,1-.042.011,8.322,8.322,0,0,0-3.164-1.83.068.068,0,0,1-.015-.045v-2.813a2.527,2.527,0,0,0-2.051-2.514,2.459,2.459,0,0,0-2.865,2.425v2.9a.281.281,0,0,1-.008.041,8.335,8.335,0,0,0-3.167,1.831.063.063,0,0,1-.046-.008l-2.44-1.409a2.527,2.527,0,0,0-3.2.519,2.459,2.459,0,0,0,.667,3.693l2.51,1.449a.094.094,0,0,1,.031.031,8.342,8.342,0,0,0,0,3.663.062.062,0,0,1-.03.035l-2.427,1.4a2.532,2.532,0,0,0-1.1,3.182,2.458,2.458,0,0,0,3.472,1.123l2.517-1.453a.088.088,0,0,1,.042-.011,8.321,8.321,0,0,0,3.164,1.83.068.068,0,0,1,.015.045V152.4a2.452,2.452,0,0,0,2.454,2.547,2.457,2.457,0,0,0,2.461-2.457v-2.9a.287.287,0,0,1,.008-.041,8.335,8.335,0,0,0,3.167-1.831.063.063,0,0,1,.046.008l2.518,1.453A2.462,2.462,0,0,0,164.283,149.384Zm-3.717-3.021a1.594,1.594,0,0,0-1.889.2,6.774,6.774,0,0,1-2.572,1.488,1.612,1.612,0,0,0-1.11,1.538v2.9a.892.892,0,0,1-1.047.878.962.962,0,0,1-.736-.968v-2.813a1.612,1.612,0,0,0-1.11-1.538,6.774,6.774,0,0,1-2.572-1.488,1.569,1.569,0,0,0-1.069-.417,1.639,1.639,0,0,0-.82.222l-2.518,1.453a.892.892,0,0,1-1.26-.411.967.967,0,0,1,.452-1.181l2.427-1.4a1.594,1.594,0,0,0,.775-1.732,6.789,6.789,0,0,1,0-2.978,1.594,1.594,0,0,0-.775-1.732l-2.509-1.449a.892.892,0,0,1-.237-1.345.962.962,0,0,1,1.206-.153l2.44,1.409a1.594,1.594,0,0,0,1.889-.2,6.774,6.774,0,0,1,2.572-1.488,1.612,1.612,0,0,0,1.11-1.538v-2.9a.892.892,0,0,1,1.047-.878.962.962,0,0,1,.736.968v2.813a1.612,1.612,0,0,0,1.11,1.538,6.774,6.774,0,0,1,2.572,1.488,1.594,1.594,0,0,0,1.889.2l2.518-1.454a.891.891,0,0,1,1.26.411.966.966,0,0,1-.452,1.181l-2.427,1.4a1.594,1.594,0,0,0-.775,1.732,6.789,6.789,0,0,1,0,2.978,1.594,1.594,0,0,0,.775,1.732l2.427,1.4a.967.967,0,0,1,.452,1.181.892.892,0,0,1-1.26.411Z" transform="translate(519.18 63.02)" fill="#fff"/>
      </g>
      <path id="Trazado_1255899-3" data-name="Trazado 1255899" d="M215.815,226.309A3.4,3.4,0,0,1,211,221.5a.783.783,0,0,0-1.108-1.108,4.969,4.969,0,0,0,7.028,7.028.783.783,0,0,0-1.108-1.108Z" transform="translate(-186.672 -197.166)" fill="#fff"/>
      <path id="Trazado_1255900-3" data-name="Trazado 1255900" d="M194.845,61.028a2.458,2.458,0,1,0-2.458-2.458A2.46,2.46,0,0,0,194.845,61.028Zm0-3.349a.891.891,0,1,1-.891.891A.892.892,0,0,1,194.845,57.68Z" transform="translate(-172.294 -50.253)" fill="#fff"/>
      <path id="Trazado_1255901-3" data-name="Trazado 1255901" d="M411.281,269.448a2.458,2.458,0,1,0-2.458-2.458A2.46,2.46,0,0,0,411.281,269.448Zm0-3.349a.891.891,0,1,1-.891.891A.892.892,0,0,1,411.281,266.1Z" transform="translate(-366.126 -236.905)" fill="#fff"/>
      <path id="Trazado_1255902-3" data-name="Trazado 1255902" d="M202.862,408.823a2.458,2.458,0,1,0,2.458,2.458A2.461,2.461,0,0,0,202.862,408.823Zm0,3.349a.891.891,0,1,1,.891-.891A.892.892,0,0,1,202.862,412.172Z" transform="translate(-179.474 -366.126)" fill="#fff"/>
      <path id="Trazado_1255903-3" data-name="Trazado 1255903" d="M74.6,232.468a2.458,2.458,0,1,0,2.458,2.458A2.461,2.461,0,0,0,74.6,232.468Zm0,3.349a.891.891,0,1,1,.891-.891A.892.892,0,0,1,74.6,235.817Z" transform="translate(-64.61 -208.189)" fill="#fff"/>
    </g>
    <g id="plaqueta-4" data-name="plaqueta" transform="translate(1167.927 2719.927)">
      <g transform="matrix(1, 0, 0, 1, -822.54, -177.88)" filter="url(#Trazado_1255897-4)">
        <path id="Trazado_1255897-8" data-name="Trazado 1255897" d="M45.642,7.831A26.737,26.737,0,0,0,7.831,45.642,26.737,26.737,0,0,0,45.642,7.831Zm.1,2.4L43.13,12.847a4.24,4.24,0,1,1-6-6l2.02-2.02a25.188,25.188,0,0,1,4.229,3.028l-2.621,2.621a.891.891,0,0,1-1.26-1.26l.6-.6a.783.783,0,1,0-1.108-1.108l-.6.6a2.458,2.458,0,0,0,3.476,3.476L44.526,8.93l.008.008q.629.63,1.208,1.3Zm-36.8-1.3q.842-.842,1.748-1.593L12.01,8.669a4.24,4.24,0,0,1-6,6l-.874-.874q.469-.778,1-1.525L7.274,13.4A2.458,2.458,0,0,0,11.425,11.2a.783.783,0,0,0-1.538.3.891.891,0,0,1-1.5.8L7.088,11A25.58,25.58,0,0,1,8.939,8.939Zm0,35.6q-.54-.54-1.042-1.108h.421a2.458,2.458,0,0,0,0-4.915.783.783,0,0,0,0,1.567.891.891,0,0,1,0,1.782H6.613A24.978,24.978,0,0,1,3.7,36.922a4.221,4.221,0,0,1,1.265-.193H8.318A4.24,4.24,0,0,1,9.47,45.05q-.269-.254-.532-.515ZM10.8,46.219A5.806,5.806,0,0,0,8.318,35.162H4.969a5.771,5.771,0,0,0-1.853.3A25.305,25.305,0,0,1,4.347,15.214l.559.559a5.807,5.807,0,1,0,8.212-8.212L11.932,6.376A25.229,25.229,0,0,1,37.7,4.068L36.026,5.743a5.807,5.807,0,1,0,8.212,8.212l2.5-2.5A25.183,25.183,0,0,1,46.8,41.938l-1.582-1.582a5.807,5.807,0,0,0-8.212,8.212l.791.791a25.22,25.22,0,0,1-27-3.139Zm33.738-1.685a25.561,25.561,0,0,1-2.452,2.157l-1.6-1.6a.891.891,0,1,1,1.26-1.26.783.783,0,0,0,1.108-1.108A2.458,2.458,0,0,0,39.375,46.2L40.8,47.621q-.76.514-1.552.969l-1.13-1.13a4.24,4.24,0,1,1,6-6l1.7,1.7Q45.2,43.868,44.534,44.534Z" transform="translate(822.54 177.88)" fill="#fff"/>
      </g>
      <g transform="matrix(1, 0, 0, 1, -822.54, -177.88)" filter="url(#Trazado_1255898-4)">
        <path id="Trazado_1255898-8" data-name="Trazado 1255898" d="M164.283,149.384a2.468,2.468,0,0,0,1.489-1.334,2.532,2.532,0,0,0-1.1-3.182l-2.427-1.4a.094.094,0,0,1-.031-.031,8.342,8.342,0,0,0,0-3.663.062.062,0,0,1,.03-.035l2.427-1.4a2.532,2.532,0,0,0,1.1-3.182,2.458,2.458,0,0,0-3.472-1.123l-2.518,1.454a.088.088,0,0,1-.042.011,8.322,8.322,0,0,0-3.164-1.83.068.068,0,0,1-.015-.045v-2.813a2.527,2.527,0,0,0-2.051-2.514,2.459,2.459,0,0,0-2.865,2.425v2.9a.281.281,0,0,1-.008.041,8.335,8.335,0,0,0-3.167,1.831.063.063,0,0,1-.046-.008l-2.44-1.409a2.527,2.527,0,0,0-3.2.519,2.459,2.459,0,0,0,.667,3.693l2.51,1.449a.094.094,0,0,1,.031.031,8.342,8.342,0,0,0,0,3.663.062.062,0,0,1-.03.035l-2.427,1.4a2.532,2.532,0,0,0-1.1,3.182,2.458,2.458,0,0,0,3.472,1.123l2.517-1.453a.088.088,0,0,1,.042-.011,8.321,8.321,0,0,0,3.164,1.83.068.068,0,0,1,.015.045V152.4a2.452,2.452,0,0,0,2.454,2.547,2.457,2.457,0,0,0,2.461-2.457v-2.9a.287.287,0,0,1,.008-.041,8.335,8.335,0,0,0,3.167-1.831.063.063,0,0,1,.046.008l2.518,1.453A2.462,2.462,0,0,0,164.283,149.384Zm-3.717-3.021a1.594,1.594,0,0,0-1.889.2,6.774,6.774,0,0,1-2.572,1.488,1.612,1.612,0,0,0-1.11,1.538v2.9a.892.892,0,0,1-1.047.878.962.962,0,0,1-.736-.968v-2.813a1.612,1.612,0,0,0-1.11-1.538,6.774,6.774,0,0,1-2.572-1.488,1.569,1.569,0,0,0-1.069-.417,1.639,1.639,0,0,0-.82.222l-2.518,1.453a.892.892,0,0,1-1.26-.411.967.967,0,0,1,.452-1.181l2.427-1.4a1.594,1.594,0,0,0,.775-1.732,6.789,6.789,0,0,1,0-2.978,1.594,1.594,0,0,0-.775-1.732l-2.509-1.449a.892.892,0,0,1-.237-1.345.962.962,0,0,1,1.206-.153l2.44,1.409a1.594,1.594,0,0,0,1.889-.2,6.774,6.774,0,0,1,2.572-1.488,1.612,1.612,0,0,0,1.11-1.538v-2.9a.892.892,0,0,1,1.047-.878.962.962,0,0,1,.736.968v2.813a1.612,1.612,0,0,0,1.11,1.538,6.774,6.774,0,0,1,2.572,1.488,1.594,1.594,0,0,0,1.889.2l2.518-1.454a.891.891,0,0,1,1.26.411.966.966,0,0,1-.452,1.181l-2.427,1.4a1.594,1.594,0,0,0-.775,1.732,6.789,6.789,0,0,1,0,2.978,1.594,1.594,0,0,0,.775,1.732l2.427,1.4a.967.967,0,0,1,.452,1.181.892.892,0,0,1-1.26.411Z" transform="translate(695.18 63.02)" fill="#fff"/>
      </g>
      <path id="Trazado_1255899-4" data-name="Trazado 1255899" d="M215.815,226.309A3.4,3.4,0,0,1,211,221.5a.783.783,0,0,0-1.108-1.108,4.969,4.969,0,0,0,7.028,7.028.783.783,0,0,0-1.108-1.108Z" transform="translate(-186.672 -197.166)" fill="#fff"/>
      <path id="Trazado_1255900-4" data-name="Trazado 1255900" d="M194.845,61.028a2.458,2.458,0,1,0-2.458-2.458A2.46,2.46,0,0,0,194.845,61.028Zm0-3.349a.891.891,0,1,1-.891.891A.892.892,0,0,1,194.845,57.68Z" transform="translate(-172.294 -50.253)" fill="#fff"/>
      <path id="Trazado_1255901-4" data-name="Trazado 1255901" d="M411.281,269.448a2.458,2.458,0,1,0-2.458-2.458A2.46,2.46,0,0,0,411.281,269.448Zm0-3.349a.891.891,0,1,1-.891.891A.892.892,0,0,1,411.281,266.1Z" transform="translate(-366.126 -236.905)" fill="#fff"/>
      <path id="Trazado_1255902-4" data-name="Trazado 1255902" d="M202.862,408.823a2.458,2.458,0,1,0,2.458,2.458A2.461,2.461,0,0,0,202.862,408.823Zm0,3.349a.891.891,0,1,1,.891-.891A.892.892,0,0,1,202.862,412.172Z" transform="translate(-179.474 -366.126)" fill="#fff"/>
      <path id="Trazado_1255903-4" data-name="Trazado 1255903" d="M74.6,232.468a2.458,2.458,0,1,0,2.458,2.458A2.461,2.461,0,0,0,74.6,232.468Zm0,3.349a.891.891,0,1,1,.891-.891A.892.892,0,0,1,74.6,235.817Z" transform="translate(-64.61 -208.189)" fill="#fff"/>
    </g>
  </g>
</svg>
