<svg xmlns="http://www.w3.org/2000/svg" xmlns:xlink="http://www.w3.org/1999/xlink" width="224.589" height="205" viewBox="0 0 224.589 205">
  <defs>
    <clipPath id="clip-path">
      <rect id="Rectángulo_424208" data-name="Rectángulo 424208" width="190" height="205" transform="translate(180 2907)" fill="#fff" stroke="#707070" stroke-width="1"/>
    </clipPath>
  </defs>
  <g id="Grupo_1238083" data-name="Grupo 1238083" transform="translate(-180 -2907)">
    <g id="Grupo_1238081" data-name="Grupo 1238081">
      <g id="Enmascarar_grupo_1098673" data-name="Enmascarar grupo 1098673" clip-path="url(#clip-path)">
        <g id="Grupo_1238068" data-name="Grupo 1238068" transform="translate(187.455 2901.39)">
          <g id="Grupo_1238066" data-name="Grupo 1238066" transform="translate(0 12.816)">
            <g id="Grupo_1238049" data-name="Grupo 1238049" transform="translate(68.689 43.376)">
              <path id="Trazado_1257244" data-name="Trazado 1257244" d="M882.031,309.063s4.061-1.513,10,.722a13.3,13.3,0,0,1,7.7,7.529s-2.42,4.4-10.535.516S882.031,309.063,882.031,309.063Z" transform="translate(-840.714 -256.089)" fill="#73afc9"/>
              <g id="Grupo_1238048" data-name="Grupo 1238048" transform="translate(40.673)">
                <g id="Grupo_1238047" data-name="Grupo 1238047" transform="translate(3.81)">
                  <path id="Trazado_1257245" data-name="Trazado 1257245" d="M894.391,278.3s-1.9,13.119-2.936,17.743-14.15.728-14.028-3.273,6.637-16.67,6.637-16.67Z" transform="translate(-877.427 -240.883)" fill="#ffbba9"/>
                  <path id="Trazado_1257246" data-name="Trazado 1257246" d="M867.368,210.267c1.177.775-.047,4.169-.6,4.946a18.123,18.123,0,0,0-2.2,4.567,49.457,49.457,0,0,0-.508,6.347s1.84-2.392,3.666-2.115a2.7,2.7,0,0,1,2.373,2.067,2.762,2.762,0,0,0,.272.7,2.76,2.76,0,0,1,5.433.808s1.639-1.344,3.189-.425,2.271,4.478,1.183,8.265-2.2,4.806-2.832,5.184a2.634,2.634,0,0,1-1.755.014,15.961,15.961,0,0,1-2.828,5.663c-1.846,1.983-11.268,1.526-14.052-.633s-.511-17.318-.155-19.487.512-9.141,4.037-14.17C864.244,209.646,866.141,209.458,867.368,210.267Z" transform="translate(-853.062 -209.834)" fill="#ffbba9"/>
                  <path id="Trazado_1257247" data-name="Trazado 1257247" d="M879.5,254.414a2.739,2.739,0,0,0,1.772-.761c1.562-1.38,1.77-10.339,1.778-10.719l-.2,0c0,.092-.213,9.25-1.709,10.571a2.311,2.311,0,0,1-2.161.64,2.235,2.235,0,0,1-1.475-1.579c-.51-1.65.253-10.137.261-10.222l-.2-.019c-.032.351-.774,8.612-.253,10.3a2.435,2.435,0,0,0,1.615,1.715A2.1,2.1,0,0,0,879.5,254.414Z" transform="translate(-865.929 -225.055)"/>
                  <path id="Trazado_1257248" data-name="Trazado 1257248" d="M869.613,256.036a2.423,2.423,0,0,0,1.469-.5c2.068-1.585,2.254-9.991,2.26-10.348l-.2,0c0,.087-.19,8.664-2.181,10.191a2.351,2.351,0,0,1-2.51.187,2.8,2.8,0,0,1-1.579-2.5l-.2,0a3,3,0,0,0,1.693,2.685A2.816,2.816,0,0,0,869.613,256.036Z" transform="translate(-850.658 -226.394)"/>
                  <path id="Trazado_1257249" data-name="Trazado 1257249" d="M863.475,264.8a1.907,1.907,0,0,0,.432-.052,2.379,2.379,0,0,0,1.535-1.44l-.183-.087a2.191,2.191,0,0,1-1.4,1.33,2.5,2.5,0,0,1-1.935-.521c-.731-.563-.539-3.045-.537-3.07l-.2-.016c-.009.107-.2,2.618.615,3.248A2.945,2.945,0,0,0,863.475,264.8Z" transform="translate(-839.831 -233.778)"/>
                  <path id="Trazado_1257250" data-name="Trazado 1257250" d="M875.966,245.5c1.04-1.218,3.34-1.516,6.268-1.327s6.243,2.238,7,3.828-.454,3.036-1.734,2.727-3.148-1.092-3.786-1.034.385,1.647.521,5.316-1.35,8.522-2.357,8.353-4.932-.114-5.882-3.266S874.481,247.242,875.966,245.5Z" transform="translate(-871.244 -225.898)" fill="#ffbba9"/>
                  <path id="Trazado_1257251" data-name="Trazado 1257251" d="M878.928,258.483a19.141,19.141,0,0,0-.21-7.447,5.51,5.51,0,0,1-.165-1.344c.192-.155,1.163.182,2.02.48.284.1.575.2.858.292,1.1.354,2.311.614,2.856-.8.491-1.277.22-2.23-2.648-4.193-2.761-1.889-6.813-1.551-6.854-1.548l.018.2c.04,0,4.021-.334,6.721,1.513,2.756,1.886,3.026,2.778,2.573,3.953-.435,1.132-1.284,1.107-2.6.68-.282-.091-.572-.192-.854-.29-1.2-.417-1.95-.662-2.223-.436-.14.115-.087.459.1,1.528a18.97,18.97,0,0,1,.212,7.365Z" transform="translate(-866.113 -225.792)"/>
                </g>
                <path id="Trazado_1257252" data-name="Trazado 1257252" d="M886.63,300.077a12.7,12.7,0,0,0,6.428,4.332,16.055,16.055,0,0,0,7.219-.057l-1.145,9.241s-4.231,4.649-9.346,2.536-7.928-7.689-7.928-7.689Z" transform="translate(-881.859 -252.114)" fill="#c4b4b1"/>
              </g>
              <path id="Trazado_1257253" data-name="Trazado 1257253" d="M882,301.125s5.017,1.533,11.26,10.9c5.868,8.8,13.7,16,16.032,14.528,8.689-5.478,14.025-20.969,14.025-20.969s1.164,3.155,7.821,6.6c7.278,3.768,9.88,1.649,9.88,1.649s-6.315,26.708-19.445,36.192-28.887-1-33.127-6.524S882,301.125,882,301.125Z" transform="translate(-881.996 -252.605)" fill="#b4d9ed"/>
            </g>
            <g id="Grupo_1238055" data-name="Grupo 1238055" transform="translate(2.103 69.979)">
              <path id="Trazado_1257254" data-name="Trazado 1257254" d="M1009.826,286.016a16.074,16.074,0,0,1,8.951-2.159,20.354,20.354,0,0,1,9.206,2.822l2.343,4.044-20.96,1.843Z" transform="translate(-972.417 -271.108)" fill="#73afc9"/>
              <path id="Trazado_1257255" data-name="Trazado 1257255" d="M1006.269,259.888l-1.788,17.349-5.045,2.613s9.72,19.424,16.226,20.05,13.66-19.34,13.66-19.34l-9.24-3.854,4.012-15.877Z" transform="translate(-966.134 -259.888)" fill="#ffbba9"/>
              <path id="Trazado_1257256" data-name="Trazado 1257256" d="M1010.082,292.82s-.118,15.589-3.553,16.429-14.511-16.156-14.511-16.156l-6.98,2.353,2.251,53.062s36.707-.9,37.931-3.756-7.539-48.763-7.539-48.763Z" transform="translate(-954.496 -275.317)" fill="#c4b4b1"/>
              <g id="Grupo_1238054" data-name="Grupo 1238054" transform="translate(0.965 120.778)">
                <g id="Grupo_1238051" data-name="Grupo 1238051" transform="translate(50.894 166.897)">
                  <path id="Trazado_1257257" data-name="Trazado 1257257" d="M968.149,845.577s-.2.824.162,1.126,5.749.673,15.294.893c9.8.226,11.7-.263,12.048-.663a3.056,3.056,0,0,0,.146-1.083S968.707,845.2,968.149,845.577Z" transform="translate(-967.813 -821.91)" fill="#3a3a3a"/>
                  <g id="Grupo_1238050" data-name="Grupo 1238050" transform="translate(1.245)">
                    <path id="Trazado_1257258" data-name="Trazado 1257258" d="M1000.916,802.681l-2.128,13.982,5.082,4.007.019,2.3s-15.314-.037-16.389-3.248c-.511-1.526,1.486-18.573,1.486-18.573Z" transform="translate(-987.416 -801.151)" fill="#ffbba9"/>
                  </g>
                  <path id="Trazado_1257259" data-name="Trazado 1257259" d="M981.232,831.108s-.745.524-.69,1.082.434,1.243.01,1.574c-3.942,3.078-11.093-1.843-11.093-1.843a8.873,8.873,0,0,0-1.3,3.731,6.217,6.217,0,0,0,.274,3.2s6.116.8,11.348.911,15.09.185,16.3-.637c0,0,.081-3.354-2.468-4.6S981.232,831.108,981.232,831.108Z" transform="translate(-968.094 -815.186)" fill="#9b4205"/>
                </g>
                <g id="Grupo_1238053" data-name="Grupo 1238053" transform="translate(2.281 164.632)">
                  <path id="Trazado_1257260" data-name="Trazado 1257260" d="M1061.82,840.543s-.4.748-.128,1.131,5.392,2.1,14.571,4.732c9.427,2.7,11.39,2.705,11.824,2.4.194-.134.415-1.011.415-1.011S1062.452,840.321,1061.82,840.543Z" transform="translate(-1061.598 -817.339)" fill="#3a3a3a"/>
                  <g id="Grupo_1238052" data-name="Grupo 1238052" transform="translate(2.463)">
                    <path id="Trazado_1257261" data-name="Trazado 1257261" d="M1092.606,800.286l-2.68,15.022,3.9,5.162-.564,2.232s-14.807-3.908-15.035-7.286c-.108-1.606,2.972-18.526,2.972-18.526Z" transform="translate(-1078.228 -796.89)" fill="#ffbba9"/>
                  </g>
                  <path id="Trazado_1257262" data-name="Trazado 1257262" d="M1075.6,830.41s-.854.318-.941.873.09,1.28-.389,1.526S1063.694,828,1063.694,828a15.271,15.271,0,0,0-1.895,3.506,6.212,6.212,0,0,0-.544,3.166s5.714,2.32,10.749,3.75,14.553,4,15.934,3.506c0,0,.927-3.225-1.224-5.078S1075.6,830.41,1075.6,830.41Z" transform="translate(-1061.032 -811.464)" fill="#9b4205"/>
                </g>
                <path id="Trazado_1257263" data-name="Trazado 1257263" d="M1044.441,487.133l-63.408.506s-5.343,69.7-7.856,98.359-8.416,71.981-8.416,71.981,7.39,3.192,13.162,3.975a16.878,16.878,0,0,0,5.789-.046s15.655-65.027,18.775-92.475,6.81-39.464,6.81-39.464l6.441-4.035s2.1,40.818-.655,78.014-4.8,50.148-4.8,50.148,8.966,3.585,14.655,3.811a23.563,23.563,0,0,0,6.568-.949s11.491-49.149,13.207-101.572S1044.441,487.133,1044.441,487.133Z" transform="translate(-964.76 -487.133)" fill="#e86810"/>
              </g>
              <path id="Trazado_1257264" data-name="Trazado 1257264" d="M997.338,293.526s3.859,6.9,9.822,15.793c5.049,7.527,6.815,8.884,6.815,8.884s3.569-14.35,4.25-18.114a20.618,20.618,0,0,0,.358-6s10.378,3.066,12.442,6.6,6.826,27.675,9.689,55.483,4,94.431,3.6,95.247-15.82,3.173-36.944,3.545-45.56-6.95-46.789-8.159,18.283-144.312,20.5-146.768S995.861,294.293,997.338,293.526Z" transform="translate(-960.53 -275.648)" fill="#e6f7ff"/>
              <path id="Trazado_1257265" data-name="Trazado 1257265" d="M1021.949,287.937a28.573,28.573,0,0,0,2.851,7.691c2.165,3.944,13.184,19.956,13.184,19.956s-4.408-2.1-8.235-4.4-5.572-4.577-5.883-5.286l1.484-2.653s-3.687.131-4.709-.623-3.269-9.614-2.81-10.5S1021.949,287.937,1021.949,287.937Z" transform="translate(-984.541 -273.029)" fill="#b4d9ed"/>
              <path id="Trazado_1257266" data-name="Trazado 1257266" d="M1002.672,289.183a20.676,20.676,0,0,1,1.356,7.607c.047,4.689-3.478,19.378-3.478,19.378s7.58-9.55,8.219-10.782c.45-.867-1.715-4.862-1.715-4.862a4.456,4.456,0,0,0,2.48-.985c.856-.87-1.854-4.885-3.279-6.754A29.625,29.625,0,0,0,1002.672,289.183Z" transform="translate(-947.103 -273.613)" fill="#b4d9ed"/>
              <path id="Trazado_1257267" data-name="Trazado 1257267" d="M1062.405,466.666l-20.312,4.379s-2.038,17.487.152,20.314,15.634,2.177,18.138-2.583S1062.405,466.666,1062.405,466.666Z" transform="translate(-1021.467 -356.766)" fill="#b4d9ed"/>
              <path id="Trazado_1257268" data-name="Trazado 1257268" d="M959.739,465.831l13.283,4.739s.758,17.513-.785,20.3-10.411,1.9-11.906-2.9S959.739,465.831,959.739,465.831Z" transform="translate(-888.778 -356.375)" fill="#b4d9ed"/>
              <path id="Trazado_1257269" data-name="Trazado 1257269" d="M1014.263,476.653c5.416-97.678.816-136.154.769-136.531l-.2.025c.047.377,4.644,38.84-.771,136.494Z" transform="translate(-961.484 -297.479)"/>
            </g>
            <g id="Grupo_1238056" data-name="Grupo 1238056" transform="translate(46.881 109.636)">
              <path id="Trazado_1257270" data-name="Trazado 1257270" d="M987.978,337.18a5.7,5.7,0,0,1,.356-2.318,43.481,43.481,0,0,1,8.446.1c.247.141.366,1.339.373,2.144l.2,0c0-.343-.039-2.069-.475-2.318-.366-.209-8.262-.482-8.688-.069-.389.377-.416,2.25-.418,2.462Z" transform="translate(-972.749 -334.502)"/>
              <path id="Trazado_1257271" data-name="Trazado 1257271" d="M965.923,340.227c-.906,6.435-.675,53.509.157,53.978s32.883-2.135,34.773-3.877.79-50.192-.408-51.135S966.157,338.547,965.923,340.227Z" transform="translate(-965.342 -336.452)" fill="#6885c2"/>
              <path id="Trazado_1257272" data-name="Trazado 1257272" d="M987,341a.457.457,0,1,0,.453-.461A.457.457,0,0,0,987,341Z" transform="translate(-962.892 -337.333)"/>
              <path id="Trazado_1257273" data-name="Trazado 1257273" d="M1004.39,341.144a.457.457,0,1,0,.453-.461A.457.457,0,0,0,1004.39,341.144Z" transform="translate(-989.528 -337.398)"/>
            </g>
            <g id="Grupo_1238058" data-name="Grupo 1238058" transform="translate(0 92.028)">
              <g id="Grupo_1238057" data-name="Grupo 1238057">
                <path id="Trazado_1257274" data-name="Trazado 1257274" d="M1050.639,414.019a25.041,25.041,0,0,1,4.9,7.4c2.069,4.69.258,11.171.258,11.171s-4.093.507-6.221-7.4S1050.639,414.019,1050.639,414.019Z" transform="translate(-1017.5 -354.149)" fill="#73afc9"/>
                <path id="Trazado_1257275" data-name="Trazado 1257275" d="M1018.063,388.534a28.25,28.25,0,0,1,6.972-.394,41.565,41.565,0,0,1,5.071.666c.96.225,1.6.525,1.8.919.593,1.207-1.083,1.821-1.083,1.821a8.267,8.267,0,0,1,1.962.272,1.754,1.754,0,0,1,1.228,1.133,1.085,1.085,0,0,1-.6,1.173,4.028,4.028,0,0,1-1.618.428s1.538.58,1.532,1.452a1.912,1.912,0,0,1-.777,1.352,14.041,14.041,0,0,1-2.234.9s1.762.506,1.657,1.612a1.556,1.556,0,0,1-1.247,1.11c-1.552.4-3.625-.106-4.822.343-1.021.384-4.079,3.129-6.548,3.531-2.428.4-2.72.081-2.72.081l-7.035,8.91s-3.907-3.9-2.878-13.3l4.937-3.96s2.481-8.424,3.614-10.6a13.915,13.915,0,0,1,4.03-4.081l.1,3.642A5.182,5.182,0,0,0,1018.063,388.534Z" transform="translate(-972.53 -339.102)" fill="#ffbba9"/>
                <path id="Trazado_1257276" data-name="Trazado 1257276" d="M1058.566,413.973a8.276,8.276,0,0,0-.3,6.372,9.6,9.6,0,0,0,4.286,4.854l-6.033,8.517s-6.84-1.141-9.23-7.849a8.423,8.423,0,0,1,.9-7.981Z" transform="translate(-1022.393 -354.127)" fill="#c4b4b1"/>
                <path id="Trazado_1257277" data-name="Trazado 1257277" d="M1077.079,301.38c2.882.26,5.125,16.609.279,34.945-2.611,9.879-9.118,29.732-6.761,29.1s12.765-4.187,12.765-4.187-2.876,3.4-.894,9.871c2.4,7.855,6.054,8.7,6.054,8.7s-16.14,14.424-27.482,9.869c-14.877-5.976-11.727-19.32-6.333-43.358C1060.4,320.968,1071.977,300.919,1077.079,301.38Z" transform="translate(-1050.223 -301.372)" fill="#b4d9ed"/>
              </g>
              <path id="Trazado_1257278" data-name="Trazado 1257278" d="M1020.3,399.693l.029-.2a38.539,38.539,0,0,0-7.743-.318l.023.2A38.329,38.329,0,0,1,1020.3,399.693Z" transform="translate(-962.028 -347.147)"/>
              <path id="Trazado_1257279" data-name="Trazado 1257279" d="M1010.513,405.89a27,27,0,0,1,5.125-.648c1.957.06,4.755.207,4.783.209l.01-.2c-.028,0-2.828-.149-4.788-.209a27.03,27.03,0,0,0-5.175.653Z" transform="translate(-961.004 -349.939)"/>
              <path id="Trazado_1257280" data-name="Trazado 1257280" d="M1013.319,412.871a8.11,8.11,0,0,1,3.322-.778c1.631.062,4.5.252,4.531.255l.013-.2c-.029,0-2.9-.192-4.537-.255a8.187,8.187,0,0,0-3.42.8Z" transform="translate(-963.227 -353.15)"/>
            </g>
            <g id="Grupo_1238065" data-name="Grupo 1238065" transform="translate(20.42)">
              <path id="Trazado_1257281" data-name="Trazado 1257281" d="M1021.768,149.208c5.541,5.142,4.952,20.7,5.759,21.893s4.65,10.581,2.8,18.061c-3.091,12.523-11.845,20.244-15.518,21.531-5.436,1.9-28.109-6.862-31.321-9.363s-4.079-11.23-5.821-12.945c-1.042-1.026-7.229-3.4-7-10.714.229-7.285,6.022-3.505,6.022-3.505s-2.049-15.142,4.4-23.3S1007.7,136.157,1021.768,149.208Z" transform="translate(-970.664 -134.582)" fill="#ffbba9"/>
              <path id="Trazado_1257282" data-name="Trazado 1257282" d="M1001.411,209.5c2.464-.02,4.078-.643,4.8-1.852,1.239-2.088-.543-5.417-1.129-6.512-1.4-2.607-3.1-8.9-3.112-8.96l-.2.053c.017.063,1.723,6.375,3.129,9,.572,1.069,2.314,4.323,1.133,6.312-.679,1.144-2.234,1.733-4.623,1.752Z" transform="translate(-962.815 -158.187)"/>
              <g id="Grupo_1238059" data-name="Grupo 1238059" transform="translate(34.382 53.765)">
                <path id="Trazado_1257283" data-name="Trazado 1257283" d="M1000.28,229.38a23.715,23.715,0,0,0,.458,2.354,15.785,15.785,0,0,0,1.37,3.738c.729,1.32,1.716,2.3,3.025,2.212a4.2,4.2,0,0,0,3.073-2.24,14.523,14.523,0,0,0,1.475-3.314,19.687,19.687,0,0,0,.638-2.564,27.169,27.169,0,0,1-4.518.435C1004.24,229.913,1000.28,229.38,1000.28,229.38Z" transform="translate(-1000.28 -229.38)" fill="#512820"/>
                <path id="Trazado_1257284" data-name="Trazado 1257284" d="M1000.28,229.38a23.715,23.715,0,0,0,.458,2.354c.815.149,2.586.444,4.552.6a17.638,17.638,0,0,0,4.392-.2,19.71,19.71,0,0,0,.638-2.564,27.17,27.17,0,0,1-4.518.435C1004.24,229.913,1000.28,229.38,1000.28,229.38Z" transform="translate(-1000.28 -229.38)" fill="#fff"/>
                <path id="Trazado_1257285" data-name="Trazado 1257285" d="M1004.255,240.245c.729,1.32,1.716,2.3,3.025,2.212a4.2,4.2,0,0,0,3.074-2.24,8.573,8.573,0,0,0-4.36-.542A7.288,7.288,0,0,0,1004.255,240.245Z" transform="translate(-1002.427 -234.153)" fill="#9b2a1b"/>
              </g>
              <g id="Grupo_1238060" data-name="Grupo 1238060" transform="translate(24.698 35.105)">
                <path id="Trazado_1257286" data-name="Trazado 1257286" d="M984.537,197.577c.014,1.817.852,3.284,1.871,3.276s1.833-1.488,1.819-3.305-.852-3.284-1.871-3.276S984.522,195.76,984.537,197.577Z" transform="translate(-960.135 -194.272)"/>
                <path id="Trazado_1257287" data-name="Trazado 1257287" d="M1030.448,200.286c.015,1.817.852,3.284,1.871,3.276s1.833-1.488,1.819-3.305-.852-3.284-1.871-3.276S1030.432,198.469,1030.448,200.286Z" transform="translate(-1030.447 -195.541)"/>
              </g>
              <g id="Grupo_1238061" data-name="Grupo 1238061" transform="translate(16.547 46.2)">
                <path id="Trazado_1257288" data-name="Trazado 1257288" d="M1030.733,221.922c-.861,2.46.989,5.346,4.131,6.445s6.388,0,7.249-2.463-.989-5.346-4.131-6.445S1031.594,219.462,1030.733,221.922Z" transform="translate(-1030.521 -216.968)" fill="#ff85a2"/>
                <path id="Trazado_1257289" data-name="Trazado 1257289" d="M983.283,217.961c.9,2.446-.9,5.361-4.028,6.511s-6.387.1-7.287-2.348.9-5.361,4.028-6.511S982.383,215.515,983.283,217.961Z" transform="translate(-940.469 -215.147)" fill="#ff85a2"/>
              </g>
              <g id="Grupo_1238062" data-name="Grupo 1238062" transform="translate(5.632 23.795)">
                <path id="Trazado_1257290" data-name="Trazado 1257290" d="M968.311,201.857c6.744-.054,12.178-6.572,12.115-14.53s-5.6-14.388-12.345-14.335-12.179,6.572-12.115,14.53S961.567,201.911,968.311,201.857Zm-.229-28.661c6.632-.053,12.078,6.287,12.141,14.133s-5.282,14.272-11.914,14.325-12.078-6.287-12.141-14.133S961.45,173.249,968.082,173.2Z" transform="translate(-918.084 -172.992)"/>
                <path id="Trazado_1257291" data-name="Trazado 1257291" d="M1025.774,204.271c7.424-.059,13.412-6.581,13.348-14.539s-6.155-14.384-13.579-14.325-13.412,6.581-13.348,14.539S1018.349,204.33,1025.774,204.271Zm-.228-28.661c7.312-.058,13.311,6.277,13.374,14.123s-5.835,14.276-13.146,14.335-13.311-6.277-13.373-14.123S1018.232,175.668,1025.546,175.61Z" transform="translate(-1006.665 -174.123)"/>
                <path id="Trazado_1257292" data-name="Trazado 1257292" d="M1001.838,200.681a8.289,8.289,0,0,1,5.568-.562l.058-.195a8.516,8.516,0,0,0-5.718.576Z" transform="translate(-969.452 -185.492)"/>
                <path id="Trazado_1257293" data-name="Trazado 1257293" d="M1066.25,203.547l2.041-.016,0-.2-2.041.016a4.717,4.717,0,0,1-1.8-.635,4.606,4.606,0,0,0-1.8-.633l0,.2a4.58,4.58,0,0,1,1.71.612A4.8,4.8,0,0,0,1066.25,203.547Z" transform="translate(-1062.65 -186.618)"/>
              </g>
              <path id="Trazado_1257294" data-name="Trazado 1257294" d="M977.661,138.492s11.566-7.331,29.364-9.909c13.845-2.005,18.4,4.841,18.813,8.226.854,6.974-1.415,10.183-5.285,12.508-1.451.872-9.641,4.066-17.13,2.929s-19.575-3.646-19.575-3.646-3.846.031-6.919,7.746c-1.937,4.864-6.183,12.514-6.681,12.519s-.909-1.491-1.411-1.885-2.866-9.25-2.016-15.24a18.317,18.317,0,0,1,3.914-9.305s-4.263-1.063-2.814-2.77,5.18-.739,5.18-.739,2.949-5.408,5.147-4.828S977.661,138.492,977.661,138.492Z" transform="translate(-963.714 -128.221)" fill="#994e0b"/>
              <g id="Grupo_1238063" data-name="Grupo 1238063" transform="translate(21.367 29.786)">
                <path id="Trazado_1257295" data-name="Trazado 1257295" d="M1039.147,188.693c.008.8-4.525,1.582-5.079.888S1039.137,187.542,1039.147,188.693Z" transform="translate(-1034.03 -186.129)" fill="#994e0b"/>
                <path id="Trazado_1257296" data-name="Trazado 1257296" d="M981.2,184.73c.005.8,4.55,1.509,5.092.807S981.192,183.579,981.2,184.73Z" transform="translate(-953.131 -184.263)" fill="#994e0b"/>
              </g>
              <g id="Grupo_1238064" data-name="Grupo 1238064" transform="translate(2.041 41.534)">
                <path id="Trazado_1257297" data-name="Trazado 1257297" d="M1075.724,209.213l.174-.1c-.023-.038-2.3-3.774-4.676-2.46l.1.178C1073.524,205.607,1075.7,209.177,1075.724,209.213Z" transform="translate(-1071.222 -206.368)"/>
                <path id="Trazado_1257298" data-name="Trazado 1257298" d="M1074.451,213.615a9.31,9.31,0,0,0-.955-6.486l-.173.106a9.084,9.084,0,0,1,.931,6.33Z" transform="translate(-1071.103 -206.725)"/>
              </g>
            </g>
          </g>
          <g id="Grupo_1238067" data-name="Grupo 1238067" transform="translate(87.473 16.92)">
            <path id="Trazado_1257299" data-name="Trazado 1257299" d="M685.16,226.209a2.639,2.639,0,0,0-1.606-2.018,2.257,2.257,0,0,0-1.9.017A3.726,3.726,0,0,0,680,225.266a10.961,10.961,0,0,0-2.264,6.259c-.16,2.468,1.191,4.839,3.878,4.858a3.976,3.976,0,0,0,1.725-.408,9.225,9.225,0,0,0,1.025-.7.224.224,0,0,0-.27-.357c-.236.183-.477.358-.727.522a3.393,3.393,0,0,1-3.26.153,3.5,3.5,0,0,1-1.761-2.313,9.527,9.527,0,0,1,.545-5.143c.537-1.479,1.391-3.094,3.019-3.542a1.855,1.855,0,0,1,1.282-.073,2.288,2.288,0,0,1,1.531,1.724,8.8,8.8,0,0,1,.054,1.013.047.047,0,0,0-.012.028.047.047,0,0,0,.02.037,1.439,1.439,0,0,0,.046.235c.154.243.467.1.374-.183A11.37,11.37,0,0,0,685.16,226.209Z" transform="translate(-656.759 -191.148)" fill="#207389" stroke="#207389" stroke-width="1"/>
            <path id="Trazado_1257300" data-name="Trazado 1257300" d="M763.623,199.339a3.3,3.3,0,0,0-2.919,1.694,8.433,8.433,0,0,0-1.215,4.161c-.1,1.992.176,4.668,2.614,4.976a2.581,2.581,0,0,0,1.847-.527,7.266,7.266,0,0,0,.891-.7.226.226,0,0,0,0-.316c-.145-.14-.306-.037-.413.092a5.9,5.9,0,0,1-1.309.89,2.2,2.2,0,0,1-2.4-.626,4.82,4.82,0,0,1-.8-2.972,7.7,7.7,0,0,1,1.811-5.55c.988-.842,2.9-1.047,3.593.259a2.334,2.334,0,0,1,.212.829c.029.189-.042.576.146.676.215.071.24-.209.245-.357a3.116,3.116,0,0,0,0-.512A2.178,2.178,0,0,0,763.623,199.339Z" transform="translate(-717.344 -172.88)" fill="#207389" stroke="#207389" stroke-width="1"/>
            <path id="Trazado_1257301" data-name="Trazado 1257301" d="M723.569,222.881a.225.225,0,0,0,.082-.3c-.194-.282-.484.056-.678.173-.431.314-.851.644-1.262.983-.6.505-1.222.98-1.835,1.467-.223.18-.439.37-.676.532a.356.356,0,0,0-.162.194.173.173,0,0,0,.163.218,1.619,1.619,0,0,0,.572-.332q.7-.552,1.417-1.092C721.977,224.1,722.728,223.429,723.569,222.881Z" transform="translate(-687.374 -190.021)" fill="#207389" stroke="#207389" stroke-width="1"/>
            <path id="Trazado_1257302" data-name="Trazado 1257302" d="M722.015,233.18c.148.031.263-.107.376-.183.3-.233.592-.468.89-.7,1.531-1.156,2.824-2.6,4.37-3.746a.223.223,0,0,0-.27-.355,24.178,24.178,0,0,0-1.858,1.564c-.584.545-1.166,1.095-1.772,1.614-.5.425-1.013.825-1.5,1.257C722.135,232.745,721.719,233.036,722.015,233.18Z" transform="translate(-689.508 -194.233)" fill="#207389" stroke="#207389" stroke-width="1"/>
            <path id="Trazado_1257303" data-name="Trazado 1257303" d="M824.046,244.559c-3.313-.118-4.866,4.154-3.946,6.876a2.988,2.988,0,0,0,2.4,2.262,2.074,2.074,0,0,0,1.507-.619,4.211,4.211,0,0,0,.578-.656.224.224,0,0,0-.352-.276c-.114.149-.23.3-.354.437a1.649,1.649,0,0,1-2.678-.046,4.3,4.3,0,0,1-.906-2.33,5.558,5.558,0,0,1,1.656-4.477,2.919,2.919,0,0,1,2.349-.7,1.551,1.551,0,0,1,1.077.495,1.037,1.037,0,0,1,.133.6c0,.134.017.339.193.341.143,0,.188-.146.193-.264a1.4,1.4,0,0,0-.079-.77A1.991,1.991,0,0,0,824.046,244.559Z" transform="translate(-762.082 -206.391)" fill="#207389" stroke="#207389" stroke-width="1"/>
            <path id="Trazado_1257304" data-name="Trazado 1257304" d="M799.074,227.476c-.624-.577-1.173-1.226-1.787-1.811a10.538,10.538,0,0,1-1.043-1.052c-.223-.265-.566.02-.31.268a19.814,19.814,0,0,0,1.521,1.574c.424.473.875.92,1.33,1.364.43.447.838.915,1.27,1.359a.223.223,0,0,0,.318-.313C799.935,228.408,799.516,227.931,799.074,227.476Z" transform="translate(-744.299 -191.532)" fill="#207389" stroke="#207389" stroke-width="1"/>
            <path id="Trazado_1257305" data-name="Trazado 1257305" d="M855.286,229.994c.568-.473,1.152-.925,1.725-1.392.134-.126.322-.218.41-.383a.16.16,0,0,0-.225-.178,3.216,3.216,0,0,0-.58.374c-.51.376-1.014.761-1.5,1.163-.855.691-1.759,1.317-2.671,1.929-.435.283-.864.585-1.3.877-.159.09-.341.229-.206.423.126.163.305.063.432-.038.343-.229.68-.467,1.023-.7C853.381,231.42,854.363,230.739,855.286,229.994Z" transform="translate(-785.094 -194.141)" fill="#207389" stroke="#207389" stroke-width="1"/>
            <path id="Trazado_1257306" data-name="Trazado 1257306" d="M885.941,207.255a1.165,1.165,0,0,1,.121,0,.209.209,0,0,0,.2-.133c-.2,1.1-.367,2.211-.518,3.322q-.1.654-.178,1.311a.222.222,0,1,0,.44.064c.032-.212.058-.425.085-.636.155-1.079.3-2.159.474-3.235.3-1.742.659-3.435,1.051-5.163.083-.4.19-.788.277-1.189a1.711,1.711,0,0,0,.067-.484.187.187,0,0,0-.355-.007c-.1.392-.2.786-.3,1.178-.25,1.036-.473,2.034-.7,3.084-.117.552-.222,1.106-.322,1.661a.214.214,0,0,0-.216-.217c-1.128.06-2.227.176-3.362.207-.12,0-.239.01-.359.01.206-1.79.4-3.582.749-5.351.012-.108.076-.238.008-.337a.165.165,0,0,0-.282.059,12.176,12.176,0,0,0-.468,2.154c-.121.8-.216,1.613-.321,2.42-.24,1.937-.49,3.876-.667,5.82a.224.224,0,0,0,.222.225c.172.005.241-.168.232-.315.1-1.089.238-2.173.36-3.259.043-.347.084-.7.125-1.043.117.017.24.008.356.015C883.763,207.42,884.831,207.321,885.941,207.255Z" transform="translate(-807.679 -174.093)" fill="#207389" stroke="#207389" stroke-width="1"/>
            <path id="Trazado_1257307" data-name="Trazado 1257307" d="M825.629,293.215a.177.177,0,0,0-.323,0c-.143,1.041-.118,2.105-.175,3.155a41.79,41.79,0,0,0,.066,5.049.224.224,0,0,0,.222.225c.24,0,.247-.263.206-.44-.1-.955-.073-1.922-.091-2.882.011-1.611.066-3.222.12-4.833A.709.709,0,0,0,825.629,293.215Z" transform="translate(-765.973 -242.373)" fill="#207389" stroke="#207389" stroke-width="1"/>
            <path id="Trazado_1257308" data-name="Trazado 1257308" d="M834.3,292.691c-.029,1.582-.162,3.159-.183,4.741-.01.342-.021.684-.024,1.027a.227.227,0,0,0,.1.256.224.224,0,0,0,.29-.054c.1-.164.041-.371.062-.555.028-.979.045-1.958.092-2.936q.112-1.791.1-3.586c-.011-1.142.036-2.288-.046-3.427,0-.139-.062-.334-.239-.273-.158.077-.074.281-.094.422Q834.325,290.5,834.3,292.691Z" transform="translate(-772.638 -238.492)" fill="#207389" stroke="#207389" stroke-width="1"/>
            <path id="Trazado_1257309" data-name="Trazado 1257309" d="M821.33,350.055c-.455.685-1.026,1.582-1.887,1.751a2.279,2.279,0,0,1-2.1-.834,3.424,3.424,0,0,1-.7-1.581,9.053,9.053,0,0,1,.9-5.69,4.369,4.369,0,0,1,2.015-2.078,1.126,1.126,0,0,1,1.529,1.139,1.684,1.684,0,0,0,.078.605.171.171,0,0,0,.3-.078,2.052,2.052,0,0,0-.391-1.7c-1.556-1.529-3.534.892-4.115,2.294a10.017,10.017,0,0,0-.9,4.561,5.357,5.357,0,0,0,.725,2.545,2.993,2.993,0,0,0,1.9,1.271c1.47.249,2.323-.86,3.024-1.975A.222.222,0,0,0,821.33,350.055Z" transform="translate(-759.279 -277.938)" fill="#207389" stroke="#207389" stroke-width="1"/>
            <path id="Trazado_1257310" data-name="Trazado 1257310" d="M860.744,371.03c-.856-.587-1.707-1.184-2.557-1.78-.905-.646-1.828-1.267-2.728-1.92-.47-.34-.913-.72-1.4-1.033-.136-.087-.352-.141-.47,0a.184.184,0,0,0,.031.253,3.217,3.217,0,0,1,.771.519c.458.343.906.7,1.378,1.024,1.579,1.105,3.158,2.227,4.747,3.319A.224.224,0,0,0,860.744,371.03Z" transform="translate(-787.067 -296.55)" fill="#207389" stroke="#207389" stroke-width="1"/>
            <path id="Trazado_1257311" data-name="Trazado 1257311" d="M898.831,372.872c-.157.026-.176.213-.206.342a34.063,34.063,0,0,0-.633,4.989c-.026.374-.051.75-.076,1.127-.26,0-.521,0-.781,0-1.068,0-2.136-.024-3.2-.043h-.006c.058-.742.106-1.493.157-2.242.114-1.46.291-2.924.455-4.38.018-.145.076-.4-.135-.42-.18-.016-.167.181-.2.3a59.091,59.091,0,0,0-.677,6.24c-.167,1.823-.16,3.685-.217,5.517a.223.223,0,0,0,.221.225c.177,0,.242-.164.23-.315.04-1.5.048-3.01.137-4.513.092.009.189,0,.277.012.584.036,1.169.043,1.754.051.653.014,1.306.009,1.959.008-.082,1.287-.155,2.586-.217,3.864a.224.224,0,0,0,.447.011c.07-1.271.117-2.536.209-3.805.07-1.013.123-2.028.195-3.042.1-1.194.3-2.386.466-3.574.006-.066.024-.13.03-.2A.165.165,0,0,0,898.831,372.872Z" transform="translate(-816.531 -301.025)" fill="#207389" stroke="#207389" stroke-width="1"/>
            <path id="Trazado_1257312" data-name="Trazado 1257312" d="M690.559,289.91c.021-.846.06-1.692.1-2.538.091-2.57.211-5.14.242-7.711.012-.15,0-.362-.195-.368s-.215.218-.216.365c-.105,3.417-.252,6.832-.375,10.249A.224.224,0,0,0,690.559,289.91Z" transform="translate(-665.94 -232.134)" fill="#207389" stroke="#207389" stroke-width="1"/>
            <path id="Trazado_1257313" data-name="Trazado 1257313" d="M683.154,333.338a3.117,3.117,0,0,0-3.541,1.2,5.546,5.546,0,0,0-1.07,2.412,13.554,13.554,0,0,0-.244,2.521,8.364,8.364,0,0,0,.57,3.3c.505,1.225,1.113,2.444,2.6,2.541a2.259,2.259,0,0,0,1.8-.811c.188-.191.372-.389.541-.6.122-.138.248-.356.046-.484a.242.242,0,0,0-.339.129c-.677.848-1.43,1.655-2.611,1.185-.97-.361-1.367-1.529-1.729-2.413a8.919,8.919,0,0,1-.415-1.921,15.776,15.776,0,0,1,.068-2.411,5.345,5.345,0,0,1,1.67-3.716,2.378,2.378,0,0,1,2.584-.486,1.237,1.237,0,0,1,.65.83,2.5,2.5,0,0,0,.057.428.169.169,0,0,0,.231.072c.19-.121.122-.458.1-.65A1.644,1.644,0,0,0,683.154,333.338Z" transform="translate(-657.182 -272.04)" fill="#207389" stroke="#207389" stroke-width="1"/>
            <path id="Trazado_1257314" data-name="Trazado 1257314" d="M755.393,377.689a3.091,3.091,0,0,1,1.274-.9c.812-.294,1.973-.12,2.12.887a2.791,2.791,0,0,1,.054.407.63.63,0,0,0,.045.256.137.137,0,0,0,.214.029,1.136,1.136,0,0,0,.081-.761,1.633,1.633,0,0,0-1.7-1.387,3.508,3.508,0,0,0-2.953,1.907,7.406,7.406,0,0,0-.719,2.17,7.052,7.052,0,0,0,.286,3.992c.355.977,1.25,2.613,2.4,2.711a2.4,2.4,0,0,0,1.647-.718c.166-.159.573-.437.317-.68-.157-.12-.308,0-.4.142a4.2,4.2,0,0,1-.539.461,1.285,1.285,0,0,1-2.007-.316,6.593,6.593,0,0,1-1.413-3.614,8.171,8.171,0,0,1,.219-2.239A4.967,4.967,0,0,1,755.393,377.689Z" transform="translate(-713.026 -303.964)" fill="#207389" stroke="#207389" stroke-width="1"/>
            <path id="Trazado_1257315" data-name="Trazado 1257315" d="M790.19,378.524c-.168.082-.336.168-.5.26q-.886.518-1.791,1c-.978.558-1.99,1.042-2.986,1.573-.22.118-.437.241-.654.364a.442.442,0,0,0-.21.19.165.165,0,0,0,.127.226,2.377,2.377,0,0,0,.759-.317c.454-.232.873-.441,1.34-.676,1.407-.685,2.753-1.5,4.134-2.231.156-.075.447-.166.35-.4C790.627,378.245,790.376,378.439,790.19,378.524Z" transform="translate(-735.549 -305.566)" fill="#207389" stroke="#207389" stroke-width="1"/>
            <path id="Trazado_1257316" data-name="Trazado 1257316" d="M718.793,378.867c-1.07-.637-2.094-1.345-3.147-2.01-.863-.536-1.67-1.168-2.576-1.632-.272-.188-.529.1-.243.291,2.7,1.757,5.336,3.6,8.165,5.158a.224.224,0,0,0,.3-.329C720.473,379.842,719.613,379.382,718.793,378.867Z" transform="translate(-682.683 -303.186)" fill="#207389" stroke="#207389" stroke-width="1"/>
            <path id="Trazado_1257317" data-name="Trazado 1257317" d="M726.3,371.5c-.856-.534-1.72-1.054-2.586-1.57-1.467-.88-2.921-1.784-4.39-2.662-.087-.042-.174-.113-.276-.1-.17.037-.139.228-.015.3,2.272,1.587,4.7,2.943,7.042,4.417A.223.223,0,0,0,726.3,371.5Z" transform="translate(-687.296 -297.255)" fill="#207389" stroke="#207389" stroke-width="1"/>
            <path id="Trazado_1257318" data-name="Trazado 1257318" d="M763.852,427.938c.017-1.1-.017-2.2-.056-3.3a.724.724,0,0,0-.051-.318.167.167,0,0,0-.285.014,9.455,9.455,0,0,0-.041,1.657c.006,1.209,0,2.418-.016,3.627-.025.911-.136,1.838-.1,2.753a.224.224,0,1,0,.447-.02c0-.3-.01-.6,0-.9C763.831,430.3,763.871,429.1,763.852,427.938Z" transform="translate(-720.179 -339.559)" fill="#207389" stroke="#207389" stroke-width="1"/>
            <path id="Trazado_1257319" data-name="Trazado 1257319" d="M756.576,458.918a.183.183,0,0,0-.141.223c-.026.13-.053.26-.076.391-.264,1.6-.55,3.2-.811,4.81a27.505,27.505,0,0,0-2.987.366,10.108,10.108,0,0,1-1.26.254c.114-1.233.239-2.465.348-3.7.06-.614.116-1.228.189-1.84a1.777,1.777,0,0,0,.012-.652.161.161,0,0,0-.264,0,1.49,1.49,0,0,0-.09.424c-.039.256-.08.518-.113.779-.2,1.626-.347,3.257-.517,4.886-.093,1.227-.26,2.448-.34,3.676-.031.394-.054.79-.086,1.184a.223.223,0,0,0,.445.039c.034-.4.055-.8.086-1.2.054-.822.144-1.641.229-2.46.021-.244.043-.488.065-.732a4.5,4.5,0,0,0,1.1-.174,24.093,24.093,0,0,1,3.11-.4c-.3,1.9-.563,3.8-.7,5.711a.225.225,0,0,0,.389.139c.07-.077.054-.161.063-.263.146-1.649.352-3.294.586-4.933.332-2.1.725-4.189.976-6.314A.181.181,0,0,0,756.576,458.918Z" transform="translate(-710.649 -365.095)" fill="#207389" stroke="#207389" stroke-width="1"/>
            <path id="Trazado_1257320" data-name="Trazado 1257320" d="M646.479,368.637c-1.614,1.169-3.166,2.428-4.855,3.49-.523.328-1.033.678-1.541,1.028-.121.086-.3.2-.24.376a.2.2,0,0,0,.179.126.178.178,0,0,0,.2-.125c.912-.6,1.85-1.165,2.757-1.774q1-.709,1.988-1.443c.5-.38,1-.747,1.508-1.119.18-.13.354-.269.539-.392a.225.225,0,0,0,.055-.311C646.889,368.261,646.645,368.521,646.479,368.637Z" transform="translate(-628.677 -298.172)" fill="#207389" stroke="#207389" stroke-width="1"/>
            <path id="Trazado_1257321" data-name="Trazado 1257321" d="M602.178,378.938a.214.214,0,0,0-.305.277c-.165,1.5-.531,2.969-.805,4.452a.2.2,0,0,0-.228-.092q-.327.095-.653.194c-.595.181-1.209.32-1.81.484a4.773,4.773,0,0,0-.539.156q.047-.369.093-.737c.091-1.077.213-2.15.337-3.224a6.227,6.227,0,0,0,.07-1.25.19.19,0,0,0-.351-.006c-.057.533-.107,1.082-.178,1.622-.116.9-.226,1.794-.3,2.7-.106.948-.259,1.89-.369,2.838-.09.649-.21,1.293-.308,1.941-.032.237-.057.475-.082.712a.224.224,0,0,0,.214.231.241.241,0,0,0,.237-.266c.017-.16.036-.33.056-.5.056-.431.139-.858.2-1.287.119-.787.223-1.577.323-2.368a.221.221,0,0,0,.138-.039c.163-.057.336-.082.5-.124.842-.195,1.681-.4,2.509-.647a.234.234,0,0,0,.077-.035c-.055.315-.108.631-.15.949a24.059,24.059,0,0,0-.159,5.541.223.223,0,0,0,.445-.043c-.029-.232-.035-.469-.051-.7a22.565,22.565,0,0,1,.024-3.077,36.971,36.971,0,0,1,.739-4.769q.2-1,.338-2.012a6.7,6.7,0,0,0,.071-.69A.211.211,0,0,0,602.178,378.938Z" transform="translate(-596.75 -305.956)" fill="#207389" stroke="#207389" stroke-width="1"/>
            <path id="Trazado_1257322" data-name="Trazado 1257322" d="M593.074,193.38a.213.213,0,0,0,.166-.106c-.155.818-.29,1.639-.39,2.466-.074.595-.156,1.189-.222,1.785-.025.222-.052.445-.072.668a.224.224,0,0,0,.215.231c.212.008.242-.208.247-.372.069-.674.159-1.369.245-2.046A56.612,56.612,0,0,1,594.369,190c.253-1.214.549-2.42.795-3.635a.16.16,0,1,0-.306-.075c-.292,1.056-.53,2.085-.785,3.161-.284,1.222-.566,2.445-.8,3.677a.222.222,0,0,0-.236-.183c-.449.034-.9.075-1.351.091-.493,0-1,.046-1.492.035.356-2.29.821-4.569,1.172-6.855a.162.162,0,0,0-.268-.1.879.879,0,0,0-.142.4c-.068.31-.124.622-.186.933q-.336,1.8-.668,3.605-.544,2.836-.806,5.709c-.041.384-.091.832-.133,1.238-.022.2-.042.42-.074.638a.223.223,0,0,0,.44.077c.032-.212.051-.427.074-.641.078-.74.157-1.464.229-2.225.08-.8.183-1.591.3-2.383.032,0,.064.006.1.009.6.016,1.2-.006,1.8-.024Q592.553,193.416,593.074,193.38Z" transform="translate(-586.56 -162.77)" fill="#207389" stroke="#207389" stroke-width="1"/>
            <path id="Trazado_1257323" data-name="Trazado 1257323" d="M633.981,220.417a.225.225,0,0,0,.267-.169.239.239,0,0,0-.206-.279c-.273-.124-.541-.257-.81-.389q-1.12-.567-2.261-1.092c-1.571-.714-3.041-1.629-4.615-2.335a1.9,1.9,0,0,0-.459-.159c-.237.008-.217.276-.026.349,1.213.553,2.355,1.244,3.538,1.855.751.392,1.517.751,2.282,1.114S633.2,220.1,633.981,220.417Z" transform="translate(-615.198 -184.301)" fill="#207389" stroke="#207389" stroke-width="1"/>
            <path id="Trazado_1257324" data-name="Trazado 1257324" d="M773.482,107.937a.242.242,0,0,0,.031-.182c-.026-.236-.035-.474-.044-.711a26,26,0,0,1,.135-3.653c.258-1.846.735-3.65,1.143-5.467.042-.176.087-.351.132-.526a.171.171,0,0,0-.289-.184,27.787,27.787,0,0,0-.8,2.969c-.2.841-.39,1.686-.533,2.539-.007.038-.012.075-.019.113a.223.223,0,0,0-.068-.026,6.121,6.121,0,0,0-.758-.014c-.575.012-1.149.044-1.722.085-.262.02-.523.038-.784.063l-.05.008c.142-1.037.287-2.077.439-3.111.089-.7.246-1.394.283-2.1.02-.3-.312-.324-.3-.017-.219,1.2-.428,2.407-.609,3.616q-.393,2.629-.783,5.258c-.06.365-.1.735-.169,1.1a.221.221,0,0,0,.434.088c.07-.342.1-.69.157-1.035.14-1.018.3-2.033.441-3.052.02-.151.042-.3.062-.453a.537.537,0,0,0,.212.034c1.033-.015,2.065-.1,3.1-.046a.234.234,0,0,0,.055-.006,20.523,20.523,0,0,0-.151,2.069,18.112,18.112,0,0,0,.05,2.562A.224.224,0,0,0,773.482,107.937Z" transform="translate(-724.196 -97.139)" fill="#207389" stroke="#207389" stroke-width="1"/>
            <path id="Trazado_1257325" data-name="Trazado 1257325" d="M776.213,146.963c0-.1,0-.21.009-.315a.208.208,0,0,0-.343-.168c-.108.107-.07.277-.085.415-.011.317-.035.634-.049.951-.038.881-.117,1.76-.194,2.638-.223,2.324-.533,4.648-.587,6.983a.226.226,0,1,0,.443-.079c.032-1.273.165-2.54.274-3.808C775.907,151.378,776.154,149.176,776.213,146.963Z" transform="translate(-728.825 -133.668)" fill="#207389" stroke="#207389" stroke-width="1"/>
          </g>
        </g>
      </g>
      <g id="Grupo_1238038" data-name="Grupo 1238038" transform="translate(167.916 3022.682)">
        <g id="Grupo_1238037" data-name="Grupo 1238037" transform="translate(90.705 41.852)">
          <rect id="Rectángulo_424282" data-name="Rectángulo 424282" width="0.308" height="17.85" transform="translate(54.911 0.139) rotate(-26.878)" fill="#9a8ac8"/>
          <rect id="Rectángulo_424283" data-name="Rectángulo 424283" width="0.308" height="17.91" transform="translate(51.217 1.977) rotate(-26.878)" fill="#9a8ac8"/>
          <rect id="Rectángulo_424284" data-name="Rectángulo 424284" width="0.308" height="16.463" transform="translate(47.865 4.488) rotate(-26.878)" fill="#9a8ac8"/>
          <rect id="Rectángulo_424285" data-name="Rectángulo 424285" width="0.308" height="9.594" transform="translate(45.737 9.417) rotate(-26.878)" fill="#9a8ac8"/>
          <rect id="Rectángulo_424286" data-name="Rectángulo 424286" width="0.308" height="1.901" transform="translate(43.796 14.713) rotate(-26.878)" fill="#9a8ac8"/>
          <rect id="Rectángulo_424287" data-name="Rectángulo 424287" width="0.308" height="10.75" transform="translate(38.117 12.631) rotate(-26.878)" fill="#9a8ac8"/>
          <rect id="Rectángulo_424288" data-name="Rectángulo 424288" width="0.308" height="15.946" transform="translate(33.262 12.179) rotate(-26.878)" fill="#9a8ac8"/>
          <rect id="Rectángulo_424289" data-name="Rectángulo 424289" width="0.308" height="17.944" transform="translate(29.13 13.153) rotate(-26.878)" fill="#9a8ac8"/>
          <rect id="Rectángulo_424290" data-name="Rectángulo 424290" width="0.308" height="17.235" transform="translate(25.611 15.334) rotate(-26.878)" fill="#9a8ac8"/>
          <rect id="Rectángulo_424291" data-name="Rectángulo 424291" width="0.308" height="13.218" transform="translate(22.839 18.991) rotate(-26.878)" fill="#9a8ac8"/>
          <rect id="Rectángulo_424292" data-name="Rectángulo 424292" width="0.308" height="4.628" transform="translate(21.1 24.688) rotate(-26.878)" fill="#9a8ac8"/>
          <rect id="Rectángulo_424293" data-name="Rectángulo 424293" width="0.308" height="6.335" transform="translate(17.035 25.791) rotate(-26.878)" fill="#9a8ac8"/>
          <rect id="Rectángulo_424294" data-name="Rectángulo 424294" width="0.308" height="13.312" transform="translate(11.778 24.545) rotate(-26.878)" fill="#9a8ac8"/>
          <rect id="Rectángulo_424295" data-name="Rectángulo 424295" width="0.308" height="15.681" transform="translate(7.562 25.354) rotate(-26.878)" fill="#9a8ac8"/>
          <rect id="Rectángulo_424296" data-name="Rectángulo 424296" width="0.308" height="16.491" transform="translate(3.7 26.857) rotate(-26.878)" fill="#9a8ac8"/>
          <rect id="Rectángulo_424297" data-name="Rectángulo 424297" width="0.308" height="16.578" transform="translate(0 28.684) rotate(-26.878)" fill="#9a8ac8"/>
        </g>
        <path id="Trazado_1257207" data-name="Trazado 1257207" d="M125.762,110.207c-3.881,3.78-11.363,6.916-11.68,7.047l-.611-1.469c.075-.031,7.519-3.151,11.18-6.718,2.422-2.36,2.994-5.966,3.6-9.783a32.308,32.308,0,0,1,1.926-7.843,12.629,12.629,0,0,1,5.9-6.392,14.248,14.248,0,0,1,9.44-1.331q.8.141,1.63.358a43.841,43.841,0,0,1,9.416,4.105,39.175,39.175,0,0,0,3.98,1.973,5.882,5.882,0,0,0,1.311.368c4.306.56,11.354-4.5,11.425-4.546l.933,1.289c-.31.223-7.637,5.475-12.563,4.835a7.694,7.694,0,0,1-1.843-.526,42.322,42.322,0,0,1-4-1.992c-3.131-1.685-6.959-3.745-10.964-4.353a12.69,12.69,0,0,0-8.027,1.229c-5.371,2.828-6.2,8.038-7,13.076C129.2,103.44,128.562,107.479,125.762,110.207Z" transform="translate(-17.538 -30.318)" fill="#7b62b1"/>
        <path id="Trazado_1257208" data-name="Trazado 1257208" d="M233.092,92.2a42.321,42.321,0,0,1-4-1.992c-3.131-1.685-6.959-3.745-10.964-4.353l.672-1.511q.8.141,1.63.358a43.84,43.84,0,0,1,9.416,4.105,39.175,39.175,0,0,0,3.98,1.973Z" transform="translate(-90.821 -30.947)" fill="#5f4c92"/>
        <path id="Trazado_1257209" data-name="Trazado 1257209" d="M127.4,72.215a12.633,12.633,0,0,1-8.645.981,17.894,17.894,0,0,1-1.778-.505,42.236,42.236,0,0,1-5.687-2.579,33.216,33.216,0,0,0-5.821-2.556,9.462,9.462,0,0,0-4.2-.323c-5.041.843-11.958,5-12.029,5.044l-.823-1.361c.293-.178,7.246-4.358,12.59-5.253a10.954,10.954,0,0,1,4.8.341,33.876,33.876,0,0,1,6.208,2.693,37.531,37.531,0,0,0,5.839,2.6,11.408,11.408,0,0,0,8.844-.512c6.769-3.3,7.89-11.312,8.708-17.163.378-2.707.677-4.846,1.422-6.2,2.4-4.35,10.963-7.155,11.327-7.272l.488,1.515c-.082.027-8.33,2.727-10.421,6.525-.6,1.1-.9,3.208-1.241,5.652a43.841,43.841,0,0,1-2.256,10.021A14.784,14.784,0,0,1,127.4,72.215Z" transform="translate(0)" fill="#7b62b1"/>
        <path id="Trazado_1257210" data-name="Trazado 1257210" d="M156.8,133.073a42.238,42.238,0,0,1-5.687-2.579,33.215,33.215,0,0,0-5.821-2.556l.341-1.552a33.876,33.876,0,0,1,6.208,2.693,37.531,37.531,0,0,0,5.839,2.6Z" transform="translate(-39.82 -60.382)" fill="#5f4c92"/>
        <path id="Trazado_1257211" data-name="Trazado 1257211" d="M129.824,128.187c.174-1.1.349-2.2.572-3.284-.4-.162-.807-.32-1.222-.448q-.146-.045-.294-.085c-.249,1.187-.44,2.386-.628,3.567-.606,3.818-1.179,7.423-3.6,9.783-3.661,3.567-11.1,6.687-11.18,6.718l.611,1.469c.317-.132,7.8-3.267,11.68-7.047C128.562,136.132,129.2,132.093,129.824,128.187Z" transform="translate(-17.538 -58.971)" fill="#7b62b1"/>
      </g>
      <g id="Grupo_1238044" data-name="Grupo 1238044" transform="translate(-21.444 2569.625)">
        <path id="Trazado_1257220" data-name="Trazado 1257220" d="M306.889,472.449,320.283,497.6l18.745-6.429L332.1,466.778l1.733-4.135Z" transform="translate(-0.289 -1.909)" fill="#e3f2ff"/>
        <path id="Trazado_1257221" data-name="Trazado 1257221" d="M321.216,497.314l-12.578-23.647,25.631-9.511-1.488,3.578,6.644,23.3Z" transform="translate(-1.426 -2.892)" fill="#c4e1f7"/>
        <path id="Trazado_1257222" data-name="Trazado 1257222" d="M324.514,507.488l7.019,13.2,18.209-6.28-4.074-14.285Z" transform="translate(-11.743 -26.263)" fill="#f9934e"/>
        <path id="Trazado_1257223" data-name="Trazado 1257223" d="M333.543,460.734s-2.535.086-3.148.072a16.142,16.142,0,0,0-11.635-.048c-8.135,2.807-13.295,8.05-12.16,9.781s5.748,4.088,15.528.1c7.113-2.9,8.9-8.005,8.9-8.005Z" fill="#e3f2ff"/>
        <path id="Trazado_1257224" data-name="Trazado 1257224" d="M320.886,471.76a19.767,19.767,0,0,1-9.386,1.286c-2.579-.434-3.516-1.59-3.741-1.935a.988.988,0,0,1,.006-.806c.649-1.91,4.862-5.869,11.843-8.3l.092-.032a15.308,15.308,0,0,1,10.744-.133,2.755,2.755,0,0,0,.741.2c.315.007,1.108-.01,1.822-.03l-1.538,1.164-.043.122a10.683,10.683,0,0,1-1.74,2.819,17.268,17.268,0,0,1-6.921,4.93c-.636.259-1.267.5-1.878.711Z" transform="translate(-0.799 -0.808)" fill="#c4e1f7"/>
        <path id="Trazado_1257225" data-name="Trazado 1257225" d="M324.514,507.488a17.38,17.38,0,0,0,9.856-1.083,59.866,59.866,0,0,0,11.3-6.286s-8.221.734-13.256,2.412A19.45,19.45,0,0,0,324.514,507.488Z" transform="translate(-11.743 -26.263)" fill="#ffb380"/>
        <path id="Trazado_1257226" data-name="Trazado 1257226" d="M329.185,507.036a1.649,1.649,0,1,1-2.1-1A1.644,1.644,0,0,1,329.185,507.036Z" transform="translate(-12.695 -30.045)" fill="#fff"/>
        <path id="Trazado_1257227" data-name="Trazado 1257227" d="M336.683,520.171a2.659,2.659,0,1,1-3.4-1.682A2.683,2.683,0,0,1,336.683,520.171Z" transform="translate(-16.287 -38.105)" fill="#fff"/>
      </g>
    </g>
    <g id="Grupo_1238082" data-name="Grupo 1238082" transform="matrix(-0.695, -0.719, 0.719, -0.695, 1042.913, 3818.306)">
      <path id="Trazado_1257326" data-name="Trazado 1257326" d="M971.695,69.022a5.178,5.178,0,1,1,5.178-5.178A5.184,5.184,0,0,1,971.695,69.022Zm0-9.736a4.558,4.558,0,1,0,4.558,4.558A4.563,4.563,0,0,0,971.695,59.286Z" transform="translate(0 -23.042)" fill="#0d5072"/>
      <path id="Trazado_1257327" data-name="Trazado 1257327" d="M1027.655,28.442a5.314,5.314,0,1,1,5.314-5.314A5.32,5.32,0,0,1,1027.655,28.442Zm0-10.008a4.694,4.694,0,1,0,4.694,4.694A4.7,4.7,0,0,0,1027.655,18.434Z" transform="translate(-31.486)" fill="#0d5072"/>
      <path id="Trazado_1257328" data-name="Trazado 1257328" d="M1061.955,84.232a7.2,7.2,0,1,1,7.2-7.2A7.209,7.209,0,0,1,1061.955,84.232Zm0-13.781a6.58,6.58,0,1,0,6.58,6.58A6.588,6.588,0,0,0,1061.955,70.451Z" transform="translate(-49.768 -29.339)" fill="#0d5072"/>
      <rect id="Rectángulo_424298" data-name="Rectángulo 424298" width="12.061" height="0.621" transform="matrix(0.829, -0.56, 0.56, 0.829, 977.963, 34.621)" fill="#0d5072"/>
      <rect id="Rectángulo_424299" data-name="Rectángulo 424299" width="0.62" height="12.084" transform="matrix(0.778, -0.628, 0.628, 0.778, 1000.492, 29.15)" fill="#0d5072"/>
      <rect id="Rectángulo_424300" data-name="Rectángulo 424300" width="0.62" height="10.224" transform="translate(1000.506 32.645) rotate(-35.254)" fill="#0d5072"/>
      <rect id="Rectángulo_424301" data-name="Rectángulo 424301" width="14.472" height="0.62" transform="matrix(0.813, -0.582, 0.582, 0.813, 978.603, 38.511)" fill="#0d5072"/>
    </g>
  </g>
</svg>
