<svg xmlns="http://www.w3.org/2000/svg" xmlns:xlink="http://www.w3.org/1999/xlink" width="106.16" height="106.16" viewBox="0 0 106.16 106.16">
  <defs>
    <filter id="Trazado_982547" x="0" y="0" width="106.16" height="106.16" filterUnits="userSpaceOnUse">
      <feOffset dy="3" input="SourceAlpha"/>
      <feGaussianBlur stdDeviation="3" result="blur"/>
      <feFlood flood-opacity="0.161"/>
      <feComposite operator="in" in2="blur"/>
      <feComposite in="SourceGraphic"/>
    </filter>
  </defs>
  <g id="Grupo_1238604" data-name="Grupo 1238604" transform="translate(-194 -1846)">
    <g id="Grupo_1238602" data-name="Grupo 1238602" transform="translate(26 1091.457)">
      <g id="Grupo_1237170" data-name="Grupo 1237170" transform="translate(-47 -274.457)">
        <g id="Grupo_1234666" data-name="Grupo 1234666" transform="translate(224 1035)">
          <g id="Grupo_1232498" data-name="Grupo 1232498" transform="translate(0)">
            <g id="Grupo_1230692" data-name="Grupo 1230692">
              <g id="Grupo_1224852" data-name="Grupo 1224852">
                <g id="Grupo_1206130" data-name="Grupo 1206130">
                  <g id="Grupo_1203672" data-name="Grupo 1203672">
                    <g id="Grupo_1203344" data-name="Grupo 1203344">
                      <g id="Grupo_1177900" data-name="Grupo 1177900">
                        <g id="Grupo_1172010" data-name="Grupo 1172010">
                          <g id="Grupo_1171046" data-name="Grupo 1171046">
                            <g id="Grupo_1148525" data-name="Grupo 1148525">
                              <g transform="matrix(1, 0, 0, 1, -9, -6)" filter="url(#Trazado_982547)">
                                <g id="Trazado_982547-2" data-name="Trazado 982547" transform="translate(9 6)" fill="#feeee5">
                                  <path d="M 44.0802001953125 86.660400390625 C 38.33124923706055 86.660400390625 32.75506210327148 85.53479766845703 27.50652503967285 83.31484985351562 C 22.43628692626953 81.17032623291016 17.88242530822754 78.09992218017578 13.97144985198975 74.18894958496094 C 10.06047534942627 70.27797698974609 6.99007511138916 65.72411346435547 4.845550060272217 60.65387344360352 C 2.625600099563599 55.40533828735352 1.500000238418579 49.82915115356445 1.500000238418579 44.0802001953125 C 1.500000238418579 38.33124923706055 2.625600099563599 32.75506210327148 4.845550060272217 27.50652503967285 C 6.99007511138916 22.43628692626953 10.06047534942627 17.88242530822754 13.97144985198975 13.97144985198975 C 17.88242530822754 10.06047534942627 22.43628692626953 6.99007511138916 27.50652503967285 4.845550060272217 C 32.75506210327148 2.625600099563599 38.33124923706055 1.500000238418579 44.0802001953125 1.500000238418579 C 49.82915115356445 1.500000238418579 55.40533828735352 2.625600099563599 60.65387344360352 4.845550060272217 C 65.72411346435547 6.99007511138916 70.27797698974609 10.06047534942627 74.18894958496094 13.97144985198975 C 78.09992218017578 17.88242530822754 81.17032623291016 22.43628692626953 83.31484985351562 27.50652503967285 C 85.53479766845703 32.75506210327148 86.660400390625 38.33124923706055 86.660400390625 44.0802001953125 C 86.660400390625 49.82915115356445 85.53479766845703 55.40533828735352 83.31484985351562 60.65387344360352 C 81.17032623291016 65.72411346435547 78.09992218017578 70.27797698974609 74.18894958496094 74.18894958496094 C 70.27797698974609 78.09992218017578 65.72411346435547 81.17032623291016 60.65387344360352 83.31484985351562 C 55.40533828735352 85.53479766845703 49.82915115356445 86.660400390625 44.0802001953125 86.660400390625 Z" stroke="none"/>
                                  <path d="M 44.0802001953125 3 C 38.53308486938477 3 33.15349960327148 4.085746765136719 28.09085845947266 6.227058410644531 C 23.19941711425781 8.29595947265625 18.80581665039062 11.25841522216797 15.03211212158203 15.03211212158203 C 11.25841522216797 18.80581665039062 8.29595947265625 23.19941711425781 6.227058410644531 28.09085845947266 C 4.085746765136719 33.15349960327148 3 38.53308486938477 3 44.0802001953125 C 3 49.62731552124023 4.085746765136719 55.00691604614258 6.227058410644531 60.06954193115234 C 8.29595947265625 64.96098327636719 11.25841522216797 69.35458374023438 15.03211212158203 73.12828826904297 C 18.80581665039062 76.90198516845703 23.19941711425781 79.86444091796875 28.09085845947266 81.93334197998047 C 33.15349960327148 84.07466125488281 38.53308486938477 85.160400390625 44.0802001953125 85.160400390625 C 49.62731552124023 85.160400390625 55.00691604614258 84.07466125488281 60.06954193115234 81.93334197998047 C 64.96099853515625 79.86444091796875 69.35458374023438 76.90198516845703 73.12828826904297 73.12828826904297 C 76.90198516845703 69.35458374023438 79.86444091796875 64.96099853515625 81.93334197998047 60.06954193115234 C 84.07466125488281 55.00691604614258 85.160400390625 49.62731552124023 85.160400390625 44.0802001953125 C 85.160400390625 38.53308486938477 84.07466125488281 33.15349960327148 81.93334197998047 28.09085845947266 C 79.86444091796875 23.19941711425781 76.90198516845703 18.80581665039062 73.12828826904297 15.03211212158203 C 69.35458374023438 11.25841522216797 64.96098327636719 8.29595947265625 60.06954193115234 6.227058410644531 C 55.00691604614258 4.085746765136719 49.62731552124023 3 44.0802001953125 3 M 44.0802001953125 0 C 68.42502593994141 0 88.160400390625 19.73538970947266 88.160400390625 44.0802001953125 C 88.160400390625 68.42502593994141 68.42502593994141 88.160400390625 44.0802001953125 88.160400390625 C 19.73538970947266 88.160400390625 0 68.42502593994141 0 44.0802001953125 C 0 19.73538970947266 19.73538970947266 0 44.0802001953125 0 Z" stroke="none" fill="#fd660a"/>
                                </g>
                              </g>
                            </g>
                          </g>
                        </g>
                      </g>
                    </g>
                  </g>
                </g>
              </g>
            </g>
          </g>
        </g>
      </g>
    </g>
    <g id="healthcare-covid19-coronavirus-hand-hearth" transform="translate(215.08 1863.981)">
      <path id="Trazado_1257817" data-name="Trazado 1257817" d="M15.71,30.27,11.18,17.22A3.125,3.125,0,0,0,7.62,14.9a3.007,3.007,0,0,0-2.28,3.71L10,33Z" fill="#ffac96"/>
      <path id="Trazado_1257818" data-name="Trazado 1257818" d="M48.29,30.27l4.53-13.05a3.125,3.125,0,0,1,3.56-2.32,3.007,3.007,0,0,1,2.28,3.71L54,33Z" fill="#ffac96"/>
      <path id="Trazado_1257819" data-name="Trazado 1257819" d="M25.046,35.682,16.206,30.5a2.994,2.994,0,0,0-3.8.679L9.18,21.22A3.125,3.125,0,0,0,5.62,18.9a3.007,3.007,0,0,0-2.28,3.71L7.69,38.84A3.948,3.948,0,0,0,8.9,40.8l6.76,6.01A4,4,0,0,1,17,49.8V53H29V42.584a8,8,0,0,0-3.954-6.9Z" fill="#ffbcab"/>
      <path id="Trazado_1257820" data-name="Trazado 1257820" d="M58.38,18.9a3.125,3.125,0,0,0-3.56,2.32l-3.23,9.959a2.994,2.994,0,0,0-3.8-.679l-8.84,5.182a8,8,0,0,0-3.95,6.9V53H47V49.8a4,4,0,0,1,1.34-2.99L55.1,40.8a3.948,3.948,0,0,0,1.21-1.96l4.35-16.23a3.007,3.007,0,0,0-2.28-3.71Z" fill="#ffbcab"/>
      <path id="Trazado_1257821" data-name="Trazado 1257821" d="M34,53v8H48V53H34Z" fill="#006df0"/>
      <path id="Trazado_1257822" data-name="Trazado 1257822" d="M30,53H16v8H30Z" fill="#006df0"/>
      <path id="Trazado_1257823" data-name="Trazado 1257823" d="M45.44,18.56l-.71.71L32,32,19.27,19.27l-.71-.71A9,9,0,1,1,31.291,5.839L32,6.55l.71-.71A9,9,0,1,1,45.441,18.561Z" fill="#d80027"/>
      <path id="Trazado_1257824" data-name="Trazado 1257824" d="M45.44,5.84a8.9,8.9,0,0,0-7.368-2.579,8.994,8.994,0,0,1,5.368,15.3l-.71.71L31,31l1,1L44.73,19.27l.71-.71A9,9,0,0,0,45.44,5.84Z" fill="#bd0022"/>
      <path id="Trazado_1257825" data-name="Trazado 1257825" d="M34,22V18h4V14H34V10H30v4H26v4h4v4Z" fill="#f1f2f2"/>
      <path id="Trazado_1257826" data-name="Trazado 1257826" d="M50.794,33.7,44.11,37.4a.866.866,0,1,0,.866,1.5l5.818-3.2a3,3,0,0,0,1.319-3.609A2.971,2.971,0,0,1,50.794,33.7Z" fill="#ffac96"/>
      <path id="Trazado_1257827" data-name="Trazado 1257827" d="M13.206,33.7l6.684,3.7a.866.866,0,1,1-.866,1.5l-5.818-3.2a3,3,0,0,1-1.319-3.609A2.971,2.971,0,0,0,13.206,33.7Z" fill="#ffac96"/>
      <g id="Grupo_1238603" data-name="Grupo 1238603">
        <path id="Trazado_1257828" data-name="Trazado 1257828" d="M38,13H35V10a1,1,0,0,0-1-1H30a1,1,0,0,0-1,1v3H26a1,1,0,0,0-1,1v4a1,1,0,0,0,1,1h3v3a1,1,0,0,0,1,1h4a1,1,0,0,0,1-1V19h3a1,1,0,0,0,1-1V14A1,1,0,0,0,38,13Zm-1,4H34a1,1,0,0,0-1,1v3H31V18a1,1,0,0,0-1-1H27V15h3a1,1,0,0,0,1-1V11h2v3a1,1,0,0,0,1,1h3Z" fill="#231f20"/>
        <path id="Trazado_1257829" data-name="Trazado 1257829" d="M59.73,18.36a4.579,4.579,0,0,0,.03-.53,4.02,4.02,0,0,0-3.18-3.91,4.071,4.071,0,0,0-4.7,2.97l-4.4,12.66a1.631,1.631,0,0,0-.19.09l-8.84,5.18A9.017,9.017,0,0,0,34,42.58V52a1,1,0,0,0-1,1v8a1,1,0,0,0,1,1H48a1,1,0,0,0,1-1V53a1,1,0,0,0-1-1V49.8a3.039,3.039,0,0,1,1-2.24l6.76-6.01a4.931,4.931,0,0,0,1.52-2.45l4.34-16.23a3.955,3.955,0,0,0,.14-1.04,4.019,4.019,0,0,0-2.03-3.47Zm-5.94-.88a2.113,2.113,0,0,1,2.38-1.6,2,2,0,0,1,1.59,1.95v.02a4.1,4.1,0,0,0-3.89,3.06l-2.79,8.61a4.2,4.2,0,0,0-1.34-.38ZM47,60H35V54H47ZM59.69,22.35,55.34,38.59a2.981,2.981,0,0,1-.9,1.46l-6.77,6.01A5.056,5.056,0,0,0,46,49.8V52H36V42.58a7.052,7.052,0,0,1,3.46-6.04l8.83-5.17a2,2,0,0,1,2.74.73,2.06,2.06,0,0,1,.2,1.52,2,2,0,0,1-.94,1.21l-5.73,3.31a1,1,0,0,0,1,1.73l5.73-3.31a3.948,3.948,0,0,0,1.87-2.43,4.007,4.007,0,0,0-.4-3.03l-.06-.09,3.09-9.53a2.113,2.113,0,0,1,2.38-1.6,2,2,0,0,1,1.59,1.95,1.722,1.722,0,0,1-.07.52Z" fill="#231f20"/>
        <path id="Trazado_1257830" data-name="Trazado 1257830" d="M30,52V42.58a9.017,9.017,0,0,0-4.45-7.76l-8.84-5.19c-.06-.03-.13-.05-.19-.08L12.15,16.96a4.107,4.107,0,0,0-4.73-3.04,4.02,4.02,0,0,0-3.18,3.91,4.578,4.578,0,0,0,.03.53,4.019,4.019,0,0,0-2.03,3.47,4.421,4.421,0,0,0,.13,1.04L6.72,39.09a4.916,4.916,0,0,0,1.52,2.46l6.75,6.01A3.012,3.012,0,0,1,16,49.8V52a1,1,0,0,0-1,1v8a1,1,0,0,0,1,1H30a1,1,0,0,0,1-1V53A1,1,0,0,0,30,52ZM6.24,17.83a2,2,0,0,1,1.58-1.95,2.161,2.161,0,0,1,2.42,1.67l4.02,11.59a4.2,4.2,0,0,0-1.34.38l-2.77-8.56a4.149,4.149,0,0,0-3.91-3.11ZM16.32,46.06,9.56,40.05a2.965,2.965,0,0,1-.9-1.47L4.3,22.35a2.121,2.121,0,0,1-.06-.52,2,2,0,0,1,1.58-1.95,2.144,2.144,0,0,1,2.41,1.65l3.07,9.48-.06.09a4.007,4.007,0,0,0-.4,3.03,3.948,3.948,0,0,0,1.87,2.43l5.73,3.31a1,1,0,0,0,1-1.73l-5.73-3.31a2,2,0,0,1-.94-1.21,2.06,2.06,0,0,1,.2-1.52,2,2,0,0,1,2.73-.74l8.84,5.18A7.052,7.052,0,0,1,28,42.58V52H18V49.8a5.03,5.03,0,0,0-1.68-3.74ZM29,60H17V54H29Z" fill="#231f20"/>
        <path id="Trazado_1257831" data-name="Trazado 1257831" d="M46.147,5.132A9.994,9.994,0,0,0,32,5.132,10,10,0,0,0,17.854,19.267l13.44,13.44a1,1,0,0,0,1.414,0l13.44-13.44a10.006,10.006,0,0,0,0-14.135ZM32,30.586,19.267,17.853A8,8,0,0,1,24.93,4.2a7.916,7.916,0,0,1,5.653,2.347l.71.71a1,1,0,0,0,1.414,0l.712-.712A8,8,0,0,1,44.733,17.851Z" fill="#231f20"/>
      </g>
    </g>
  </g>
</svg>
