<svg xmlns="http://www.w3.org/2000/svg" xmlns:xlink="http://www.w3.org/1999/xlink" width="106" height="106" viewBox="0 0 106 106">
  <defs>
    <filter id="Trazado_982547" x="0" y="0" width="106" height="106" filterUnits="userSpaceOnUse">
      <feOffset dy="3" input="SourceAlpha"/>
      <feGaussianBlur stdDeviation="3" result="blur"/>
      <feFlood flood-opacity="0.161"/>
      <feComposite operator="in" in2="blur"/>
      <feComposite in="SourceGraphic"/>
    </filter>
  </defs>
  <g id="Grupo_1233180" data-name="Grupo 1233180" transform="translate(9 6)">
    <g id="Grupo_1230961" data-name="Grupo 1230961" transform="translate(0 0)">
      <g id="Grupo_1173169" data-name="Grupo 1173169">
        <g id="Grupo_1172017" data-name="Grupo 1172017">
          <g id="Grupo_1167337" data-name="Grupo 1167337" transform="translate(0)">
            <g id="Grupo_1166720" data-name="Grupo 1166720">
              <g id="Grupo_1164305" data-name="Grupo 1164305">
                <g id="Grupo_1163948" data-name="Grupo 1163948">
                  <g id="Grupo_1158168" data-name="Grupo 1158168">
                    <g id="Grupo_1152576" data-name="Grupo 1152576">
                      <g id="Grupo_1148633" data-name="Grupo 1148633">
                        <g id="Grupo_1148525" data-name="Grupo 1148525">
                          <g transform="matrix(1, 0, 0, 1, -9, -6)" filter="url(#Trazado_982547)">
                            <g id="Trazado_982547-2" data-name="Trazado 982547" transform="translate(9 6)" fill="#f0edfe">
                              <path d="M 43.99999618530273 86.5 C 38.26187133789062 86.5 32.69618225097656 85.37651062011719 27.45754623413086 83.16075897216797 C 22.39684677124023 81.02025604248047 17.85157203674316 77.95564270019531 13.94795894622803 74.05203247070312 C 10.04434585571289 70.1484375 6.979733467102051 65.6031494140625 4.839246273040771 60.54245758056641 C 2.623483657836914 55.30381011962891 1.499996185302734 49.73812103271484 1.499996185302734 43.99999618530273 C 1.499996185302734 38.26187133789062 2.623483657836914 32.69618225097656 4.839246273040771 27.45754623413086 C 6.979733467102051 22.39684677124023 10.04434585571289 17.85157203674316 13.94795894622803 13.94795894622803 C 17.85157203674316 10.04434585571289 22.39684677124023 6.979733467102051 27.45754623413086 4.839246273040771 C 32.69618225097656 2.623483657836914 38.26187133789062 1.499996185302734 43.99999618530273 1.499996185302734 C 49.73812103271484 1.499996185302734 55.30381011962891 2.623483657836914 60.54245758056641 4.839246273040771 C 65.6031494140625 6.979733467102051 70.1484375 10.04434585571289 74.05203247070312 13.94795894622803 C 77.95564270019531 17.85157203674316 81.02025604248047 22.39684677124023 83.16075897216797 27.45754623413086 C 85.37651062011719 32.69618225097656 86.5 38.26187133789062 86.5 43.99999618530273 C 86.5 49.73812103271484 85.37651062011719 55.30381011962891 83.16075897216797 60.54245758056641 C 81.02025604248047 65.6031494140625 77.95564270019531 70.1484375 74.05203247070312 74.05203247070312 C 70.1484375 77.95564270019531 65.6031494140625 81.02025604248047 60.54245758056641 83.16075897216797 C 55.30381011962891 85.37651062011719 49.73812103271484 86.5 43.99999618530273 86.5 Z" stroke="none"/>
                              <path d="M 43.99999618530273 2.999992370605469 C 38.46371078491211 2.999992370605469 33.09462356567383 4.083610534667969 28.04186630249023 6.220756530761719 C 23.15996551513672 8.285614013671875 18.77495574951172 11.24227905273438 15.00862121582031 15.00862121582031 C 11.24227905273438 18.77495574951172 8.285614013671875 23.15996551513672 6.220756530761719 28.04186630249023 C 4.083610534667969 33.09462356567383 2.999992370605469 38.46371078491211 2.999992370605469 43.99999618530273 C 2.999992370605469 49.53628158569336 4.083610534667969 54.90536880493164 6.220756530761719 59.95812225341797 C 8.285614013671875 64.84002685546875 11.24227905273438 69.22503662109375 15.00862121582031 72.99136352539062 C 18.77495574951172 76.75771331787109 23.15996551513672 79.71438598632812 28.04186630249023 81.77923583984375 C 33.09462356567383 83.9163818359375 38.46371078491211 85 43.99999618530273 85 C 49.53628158569336 85 54.90536880493164 83.9163818359375 59.95812225341797 81.77923583984375 C 64.84002685546875 79.71438598632812 69.22503662109375 76.75771331787109 72.99136352539062 72.99136352539062 C 76.75771331787109 69.22503662109375 79.71438598632812 64.84002685546875 81.77923583984375 59.95812225341797 C 83.9163818359375 54.90536880493164 85 49.53628158569336 85 43.99999618530273 C 85 38.46371078491211 83.9163818359375 33.09462356567383 81.77923583984375 28.04186630249023 C 79.71438598632812 23.15996551513672 76.75771331787109 18.77495574951172 72.99136352539062 15.00862121582031 C 69.22503662109375 11.24227905273438 64.84002685546875 8.285614013671875 59.95812225341797 6.220756530761719 C 54.90536880493164 4.083610534667969 49.53628158569336 2.999992370605469 43.99999618530273 2.999992370605469 M 43.99999618530273 -7.62939453125e-06 C 68.30052185058594 -7.62939453125e-06 88 19.69947052001953 88 43.99999618530273 C 88 68.30052185058594 68.30052185058594 88 43.99999618530273 88 C 19.69947052001953 88 -7.62939453125e-06 68.30052185058594 -7.62939453125e-06 43.99999618530273 C -7.62939453125e-06 19.69947052001953 19.69947052001953 -7.62939453125e-06 43.99999618530273 -7.62939453125e-06 Z" stroke="none" fill="#7958fb"/>
                            </g>
                          </g>
                        </g>
                      </g>
                    </g>
                  </g>
                </g>
              </g>
            </g>
          </g>
        </g>
      </g>
    </g>
    <g id="proteger_4_" data-name="proteger (4)" transform="translate(16 14.665)">
      <path id="Trazado_1255943" data-name="Trazado 1255943" d="M91.141,284.418,79.5,292.206l-3.468-.195-.136-1.365a4.431,4.431,0,0,0-3.788-3.949l-12.3-1.078c-1.206-.171-3.742-1.511-5.73-2.652a12.653,12.653,0,0,0-6.188-1.681l-6.255-.052v15.292l17.706,6.705a4.813,4.813,0,0,0,2.059.137l.012,0L79.239,300.8a7.89,7.89,0,0,0,3.742-1.677L94.5,288.758a2.751,2.751,0,0,0-3.361-4.34Zm0,0" transform="translate(-36.798 -248.111)" fill="#fae0c1"/>
      <path id="Trazado_1255944" data-name="Trazado 1255944" d="M94.949,312.555a2.739,2.739,0,0,0-.251-.317l-11.717,8.6a7.887,7.887,0,0,1-3.742,1.676l-17.826,2.57-.012,0a4.819,4.819,0,0,1-2.059-.137l-17.706-6.7v5.678l17.706,6.705a4.813,4.813,0,0,0,2.059.137l.012,0L79.239,328.2a7.889,7.889,0,0,0,3.742-1.677L94.5,316.16a2.751,2.751,0,0,0,.448-3.6Zm0,0" transform="translate(-36.798 -275.512)" fill="#efd0af"/>
      <path id="Trazado_1255945" data-name="Trazado 1255945" d="M16.047,269.148H8.692a1.2,1.2,0,0,1-1.2-1.2V245.488a1.2,1.2,0,0,1,1.2-1.2h7.355a1.2,1.2,0,0,1,1.2,1.2v22.457A1.2,1.2,0,0,1,16.047,269.148Zm0,0" transform="translate(-6.618 -215.456)" fill="#f43b45"/>
      <path id="Trazado_1255946" data-name="Trazado 1255946" d="M47.183,244.285H42.719v24.863h4.464a1.2,1.2,0,0,0,1.2-1.2V245.488A1.2,1.2,0,0,0,47.183,244.285Zm0,0" transform="translate(-37.754 -215.456)" fill="#cf3735"/>
      <path id="Trazado_1255947" data-name="Trazado 1255947" d="M151.506,15.78a8.514,8.514,0,0,1-5.215-7.121.841.841,0,0,0-.845-.764l-8.838.052h-.179L127.591,8a.847.847,0,0,0-.837.787,8.514,8.514,0,0,1-5.138,7.173,1.215,1.215,0,0,0-.729,1.245c.406,3.879,2.769,17.09,15.649,23.031a.4.4,0,0,0,.172.037.407.407,0,0,0,.171-.039c12.81-6.092,15.018-19.328,15.378-23.213a1.221,1.221,0,0,0-.751-1.241Zm0,0" transform="translate(-106.833 -6.535)" fill="#75cff2"/>
      <path id="Trazado_1255948" data-name="Trazado 1255948" d="M250.016,15.78A8.514,8.514,0,0,1,244.8,8.658a.841.841,0,0,0-.845-.764l-4.865.029a8.513,8.513,0,0,0,5.241,7.854,1.228,1.228,0,0,1,.758,1.243c-.334,3.6-2.258,15.241-12.746,21.773a26.513,26.513,0,0,0,2.7,1.442.408.408,0,0,0,.172.037.4.4,0,0,0,.171-.039c12.81-6.092,15.018-19.328,15.378-23.213a1.222,1.222,0,0,0-.752-1.241Zm0,0" transform="translate(-205.343 -6.535)" fill="#53b4e4"/>
      <path id="Trazado_1255949" data-name="Trazado 1255949" d="M162.85,61.566c-8.814-4.784-11.37-13.657-12.1-18.01a.466.466,0,0,1,.212-.474,11.392,11.392,0,0,0,4.932-6.478.468.468,0,0,1,.447-.335l13.177-.077a.467.467,0,0,1,.451.33,11.393,11.393,0,0,0,5.008,6.42.465.465,0,0,1,.218.471c-.681,4.362-3.132,13.265-11.89,18.151a.471.471,0,0,1-.453,0Zm0,0" transform="translate(-133.223 -31.544)" fill="#e1e0de"/>
      <path id="Trazado_1255950" data-name="Trazado 1255950" d="M246.954,42.941a11.4,11.4,0,0,1-5.008-6.42.467.467,0,0,0-.451-.33l-5.313.031a11.392,11.392,0,0,0,5.1,6.719.464.464,0,0,1,.217.47c-.609,3.9-2.632,11.426-9.31,16.47a22.292,22.292,0,0,0,2.645,1.685.471.471,0,0,0,.453,0c8.758-4.886,11.209-13.789,11.89-18.152a.465.465,0,0,0-.218-.471Zm0,0" transform="translate(-205.202 -31.544)" fill="#d6d6d6"/>
      <path id="Trazado_1255951" data-name="Trazado 1255951" d="M33.5,393.88a2.212,2.212,0,1,1-2.212-2.212A2.212,2.212,0,0,1,33.5,393.88Zm0,0" transform="translate(-25.695 -345.711)" fill="#ededed"/>
      <path id="Trazado_1255952" data-name="Trazado 1255952" d="M217.475,100.7a.88.88,0,0,0,1.327-.151l5.8-8.755a.872.872,0,1,0-1.453-.963l-5.228,7.889-2.9-2.758a.872.872,0,1,0-1.2,1.264l3.658,3.473Zm0,0" transform="translate(-188.73 -79.493)"/>
      <path id="Trazado_1255953" data-name="Trazado 1255953" d="M129.555,34.5a1.291,1.291,0,0,0,.534.117h.007a1.275,1.275,0,0,0,.541-.123c13.253-6.3,15.5-19.9,15.871-23.92a2.083,2.083,0,0,0-1.285-2.126,7.617,7.617,0,0,1-4.681-6.392A1.721,1.721,0,0,0,138.835.5h-.01L120.969.6a1.708,1.708,0,0,0-1.7,1.591,7.618,7.618,0,0,1-4.612,6.439,2.076,2.076,0,0,0-1.253,2.137c.419,4.013,2.825,17.585,16.151,23.733ZM115.342,10.237a9.353,9.353,0,0,0,5.663-7.889l17.8-.1a9.355,9.355,0,0,0,5.746,7.819.351.351,0,0,1,.218.355c-.35,3.765-2.441,16.462-14.687,22.411-12.317-5.8-14.555-18.477-14.949-22.238a.343.343,0,0,1,.205-.354Zm0,0" transform="translate(-100.215)"/>
      <path id="Trazado_1255954" data-name="Trazado 1255954" d="M143.905,40.077a.919.919,0,0,0,1.07.612.873.873,0,0,0,.612-1.069c-.222-.818-.409-1.647-.555-2.469a12.257,12.257,0,0,0,4.987-6.535l12.587-.074a12.257,12.257,0,0,0,5.063,6.476c-.137.824-.314,1.656-.527,2.477a.872.872,0,1,0,1.688.437c.25-.964.453-1.943.6-2.909a1.333,1.333,0,0,0-.628-1.352,10.519,10.519,0,0,1-4.626-5.929A1.348,1.348,0,0,0,162.9,28.8h-.008l-13.178.077a1.348,1.348,0,0,0-1.278.961,10.519,10.519,0,0,1-4.556,5.983,1.332,1.332,0,0,0-.612,1.359c.163.964.377,1.939.638,2.9Zm0,0" transform="translate(-126.602 -25.009)"/>
      <path id="Trazado_1255955" data-name="Trazado 1255955" d="M181.616,147.6a.871.871,0,0,0-1.138.473A21.953,21.953,0,0,1,171,159.108a21.962,21.962,0,0,1-9.616-10.942.872.872,0,0,0-1.6.683,23.643,23.643,0,0,0,10.583,11.9,1.334,1.334,0,0,0,1.293-.007,23.636,23.636,0,0,0,10.435-12,.871.871,0,0,0-.473-1.138Zm0,0" transform="translate(-141.149 -129.947)"/>
      <path id="Trazado_1255956" data-name="Trazado 1255956" d="M24.669,384.273a3.084,3.084,0,1,0,3.084,3.084A3.087,3.087,0,0,0,24.669,384.273Zm0,4.424a1.34,1.34,0,1,1,1.341-1.341A1.342,1.342,0,0,1,24.669,388.7Zm0,0" transform="translate(-19.077 -339.176)"/>
      <path id="Trazado_1255957" data-name="Trazado 1255957" d="M58.874,245.485a3.631,3.631,0,0,0-5.014-.97l-11.394,7.626L40.034,252l-.062-.623a5.29,5.29,0,0,0-4.533-4.725l-.046-.005-12.277-1.076c-.415-.065-1.745-.447-5.4-2.542a13.558,13.558,0,0,0-6.212-1.787v-2.28a2.077,2.077,0,0,0-2.075-2.075H2.075A2.078,2.078,0,0,0,0,238.966v22.457A2.078,2.078,0,0,0,2.075,263.5H9.43a2.078,2.078,0,0,0,2.075-2.075V260.8l10.732,4.064a6,6,0,0,0,2.5.184l17.832-2.571.013,0a8.768,8.768,0,0,0,4.155-1.862l.032-.027,11.517-10.358a3.631,3.631,0,0,0,.59-4.746Zm-1.751,3.447-11.5,10.347a7.023,7.023,0,0,1-3.306,1.477l-17.819,2.569-.015,0h-.009a3.915,3.915,0,0,1-1.651-.105L11.505,258.94v-9.953a.872.872,0,1,0-1.743,0v12.436a.332.332,0,0,1-.332.332H2.075a.332.332,0,0,1-.332-.332V238.966a.332.332,0,0,1,.332-.332H9.43a.332.332,0,0,1,.332.332v6.084a.872.872,0,0,0,1.743,0v-2.059a11.806,11.806,0,0,1,5.344,1.555c4.406,2.527,5.637,2.7,6.041,2.759l.046.005,12.279,1.076a3.551,3.551,0,0,1,3.022,3.169l.046.464-16.438,1.015-.033,0a1.986,1.986,0,0,1-1.356-.71.871.871,0,0,0-1.339,1.116,3.774,3.774,0,0,0,2.539,1.33c.538.056,17.585-1.061,17.585-1.061l3.417.192a.869.869,0,0,0,.533-.146l11.638-7.789a1.879,1.879,0,0,1,2.291,2.969Zm0,0" transform="translate(0 -208.921)"/>
    </g>
  </g>
</svg>
