<svg xmlns="http://www.w3.org/2000/svg" xmlns:xlink="http://www.w3.org/1999/xlink" width="113" height="113" viewBox="0 0 113 113">
  <defs>
    <filter id="Trazado_982547" x="0" y="0" width="113" height="113" filterUnits="userSpaceOnUse">
      <feOffset dy="3" input="SourceAlpha"/>
      <feGaussianBlur stdDeviation="3" result="blur"/>
      <feFlood flood-opacity="0.161"/>
      <feComposite operator="in" in2="blur"/>
      <feComposite in="SourceGraphic"/>
    </filter>
  </defs>
  <g id="Grupo_1237520" data-name="Grupo 1237520" transform="translate(-586 -4391.087)">
    <g id="Grupo_1237151" data-name="Grupo 1237151" transform="translate(0 -5547.425)">
      <g id="Grupo_1234689" data-name="Grupo 1234689" transform="translate(0 -44.352)">
        <g id="Grupo_1231174" data-name="Grupo 1231174" transform="translate(0 4365)">
          <g id="Grupo_1230687" data-name="Grupo 1230687" transform="translate(0 -2146.377)">
            <g id="Grupo_1229015" data-name="Grupo 1229015" transform="translate(1 2131.042)">
              <g id="Grupo_1227503" data-name="Grupo 1227503" transform="translate(0 2048.198)">
                <g id="Grupo_1225351" data-name="Grupo 1225351" transform="translate(-1 -393.91)">
                  <g id="Grupo_1208122" data-name="Grupo 1208122" transform="translate(0 -1922.377)">
                    <g id="Grupo_1202433" data-name="Grupo 1202433" transform="translate(-0.56 1255.773)">
                      <g id="Grupo_1202054" data-name="Grupo 1202054" transform="translate(0 3240.511)">
                        <g id="Grupo_1177897" data-name="Grupo 1177897" transform="translate(595.561 1411.003)">
                          <g id="Grupo_1172010" data-name="Grupo 1172010" transform="translate(0)">
                            <g id="Grupo_1171046" data-name="Grupo 1171046">
                              <g id="Grupo_1148525" data-name="Grupo 1148525">
                                <g transform="matrix(1, 0, 0, 1, -9, -6)" filter="url(#Trazado_982547)">
                                  <g id="Trazado_982547-2" data-name="Trazado 982547" transform="translate(9 6)" fill="#d6ccfe">
                                    <path d="M 47.5 93.5 C 41.28937149047852 93.5 35.26533508300781 92.28397369384766 29.59518623352051 89.88570404052734 C 24.11771965026855 87.56893157958984 19.19813346862793 84.25196075439453 14.97309303283691 80.02691650390625 C 10.74804019927979 75.80186462402344 7.431066513061523 70.88229370117188 5.114293098449707 65.40481567382812 C 2.716026782989502 59.73468017578125 1.5 53.71062850952148 1.5 47.5 C 1.5 41.28937149047852 2.716026782989502 35.26533508300781 5.114293098449707 29.59518623352051 C 7.431066513061523 24.11771965026855 10.74804019927979 19.19813346862793 14.97309303283691 14.97309303283691 C 19.19813346862793 10.74804019927979 24.11771965026855 7.431066513061523 29.59518623352051 5.114293098449707 C 35.26533508300781 2.716026782989502 41.28937149047852 1.5 47.5 1.5 C 53.71062850952148 1.5 59.73468017578125 2.716026782989502 65.40481567382812 5.114293098449707 C 70.88229370117188 7.431066513061523 75.80186462402344 10.74804019927979 80.02691650390625 14.97309303283691 C 84.25196075439453 19.19813346862793 87.56893157958984 24.11771965026855 89.88570404052734 29.59518623352051 C 92.28397369384766 35.26533508300781 93.5 41.28937149047852 93.5 47.5 C 93.5 53.71062850952148 92.28397369384766 59.73468017578125 89.88570404052734 65.40481567382812 C 87.56893157958984 70.88229370117188 84.25196075439453 75.80186462402344 80.02691650390625 80.02691650390625 C 75.80186462402344 84.25196075439453 70.88229370117188 87.56893157958984 65.40481567382812 89.88570404052734 C 59.73468017578125 92.28397369384766 53.71062850952148 93.5 47.5 93.5 Z" stroke="none"/>
                                    <path d="M 47.5 3 C 41.49121475219727 3 35.66376876831055 4.176155090332031 30.17950439453125 6.495796203613281 C 24.88084411621094 8.736953735351562 20.12152099609375 11.94598388671875 16.03375244140625 16.03375244140625 C 11.94598388671875 20.12152099609375 8.736953735351562 24.88084411621094 6.495796203613281 30.17950439453125 C 4.176155090332031 35.66376876831055 3 41.49121475219727 3 47.5 C 3 53.50878524780273 4.176155090332031 59.33623123168945 6.495796203613281 64.82049560546875 C 8.736953735351562 70.11915588378906 11.94598388671875 74.87847900390625 16.03375244140625 78.96624755859375 C 20.12152099609375 83.05401611328125 24.88084411621094 86.26304626464844 30.17950439453125 88.50419616699219 C 35.66376876831055 90.82384490966797 41.49121475219727 92 47.5 92 C 53.50878524780273 92 59.33623123168945 90.82384490966797 64.82049560546875 88.50419616699219 C 70.11915588378906 86.26304626464844 74.87847900390625 83.05401611328125 78.96624755859375 78.96624755859375 C 83.05401611328125 74.87847900390625 86.26304626464844 70.11915588378906 88.50419616699219 64.82049560546875 C 90.82384490966797 59.33623123168945 92 53.50878524780273 92 47.5 C 92 41.49121475219727 90.82384490966797 35.66376876831055 88.50419616699219 30.17950439453125 C 86.26304626464844 24.88084411621094 83.05401611328125 20.12152099609375 78.96624755859375 16.03375244140625 C 74.87847900390625 11.94598388671875 70.11915588378906 8.736953735351562 64.82049560546875 6.495796203613281 C 59.33623123168945 4.176155090332031 53.50878524780273 3 47.5 3 M 47.5 0 C 73.7335205078125 0 95 21.2664794921875 95 47.5 C 95 73.7335205078125 73.7335205078125 95 47.5 95 C 21.2664794921875 95 0 73.7335205078125 0 47.5 C 0 21.2664794921875 21.2664794921875 0 47.5 0 Z" stroke="none" fill="#7958fb"/>
                                  </g>
                                </g>
                              </g>
                            </g>
                          </g>
                        </g>
                      </g>
                    </g>
                  </g>
                </g>
              </g>
            </g>
          </g>
        </g>
      </g>
    </g>
    <g id="Lips_Tongue_Virus" data-name="Lips / Tongue Virus" transform="translate(607.406 4412.722)">
      <path id="Trazado_1256402" data-name="Trazado 1256402" d="M64.548,17.242c-6.051,1.381-15.348,1.865-21.91,0-.47-.083-.345,0-7.1,0a2.763,2.763,0,0,0-2.763,2.763,2.763,2.763,0,0,0-2.763-2.763h-7.1c-6.576,1.865-15.887,1.381-21.91,0,3.15-4.6,9.159-8.289,15.749-10.734a19.935,19.935,0,0,1,14.464.76,4.144,4.144,0,0,0,3.122,0A19.935,19.935,0,0,1,48.8,6.508C55.388,8.953,61.4,12.642,64.548,17.242Z" transform="translate(0.38 0.384)" fill="#db5669"/>
      <path id="Trazado_1256403" data-name="Trazado 1256403" d="M18.13,20.023l.484,5.346C11.32,23.007,4.44,19.029,1,14c0,0,11.259,2.5,20.722.359A5.526,5.526,0,0,0,18.13,20.023Z" transform="translate(0.38 3.626)" fill="#db5669"/>
      <path id="Trazado_1256404" data-name="Trazado 1256404" d="M52.722,14c-3.44,5.029-10.32,9.007-17.614,11.369l.484-5.346A5.526,5.526,0,0,0,32,14.359C41.463,16.5,52.722,14,52.722,14Z" transform="translate(12.205 3.626)" fill="#db5669"/>
      <path id="Trazado_1256405" data-name="Trazado 1256405" d="M64.548,17.259a51.7,51.7,0,0,1-22.628,0H35.537a2.763,2.763,0,0,0-2.763,2.763,2.763,2.763,0,0,0-2.763-2.763H23.628A51.529,51.529,0,0,1,1,17.259C4.467,12.2,11.016,8.625,16.749,6.525c7.888-2.915,13.7,1.064,16.025,1.064S40.911,3.61,48.8,6.525C54.518,8.625,61.108,12.216,64.548,17.259Z" transform="translate(0.38 0.368)" fill="#db5669"/>
      <path id="Trazado_1256406" data-name="Trazado 1256406" d="M18.268,18.144c-.29,1.257-.166,1.547.345,7.211C11.32,23.007,4.44,19.029,1,14a52.5,52.5,0,0,0,20.722.359A5.526,5.526,0,0,0,18.268,18.144Z" transform="translate(0.38 3.626)" fill="#c4455e"/>
      <path id="Trazado_1256407" data-name="Trazado 1256407" d="M52.722,14c-3.44,5.029-10.32,9.007-17.614,11.369.442-4.973.359-3.965.484-5.346A5.526,5.526,0,0,0,32,14.359,53.3,53.3,0,0,0,52.722,14Z" transform="translate(12.205 3.626)" fill="#c4455e"/>
      <path id="Trazado_1256408" data-name="Trazado 1256408" d="M62.61,16.344c-.594.47-1.216.926-1.851,1.381A51.847,51.847,0,0,1,42.551,17.6c-2.21-.456.442-.359-8.289-.359A2.763,2.763,0,0,0,31.5,20.005a2.763,2.763,0,0,0-2.763-2.763c-8.745,0-6.106-.1-8.289.359a40.215,40.215,0,0,1-8.745.87A42.825,42.825,0,0,1,4.34,12.49,41.762,41.762,0,0,1,15.475,6.508a19.935,19.935,0,0,1,14.464.76,4.144,4.144,0,0,0,3.122,0,19.935,19.935,0,0,1,14.464-.76c6.161,2.266,11.812,5.65,15.086,9.836Z" transform="translate(1.654 0.384)" fill="#f26674"/>
      <path id="Trazado_1256409" data-name="Trazado 1256409" d="M9.65,15.13a40.215,40.215,0,0,0,8.772-.87,5.526,5.526,0,0,0-3.454,3.785A40.588,40.588,0,0,1,9.65,15.13Z" transform="translate(3.679 3.726)" fill="#db5669"/>
      <path id="Trazado_1256410" data-name="Trazado 1256410" d="M35.592,19.924A5.526,5.526,0,0,0,32,14.26a51.847,51.847,0,0,0,18.18.1,43.516,43.516,0,0,1-14.713,6.6Z" transform="translate(12.205 3.726)" fill="#db5669"/>
      <path id="Trazado_1256411" data-name="Trazado 1256411" d="M42.692,20.026c-.608,6.728-.359,3.951-1.133,12.337,0,.746-.249,0-2.956,1.754a13.732,13.732,0,0,0-6.244,9.574A13.594,13.594,0,0,1,14.5,31.961c-.732-7.985-.484-5.263-1.091-11.991A5.526,5.526,0,0,1,17,14.362c2.169-.456-.525-.359,8.289-.359a2.763,2.763,0,0,1,2.763,2.763A2.763,2.763,0,0,1,30.811,14c9.38,0,5.94-.069,8.289.359a5.526,5.526,0,0,1,3.592,5.664Z" transform="translate(5.105 3.624)" fill="#9dcc6b"/>
      <path id="Trazado_1256412" data-name="Trazado 1256412" d="M41.314,20.027c-1.2,13.345-1.008,10.775-1.16,12.668a13.953,13.953,0,0,0-8.7,8.938A14.45,14.45,0,0,1,17,27.183V14h6.907a2.763,2.763,0,0,1,2.763,2.763A2.763,2.763,0,0,1,29.433,14c8.455,0,6.217-.124,8.289.359A5.526,5.526,0,0,1,41.314,20.027Z" transform="translate(6.483 3.623)" fill="#b5e08c"/>
      <path id="Trazado_1256413" data-name="Trazado 1256413" d="M30.443,31.838c-4.573-4.586-4.034-4.006-4.227-4.338a1.381,1.381,0,0,0,.18,1.672l4.048,4.048a1.381,1.381,0,0,0,2.141-1.672,1.381,1.381,0,0,1-2.141.29Z" transform="translate(9.922 8.776)" fill="#9dcc6b"/>
      <path id="Trazado_1256414" data-name="Trazado 1256414" d="M54.629,40.815A13.815,13.815,0,0,1,51.866,49.1C43.909,59.7,27,53.994,27,40.815a13.815,13.815,0,0,1,27.629,0Z" transform="translate(10.298 8.586)" fill="#dad7e5"/>
      <path id="Trazado_1256415" data-name="Trazado 1256415" d="M54.629,40.815A13.815,13.815,0,0,1,51.866,49.1C43.909,59.7,27,53.994,27,40.815a13.815,13.815,0,0,1,27.629,0Z" transform="translate(10.298 8.586)" fill="#dad7e5"/>
      <path id="Trazado_1256416" data-name="Trazado 1256416" d="M28.2,34a14.381,14.381,0,0,0-.47,2.058,13.386,13.386,0,0,1-2.224.539,12.9,12.9,0,0,1,1.2-2.6Z" transform="translate(9.729 11.256)" fill="#84b749"/>
      <path id="Trazado_1256417" data-name="Trazado 1256417" d="M30,31a13.69,13.69,0,0,0-2.114,4.144H26.39A13.815,13.815,0,0,1,30,31Z" transform="translate(10.065 10.111)" fill="#9dcc6b"/>
      <path id="Trazado_1256418" data-name="Trazado 1256418" d="M53.867,40.815A13.815,13.815,0,0,1,51.1,49.1,13.815,13.815,0,0,1,31.763,29.763a13.815,13.815,0,0,1,22.1,11.052Z" transform="translate(11.061 8.586)" fill="#edebf2"/>
      <circle id="Elipse_14686" data-name="Elipse 14686" cx="5.526" cy="5.526" r="5.526" transform="translate(45.587 43.874)" fill="#9dcc6b"/>
      <g id="Grupo_1237519" data-name="Grupo 1237519" transform="translate(0.005 4.493)">
        <path id="Trazado_1256419" data-name="Trazado 1256419" d="M48.2,34.494l.4-4.435c13.566-4.7,17.572-11.825,17.476-11.673a1.381,1.381,0,0,0,0-1.533c-3.647-5.3-10.361-9.035-16.343-11.259a21.206,21.206,0,0,0-15.459.774,2.763,2.763,0,0,1-2.086,0,21.206,21.206,0,0,0-15.459-.774C3.8,10.3,0,17.157.247,16.825a1.381,1.381,0,0,0,0,1.561c3.578,5.457,11.231,9.477,17.448,11.673l.525,5.761a14.92,14.92,0,0,0,17.7,13.3,15.2,15.2,0,1,0,12.267-14.63Zm.221-14.464a57.041,57.041,0,0,0,12.944-.387A36.236,36.236,0,0,1,48.93,26.979C49.165,23.774,49.551,22.241,48.419,20.03ZM17.612,8.191a18.788,18.788,0,0,1,13.469.746,5.526,5.526,0,0,0,4.144,0,18.733,18.733,0,0,1,13.456-.746,34.191,34.191,0,0,1,13.7,8.5c-3.758.594-11.577,1.464-18.249-.152-1.312-.373-.746-.29-8.289-.29a4.144,4.144,0,0,0-2.763,1.064,4.144,4.144,0,0,0-2.694-1.064c-7.488,0-6.907-.083-8.289.29-6.659,1.616-14.492.746-18.249.152a34.191,34.191,0,0,1,13.759-8.5ZM4.944,19.643a56.253,56.253,0,0,0,12.944.387c-1.133,2.2-.774,3.606-.456,6.907A36.112,36.112,0,0,1,4.944,19.643ZM20.983,35.586,19.891,23.594a4.144,4.144,0,0,1,4.144-4.517H30.39a1.381,1.381,0,0,1,1.381,1.381V21.84a1.381,1.381,0,1,0,2.763,0V20.389a1.381,1.381,0,0,1,1.381-1.381H42.3a4.144,4.144,0,0,1,4.144,4.517L45.379,35.351a15.044,15.044,0,0,0-3.937,2.376L38.32,34.6a1.387,1.387,0,0,0-1.962,1.962l3.081,3.164a15.2,15.2,0,0,0-3.191,6.534A12.171,12.171,0,0,1,20.983,35.586Zm30.13,26.248A12.433,12.433,0,1,1,63.546,49.4,12.433,12.433,0,0,1,51.112,61.834Z" transform="translate(-0.005 -4.493)" fill="#231f20"/>
        <path id="Trazado_1256420" data-name="Trazado 1256420" d="M46.439,38.289c-.649-3.205-1.865-1.561.069-3.5a1.387,1.387,0,1,0-1.962-1.962c-1.962,1.962-.207.746-3.5.069v-1.52a1.381,1.381,0,1,0-2.763,0V32.9c-3.205.649-1.561,1.865-3.5-.069a1.387,1.387,0,1,0-1.962,1.962c1.962,1.962.746.207.069,3.5h-1.52a1.381,1.381,0,0,0,0,2.763H32.9c.649,3.205,1.865,1.561-.069,3.5a1.381,1.381,0,0,0,.981,2.362c.677,0,.857-.29,2.058-1.478,2.666,1.768,2.418-.124,2.418,2.528a1.381,1.381,0,0,0,2.763,0c0-2.763-.359-.691,2.418-2.528,1.008,1.008,1.381,1.478,2.058,1.478a1.381,1.381,0,0,0,1.05-2.362c-1.962-1.962-.746-.207-.069-3.5h1.451a1.381,1.381,0,1,0,0-2.763ZM39.67,43.815a4.144,4.144,0,1,1,4.144-4.144A4.144,4.144,0,0,1,39.67,43.815Z" transform="translate(11.437 5.237)" fill="#231f20"/>
        <path id="Trazado_1256421" data-name="Trazado 1256421" d="M36.381,35a1.381,1.381,0,1,0,1.381,1.381A1.381,1.381,0,0,0,36.381,35Z" transform="translate(13.344 7.144)" fill="#231f20"/>
        <path id="Trazado_1256422" data-name="Trazado 1256422" d="M38.381,37a1.381,1.381,0,1,0,1.381,1.381A1.381,1.381,0,0,0,38.381,37Z" transform="translate(14.107 7.907)" fill="#231f20"/>
        <path id="Trazado_1256423" data-name="Trazado 1256423" d="M20.381,20a1.381,1.381,0,1,0,1.381,1.381A1.381,1.381,0,0,0,20.381,20Z" transform="translate(7.241 1.422)" fill="#231f20"/>
        <path id="Trazado_1256424" data-name="Trazado 1256424" d="M18.381,26a1.381,1.381,0,1,0,1.381,1.381A1.381,1.381,0,0,0,18.381,26Z" transform="translate(6.478 3.711)" fill="#231f20"/>
        <path id="Trazado_1256425" data-name="Trazado 1256425" d="M27.381,24.763A1.381,1.381,0,1,0,26,23.381,1.381,1.381,0,0,0,27.381,24.763Z" transform="translate(9.911 2.185)" fill="#231f20"/>
        <path id="Trazado_1256426" data-name="Trazado 1256426" d="M30.381,19.763A1.381,1.381,0,1,0,29,18.381,1.381,1.381,0,0,0,30.381,19.763Z" transform="translate(11.056 0.278)" fill="#231f20"/>
        <path id="Trazado_1256427" data-name="Trazado 1256427" d="M24.381,30a1.381,1.381,0,1,0,1.381,1.381A1.381,1.381,0,0,0,24.381,30Z" transform="translate(8.767 5.237)" fill="#231f20"/>
      </g>
    </g>
  </g>
</svg>
