<svg xmlns="http://www.w3.org/2000/svg" xmlns:xlink="http://www.w3.org/1999/xlink" width="113" height="113" viewBox="0 0 113 113">
  <defs>
    <filter id="Trazado_982547" x="0" y="0" width="113" height="113" filterUnits="userSpaceOnUse">
      <feOffset dy="3" input="SourceAlpha"/>
      <feGaussianBlur stdDeviation="3" result="blur"/>
      <feFlood flood-opacity="0.161"/>
      <feComposite operator="in" in2="blur"/>
      <feComposite in="SourceGraphic"/>
    </filter>
  </defs>
  <g id="Grupo_1237521" data-name="Grupo 1237521" transform="translate(-901 -4391.356)">
    <g id="Grupo_1237152" data-name="Grupo 1237152" transform="translate(0 -5547.425)">
      <g id="Grupo_1234690" data-name="Grupo 1234690" transform="translate(0 -44.352)">
        <g id="Grupo_1231168" data-name="Grupo 1231168" transform="translate(0 4365)">
          <g id="Grupo_1230688" data-name="Grupo 1230688" transform="translate(0 -2146.377)">
            <g id="Grupo_1229016" data-name="Grupo 1229016" transform="translate(0.575 2131.042)">
              <g id="Grupo_1227504" data-name="Grupo 1227504" transform="translate(0 2048.198)">
                <g id="Grupo_1225352" data-name="Grupo 1225352" transform="translate(-0.575 -393.641)">
                  <g id="Grupo_1208123" data-name="Grupo 1208123" transform="translate(0 -1922.377)">
                    <g id="Grupo_1202434" data-name="Grupo 1202434" transform="translate(-0.56 1255.773)">
                      <g id="Grupo_1202053" data-name="Grupo 1202053" transform="translate(0 3240.511)">
                        <g id="Grupo_1177898" data-name="Grupo 1177898" transform="translate(910.561 1411.003)">
                          <g id="Grupo_1172010" data-name="Grupo 1172010" transform="translate(0)">
                            <g id="Grupo_1171046" data-name="Grupo 1171046">
                              <g id="Grupo_1148525" data-name="Grupo 1148525">
                                <g transform="matrix(1, 0, 0, 1, -9, -6)" filter="url(#Trazado_982547)">
                                  <g id="Trazado_982547-2" data-name="Trazado 982547" transform="translate(9 6)" fill="#d6ccfe">
                                    <path d="M 47.5 93.5 C 41.28937149047852 93.5 35.26533508300781 92.28397369384766 29.59518623352051 89.88570404052734 C 24.11771965026855 87.56893157958984 19.19813346862793 84.25196075439453 14.97309303283691 80.02691650390625 C 10.74804019927979 75.80186462402344 7.431066513061523 70.88229370117188 5.114293098449707 65.40481567382812 C 2.716026782989502 59.73468017578125 1.5 53.71062850952148 1.5 47.5 C 1.5 41.28937149047852 2.716026782989502 35.26533508300781 5.114293098449707 29.59518623352051 C 7.431066513061523 24.11771965026855 10.74804019927979 19.19813346862793 14.97309303283691 14.97309303283691 C 19.19813346862793 10.74804019927979 24.11771965026855 7.431066513061523 29.59518623352051 5.114293098449707 C 35.26533508300781 2.716026782989502 41.28937149047852 1.5 47.5 1.5 C 53.71062850952148 1.5 59.73468017578125 2.716026782989502 65.40481567382812 5.114293098449707 C 70.88229370117188 7.431066513061523 75.80186462402344 10.74804019927979 80.02691650390625 14.97309303283691 C 84.25196075439453 19.19813346862793 87.56893157958984 24.11771965026855 89.88570404052734 29.59518623352051 C 92.28397369384766 35.26533508300781 93.5 41.28937149047852 93.5 47.5 C 93.5 53.71062850952148 92.28397369384766 59.73468017578125 89.88570404052734 65.40481567382812 C 87.56893157958984 70.88229370117188 84.25196075439453 75.80186462402344 80.02691650390625 80.02691650390625 C 75.80186462402344 84.25196075439453 70.88229370117188 87.56893157958984 65.40481567382812 89.88570404052734 C 59.73468017578125 92.28397369384766 53.71062850952148 93.5 47.5 93.5 Z" stroke="none"/>
                                    <path d="M 47.5 3 C 41.49121475219727 3 35.66376876831055 4.176155090332031 30.17950439453125 6.495796203613281 C 24.88084411621094 8.736953735351562 20.12152099609375 11.94598388671875 16.03375244140625 16.03375244140625 C 11.94598388671875 20.12152099609375 8.736953735351562 24.88084411621094 6.495796203613281 30.17950439453125 C 4.176155090332031 35.66376876831055 3 41.49121475219727 3 47.5 C 3 53.50878524780273 4.176155090332031 59.33623123168945 6.495796203613281 64.82049560546875 C 8.736953735351562 70.11915588378906 11.94598388671875 74.87847900390625 16.03375244140625 78.96624755859375 C 20.12152099609375 83.05401611328125 24.88084411621094 86.26304626464844 30.17950439453125 88.50419616699219 C 35.66376876831055 90.82384490966797 41.49121475219727 92 47.5 92 C 53.50878524780273 92 59.33623123168945 90.82384490966797 64.82049560546875 88.50419616699219 C 70.11915588378906 86.26304626464844 74.87847900390625 83.05401611328125 78.96624755859375 78.96624755859375 C 83.05401611328125 74.87847900390625 86.26304626464844 70.11915588378906 88.50419616699219 64.82049560546875 C 90.82384490966797 59.33623123168945 92 53.50878524780273 92 47.5 C 92 41.49121475219727 90.82384490966797 35.66376876831055 88.50419616699219 30.17950439453125 C 86.26304626464844 24.88084411621094 83.05401611328125 20.12152099609375 78.96624755859375 16.03375244140625 C 74.87847900390625 11.94598388671875 70.11915588378906 8.736953735351562 64.82049560546875 6.495796203613281 C 59.33623123168945 4.176155090332031 53.50878524780273 3 47.5 3 M 47.5 0 C 73.7335205078125 0 95 21.2664794921875 95 47.5 C 95 73.7335205078125 73.7335205078125 95 47.5 95 C 21.2664794921875 95 0 73.7335205078125 0 47.5 C 0 21.2664794921875 21.2664794921875 0 47.5 0 Z" stroke="none" fill="#7958fb"/>
                                  </g>
                                </g>
                              </g>
                            </g>
                          </g>
                        </g>
                      </g>
                    </g>
                  </g>
                </g>
              </g>
            </g>
          </g>
        </g>
      </g>
    </g>
    <g id="apreton-de-manos_1_" data-name="apreton-de-manos (1)" transform="translate(920.199 4340.536)">
      <path id="Trazado_1256428" data-name="Trazado 1256428" d="M80.114,97.943V119.3a2.486,2.486,0,0,1-2.487,2.487H65.245a14.656,14.656,0,0,0-9.351,3.373c-7.895,6.547-5.792,4.909-10.023,7.853a5.033,5.033,0,0,1-5.539-.174L21,119.207a2.481,2.481,0,0,0-1.434-.455H10.487A2.486,2.486,0,0,1,8,116.265V97.943a2.486,2.486,0,0,1,2.487-2.487H19.4a2.489,2.489,0,0,0,1.674-.647l6.761-6.147a5.032,5.032,0,0,1,3.385-1.309H56.9a5.032,5.032,0,0,1,3.385,1.309l6.761,6.147a2.489,2.489,0,0,0,1.674.647h8.909a2.486,2.486,0,0,1,2.487,2.487Z" transform="translate(-6.757 -6.758)" fill="#ffebd2"/>
      <path id="Trazado_1256429" data-name="Trazado 1256429" d="M57.731,112.775A9.168,9.168,0,0,1,55.963,125.1C47.9,131.7,51.2,129.3,45.87,133.015a5.033,5.033,0,0,1-5.539-.174L21,119.206a2.481,2.481,0,0,0-1.434-.455H10.487A2.487,2.487,0,0,1,8,116.264V97.942a2.487,2.487,0,0,1,2.487-2.487H19.4a2.489,2.489,0,0,0,1.674-.647l6.761-6.147a5.032,5.032,0,0,1,3.385-1.309H46.071a4.863,4.863,0,0,0-3.438,1.424L34.415,97a5.1,5.1,0,0,0-.326,6.905,5.035,5.035,0,0,0,6.319,1.088l4.524-2.591a5.032,5.032,0,0,1,6.622,1.478Z" transform="translate(-6.757 -6.757)" fill="#ffdfba"/>
      <path id="Trazado_1256430" data-name="Trazado 1256430" d="M46.071,87.354c-3.413.539-4.708,2.844-8.231,6.217h-.409a5.032,5.032,0,0,0-3.385,1.309l-6.761,6.147a2.489,2.489,0,0,1-1.674.647H15.979a1.762,1.762,0,0,0-1.762,1.762v8.478a3.73,3.73,0,0,1-4.039,3.718A2.381,2.381,0,0,1,8,113.252V97.218a1.762,1.762,0,0,1,1.762-1.762H19.4a2.489,2.489,0,0,0,1.674-.647l6.761-6.147a5.032,5.032,0,0,1,3.385-1.309Z" transform="translate(-6.757 -6.758)" fill="#ffebd2"/>
      <path id="Trazado_1256431" data-name="Trazado 1256431" d="M195.567,88.663a1.928,1.928,0,0,1-1.3,3.354h-5.146a4.863,4.863,0,0,0-3.438,1.424c-8.933,8.934-8.732,8.577-9.253,9.7a4.114,4.114,0,0,1-7.062.764A5.1,5.1,0,0,1,169.7,97l8.218-8.218a4.863,4.863,0,0,1,3.438-1.424h10.828A5.032,5.032,0,0,1,195.567,88.663Z" transform="translate(-142.04 -6.758)" fill="#fff3e4"/>
      <circle id="Elipse_14687" data-name="Elipse 14687" cx="11.656" cy="11.656" r="11.656" transform="translate(42.506 104.811)" fill="#fe4f60"/>
      <path id="Trazado_1256432" data-name="Trazado 1256432" d="M286.125,248.417a12.191,12.191,0,0,0-7.373,7.357,2.7,2.7,0,0,1-5.257-.959,11.711,11.711,0,0,1,11.819-11.655A2.7,2.7,0,0,1,286.125,248.417Z" transform="translate(-230.989 -138.347)" fill="#ff6d7a"/>
      <path id="Trazado_1256433" data-name="Trazado 1256433" d="M74.6,115.033a1.243,1.243,0,0,1-1.243,1.243H71.026a1.243,1.243,0,1,1,0-2.487h2.331A1.243,1.243,0,0,1,74.6,115.033Zm-30.82-17.2,2.167,3.091A1.243,1.243,0,0,0,47.983,99.5l-2.167-3.091a6.247,6.247,0,0,0-8.258-1.844l-4.525,2.591a3.789,3.789,0,0,1-4.563-5.968L36.756,82.9a3.594,3.594,0,0,1,2.558-1.06H50.142a3.781,3.781,0,0,1,2.549.986l7.473,6.794a1.244,1.244,0,0,0,.836.323H73.357a1.243,1.243,0,0,0,0-2.487H61.481l-7.117-6.471a6.264,6.264,0,0,0-4.222-1.632H39.314A6.065,6.065,0,0,0,35,81.141l-8.285,8.285a6.276,6.276,0,0,0,7.557,9.884l4.525-2.591a3.772,3.772,0,0,1,4.986,1.113Zm10.462,5.655a12.9,12.9,0,1,0,0,25.8,1.243,1.243,0,1,0,0-2.487,10.413,10.413,0,1,1,7.357-3.043,1.243,1.243,0,0,0,1.757,1.76,12.9,12.9,0,0,0-9.113-22.029Zm5.053,7.847a1.244,1.244,0,0,0-1.758,0l-3.294,3.294-3.294-3.294a1.243,1.243,0,1,0-1.758,1.758l3.294,3.294-3.294,3.294a1.243,1.243,0,0,0,1.758,1.758l3.294-3.294,3.294,3.294a1.243,1.243,0,1,0,1.758-1.758L56,116.388l3.294-3.294a1.243,1.243,0,0,0,0-1.758ZM1.243,89.942H13.6a1.244,1.244,0,0,0,.836-.323l7.473-6.794a3.782,3.782,0,0,1,2.549-.986h3.929a1.243,1.243,0,1,0,0-2.487H24.458a6.263,6.263,0,0,0-4.222,1.632l-7.117,6.47H1.243a1.243,1.243,0,1,0,0,2.487ZM38.462,125.2a3.784,3.784,0,0,1-4.17-.131C12.726,109.856,14.171,110.751,13.6,110.751H1.243a1.243,1.243,0,0,0,0,2.487H13.206L32.859,127.1a6.269,6.269,0,0,0,6.907.216,1.243,1.243,0,0,0-1.3-2.118Z"/>
    </g>
  </g>
</svg>
