<svg xmlns="http://www.w3.org/2000/svg" xmlns:xlink="http://www.w3.org/1999/xlink" width="113" height="113" viewBox="0 0 113 113">
  <defs>
    <filter id="Trazado_982547" x="0" y="0" width="113" height="113" filterUnits="userSpaceOnUse">
      <feOffset dy="3" input="SourceAlpha"/>
      <feGaussianBlur stdDeviation="3" result="blur"/>
      <feFlood flood-opacity="0.161"/>
      <feComposite operator="in" in2="blur"/>
      <feComposite in="SourceGraphic"/>
    </filter>
  </defs>
  <g id="Grupo_1237525" data-name="Grupo 1237525" transform="translate(-1216 -4391.069)">
    <g id="Grupo_1237153" data-name="Grupo 1237153" transform="translate(0 -5547.425)">
      <g id="Grupo_1234691" data-name="Grupo 1234691" transform="translate(0 -44.352)">
        <g id="Grupo_1231160" data-name="Grupo 1231160" transform="translate(0 4365)">
          <g id="Grupo_1230689" data-name="Grupo 1230689" transform="translate(0 -2146.377)">
            <g id="Grupo_1229017" data-name="Grupo 1229017" transform="translate(0 2131.042)">
              <g id="Grupo_1227505" data-name="Grupo 1227505" transform="translate(0.575 2048.198)">
                <g id="Grupo_1225353" data-name="Grupo 1225353" transform="translate(-0.575 -393.641)">
                  <g id="Grupo_1208124" data-name="Grupo 1208124" transform="translate(0 -1922.377)">
                    <g id="Grupo_1202435" data-name="Grupo 1202435" transform="translate(-0.56 1255.486)">
                      <g id="Grupo_1202052" data-name="Grupo 1202052" transform="translate(1225.561 4651.514)">
                        <g id="Grupo_1172010" data-name="Grupo 1172010" transform="translate(0)">
                          <g id="Grupo_1171046" data-name="Grupo 1171046">
                            <g id="Grupo_1148525" data-name="Grupo 1148525">
                              <g transform="matrix(1, 0, 0, 1, -9, -6)" filter="url(#Trazado_982547)">
                                <g id="Trazado_982547-2" data-name="Trazado 982547" transform="translate(9 6)" fill="#d6ccfe">
                                  <path d="M 47.5 93.5 C 41.28937149047852 93.5 35.26533508300781 92.28397369384766 29.59518623352051 89.88570404052734 C 24.11771965026855 87.56893157958984 19.19813346862793 84.25196075439453 14.97309303283691 80.02691650390625 C 10.74804019927979 75.80186462402344 7.431066513061523 70.88229370117188 5.114293098449707 65.40481567382812 C 2.716026782989502 59.73468017578125 1.5 53.71062850952148 1.5 47.5 C 1.5 41.28937149047852 2.716026782989502 35.26533508300781 5.114293098449707 29.59518623352051 C 7.431066513061523 24.11771965026855 10.74804019927979 19.19813346862793 14.97309303283691 14.97309303283691 C 19.19813346862793 10.74804019927979 24.11771965026855 7.431066513061523 29.59518623352051 5.114293098449707 C 35.26533508300781 2.716026782989502 41.28937149047852 1.5 47.5 1.5 C 53.71062850952148 1.5 59.73468017578125 2.716026782989502 65.40481567382812 5.114293098449707 C 70.88229370117188 7.431066513061523 75.80186462402344 10.74804019927979 80.02691650390625 14.97309303283691 C 84.25196075439453 19.19813346862793 87.56893157958984 24.11771965026855 89.88570404052734 29.59518623352051 C 92.28397369384766 35.26533508300781 93.5 41.28937149047852 93.5 47.5 C 93.5 53.71062850952148 92.28397369384766 59.73468017578125 89.88570404052734 65.40481567382812 C 87.56893157958984 70.88229370117188 84.25196075439453 75.80186462402344 80.02691650390625 80.02691650390625 C 75.80186462402344 84.25196075439453 70.88229370117188 87.56893157958984 65.40481567382812 89.88570404052734 C 59.73468017578125 92.28397369384766 53.71062850952148 93.5 47.5 93.5 Z" stroke="none"/>
                                  <path d="M 47.5 3 C 41.49121475219727 3 35.66376876831055 4.176155090332031 30.17950439453125 6.495796203613281 C 24.88084411621094 8.736953735351562 20.12152099609375 11.94598388671875 16.03375244140625 16.03375244140625 C 11.94598388671875 20.12152099609375 8.736953735351562 24.88084411621094 6.495796203613281 30.17950439453125 C 4.176155090332031 35.66376876831055 3 41.49121475219727 3 47.5 C 3 53.50878524780273 4.176155090332031 59.33623123168945 6.495796203613281 64.82049560546875 C 8.736953735351562 70.11915588378906 11.94598388671875 74.87847900390625 16.03375244140625 78.96624755859375 C 20.12152099609375 83.05401611328125 24.88084411621094 86.26304626464844 30.17950439453125 88.50419616699219 C 35.66376876831055 90.82384490966797 41.49121475219727 92 47.5 92 C 53.50878524780273 92 59.33623123168945 90.82384490966797 64.82049560546875 88.50419616699219 C 70.11915588378906 86.26304626464844 74.87847900390625 83.05401611328125 78.96624755859375 78.96624755859375 C 83.05401611328125 74.87847900390625 86.26304626464844 70.11915588378906 88.50419616699219 64.82049560546875 C 90.82384490966797 59.33623123168945 92 53.50878524780273 92 47.5 C 92 41.49121475219727 90.82384490966797 35.66376876831055 88.50419616699219 30.17950439453125 C 86.26304626464844 24.88084411621094 83.05401611328125 20.12152099609375 78.96624755859375 16.03375244140625 C 74.87847900390625 11.94598388671875 70.11915588378906 8.736953735351562 64.82049560546875 6.495796203613281 C 59.33623123168945 4.176155090332031 53.50878524780273 3 47.5 3 M 47.5 0 C 73.7335205078125 0 95 21.2664794921875 95 47.5 C 95 73.7335205078125 73.7335205078125 95 47.5 95 C 21.2664794921875 95 0 73.7335205078125 0 47.5 C 0 21.2664794921875 21.2664794921875 0 47.5 0 Z" stroke="none" fill="#7958fb"/>
                                </g>
                              </g>
                            </g>
                          </g>
                        </g>
                      </g>
                    </g>
                  </g>
                </g>
              </g>
            </g>
          </g>
        </g>
      </g>
    </g>
    <g id="bacterias_3_" data-name="bacterias (3)" transform="translate(1241.209 4413.562)">
      <g id="Grupo_1237523" data-name="Grupo 1237523" transform="translate(0.92 0.921)">
        <path id="Trazado_1256434" data-name="Trazado 1256434" d="M66.882,106.292c-.673-.673-2.311-2.022-2.311-2.022A12.079,12.079,0,0,1,66.3,89.375l23.1-23.1a12.079,12.079,0,0,1,14.894-1.73s1.227,1.451,1.9,2.124c4.715,4.715,3.862,11.735-.853,16.45L83.9,104.994C79.181,109.709,71.6,111.007,66.882,106.292Z" transform="translate(-56.013 -55.991)" fill="#fc5e6a"/>
        <path id="Trazado_1256435" data-name="Trazado 1256435" d="M122.976,87.779a12.036,12.036,0,0,1-3.536,8.538l-23.1,23.1a12.084,12.084,0,0,1-18.806-2.181,12.081,12.081,0,0,0,14.894-1.73l23.1-23.1a12.083,12.083,0,0,0,1.73-14.895,12.1,12.1,0,0,1,5.717,10.268Z" transform="translate(-68.98 -68.954)" fill="#f25353"/>
        <path id="Trazado_1256436" data-name="Trazado 1256436" d="M96.519,131.244a8.342,8.342,0,0,1,.179-11.68l22.921-22.921a8.339,8.339,0,0,1,11.48-.36,8.22,8.22,0,0,1,2.458,4.111,9.567,9.567,0,0,1-2.97,7.642l-22.56,22.812c-1.7,1.7-3.484,2.714-5.712,2.623-.56-.023-1.871.034-1.871.034a8.213,8.213,0,0,1-3.925-2.261Z" transform="translate(-83.624 -83.573)" fill="#fe7186"/>
        <g id="Grupo_1237522" data-name="Grupo 1237522" transform="translate(16.82 14.666)">
          <path id="Trazado_1256437" data-name="Trazado 1256437" d="M176.078,152.967l-4.054,4.054-3.2,1.92-2.444,3.722-13.4,13.4a8.261,8.261,0,0,1-7.847,2.17,12.013,12.013,0,0,0,6.632-3.384l23.1-23.1a12.009,12.009,0,0,0,3.384-6.631A8.261,8.261,0,0,1,176.078,152.967Z" transform="translate(-145.135 -142.966)" fill="#fc5e6a"/>
          <path id="Trazado_1256438" data-name="Trazado 1256438" d="M220.206,228.009a1.98,1.98,0,0,1,.111-2.762l4.948-4.948a1.991,1.991,0,0,1,2.71-.154c.024.022.048.045.071.068a1.909,1.909,0,0,1,0,2.7l-5.122,5.122a1.909,1.909,0,0,1-2.7,0Z" transform="translate(-210.583 -208.414)" fill="#fc5e6a"/>
          <circle id="Elipse_14688" data-name="Elipse 14688" cx="1.906" cy="1.906" r="1.906" transform="translate(21.854)" fill="#fc5e6a"/>
          <path id="Trazado_1256439" data-name="Trazado 1256439" d="M316.978,235.774a4.025,4.025,0,0,0-4.246,5.979l5.463-5.528A3.978,3.978,0,0,0,316.978,235.774Z" transform="translate(-291.765 -222.473)" fill="#fc5e6a"/>
        </g>
        <path id="Trazado_1256440" data-name="Trazado 1256440" d="M319.191,237.065l-5.642,5.642a3.987,3.987,0,0,1-.754-1.676l4.72-4.72A3.987,3.987,0,0,1,319.191,237.065Z" transform="translate(-275.482 -208.344)" fill="#f25353"/>
        <circle id="Elipse_14689" data-name="Elipse 14689" cx="1.65" cy="1.65" r="1.65" transform="translate(21.757 40.09)" fill="#fc5e6a"/>
        <circle id="Elipse_14690" data-name="Elipse 14690" cx="1.589" cy="1.589" r="1.589" transform="translate(33.101 19.8)" fill="#fc5e6a"/>
        <circle id="Elipse_14691" data-name="Elipse 14691" cx="1.906" cy="1.906" r="1.906" transform="translate(14.593 38.746)" fill="#fc5e6a"/>
        <path id="Trazado_1256441" data-name="Trazado 1256441" d="M17.2,71.937a2.957,2.957,0,0,1,1.252-1.518,4.964,4.964,0,1,0-7.267-2.636,2.944,2.944,0,0,1-1.272,3.476,4.964,4.964,0,1,0,7.267,2.636,2.935,2.935,0,0,1,.02-1.958Z" transform="translate(-7.524 -54.644)" fill="#ffe98d"/>
        <path id="Trazado_1256442" data-name="Trazado 1256442" d="M395.513,336.159a2.889,2.889,0,0,1-.349-1.89,4.848,4.848,0,1,0-6.534,3.782,2.875,2.875,0,0,1,1.8,3.133,4.848,4.848,0,1,0,6.534-3.782A2.867,2.867,0,0,1,395.513,336.159Z" transform="translate(-339.322 -289.426)" fill="#ffe98d"/>
        <path id="Trazado_1256443" data-name="Trazado 1256443" d="M418.938,367.169a1.571,1.571,0,0,1-1.31-.695,1.527,1.527,0,0,1-.236-1.084,6.192,6.192,0,0,0,.068-1.208.611.611,0,0,1,.941-.544,6.116,6.116,0,0,0,1.079.543,1.546,1.546,0,0,1,.921,1.9,1.544,1.544,0,0,1-.809.942A1.476,1.476,0,0,1,418.938,367.169Zm-3.4-8.5a.611.611,0,0,1-.941.544,6.116,6.116,0,0,0-1.079-.543,1.546,1.546,0,0,1-.921-1.9,1.544,1.544,0,0,1,.809-.942,1.476,1.476,0,0,1,.654-.15,1.571,1.571,0,0,1,1.31.695,1.528,1.528,0,0,1,.236,1.084A6.2,6.2,0,0,0,415.534,358.669Z" transform="translate(-363.023 -313.125)" fill="#ffdd41"/>
        <path id="Trazado_1256444" data-name="Trazado 1256444" d="M36,101.094c-.038-.014-.076-.029-.113-.046A1.626,1.626,0,0,1,35,99.115a1.592,1.592,0,0,1,.707-.914,6.308,6.308,0,0,0,1.03-.777.622.622,0,0,1,1.044.38,6.242,6.242,0,0,0,.29,1.255,1.591,1.591,0,0,1-.011,1.071,1.613,1.613,0,0,1-2.068.964ZM39.754,92.4a.622.622,0,0,1-1.044-.38,6.246,6.246,0,0,0-.29-1.255,1.59,1.59,0,0,1,.01-1.072,1.615,1.615,0,0,1,2.068-.964c.038.014.076.029.113.046a1.626,1.626,0,0,1,.881,1.934,1.593,1.593,0,0,1-.707.914A6.307,6.307,0,0,0,39.754,92.4Z" transform="translate(-31.587 -78.718)" fill="#ffdd41"/>
        <circle id="Elipse_14692" data-name="Elipse 14692" cx="2.436" cy="2.436" r="2.436" transform="translate(14.028)" fill="#73c3f9"/>
        <circle id="Elipse_14693" data-name="Elipse 14693" cx="1.831" cy="1.831" r="1.831" transform="translate(39.601 49.38)" fill="#9bd8f9"/>
        <circle id="Elipse_14694" data-name="Elipse 14694" cx="3.052" cy="3.052" r="3.052" transform="translate(32.529 54.642)" fill="#9bd8f9"/>
        <path id="Trazado_1256445" data-name="Trazado 1256445" d="M152.234,17.547a4.872,4.872,0,1,1-2.088-6.133c-1.169.673-1.042,1.676-.794,3.082C149.661,16.245,150.488,17.783,152.234,17.547Z" transform="translate(-126.33 -10.38)" fill="#9bd8f9"/>
        <path id="Trazado_1256446" data-name="Trazado 1256446" d="M192.591,22.094a3.3,3.3,0,0,1-2.088-6.133,4.872,4.872,0,0,1,2.088,6.133Z" transform="translate(-166.687 -14.927)" fill="#73c3f9"/>
      </g>
      <g id="Grupo_1237524" data-name="Grupo 1237524" transform="translate(0 0.004)">
        <path id="Trazado_1256447" data-name="Trazado 1256447" d="M101.288,123.942l-.165.165a7.288,7.288,0,0,1-5.192,2.147h-.058a7.291,7.291,0,0,1-5.217-2.228,7.439,7.439,0,0,1,.169-10.393l22.921-22.921a7.492,7.492,0,0,1,5.267-2.209.917.917,0,0,0-.007-1.833H119a9.315,9.315,0,0,0-6.548,2.745L89.529,112.336A9.28,9.28,0,0,0,89.34,125.3a9.11,9.11,0,0,0,6.519,2.785h.072a9.108,9.108,0,0,0,6.488-2.684l.165-.165a.917.917,0,1,0-1.3-1.3Z" transform="translate(-76.184 -76.076)"/>
        <path id="Trazado_1256448" data-name="Trazado 1256448" d="M246.507,97.074a7.349,7.349,0,0,1,1.545,11.566l-3.86,3.86a4.348,4.348,0,0,0-6.03,6.03l-10.024,10.024a.917.917,0,1,0,1.3,1.3l19.914-19.914a9.175,9.175,0,0,0-1.935-14.456.917.917,0,1,0-.906,1.594ZM240,114.34a2.517,2.517,0,0,1,2.845-.5l-3.341,3.341A2.517,2.517,0,0,1,240,114.34Z" transform="translate(-200.017 -83.705)"/>
        <path id="Trazado_1256449" data-name="Trazado 1256449" d="M213.1,218.046a2.9,2.9,0,0,0-.12,4.049l0,0,.027.028a2.825,2.825,0,0,0,3.992,0L222.125,217a2.825,2.825,0,0,0,0-3.993c-.033-.033-.067-.066-.1-.1a2.916,2.916,0,0,0-3.976.183Zm7.69-3.775.04.038a.991.991,0,0,1,0,1.4l-5.122,5.122a.989.989,0,0,1-1.394.005l-.019-.019a1.063,1.063,0,0,1,.1-1.474l4.948-4.948a1.08,1.08,0,0,1,1.446-.124Z" transform="translate(-186.275 -186.279)"/>
        <path id="Trazado_1256450" data-name="Trazado 1256450" d="M317.269,120.827a2.823,2.823,0,1,0,3.992,0A2.826,2.826,0,0,0,317.269,120.827Zm2.7,2.7a.989.989,0,1,1,0-1.4A.983.983,0,0,1,319.965,123.523Z" transform="translate(-277.765 -105.335)"/>
        <path id="Trazado_1256451" data-name="Trazado 1256451" d="M180.592,328a2.567,2.567,0,1,0,1.815.752A2.55,2.55,0,0,0,180.592,328Zm.518,3.085a.734.734,0,1,1,.215-.519A.729.729,0,0,1,181.11,331.086Z" transform="translate(-156.265 -287.911)"/>
        <path id="Trazado_1256452" data-name="Trazado 1256452" d="M275.11,166.273a2.506,2.506,0,1,0-1.772.734A2.489,2.489,0,0,0,275.11,166.273Zm-2.443-1.772a.672.672,0,1,1,.2.475A.668.668,0,0,1,272.667,164.5Z" transform="translate(-237.73 -142.196)"/>
        <path id="Trazado_1256453" data-name="Trazado 1256453" d="M353.765,175.071a.917.917,0,1,0,.918.917.916.916,0,0,0-.918-.917Z" transform="translate(-309.721 -153.673)"/>
        <path id="Trazado_1256454" data-name="Trazado 1256454" d="M325.43,183.34a.917.917,0,0,0-.917-.917h0a.917.917,0,1,0,.918.917Z" transform="translate(-284.044 -160.126)"/>
        <path id="Trazado_1256455" data-name="Trazado 1256455" d="M347.313,205.4a.917.917,0,0,0-.917-.917h0a.917.917,0,1,0,.918.917Z" transform="translate(-303.252 -179.488)"/>
        <path id="Trazado_1256456" data-name="Trazado 1256456" d="M175.415,273.494a.917.917,0,0,0,0-1.833h0a.917.917,0,0,0,0,1.833Z" transform="translate(-153.17 -238.457)"/>
        <path id="Trazado_1256457" data-name="Trazado 1256457" d="M154.408,294.635a.917.917,0,0,0-.917-.917h0a.917.917,0,1,0,.918.917Z" transform="translate(-133.925 -257.818)"/>
        <path id="Trazado_1256458" data-name="Trazado 1256458" d="M182.918,302.9a.917.917,0,1,0,0-1.833h0a.917.917,0,1,0,0,1.833Z" transform="translate(-159.756 -264.271)"/>
        <path id="Trazado_1256459" data-name="Trazado 1256459" d="M134.674,376.336a.917.917,0,1,0,.918.917.916.916,0,0,0-.918-.917Z" transform="translate(-117.409 -330.338)"/>
        <path id="Trazado_1256460" data-name="Trazado 1256460" d="M162.048,383.508a.917.917,0,1,0,0-1.833h0a.917.917,0,0,0,0,1.833Z" transform="translate(-141.436 -335.024)"/>
        <path id="Trazado_1256461" data-name="Trazado 1256461" d="M124.248,317.838a2.822,2.822,0,1,0,0,3.992A2.826,2.826,0,0,0,124.248,317.838Zm-1.3,2.7a.989.989,0,1,1,0-1.4A.983.983,0,0,1,122.952,320.535Z" transform="translate(-104.833 -278.266)"/>
        <path id="Trazado_1256462" data-name="Trazado 1256462" d="M72.863,66.923,76.185,63.6l1.6,1.6a.917.917,0,0,0,1.3-1.3l-1.6-1.6L80.8,58.981l1.6,1.6a.917.917,0,0,0,1.3-1.3l-1.622-1.622a12.892,12.892,0,0,0,2.467-4.275l2.216.594a.917.917,0,0,0,.475-1.771l-2.219-.595a13.1,13.1,0,0,0,0-4.934l2.219-.595a.917.917,0,0,0-.474-1.771l-2.216.594a12.893,12.893,0,0,0-2.467-4.275L83.7,39.012a.917.917,0,0,0-1.3-1.3l-1.622,1.621a12.894,12.894,0,0,0-4.275-2.467l.594-2.216a.917.917,0,1,0-1.771-.474L74.734,36.4a13.1,13.1,0,0,0-4.934,0l-.595-2.219a.917.917,0,1,0-1.771.475l.594,2.216a12.892,12.892,0,0,0-4.275,2.467l-1.622-1.622a.917.917,0,1,0-1.3,1.3l1.6,1.6-3.323,3.323-1.6-1.6a.917.917,0,1,0-1.3,1.3l1.6,1.6-3.323,3.323-1.6-1.6a.917.917,0,1,0-1.3,1.3l1.6,1.6-3.323,3.323-1.6-1.6a.917.917,0,1,0-1.3,1.3l1.6,1.6L45.253,57.79l-1.6-1.6a.917.917,0,0,0-1.3,1.3l1.6,1.6-3.323,3.323-1.6-1.6a.917.917,0,1,0-1.3,1.3l1.622,1.622A12.892,12.892,0,0,0,36.894,68l-2.216-.594a.917.917,0,0,0-.475,1.771l2.219.595a13.1,13.1,0,0,0,0,4.934L34.2,75.3a.917.917,0,1,0,.474,1.771l2.216-.594a12.893,12.893,0,0,0,2.467,4.275L37.74,82.379a.917.917,0,1,0,1.3,1.3l1.622-1.622a12.893,12.893,0,0,0,4.275,2.467l-.594,2.216a.917.917,0,1,0,1.771.474l.595-2.219a13.086,13.086,0,0,0,4.934,0l.595,2.219A.917.917,0,1,0,54,86.737L53.41,84.52a12.892,12.892,0,0,0,4.275-2.467l1.622,1.622a.917.917,0,0,0,1.3-1.3l-1.6-1.6,3.323-3.323,1.6,1.6a.917.917,0,1,0,1.3-1.3l-1.6-1.6,3.323-3.323,1.6,1.6a.917.917,0,0,0,1.3-1.3l-1.6-1.6,3.323-3.323,1.6,1.6a.917.917,0,1,0,1.3-1.3ZM41.283,80.132a11.169,11.169,0,0,1,0-15.778l23.1-23.1A11.157,11.157,0,0,1,80.156,57.036l-9.238,9.238h0L57.061,80.132a11.169,11.169,0,0,1-15.778,0Z" transform="translate(-29.426 -29.405)"/>
        <path id="Trazado_1256463" data-name="Trazado 1256463" d="M8.183,74.309a5.879,5.879,0,0,0,3.263-7.32,2.024,2.024,0,0,1,.014-1.346,2.049,2.049,0,0,1,.865-1.047,5.881,5.881,0,1,0-8.608-3.123A2.024,2.024,0,0,1,3.7,62.82a2.049,2.049,0,0,1-.865,1.047,5.88,5.88,0,0,0,.65,10.4A5.936,5.936,0,0,0,8.183,74.309ZM4.231,72.592a4.047,4.047,0,0,1-.445-7.156,3.889,3.889,0,0,0,1.64-1.989,3.864,3.864,0,0,0,.025-2.569,4.054,4.054,0,0,1,3.827-5.362,4.049,4.049,0,0,1,2.1,7.511,3.861,3.861,0,0,0-1.665,4.558,4,4,0,0,1-.025,2.7,4.091,4.091,0,0,1-5.456,2.311Z" transform="translate(0 -47.12)"/>
        <path id="Trazado_1256464" data-name="Trazado 1256464" d="M393.646,332.423a5.775,5.775,0,0,0-2.919-2.5,1.956,1.956,0,0,1-.987-.846,1.98,1.98,0,0,1-.237-1.29,5.765,5.765,0,1,0-7.769,4.5,1.956,1.956,0,0,1,.987.846,1.98,1.98,0,0,1,.237,1.29,5.772,5.772,0,0,0,1.205,4.5.917.917,0,1,0,1.428-1.15,3.849,3.849,0,0,1-.228-.315,3.928,3.928,0,0,1-.593-2.75,3.791,3.791,0,0,0-2.378-4.13,3.931,3.931,0,0,1-.3-7.2,3.93,3.93,0,0,1,5.6,4.136,3.792,3.792,0,0,0,2.378,4.13,3.931,3.931,0,0,1,.3,7.2,3.822,3.822,0,0,1-1.746.392h-.011a.917.917,0,0,0-.01,1.833h.066a5.762,5.762,0,0,0,4.977-8.644Z" transform="translate(-331.836 -281.89)"/>
        <path id="Trazado_1256465" data-name="Trazado 1256465" d="M447.17,417.944a2.384,2.384,0,0,0,1.056-.243,2.464,2.464,0,0,0-.185-4.517,5.212,5.212,0,0,1-.917-.462,1.528,1.528,0,0,0-2.348,1.356,5.286,5.286,0,0,1-.058,1.029,2.431,2.431,0,0,0,.373,1.725,2.5,2.5,0,0,0,2.078,1.111Zm-.542-2.111a.609.609,0,0,1-.1-.443,7.1,7.1,0,0,0,.08-.847,6.994,6.994,0,0,0,.774.353.61.61,0,0,1,.316.271.619.619,0,0,1,.057.5.626.626,0,0,1-.335.386A.659.659,0,0,1,446.628,415.833Z" transform="translate(-390.335 -362.067)"/>
        <path id="Trazado_1256466" data-name="Trazado 1256466" d="M409.549,349.294a2.5,2.5,0,0,0-2.079-1.111,2.385,2.385,0,0,0-1.057.243,2.464,2.464,0,0,0,.185,4.517,5.216,5.216,0,0,1,.917.462,1.528,1.528,0,0,0,2.348-1.356,5.3,5.3,0,0,1,.058-1.029A2.431,2.431,0,0,0,409.549,349.294Zm-1.517,2.83h0Zm.078-1.387a7.109,7.109,0,0,0-.08.847,7,7,0,0,0-.774-.353.61.61,0,0,1-.316-.271.619.619,0,0,1-.057-.5.627.627,0,0,1,.335-.386.559.559,0,0,1,.251-.057.655.655,0,0,1,.542.278A.61.61,0,0,1,408.11,350.737Z" transform="translate(-355.517 -305.626)"/>
        <path id="Trazado_1256467" data-name="Trazado 1256467" d="M32.356,155.756a2.5,2.5,0,0,0,.016-1.683A5.332,5.332,0,0,1,32.124,153a1.538,1.538,0,0,0-2.577-.938,5.411,5.411,0,0,1-.881.664,2.5,2.5,0,0,0-1.11,1.432,2.555,2.555,0,0,0,1.386,3.039c.057.025.114.049.172.069a2.519,2.519,0,0,0,3.242-1.513Zm-1.723-.627a.686.686,0,0,1-.947.395.7.7,0,0,1-.376-.829.68.68,0,0,1,.3-.4,7.222,7.222,0,0,0,.776-.542,7.16,7.16,0,0,0,.247.913.672.672,0,0,1,0,.46Z" transform="translate(-24.095 -133.114)"/>
        <path id="Trazado_1256468" data-name="Trazado 1256468" d="M55.589,85.552a1.538,1.538,0,0,0,2.578.938h0a5.412,5.412,0,0,1,.881-.664,2.5,2.5,0,0,0,1.11-1.432,2.555,2.555,0,0,0-1.386-3.038c-.056-.025-.114-.048-.172-.069A2.533,2.533,0,0,0,55.358,82.8a2.5,2.5,0,0,0-.016,1.683A5.342,5.342,0,0,1,55.589,85.552Zm1.491-2.127a.692.692,0,0,1,.892-.417.744.744,0,0,1,.431.851.681.681,0,0,1-.3.4,7.226,7.226,0,0,0-.776.542,7.144,7.144,0,0,0-.247-.913A.673.673,0,0,1,57.081,83.426Z" transform="translate(-48.456 -71.218)"/>
        <path id="Trazado_1256469" data-name="Trazado 1256469" d="M117.321,6.6a5.9,5.9,0,0,0,.073.6,5.774,5.774,0,0,0,1.395,2.864.917.917,0,0,0,1.363-1.227,3.957,3.957,0,0,1,3.777-6.51A3.792,3.792,0,0,0,126.2,8.645a3.926,3.926,0,0,1-2.416,1.443,3.989,3.989,0,0,1-.521.057.917.917,0,0,0,.039,1.833,6.409,6.409,0,0,0,.8-.084,5.788,5.788,0,0,0,2.315-10.441,5.749,5.749,0,0,0-4.325-.959A5.814,5.814,0,0,0,120.528,1a3.351,3.351,0,1,0-3.207,5.6ZM127,6.826a1.954,1.954,0,0,1-1.295-3.6A3.963,3.963,0,0,1,127,6.826Zm-9.121-4.965A1.519,1.519,0,0,1,119,2.1a5.8,5.8,0,0,0-1.507,2.624,1.516,1.516,0,0,1,.385-2.865Z" transform="translate(-100.759 -0.004)"/>
        <path id="Trazado_1256470" data-name="Trazado 1256470" d="M326.763,404a2.748,2.748,0,1,0,2.748,2.748A2.751,2.751,0,0,0,326.763,404Zm0,3.663a.915.915,0,1,1,.915-.915A.916.916,0,0,1,326.763,407.664Z" transform="translate(-284.411 -354.621)"/>
        <path id="Trazado_1256471" data-name="Trazado 1256471" d="M270.125,447.058a3.969,3.969,0,1,0,3.969,3.969A3.973,3.973,0,0,0,270.125,447.058Zm0,6.1a2.135,2.135,0,1,1,2.136-2.135A2.138,2.138,0,0,1,270.125,453.162Z" transform="translate(-233.624 -392.416)"/>
      </g>
    </g>
  </g>
</svg>
