<svg xmlns="http://www.w3.org/2000/svg" xmlns:xlink="http://www.w3.org/1999/xlink" width="400" height="288" viewBox="0 0 400 288">
  <defs>
    <clipPath id="clip-path">
      <rect id="Rect치ngulo_424167" data-name="Rect치ngulo 424167" width="400" height="288" transform="translate(1020 4906.121)" fill="#fff" stroke="#707070" stroke-width="1"/>
    </clipPath>
    <linearGradient id="linear-gradient" x1="0.167" y1="0.276" x2="1.089" y2="0.905" gradientUnits="objectBoundingBox">
      <stop offset="0" stop-color="#ffb9b8"/>
      <stop offset="0.194" stop-color="#feb6b5"/>
      <stop offset="0.336" stop-color="#faadac"/>
      <stop offset="0.461" stop-color="#f49d9c"/>
      <stop offset="0.527" stop-color="#f09191"/>
      <stop offset="0.578" stop-color="#e88"/>
      <stop offset="0.731" stop-color="#e87171"/>
      <stop offset="0.875" stop-color="#e46363"/>
      <stop offset="1" stop-color="#e35e5e"/>
    </linearGradient>
    <linearGradient id="linear-gradient-2" x1="0.064" y1="0.142" x2="1.166" y2="1.089" gradientUnits="objectBoundingBox">
      <stop offset="0" stop-color="#ffb9b8"/>
      <stop offset="0.234" stop-color="#feb6b5"/>
      <stop offset="0.406" stop-color="#faadac"/>
      <stop offset="0.557" stop-color="#f49d9c"/>
      <stop offset="0.637" stop-color="#f09191"/>
      <stop offset="0.764" stop-color="#ec8383"/>
      <stop offset="1" stop-color="#e35e5e"/>
    </linearGradient>
    <linearGradient id="linear-gradient-3" x1="0.5" y1="1" x2="0.5" y2="-0.213" gradientUnits="objectBoundingBox">
      <stop offset="0" stop-color="#ffb9b8"/>
      <stop offset="0.192" stop-color="#fdb4b3"/>
      <stop offset="0.419" stop-color="#f8a6a5"/>
      <stop offset="0.637" stop-color="#f09191"/>
      <stop offset="0.709" stop-color="#ed8484"/>
      <stop offset="0.893" stop-color="#e66868"/>
      <stop offset="1" stop-color="#e35e5e"/>
    </linearGradient>
    <linearGradient id="linear-gradient-4" x1="-0.209" y1="0.584" x2="1.653" y2="0.335" gradientUnits="objectBoundingBox">
      <stop offset="0" stop-color="#2e2e47"/>
      <stop offset="0.581" stop-color="#2d2d45"/>
      <stop offset="0.79" stop-color="#27273e"/>
      <stop offset="0.939" stop-color="#1e1e33"/>
      <stop offset="1" stop-color="#18182b"/>
    </linearGradient>
    <linearGradient id="linear-gradient-5" x1="-0.443" y1="0.574" x2="1.528" y2="0.338" xlink:href="#linear-gradient-4"/>
  </defs>
  <g id="Enmascarar_grupo_1098671" data-name="Enmascarar grupo 1098671" transform="translate(-1020 -4906.121)" clip-path="url(#clip-path)">
    <g id="Grupo_1237526" data-name="Grupo 1237526">
      <rect id="Rect치ngulo_424205" data-name="Rect치ngulo 424205" width="400" height="192" rx="10" transform="translate(1020 4976)" fill="#feeee5"/>
      <g id="_7584362_71" data-name="7584362_71" transform="translate(931.645 4732.147)">
        <g id="XMLID_1566_" transform="translate(205.683 341.917)">
          <path id="XMLID_1556_" d="M723.741,1182.232a4.151,4.151,0,0,1-4.139,4.139H562.139a4.152,4.152,0,0,1-4.139-4.139v-87.093a4.152,4.152,0,0,1,4.139-4.139H719.6a4.152,4.152,0,0,1,4.139,4.139Z" transform="translate(-558 -1091)" fill="#bdcde5"/>
          <rect id="XMLID_925_" width="157.609" height="8.692" transform="translate(8.132 20.545)" fill="#9eb9d8"/>
          <rect id="XMLID_923_" width="157.609" height="1.987" transform="translate(8.132 15.081)" fill="#9eb9d8"/>
          <rect id="XMLID_918_" width="157.609" height="1.987" transform="translate(8.132 32.797)" fill="#9eb9d8"/>
          <rect id="XMLID_916_" width="33.031" height="51.16" transform="translate(6.724 39.917)" fill="#9eb9d8"/>
          <rect id="XMLID_921_" width="33.031" height="51.16" transform="translate(45.633 39.917)" fill="#9eb9d8"/>
          <rect id="XMLID_922_" width="33.031" height="51.16" transform="translate(90.088 39.917)" fill="#9eb9d8"/>
          <rect id="XMLID_927_" width="33.031" height="51.16" transform="translate(128.746 39.917)" fill="#9eb9d8"/>
          <circle id="XMLID_920_" cx="1.656" cy="1.656" r="1.656" transform="translate(40.566 23.181)" fill="#bdcde5"/>
          <circle id="XMLID_1562_" cx="1.656" cy="1.656" r="1.656" transform="translate(123.905 23.181)" fill="#bdcde5"/>
          <ellipse id="XMLID_929_" cx="1.656" cy="2.76" rx="1.656" ry="2.76" transform="translate(33.446 61.484)" fill="#bdcde5"/>
          <ellipse id="XMLID_1563_" cx="1.656" cy="2.76" rx="1.656" ry="2.76" transform="translate(47.962 61.484)" fill="#bdcde5"/>
          <ellipse id="XMLID_1565_" cx="1.656" cy="2.76" rx="1.656" ry="2.76" transform="translate(116.565 61.484)" fill="#bdcde5"/>
          <ellipse id="XMLID_1564_" cx="1.656" cy="2.76" rx="1.656" ry="2.76" transform="translate(131.909 61.484)" fill="#bdcde5"/>
          <rect id="XMLID_928_" width="1.987" height="40.978" transform="translate(83.134 6.886)" fill="#bdcde5"/>
        </g>
        <path id="XMLID_1607_" d="M326.117,1206.572a4.152,4.152,0,0,1-4.139,4.14H272.139a4.152,4.152,0,0,1-4.139-4.14V1095.139a4.152,4.152,0,0,1,4.139-4.139h49.838a4.152,4.152,0,0,1,4.139,4.139Z" transform="translate(-110.333 -749.083)" fill="#cedaf4"/>
        <g id="XMLID_1592_" transform="translate(375.058 322.833)">
          <g id="XMLID_1591_" transform="translate(0 0)">
            <path id="XMLID_1676_" d="M1676.765,1035.61c-3.085-6.31-5.209-15.639-7.041-22.4-.489-1.8-.473-4.391,1.4-4.776a14.42,14.42,0,0,1,2.126.085c1.958-.1,3.025-2.459,2.668-4.336s-1.613-3.455-2.436-5.188a11.905,11.905,0,0,1-.46-9.01c1.888-5.306,7.37-8.876,9.039-14.251a52.2,52.2,0,0,1,6.648,10.531c1.625,3.815,2.29,8.169.965,12.091-.73,2.161-1.925,4.85-.232,6.42a9.951,9.951,0,0,0,2.152,1.181,6.856,6.856,0,0,1,3.2,6.007,19.885,19.885,0,0,1-1.574,6.881c-2.645,7.379-5.983,15.522-13.316,18.706Z" transform="translate(-1654.8 -975.74)" fill="#9eb9d8"/>
            <path id="XMLID_1675_" d="M1736.153,1008.746c.162,6.418-.277,12.9-.537,19.312-.343,8.468-.735,16.934-1.008,25.406-.1,2.966-.223,5.95-.148,8.919.008.326.422.331.414,0-.161-6.418.277-12.9.537-19.312.343-8.468.735-16.934,1.009-25.406.1-2.966.223-5.95.148-8.919C1736.559,1008.424,1736.145,1008.418,1736.153,1008.746Z" transform="translate(-1709.023 -1003.078)" fill="#e4e5e6"/>
            <path id="XMLID_1674_" d="M1742.26,1090.869c1.029-5.283-3.646-9.945-4.292-15.342-.228-1.91.855-4.485,2.463-3.865.369.143.684.445,1.061.558,1.395.419,2.176-1.8,2.03-3.427-.326-3.651-2.033-7.743-.148-10.67.86.177,1.43,1.087,2.055,1.791s1.665,1.243,2.32.6a2.059,2.059,0,0,0,.483-1.164c.306-1.956-.275-3.961-.323-5.954s.768-4.326,2.492-4.629c.8,1.722,2.558,3.727,3.86,2.515a3.882,3.882,0,0,0,.789-1.477,9.943,9.943,0,0,1,8.49-6.523,8.345,8.345,0,0,1,.414,9.583,15.5,15.5,0,0,0-1.852,2.573c-.439,1-.35,2.453.526,2.987.692.422,1.586.106,2.278.528,1.019.621.894,2.454.091,3.37a7.712,7.712,0,0,1-3.05,1.674,3.563,3.563,0,0,0-2.364,2.55c-.225,1.535,1.344,3.036,2.625,2.512.641-.262,1.322-.906,1.908-.49a1.356,1.356,0,0,1,.454.819c.492,2.159-1.294,4.128-3.135,4.814s-3.887.651-5.63,1.608c-.9.493-1.762,1.682-1.235,2.665.864,1.612,3.108-.51,4.635.215,1.339.635,1.112,3.041.039,4.116s-2.579,1.383-3.808,2.215c-1.8,1.217-2.857,3.435-4.348,5.1s-2.848,2.767-5.782,1.963Z" transform="translate(-1711.944 -1032.101)" fill="#cedaf4"/>
            <g id="XMLID_1662_" transform="translate(31.978 17.616)">
              <path id="XMLID_1673_" d="M1823.756,1106.672a49.966,49.966,0,0,1,1.93,5.551c.082.291.472.138.389-.153a49.962,49.962,0,0,0-1.93-5.551A.21.21,0,1,0,1823.756,1106.672Z" transform="translate(-1815.513 -1102.359)" fill="#e4e5e6"/>
              <path id="XMLID_1672_" d="M1809.406,1139.7a54.226,54.226,0,0,1,1.9,5.92c.076.293.465.139.389-.154a54.24,54.24,0,0,0-1.9-5.92A.21.21,0,1,0,1809.406,1139.7Z" transform="translate(-1803.542 -1129.917)" fill="#e4e5e6"/>
              <path id="XMLID_1671_" d="M1795.89,1175.794q1.565,2.535,2.938,5.21c.135.264.475,0,.34-.263q-1.373-2.674-2.937-5.21C1796.075,1175.281,1795.734,1175.542,1795.89,1175.794Z" transform="translate(-1792.245 -1159.982)" fill="#e4e5e6"/>
              <path id="XMLID_1670_" d="M1784.992,1219.234A39.461,39.461,0,0,1,1787.6,1224c.125.27.463.005.34-.263a39.52,39.52,0,0,0-2.609-4.769C1785.175,1218.724,1784.833,1218.986,1784.992,1219.234Z" transform="translate(-1783.151 -1196.231)" fill="#e4e5e6"/>
              <path id="XMLID_1669_" d="M1774.124,1253.5l3.056,4.478c.164.241.505-.02.34-.263l-3.056-4.478C1774.3,1253,1773.957,1253.26,1774.124,1253.5Z" transform="translate(-1774.079 -1224.829)" fill="#e4e5e6"/>
              <path id="XMLID_1668_" d="M1840.134,1123.061q2.13-1.27,4.178-2.7c.226-.157-.011-.55-.237-.392q-2.049,1.43-4.178,2.7C1839.663,1122.808,1839.9,1123.2,1840.134,1123.061Z" transform="translate(-1828.919 -1113.674)" fill="#e4e5e6"/>
              <path id="XMLID_1667_" d="M1823.227,1156.953c2.273-1.417,4.611-2.7,6.884-4.112.232-.145-.006-.536-.237-.392-2.273,1.417-4.611,2.7-6.884,4.112C1822.759,1156.7,1823,1157.1,1823.227,1156.953Z" transform="translate(-1814.813 -1140.78)" fill="#e4e5e6"/>
              <path id="XMLID_1666_" d="M1813.522,1196.529c2.015-.865,3.976-1.881,5.991-2.746.247-.106.107-.554-.142-.447-2.015.865-3.976,1.881-5.992,2.746C1813.132,1196.188,1813.272,1196.635,1813.522,1196.529Z" transform="translate(-1806.764 -1174.911)" fill="#e4e5e6"/>
              <path id="XMLID_1665_" d="M1802.148,1230.573a46.346,46.346,0,0,1,5.545-3.432c.236-.128.1-.577-.142-.447a47.056,47.056,0,0,0-5.64,3.487C1801.69,1230.345,1801.927,1230.737,1802.148,1230.573Z" transform="translate(-1797.229 -1202.739)" fill="#e4e5e6"/>
              <path id="XMLID_1664_" d="M1796.272,1272.387q2.563-.988,5.19-1.742c.257-.074.115-.52-.142-.447q-2.627.754-5.19,1.742C1795.88,1272.036,1796.02,1272.483,1796.272,1272.387Z" transform="translate(-1792.369 -1239.052)" fill="#e4e5e6"/>
              <path id="XMLID_1663_" d="M1787.943,1119.355a123.4,123.4,0,0,1,3.486-14.233,146.923,146.923,0,0,1,5.41-15.357,53.793,53.793,0,0,1,3.362-6.824c.3-.492-.331-1.122-.631-.625a74.448,74.448,0,0,0-5.912,13.288c-1.865,5.189-3.49,10.5-4.858,15.9-.64,2.525-1.226,5.074-1.671,7.658A.42.42,0,1,0,1787.943,1119.355Z" transform="translate(-1784.961 -1082.134)" fill="#e4e5e6"/>
            </g>
            <path id="XMLID_1660_" d="M1594.344,1072.314a236.133,236.133,0,0,0-9.2-25.4c-1.773-4.137-3.7-8.334-4.123-12.888s1.026-9.639,4.554-11.737c3.16-1.88,7.292-.843,10.046,1.844s4.266,6.732,4.833,10.787a58.748,58.748,0,0,1-.008,12.252q-.816,11.56-1.632,23.121a10.776,10.776,0,0,1-.7,3.7,2.834,2.834,0,0,1-2.656,1.893Z" transform="translate(-1580.949 -1013.779)" fill="#cedaf4"/>
            <g id="XMLID_1652_" transform="translate(3.812 14.599)">
              <path id="XMLID_1658_" d="M1630.5,1064.525a132.449,132.449,0,0,1,3,13.564q1.626,8.549,2.975,17.159c.351,2.243.7,4.489.964,6.745a.416.416,0,1,0,.826-.058c-.558-4.7-1.363-9.366-2.159-14.021-.979-5.723-2.015-11.441-3.226-17.111-.472-2.209-.95-4.431-1.6-6.585C1631.108,1063.64,1630.33,1063.945,1630.5,1064.525Z" transform="translate(-1626.09 -1063.908)" fill="#e4e5e6"/>
              <path id="XMLID_1657_" d="M1604.234,1091.2a20.767,20.767,0,0,1,5.578-2.36,14.133,14.133,0,0,1,2.79-.226,8.151,8.151,0,0,1,3.181.327c.25.1.431-.318.18-.421a7.5,7.5,0,0,0-2.76-.378,17.157,17.157,0,0,0-3.276.2,19.525,19.525,0,0,0-5.835,2.415C1603.86,1090.885,1604,1091.336,1604.234,1091.2Z" transform="translate(-1603.973 -1084.126)" fill="#e4e5e6"/>
              <path id="XMLID_1656_" d="M1612.808,1134.651a20.752,20.752,0,0,1,5.578-2.36,14.116,14.116,0,0,1,2.79-.226,8.149,8.149,0,0,1,3.181.328c.25.1.431-.318.18-.422a7.5,7.5,0,0,0-2.76-.378,17.147,17.147,0,0,0-3.276.2,19.523,19.523,0,0,0-5.835,2.415C1612.432,1134.338,1612.572,1134.786,1612.808,1134.651Z" transform="translate(-1611.127 -1120.383)" fill="#e4e5e6"/>
              <path id="XMLID_1655_" d="M1627.814,1175.955a15.312,15.312,0,0,1,4.637-2.021,9.644,9.644,0,0,1,2.287-.08,6.114,6.114,0,0,1,2.676.507c.242.134.421-.287.18-.422a5.68,5.68,0,0,0-2.355-.524,11.068,11.068,0,0,0-2.786.04,15.4,15.4,0,0,0-4.876,2.108C1627.344,1175.705,1627.582,1176.1,1627.814,1175.955Z" transform="translate(-1623.589 -1155.227)" fill="#e4e5e6"/>
              <path id="XMLID_1654_" d="M1639.063,1209.379a10.284,10.284,0,0,1,3.326-1.931,4.8,4.8,0,0,1,3.664.487c.224.169.4-.254.18-.422a5.218,5.218,0,0,0-3.785-.564,9.814,9.814,0,0,0-3.622,2.037C1638.61,1209.159,1638.846,1209.551,1639.063,1209.379Z" transform="translate(-1632.984 -1183.166)" fill="#e4e5e6"/>
            </g>
          </g>
          <path id="XMLID_1554_" d="M1652.763,1377.56a4,4,0,0,1-3.816,3.273h-16.285a3.9,3.9,0,0,1-3.749-3.282l-6.419-48.25a2.83,2.83,0,0,1,2.875-3.282H1657.4a2.759,2.759,0,0,1,2.807,3.272Z" transform="translate(-1615.591 -1268.021)" fill="#cedaf4"/>
        </g>
        <g id="man" transform="translate(241.282 201.122)">
          <g id="XMLID_1457_" transform="translate(0 0)">
            <path id="XMLID_1495_" d="M819.277,624.5s-1.185,8.328-2.962,20.929h42.72c-1.112-17.281-1.982-30.464-2.257-33.843,0,0,11.576,12.236,17.04,12.484,0,0,9.769-.662,1.214-11.2,0,0-10.376-14.46-15.343-22.629,0,0-4.857-9.493-12.86-9.631,0,0-.234-6.77-.482-10.5a25.815,25.815,0,0,1-11.176.745l-.181,9.916s-8.858,1.739-15.217,16.906c0,0-10.679,21.607-11.672,26.573C808.1,624.254,809.839,628.227,819.277,624.5Z" transform="translate(-802.289 -515.564)" fill="#ffb9b8"/>
            <path id="XMLID_1518_" d="M819.388,794.48c.227-.361.433-.735.627-1.114.117-.229.228-.461.336-.694.021-.046.141-.314.191-.425s.192-.467.214-.523q.117-.3.23-.6c.141-.375.276-.751.409-1.128a26.558,26.558,0,0,0,.8-2.578c.883-3.649.853-7.506,1.049-11.335a17.339,17.339,0,0,1-6.487-1.856c-3.238,6.785-8.007,17.1-8.655,20.344,0,0,1.721,3.929,11.022.308C819.212,794.749,819.3,794.617,819.388,794.48Z" transform="translate(-802.287 -685.884)" fill="url(#linear-gradient)"/>
            <path id="XMLID_1514_" d="M1119.743,756.538s-5.136-7.158-9.911-14.246c-3.825.292-9.694,2.429-8.232,13.083,1.19,1.24,11.776,12.133,16.929,12.368C1118.53,767.742,1128.3,767.08,1119.743,756.538Z" transform="translate(-1047.001 -659.234)" fill="url(#linear-gradient-2)"/>
            <path id="XMLID_1512_" d="M970.792,570.859l-.159,8.708c1.936,1.539,5.9,3.491,11.8.685-.052-1.443-.255-6.923-.469-10.138A25.815,25.815,0,0,1,970.792,570.859Z" transform="translate(-937.91 -515.565)" fill="url(#linear-gradient-3)"/>
            <path id="XMLID_1456_" d="M783.925,1726.748,773,1735.689l32-.608.172-8.582Z" transform="translate(-772.999 -1480.482)" fill="#2e2e47"/>
            <path id="XMLID_1511_" d="M1032.659,1726.9l9.575,8.582-33.363-.634-.621-8.1Z" transform="translate(-969.298 -1480.69)" fill="#2e2e47"/>
            <g id="XMLID_1455_" transform="translate(10.526 121.987)">
              <path id="XMLID_1474_" d="M840.729,989.359c-5.005,34.428-4.033,112.132-4.153,122.807l21.606.184.481-72.467,6.457,72.025,25.1-.239s-4.972-79.692-7.825-123.8Z" transform="translate(-836.571 -986.139)" fill="#2e2e47"/>
              <path id="XMLID_1493_" d="M851.667,1136.33s4.547,69.958,16.447,84.554l3.146-57.62c-.386-9.6-.5-13.688-1.27-22.96C869.991,1140.3,857.407,1140.857,851.667,1136.33Z" transform="translate(-849.168 -1110.017)" fill="url(#linear-gradient-4)"/>
              <path id="XMLID_1543_" d="M980.326,1127.25s-.837,71.19-11.549,86.679l-5.257-59.069c-.587-6.367-.773-14.35-1.187-22.132C962.333,1132.727,974.961,1132.214,980.326,1127.25Z" transform="translate(-941.51 -1102.44)" fill="url(#linear-gradient-5)"/>
              <path id="XMLID_6_" d="M946.289,979.826l-.248-.007s-.091,3.125-.091,7.535a181.542,181.542,0,0,0,.921,20.152.249.249,0,0,0,.221.216c.008,0,.431.045,1.226.045a30.263,30.263,0,0,0,3.464-.218.249.249,0,0,0,.219-.236s.431-10.4.431-18.88c0-1.927-.022-3.755-.077-5.34s-.141-2.927-.273-3.89a.251.251,0,0,0-.055-.125,5.8,5.8,0,0,0-.884-.828,4.716,4.716,0,0,0-.956-.572,3,3,0,0,0-1.195-.267,2.52,2.52,0,0,0-1.514.515,4.977,4.977,0,0,0-1.41,1.787.245.245,0,0,0-.027.107l.248.007.221.114a4.49,4.49,0,0,1,1.262-1.614,2.02,2.02,0,0,1,1.22-.419,2.5,2.5,0,0,1,1,.226,4.619,4.619,0,0,1,1.19.789c.148.133.267.252.347.338.04.043.071.077.091.1l.022.026.005.006h0l.192-.158-.246.034c.127.932.214,2.264.269,3.84s.077,3.4.077,5.323c0,4.231-.107,8.947-.215,12.6-.054,1.829-.108,3.393-.148,4.5-.02.553-.037.992-.049,1.293s-.019.462-.019.463l.248.01-.029-.247a29.744,29.744,0,0,1-3.407.215c-.389,0-.684-.011-.882-.021-.1-.005-.173-.011-.222-.014l-.054,0h-.016l-.026.247.246-.031a181.149,181.149,0,0,1-.917-20.091c0-2.2.023-4.082.046-5.412.011-.665.023-1.192.031-1.553s.014-.555.014-.555l-.249-.008.221.114Z" transform="translate(-927.839 -977.41)" fill="#5d5d84"/>
              <path id="XMLID_9_" d="M863.454,997.044v0a9.82,9.82,0,0,1-1.258,3.136,12.022,12.022,0,0,1-5.877,4.949.248.248,0,0,0,.19.459,12.513,12.513,0,0,0,6.163-5.237,10.164,10.164,0,0,0,1.273-3.233.248.248,0,0,0-.49-.077Z" transform="translate(-852.921 -993.618)" fill="#5d5d84"/>
              <path id="XMLID_7_" d="M1042.834,991.788a15.913,15.913,0,0,0,2.107,5.255,14.341,14.341,0,0,0,9.876,6.706.248.248,0,0,0,.091-.488,14.215,14.215,0,0,1-6.033-2.594,14.751,14.751,0,0,1-4.526-5.8,16.072,16.072,0,0,1-.816-2.26c-.078-.283-.131-.508-.163-.663-.017-.077-.028-.136-.035-.176l-.008-.044,0-.013a.248.248,0,1,0-.49.079Z" transform="translate(-1008.68 -989.167)" fill="#5d5d84"/>
            </g>
            <path id="XMLID_1462_" d="M892.92,643.145s-4.826-9.43-12.782-9.628a6.785,6.785,0,0,1-6.2,5.047,6.36,6.36,0,0,1-6.041-4.8c-1.656.484-9.253,3.378-14.889,16.821,0,0-2.43,4.916-5.079,10.6l7.794.4s-1.673,7.289-3.511,15.944l.3-.116s-.968,6.8-2.465,17.409l41.906-1.4c-.958-14.832-1.691-25.871-1.94-28.921h0c-.18-1.286-.4-2.777-.953-5.343l10.019-6.553C896.813,649.26,894.568,645.856,892.92,643.145Z" transform="translate(-835.52 -568.47)" fill="#02a7af"/>
            <g id="XMLID_1461_" transform="translate(31.143 65.047)">
              <path id="XMLID_1463_" d="M963.4,642.908a3.388,3.388,0,0,0,3.5-.624,7.2,7.2,0,0,0,1.81-2.495c-.116.011-.233.019-.353.025a6.36,6.36,0,0,1-6.04-4.8,10.251,10.251,0,0,0-1.145.419,12.18,12.18,0,0,0,.455,5.274A3.826,3.826,0,0,0,963.4,642.908Z" transform="translate(-961.088 -634.766)" fill="#fff"/>
              <path id="XMLID_1464_" d="M1008.95,638.505a4.364,4.364,0,0,0,1.662,2.428,3.939,3.939,0,0,0,3.352,1.156,2.957,2.957,0,0,0,1.856-1.777,7.015,7.015,0,0,0,.421-2.611,23.408,23.408,0,0,0-.295-4.045,10.222,10.222,0,0,0-1.446-.139A6.851,6.851,0,0,1,1008.95,638.505Z" transform="translate(-1001.025 -633.517)" fill="#fff"/>
            </g>
            <path id="XMLID_1494_" d="M837.083,790s-24.724,7.782-34.959,15.9c0,0-3.241,3.808-1.535,8.444,0,0,3.711,5.464,12.623,0,0,0,22.859-15.73,25.588-18.545C838.8,795.8,840.836,793.311,837.083,790Z" transform="translate(-795.606 -699.043)" fill="#ffb9b8"/>
            <path id="XMLID_1515_" d="M1023.037,739.378c-.237-.206-.556-.3-.79-.506-.828-.747-.342-2.7-1.43-2.97a13.4,13.4,0,0,0,2.818-2.322c.8-.944,3.813-3.762,1.208-3.368a20.565,20.565,0,0,1-6.6,2.877c-1.956.461-4.1.683-5.631,2.141-1.233,1.174-2.754,3.485-2.505,5.844a6.886,6.886,0,0,0,1.535,2.637c.675.757,1.416,1.381,2.024,2.14l.172-.139a7.567,7.567,0,0,0,1.983.666c2.873.475,5.274-1.328,6.829-3.482C1023.4,741.857,1023.907,740.134,1023.037,739.378Z" transform="translate(-970.828 -649.123)" fill="#ffb9b8"/>
            <path id="XMLID_1520_" d="M1200.072,700.051s-4.8.827-6.871-2.551c0,0-6.209,20.664-6.209,29.456,0,.366,0,.7,0,1.01.063.342.1.691.144,1.039a5.7,5.7,0,0,0,5.653,3.4,6.679,6.679,0,0,0,5.574-4.4S1200.817,710.32,1200.072,700.051Z" transform="translate(-1118.443 -621.859)" fill="#ffb9b8"/>
            <g id="XMLID_1452_" transform="translate(4.918)">
              <ellipse id="XMLID_1426_" cx="7.203" cy="3.394" rx="7.203" ry="3.394" transform="translate(50.41 37.458) rotate(-14.934)" fill="#ffb9b8"/>
              <ellipse id="XMLID_1412_" cx="3.394" cy="7.203" rx="3.394" ry="7.203" transform="translate(0.575 43.125) rotate(-75.066)" fill="#ffb9b8"/>
              <path id="XMLID_1405_" d="M912.833,313.185c.442,18.848-9.877,25.692-21.856,25.692s-21.083-4.636-21.525-25.692c-.13-6.2-1.3-12.556,1.987-16.916,4.009-5.321,8.5-6.844,19.7-8,6.854-.709,14.876-.844,18.82,4.912C912.877,297.428,912.7,307.34,912.833,313.185Z" transform="translate(-858.144 -280.097)" fill="#ffb9b8"/>
              <path id="XMLID_1433_" d="M855.157,250.128a13.854,13.854,0,0,0-1.4-9.466,17.127,17.127,0,0,1,.083,7.251,11.354,11.354,0,0,0-5.235-4.537c-7.374-3.506-16.2-1.9-23.734,1.251S810.43,252.373,802.7,255.01c4.535,1.986,6.482,7.313,7.431,12.172s1.89,12.777,5.285,14.35a162.405,162.405,0,0,1,.266-16.981,2.311,2.311,0,0,1,.442-1.37,2.361,2.361,0,0,1,1.437-.57,96.625,96.625,0,0,0,27.581-8.714,48.245,48.245,0,0,1-18.008,10.237c9.233-.956,19.39-3.928,26.613-9.757,1.821,4.388,3.394,17.551,2.815,24.919a10.973,10.973,0,0,1,5.05-3.312c.028-2.484-.368-7.273-.414-9.935-.042-2.449-.475-6.174-.69-8.614s-1.42-5.041-3.724-5.874a5.493,5.493,0,0,1,5.061-2.19c-1.58-1.317-5.33-.787-6.691.755Z" transform="translate(-802.703 -240.662)" fill="#661401"/>
              <ellipse id="XMLID_1434_" cx="1.076" cy="3.063" rx="1.076" ry="3.063" transform="translate(23.782 33.916)" fill="#2c294c"/>
              <ellipse id="XMLID_1441_" cx="1.076" cy="3.063" rx="1.076" ry="3.063" transform="translate(40.147 32.978)" fill="#2c294c"/>
              <path id="XMLID_1451_" d="M982.765,456.587l-1.8,7.166h6.384l-1.853-7.18Z" transform="translate(-951.447 -420.823)" fill="#ef7d7d"/>
              <ellipse id="XMLID_1449_" cx="5.139" cy="4.751" rx="5.139" ry="4.751" transform="translate(15.834 42.512)" fill="#ffa2a2"/>
              <ellipse id="XMLID_1448_" cx="5.636" cy="5.21" rx="5.636" ry="5.21" transform="translate(39.683 41.157)" fill="#ffa2a2"/>
              <path id="XMLID_4_" d="M925.5,407.557a3.706,3.706,0,0,1,5.444-.649c.384.369.97-.215.586-.585a4.523,4.523,0,0,0-6.615.649C924.592,407.386,925.174,407.976,925.5,407.557Z" transform="translate(-904.602 -377.929)" fill="#661401"/>
              <path id="XMLID_5_" d="M1040.343,400.559a4.534,4.534,0,0,0-6.709.336c-.325.422.394.834.715.418a3.7,3.7,0,0,1,5.409-.168C1040.146,401.509,1040.732,400.925,1040.343,400.559Z" transform="translate(-995.328 -372.982)" fill="#661401"/>
              <path id="XMLID_11_" d="M980.865,520.394a4.534,4.534,0,0,0,6.709-.336c.325-.422-.394-.834-.715-.418a3.7,3.7,0,0,1-5.409.168C981.063,519.444,980.476,520.028,980.865,520.394Z" transform="translate(-951.259 -473.304)" fill="#661401"/>
              <path id="XMLID_1447_" d="M845.6,489.742l.03.013c-.022-.03-.046-.058-.069-.087a1.139,1.139,0,0,0-.316-.345,2.971,2.971,0,0,0-2.125-.843,2.4,2.4,0,0,0-2.193,1.648,3.727,3.727,0,0,1,2.916-.94c.04,0,.084.011.13.018a1.1,1.1,0,0,0-.659.989,1.2,1.2,0,0,0,2.391,0A1.033,1.033,0,0,0,845.6,489.742Z" transform="translate(-834.596 -447.446)" fill="#ffa2a2"/>
              <path id="XMLID_1454_" d="M1141.42,471.331l-.026.02c.014-.034.03-.068.046-.1a1.139,1.139,0,0,1,.225-.411,2.971,2.971,0,0,1,1.864-1.325,2.4,2.4,0,0,1,2.522,1.079,3.728,3.728,0,0,0-3.055-.219c-.038.014-.08.031-.122.049a1.1,1.1,0,0,1,.875.8,1.2,1.2,0,0,1-2.323.569A1.01,1.01,0,0,1,1141.42,471.331Z" transform="translate(-1085.315 -431.584)" fill="#ffa2a2"/>
            </g>
          </g>
          <g id="XMLID_1419_" transform="translate(64.42 52.185)">
            <g id="XMLID_1497_" transform="translate(0 1.949)">
              <rect id="XMLID_1513_" width="2.643" height="8.545" transform="translate(8.016)" fill="#2243a0"/>
              <path id="XMLID_1510_" d="M1193.135,600.692c0,1.421-2.235,2.584-4.967,2.584h-2.957c-2.732,0-4.967-1.163-4.967-2.584s2.235-2.584,4.967-2.584h2.957C1190.9,598.108,1193.135,599.271,1193.135,600.692Z" transform="translate(-1177.234 -593.057)" fill="#80a2f9"/>
              <path id="XMLID_1507_" d="M1180.743,635.6a3.321,3.321,0,0,1-3.312,3.311h-12.053a3.321,3.321,0,0,1-3.312-3.311V617.734a3.321,3.321,0,0,1,3.312-3.312h12.053a3.321,3.321,0,0,1,3.312,3.312Z" transform="translate(-1162.067 -606.671)" fill="#4b6adb"/>
              <g id="XMLID_1498_" transform="translate(2.731 12.069)">
                <g id="XMLID_1502_" transform="translate(3.407 3.436)">
                  <rect id="XMLID_1506_" width="2.467" height="5.755" transform="translate(1.791)" fill="#80a2f9"/>
                  <rect id="XMLID_1505_" width="2.467" height="6.167" transform="translate(6.167 1.675) rotate(90)" fill="#80a2f9"/>
                </g>
                <path id="XMLID_1499_" d="M1191.155,647.013h-.44a5.638,5.638,0,1,1-1.651-3.987,5.618,5.618,0,0,1,1.651,3.987h.881a6.519,6.519,0,1,0-1.909,4.609,6.5,6.5,0,0,0,1.909-4.609Z" transform="translate(-1178.558 -640.494)" fill="#80a2f9"/>
              </g>
            </g>
            <path id="XMLID_1496_" d="M1195.517,555.833s-.738,1.693.33,2.5l5.682-.008a6.712,6.712,0,0,1,3.989,2.72,1.636,1.636,0,0,0,1.63-.132,8.337,8.337,0,0,0-5.453-5.076Z" transform="translate(-1189.771 -555.833)" fill="#80a2f9"/>
          </g>
          <ellipse id="XMLID_1508_" cx="6.292" cy="6.126" rx="6.292" ry="6.126" transform="translate(75.392 67.831)" fill="#ffb9b8"/>
        </g>
        <g id="XMLID_1542_" transform="translate(171.409 302.139)">
          <path id="XMLID_1558_" d="M442.005,1045.063a4.152,4.152,0,0,1-4.139,4.139H381.139a4.152,4.152,0,0,1-4.139-4.139v-11.838a4.152,4.152,0,0,1,4.139-4.139h56.727a4.152,4.152,0,0,1,4.139,4.139Z" transform="translate(-372.695 -999.56)" fill="#4b6adb"/>
          <g id="XMLID_1540_" transform="translate(4.483 0)">
            <rect id="XMLID_1482_" width="4.747" height="27.154" transform="translate(7.742 2.026)" fill="#4b6adb"/>
            <g id="XMLID_1519_">
              <path id="XMLID_1480_" d="M424.876,852.361c.027.88-1.6,1.653-3.627,1.727s-3.7-.58-3.724-1.46,1.6-1.653,3.627-1.727S424.849,851.481,424.876,852.361Z" transform="translate(-410.993 -850.873)" fill="#4b6adb"/>
              <path id="XMLID_1479_" d="M409.491,856.532a1.115,1.115,0,0,1-1.1,1.124,1.1,1.1,0,0,1-1.162-1.042,1.115,1.115,0,0,1,1.1-1.124A1.1,1.1,0,0,1,409.491,856.532Z" transform="translate(-402.405 -854.706)" fill="#4b6adb"/>
              <path id="XMLID_1478_" d="M460.411,853.41a1.115,1.115,0,0,1-1.1,1.124,1.1,1.1,0,0,1-1.162-1.042,1.115,1.115,0,0,1,1.1-1.124A1.1,1.1,0,0,1,460.411,853.41Z" transform="translate(-444.894 -852.101)" fill="#4b6adb"/>
              <path id="XMLID_1476_" d="M384.685,856.936a14.235,14.235,0,0,1-2.566-.084,3.423,3.423,0,0,0-3.532-.03,1.321,1.321,0,0,0-.507,1.1,1.38,1.38,0,0,0,1.012.9,3.783,3.783,0,0,0,3.185-.863,21.3,21.3,0,0,1,2.584-.435S385.557,857.048,384.685,856.936Z" transform="translate(-378.076 -855.397)" fill="#4b6adb"/>
              <path id="XMLID_1473_" d="M458.5,851.712a14.262,14.262,0,0,0,2.555-.27,3.434,3.434,0,0,1,3.522-.286,1.3,1.3,0,0,1,.573,1.058,1.4,1.4,0,0,1-.955.968,3.763,3.763,0,0,1-3.231-.63,21.206,21.206,0,0,0-2.6-.247S457.636,851.888,458.5,851.712Z" transform="translate(-444.83 -850.761)" fill="#4b6adb"/>
            </g>
            <path id="XMLID_1523_" d="M409.767,904.446a5.181,5.181,0,0,0-2.8,3.072l-.12,7.963s6.616,1.11,10.411-.428l.123-7.4a4.161,4.161,0,0,0-3.153-3.4S411.285,903.815,409.767,904.446Z" transform="translate(-402.08 -895.273)" fill="#4b6adb"/>
            <path id="XMLID_1537_" d="M423.532,885.7a1.328,1.328,0,0,1-1.325,1.325h-5.05a1.328,1.328,0,0,1-1.325-1.325v-1.38A1.328,1.328,0,0,1,417.158,883h5.05a1.328,1.328,0,0,1,1.325,1.325Z" transform="translate(-409.581 -877.661)" fill="#4b6adb"/>
            <path id="XMLID_1539_" d="M454.167,919.595s8.113-.524,10.762.221c0,0,2.373.938,2.373,5.354l-5.133.221s.166-1.6-.538-1.614a67.108,67.108,0,0,0-7.3.235Z" transform="translate(-441.568 -908.048)" fill="#4b6adb"/>
          </g>
          <path id="XMLID_1477_" d="M424.681,1017.755a2.491,2.491,0,0,1-2.484,2.484H353.484a2.491,2.491,0,0,1-2.484-2.484v-.938a2.491,2.491,0,0,1,2.484-2.484H422.2a2.491,2.491,0,0,1,2.484,2.484Z" transform="translate(-351 -987.25)" fill="#80a2f9"/>
        </g>
        <g id="soap_or_hand_sanitizer" transform="translate(135.773 195.263)">
          <g id="XMLID_2_" transform="translate(0 0)">
            <path id="XMLID_3_" d="M244.085,293.059a80.659,80.659,0,0,1-18.563-12.287,40.546,40.546,0,0,0,11.609-28.114c0-23.959-21.794-43.381-48.679-43.381s-48.679,19.422-48.679,43.381,21.794,43.381,48.679,43.381a53.058,53.058,0,0,0,24.435-5.855C218.088,292.062,229.017,294.914,244.085,293.059Z" transform="translate(-139.111 -208.616)" fill="#fff"/>
            <path id="XMLID_12_" d="M240.748,289.723l.272-.6-.006,0c-.134-.061-2.619-1.194-6.126-3.268a77.064,77.064,0,0,1-12.259-8.9l-.444.491.479.458a41.208,41.208,0,0,0,11.792-28.571,39.886,39.886,0,0,0-3.889-17.17,45.738,45.738,0,0,0-17.893-19.37,53.381,53.381,0,0,0-27.559-7.5,52.325,52.325,0,0,0-34.862,12.874,44.213,44.213,0,0,0-10.59,14,39.842,39.842,0,0,0,0,34.339,45.738,45.738,0,0,0,17.893,19.37,54.46,54.46,0,0,0,52.3,1.574l-.3-.588-.225.623a64.617,64.617,0,0,0,21.759,3.516,79.782,79.782,0,0,0,9.746-.607.662.662,0,0,0,.191-1.261l-.272.6-.081-.657a78.418,78.418,0,0,1-9.584.6,63.3,63.3,0,0,1-21.309-3.437.664.664,0,0,0-.53.035,52.4,52.4,0,0,1-24.13,5.781A51,51,0,0,1,151.134,279.5a42.887,42.887,0,0,1-10.275-13.579,38.517,38.517,0,0,1,0-33.2,44.417,44.417,0,0,1,17.38-18.8,52.055,52.055,0,0,1,26.875-7.314A51,51,0,0,1,219.1,219.142a42.886,42.886,0,0,1,10.275,13.579,38.561,38.561,0,0,1,3.762,16.6,39.881,39.881,0,0,1-11.425,27.656.662.662,0,0,0,.035.949,78.533,78.533,0,0,0,12.642,9.161c3.584,2.108,6.077,3.231,6.094,3.238l.272-.6-.081-.657Z" transform="translate(-135.773 -205.28)" fill="#9eb9d8"/>
          </g>
          <g id="XMLID_1586_" transform="translate(22.235 14.663)">
            <g id="XMLID_1570_">
              <g id="XMLID_1572_" transform="translate(0 2.533)">
                <rect id="XMLID_1584_" width="3.714" height="9.96" transform="translate(11.266)" fill="#2243a0"/>
                <path id="XMLID_1581_" d="M313.726,354.85c0,2-2.235,3.631-4.967,3.631h-8.181c-2.732,0-4.967-1.634-4.967-3.631s2.235-3.631,4.967-3.631h8.181C311.49,351.219,313.726,352.853,313.726,354.85Z" transform="translate(-291.38 -344.251)" fill="#80a2f9"/>
                <path id="XMLID_1578_" d="M296.31,410.424A3.321,3.321,0,0,1,293,413.736H273.376a3.321,3.321,0,0,1-3.311-3.312V377.457a3.321,3.321,0,0,1,3.311-3.311H293a3.321,3.321,0,0,1,3.311,3.311Z" transform="translate(-270.065 -363.382)" fill="#4b6adb"/>
                <g id="XMLID_1573_" transform="translate(3.838 16.831)">
                  <g id="XMLID_1575_" transform="translate(4.787 4.828)">
                    <rect id="XMLID_1577_" width="3.466" height="8.088" transform="translate(2.517)" fill="#80a2f9"/>
                    <rect id="XMLID_1576_" width="3.466" height="8.666" transform="translate(8.666 2.352) rotate(90)" fill="#80a2f9"/>
                  </g>
                  <path id="XMLID_1574_" d="M310.945,419.945h-.619a7.923,7.923,0,1,1-2.321-5.6,7.9,7.9,0,0,1,2.321,5.6h1.238a9.161,9.161,0,1,0-2.683,6.478,9.136,9.136,0,0,0,2.683-6.478Z" transform="translate(-293.242 -410.784)" fill="#80a2f9"/>
                </g>
              </g>
              <path id="XMLID_1571_" d="M313.657,295.288s-.874,2.677,1.069,3.616l9.443-1.345a11.566,11.566,0,0,1,7.2,3.087,3.041,3.041,0,0,0,2.681-.578,13.24,13.24,0,0,0-10.123-6.229Z" transform="translate(-306.276 -293.838)" fill="#80a2f9"/>
            </g>
            <path id="XMLID_1582_" d="M471.817,419.749c-.123-1.875-.455-4.365-1.894-5.951a19.412,19.412,0,0,0-4.2-2.647l-7.392-3.8a3.716,3.716,0,0,0-2.488-.6c-1.209.3-1.58,1.057-1.335,2.278s2.388,2.792,3.2,3.738a70.933,70.933,0,0,0-11.305,1.071,4.447,4.447,0,0,0-2,.742,1.612,1.612,0,0,0-.555,1.908c.361.686,1.257.842,2.029.911,2.4.216,6.593.314,9,.384a58.93,58.93,0,0,0-8.389,1.321c-.857.241-1.829.632-2.068,1.489a1.852,1.852,0,0,0,1.016,1.98,5.415,5.415,0,0,0,2.33.488c1.923.111,5.85-.151,7.774-.04a56.708,56.708,0,0,0-7.7,1.843c-.721.26-1.544.687-1.62,1.45-.112,1.131,1.4,1.6,2.539,1.644q4.242.158,8.486-.07l-5.364,1.482c-.683.189-1.49.511-1.594,1.211-.153,1.032,1.273,1.464,2.317,1.462,4.311-.007,8.774-.4,12.552-2.479s7.148-5.531,6.661-9.814Z" transform="translate(-414.956 -388.007)" fill="#f09191"/>
            <path id="XMLID_1579_" d="M510.951,433.454c-.123-1.875-.455-4.365-1.894-5.951a19.417,19.417,0,0,0-4.2-2.647l-7.392-3.8a3.716,3.716,0,0,0-2.488-.6c-1.209.3-1.58,1.057-1.335,2.278s2.388,2.792,3.2,3.738a70.926,70.926,0,0,0-11.305,1.071,4.448,4.448,0,0,0-2,.742,1.612,1.612,0,0,0-.555,1.908c.361.686,1.257.842,2.029.911,2.4.216,6.593.314,9,.384a58.931,58.931,0,0,0-8.389,1.321c-.857.241-1.829.632-2.068,1.489a1.852,1.852,0,0,0,1.016,1.98,5.415,5.415,0,0,0,2.33.488c1.923.111,5.85-.151,7.774-.04a56.687,56.687,0,0,0-7.7,1.843c-.721.26-1.544.687-1.62,1.45-.112,1.131,1.4,1.6,2.539,1.644q4.242.158,8.486-.07l-5.364,1.482c-.683.189-1.49.511-1.594,1.211-.153,1.032,1.273,1.464,2.317,1.462,4.311-.007,8.774-.4,12.552-2.479s7.148-5.531,6.661-9.814Z" transform="translate(-447.61 -399.443)" fill="#ffb9b8"/>
            <g id="XMLID_1580_" transform="translate(29.874 7.859)">
              <path id="XMLID_1585_" d="M450.49,341.3a3.474,3.474,0,0,1,.207,1.992,9.57,9.57,0,0,0-.19,1.979,2.253,2.253,0,0,0,.939,1.763,2.225,2.225,0,0,0,1.831.079,2.29,2.29,0,0,0,1.272-2.07,2.928,2.928,0,0,0-1.443-2.224,29.34,29.34,0,0,0-2.616-1.519Z" transform="translate(-450.49 -341.303)" fill="#9dedeb"/>
              <path id="XMLID_1583_" d="M455.878,364.283a.892.892,0,0,1-.28-1.144.384.384,0,0,1,.456-.185.611.611,0,0,1,.295.418,1.394,1.394,0,0,0,.185.491.547.547,0,0,1,.08.114.239.239,0,0,1,.012.129.47.47,0,0,1-.748.177Z" transform="translate(-454.666 -359.349)" fill="#fff"/>
            </g>
            <g id="XMLID_1587_" transform="translate(29.699 15.534)">
              <path id="XMLID_1598_" d="M449.436,387.654a2.56,2.56,0,0,1,.153,1.468,7.051,7.051,0,0,0-.14,1.458,1.66,1.66,0,0,0,.692,1.3,1.639,1.639,0,0,0,1.349.058,1.688,1.688,0,0,0,.937-1.525,2.158,2.158,0,0,0-1.063-1.639,21.728,21.728,0,0,0-1.928-1.119Z" transform="translate(-449.436 -387.654)" fill="#9dedeb"/>
              <path id="XMLID_1590_" d="M453.406,404.587a.657.657,0,0,1-.206-.843.283.283,0,0,1,.336-.137.451.451,0,0,1,.217.308,1.029,1.029,0,0,0,.137.362.409.409,0,0,1,.059.084.176.176,0,0,1,.009.1.346.346,0,0,1-.551.131Z" transform="translate(-452.513 -400.952)" fill="#fff"/>
            </g>
            <g id="XMLID_1594_" transform="translate(36.094 10.222)">
              <path id="XMLID_1606_" d="M488.054,355.572a2.56,2.56,0,0,1,.153,1.468,7.056,7.056,0,0,0-.14,1.458,1.66,1.66,0,0,0,.692,1.3,1.64,1.64,0,0,0,1.349.058,1.688,1.688,0,0,0,.937-1.525,2.158,2.158,0,0,0-1.063-1.639,21.7,21.7,0,0,0-1.928-1.12Z" transform="translate(-488.054 -355.572)" fill="#9dedeb"/>
              <path id="XMLID_1596_" d="M492.024,372.5a.657.657,0,0,1-.206-.843.283.283,0,0,1,.336-.137.45.45,0,0,1,.217.308,1.028,1.028,0,0,0,.137.362.4.4,0,0,1,.059.084.176.176,0,0,1,.009.1.346.346,0,0,1-.551.131Z" transform="translate(-491.131 -368.869)" fill="#fff"/>
            </g>
          </g>
        </g>
        <g id="stop_virus" transform="translate(336.8 193.276)">
          <g id="XMLID_13_" transform="translate(0 0)">
            <path id="XMLID_14_" d="M1409.523,197.277c-26.885,0-48.679,19.422-48.679,43.381a40.544,40.544,0,0,0,11.609,28.114,80.671,80.671,0,0,1-18.563,12.287c15.069,1.855,26-1,31.2-2.875a53.056,53.056,0,0,0,24.435,5.855c26.885,0,48.679-19.422,48.679-43.381S1436.409,197.277,1409.523,197.277Z" transform="translate(-1353.227 -196.615)" fill="#fff"/>
            <path id="XMLID_20_" d="M1406.183,193.938v-.662a52.325,52.325,0,0,0-34.862,12.874,44.209,44.209,0,0,0-10.59,14,39.884,39.884,0,0,0-3.889,17.17,41.209,41.209,0,0,0,11.792,28.571l.479-.458-.444-.491a77.234,77.234,0,0,1-12.425,9c-1.765,1.038-3.26,1.833-4.313,2.368-.526.267-.942.469-1.224.6l-.322.152-.081.037-.02.009-.006,0a.662.662,0,0,0,.191,1.261,79.741,79.741,0,0,0,9.746.607,64.61,64.61,0,0,0,21.759-3.516l-.225-.623-.3.588a53.72,53.72,0,0,0,24.739,5.929,52.326,52.326,0,0,0,34.862-12.874,44.216,44.216,0,0,0,10.59-14,39.842,39.842,0,0,0,0-34.339,45.739,45.739,0,0,0-17.893-19.37,53.382,53.382,0,0,0-27.559-7.5V194.6a51,51,0,0,1,33.981,12.538,42.886,42.886,0,0,1,10.275,13.579,38.518,38.518,0,0,1,0,33.2,44.417,44.417,0,0,1-17.38,18.8,53.136,53.136,0,0,1-51.005,1.533.663.663,0,0,0-.53-.035,63.293,63.293,0,0,1-21.309,3.437,78.447,78.447,0,0,1-9.583-.6l-.081.657.272.6c.017-.008,2.51-1.13,6.094-3.238a78.524,78.524,0,0,0,12.642-9.161.662.662,0,0,0,.035-.949,39.881,39.881,0,0,1-11.426-27.656,38.559,38.559,0,0,1,3.762-16.6,44.417,44.417,0,0,1,17.38-18.8,52.055,52.055,0,0,1,26.875-7.314Z" transform="translate(-1349.887 -193.276)" fill="#9eb9d8"/>
          </g>
          <g id="XMLID_1567_" transform="translate(26.34 12.726)">
            <g id="XMLID_1595_" transform="translate(7.475 6.527)">
              <g id="XMLID_1649_" transform="translate(14.714 0)">
                <rect id="XMLID_1651_" width="1.787" height="8.727" transform="translate(3.481 2.316) rotate(-14.934)" fill="#2243a0"/>
                <rect id="XMLID_1650_" width="8.56" height="1.605" transform="translate(0 2.206) rotate(-14.934)" fill="#80a2f9"/>
              </g>
              <g id="XMLID_1646_" transform="translate(28.041 2.289)">
                <rect id="XMLID_1648_" width="1.787" height="8.727" transform="translate(5.796 2.966) rotate(41.611)" fill="#2243a0"/>
                <rect id="XMLID_1647_" width="8.56" height="1.605" transform="translate(3.969 0) rotate(41.611)" fill="#80a2f9"/>
              </g>
              <g id="XMLID_1643_" transform="translate(34.87 15.8)">
                <rect id="XMLID_1645_" width="1.787" height="8.727" transform="translate(8.724 3.361) rotate(88.573)" fill="#2243a0"/>
                <rect id="XMLID_1644_" width="8.56" height="1.605" transform="translate(9.643 0) rotate(88.573)" fill="#80a2f9"/>
              </g>
              <g id="XMLID_1640_" transform="translate(0 21.411)">
                <rect id="XMLID_1642_" width="1.787" height="8.727" transform="translate(10.153 1.919) rotate(80.299)" fill="#2243a0"/>
                <rect id="XMLID_1641_" width="8.56" height="1.605" transform="translate(1.582 0) rotate(80.299)" fill="#80a2f9"/>
              </g>
              <g id="XMLID_1637_" transform="translate(33.112 29.151)">
                <rect id="XMLID_1639_" width="1.787" height="8.727" transform="translate(7.103 6.555) rotate(138.69)" fill="#2243a0"/>
                <rect id="XMLID_1638_" width="8.56" height="1.605" transform="translate(10.271 5.108) rotate(138.69)" fill="#80a2f9"/>
              </g>
              <g id="XMLID_1634_" transform="translate(20.766 34.441)">
                <rect id="XMLID_1636_" width="1.787" height="8.727" transform="translate(5.245 8.719) rotate(177.518)" fill="#2243a0"/>
                <rect id="XMLID_1635_" width="8.56" height="1.605" transform="translate(8.622 9.578) rotate(177.518)" fill="#80a2f9"/>
              </g>
              <g id="XMLID_1631_" transform="translate(4.186 30.924)">
                <rect id="XMLID_1633_" width="1.787" height="8.727" transform="matrix(-0.749, -0.662, 0.662, -0.749, 4.578, 7.722)" fill="#2243a0"/>
                <rect id="XMLID_1632_" width="8.56" height="1.605" transform="matrix(-0.749, -0.662, 0.662, -0.749, 6.413, 10.683)" fill="#80a2f9"/>
              </g>
              <g id="XMLID_1628_" transform="translate(2.429 5.732)">
                <rect id="XMLID_1630_" width="1.787" height="8.727" transform="matrix(0.673, -0.739, 0.739, 0.673, 2.99, 4.539)" fill="#2243a0"/>
                <rect id="XMLID_1629_" width="8.56" height="1.605" transform="matrix(0.673, -0.739, 0.739, 0.673, 0, 6.33)" fill="#80a2f9"/>
              </g>
              <circle id="XMLID_1627_" cx="15.247" cy="15.247" r="15.247" transform="translate(7.784 6.637)" fill="#80a2f9"/>
              <circle id="XMLID_1626_" cx="1.66" cy="1.66" r="1.66" transform="translate(11.735 16.644)" fill="#2243a0"/>
              <circle id="XMLID_1625_" cx="0.755" cy="0.755" r="0.755" transform="translate(14.98 13.978)" fill="#2243a0"/>
              <circle id="XMLID_1624_" cx="0.755" cy="0.755" r="0.755" transform="translate(15.054 28.116)" fill="#2243a0"/>
              <circle id="XMLID_1622_" cx="0.755" cy="0.755" r="0.755" transform="translate(25.37 17.399)" fill="#2243a0"/>
              <circle id="XMLID_1603_" cx="0.755" cy="0.755" r="0.755" transform="translate(30.224 27.512)" fill="#2243a0"/>
              <circle id="XMLID_1601_" cx="1.66" cy="1.66" r="1.66" transform="translate(28.916 25.694) rotate(-76.714)" fill="#2243a0"/>
              <circle id="XMLID_1599_" cx="2.151" cy="2.151" r="2.151" transform="translate(17.696 27.663)" fill="#2243a0"/>
              <circle id="XMLID_1597_" cx="2.151" cy="2.151" r="2.151" transform="translate(25.445 11.563)" fill="#2243a0"/>
            </g>
            <g id="XMLID_1568_">
              <path id="XMLID_1588_" d="M1566.769,299.7h-1.325a26.921,26.921,0,1,1-4.6-15.047,26.821,26.821,0,0,1,4.6,15.047h2.649a29.57,29.57,0,1,0-5.05,16.53,29.478,29.478,0,0,0,5.05-16.53h-1.324Z" transform="translate(-1508.968 -270.135)" fill="#e21e2c"/>
              <rect id="XMLID_1569_" width="6.396" height="57" transform="matrix(0.872, 0.49, -0.49, 0.872, 41.005, 3.094)" fill="#e21e2c"/>
            </g>
          </g>
        </g>
      </g>
    </g>
  </g>
</svg>
