<svg xmlns="http://www.w3.org/2000/svg" xmlns:xlink="http://www.w3.org/1999/xlink" width="106.16" height="106.16" viewBox="0 0 106.16 106.16">
  <defs>
    <filter id="Trazado_982547" x="0" y="0" width="106.16" height="106.16" filterUnits="userSpaceOnUse">
      <feOffset dy="3" input="SourceAlpha"/>
      <feGaussianBlur stdDeviation="3" result="blur"/>
      <feFlood flood-opacity="0.161"/>
      <feComposite operator="in" in2="blur"/>
      <feComposite in="SourceGraphic"/>
    </filter>
  </defs>
  <g id="Grupo_1238601" data-name="Grupo 1238601" transform="translate(-168 -754.543)">
    <g id="Grupo_1237170" data-name="Grupo 1237170" transform="translate(-47 -274.457)">
      <g id="Grupo_1234666" data-name="Grupo 1234666" transform="translate(224 1035)">
        <g id="Grupo_1232498" data-name="Grupo 1232498" transform="translate(0)">
          <g id="Grupo_1230692" data-name="Grupo 1230692">
            <g id="Grupo_1224852" data-name="Grupo 1224852">
              <g id="Grupo_1206130" data-name="Grupo 1206130">
                <g id="Grupo_1203672" data-name="Grupo 1203672">
                  <g id="Grupo_1203344" data-name="Grupo 1203344">
                    <g id="Grupo_1177900" data-name="Grupo 1177900">
                      <g id="Grupo_1172010" data-name="Grupo 1172010">
                        <g id="Grupo_1171046" data-name="Grupo 1171046">
                          <g id="Grupo_1148525" data-name="Grupo 1148525">
                            <g transform="matrix(1, 0, 0, 1, -9, -6)" filter="url(#Trazado_982547)">
                              <g id="Trazado_982547-2" data-name="Trazado 982547" transform="translate(9 6)" fill="#f0edfe">
                                <path d="M 44.0802001953125 86.660400390625 C 38.33124923706055 86.660400390625 32.75506210327148 85.53479766845703 27.50652503967285 83.31484985351562 C 22.43628692626953 81.17032623291016 17.88242530822754 78.09992218017578 13.97144985198975 74.18894958496094 C 10.06047534942627 70.27797698974609 6.99007511138916 65.72411346435547 4.845550060272217 60.65387344360352 C 2.625600099563599 55.40533828735352 1.500000238418579 49.82915115356445 1.500000238418579 44.0802001953125 C 1.500000238418579 38.33124923706055 2.625600099563599 32.75506210327148 4.845550060272217 27.50652503967285 C 6.99007511138916 22.43628692626953 10.06047534942627 17.88242530822754 13.97144985198975 13.97144985198975 C 17.88242530822754 10.06047534942627 22.43628692626953 6.99007511138916 27.50652503967285 4.845550060272217 C 32.75506210327148 2.625600099563599 38.33124923706055 1.500000238418579 44.0802001953125 1.500000238418579 C 49.82915115356445 1.500000238418579 55.40533828735352 2.625600099563599 60.65387344360352 4.845550060272217 C 65.72411346435547 6.99007511138916 70.27797698974609 10.06047534942627 74.18894958496094 13.97144985198975 C 78.09992218017578 17.88242530822754 81.17032623291016 22.43628692626953 83.31484985351562 27.50652503967285 C 85.53479766845703 32.75506210327148 86.660400390625 38.33124923706055 86.660400390625 44.0802001953125 C 86.660400390625 49.82915115356445 85.53479766845703 55.40533828735352 83.31484985351562 60.65387344360352 C 81.17032623291016 65.72411346435547 78.09992218017578 70.27797698974609 74.18894958496094 74.18894958496094 C 70.27797698974609 78.09992218017578 65.72411346435547 81.17032623291016 60.65387344360352 83.31484985351562 C 55.40533828735352 85.53479766845703 49.82915115356445 86.660400390625 44.0802001953125 86.660400390625 Z" stroke="none"/>
                                <path d="M 44.0802001953125 3 C 38.53308486938477 3 33.15349960327148 4.085746765136719 28.09085845947266 6.227058410644531 C 23.19941711425781 8.29595947265625 18.80581665039062 11.25841522216797 15.03211212158203 15.03211212158203 C 11.25841522216797 18.80581665039062 8.29595947265625 23.19941711425781 6.227058410644531 28.09085845947266 C 4.085746765136719 33.15349960327148 3 38.53308486938477 3 44.0802001953125 C 3 49.62731552124023 4.085746765136719 55.00691604614258 6.227058410644531 60.06954193115234 C 8.29595947265625 64.96098327636719 11.25841522216797 69.35458374023438 15.03211212158203 73.12828826904297 C 18.80581665039062 76.90198516845703 23.19941711425781 79.86444091796875 28.09085845947266 81.93334197998047 C 33.15349960327148 84.07466125488281 38.53308486938477 85.160400390625 44.0802001953125 85.160400390625 C 49.62731552124023 85.160400390625 55.00691604614258 84.07466125488281 60.06954193115234 81.93334197998047 C 64.96099853515625 79.86444091796875 69.35458374023438 76.90198516845703 73.12828826904297 73.12828826904297 C 76.90198516845703 69.35458374023438 79.86444091796875 64.96099853515625 81.93334197998047 60.06954193115234 C 84.07466125488281 55.00691604614258 85.160400390625 49.62731552124023 85.160400390625 44.0802001953125 C 85.160400390625 38.53308486938477 84.07466125488281 33.15349960327148 81.93334197998047 28.09085845947266 C 79.86444091796875 23.19941711425781 76.90198516845703 18.80581665039062 73.12828826904297 15.03211212158203 C 69.35458374023438 11.25841522216797 64.96098327636719 8.29595947265625 60.06954193115234 6.227058410644531 C 55.00691604614258 4.085746765136719 49.62731552124023 3 44.0802001953125 3 M 44.0802001953125 0 C 68.42502593994141 0 88.160400390625 19.73538970947266 88.160400390625 44.0802001953125 C 88.160400390625 68.42502593994141 68.42502593994141 88.160400390625 44.0802001953125 88.160400390625 C 19.73538970947266 88.160400390625 0 68.42502593994141 0 44.0802001953125 C 0 19.73538970947266 19.73538970947266 0 44.0802001953125 0 Z" stroke="none" fill="#d6ccfe"/>
                              </g>
                            </g>
                          </g>
                        </g>
                      </g>
                    </g>
                  </g>
                </g>
              </g>
            </g>
          </g>
        </g>
      </g>
    </g>
    <g id="biologico_3_" data-name="biologico (3)" transform="translate(193.811 777.049)">
      <g id="Grupo_1238600" data-name="Grupo 1238600" transform="translate(0.842 0.842)">
        <path id="Trazado_1257795" data-name="Trazado 1257795" d="M126.733,8h5.05a6.724,6.724,0,0,1-6.733,6.733H120A6.732,6.732,0,0,1,126.733,8Zm0,0" transform="translate(-108.216 -8)" fill="#b4dd7f"/>
        <path id="Trazado_1257796" data-name="Trazado 1257796" d="M13.05,8a6.732,6.732,0,0,1,6.733,6.733h-5.05A6.732,6.732,0,0,1,8,8Zm0,0" transform="translate(-8 -8)" fill="#b4dd7f"/>
        <path id="Trazado_1257797" data-name="Trazado 1257797" d="M13.05,112a6.732,6.732,0,0,1,6.733,6.733h-5.05A6.732,6.732,0,0,1,8,112Zm0,0" transform="translate(-8 -101.058)" fill="#b4dd7f"/>
      </g>
      <path id="Trazado_1257798" data-name="Trazado 1257798" d="M31.567,262.7a3.555,3.555,0,0,1-.109.892l-.732,2.929-1.683,6.734H10.525l-2.416-9.663A3.555,3.555,0,0,1,8,262.7a3.672,3.672,0,0,1,1.776-3.139l4.865-2.912a3.672,3.672,0,0,0,1.776-3.139V248H23.15v5.5a3.672,3.672,0,0,0,1.776,3.139l4.865,2.912a3.672,3.672,0,0,1,1.776,3.139Zm0,0" transform="translate(-7.158 -221.908)" fill="#69d6f4"/>
      <path id="Trazado_1257799" data-name="Trazado 1257799" d="M69.467,216v3.367H56V216Zm0,0" transform="translate(-50.108 -193.275)" fill="#69d6f4"/>
      <path id="Trazado_1257800" data-name="Trazado 1257800" d="M235.776,424l.842,6.733H208L209.683,424h4.208a3.367,3.367,0,0,0,6.733,0h6.733a3.367,3.367,0,0,0,6.733,0Zm0,0" transform="translate(-186.116 -379.391)" fill="#969faa"/>
      <path id="Trazado_1257801" data-name="Trazado 1257801" d="M270.733,284.208V295.15a3.367,3.367,0,1,1-6.733,0V280h6.733Zm0,0" transform="translate(-236.224 -250.541)" fill="#ffeaa7"/>
      <path id="Trazado_1257802" data-name="Trazado 1257802" d="M398.734,290.942v4.208a3.367,3.367,0,1,1-6.733,0V280h6.733Zm0,0" transform="translate(-350.757 -250.541)" fill="#e6e9ed"/>
      <path id="Trazado_1257803" data-name="Trazado 1257803" d="M386.1,248v3.367H376V248Zm0,0" transform="translate(-336.44 -221.908)" fill="#ccd1d9"/>
      <path id="Trazado_1257804" data-name="Trazado 1257804" d="M258.1,248v3.367H248V248Zm0,0" transform="translate(-221.907 -221.908)" fill="#fcd770"/>
      <path id="Trazado_1257805" data-name="Trazado 1257805" d="M266.942,8A10.942,10.942,0,1,1,256,18.942,10.941,10.941,0,0,1,266.942,8Zm0,0" transform="translate(-229.066 -7.158)" fill="#e6e9ed"/>
      <path id="Trazado_1257806" data-name="Trazado 1257806" d="M307.367,137.683A1.683,1.683,0,1,1,305.683,136,1.684,1.684,0,0,1,307.367,137.683Zm0,0" transform="translate(-272.016 -121.691)" fill="#ef7385"/>
      <path id="Trazado_1257807" data-name="Trazado 1257807" d="M374.733,91.367A3.367,3.367,0,1,1,371.367,88,3.367,3.367,0,0,1,374.733,91.367Zm0,0" transform="translate(-329.282 -78.742)" fill="#ef7385"/>
      <path id="Trazado_1257808" data-name="Trazado 1257808" d="M315.367,49.683A1.683,1.683,0,1,1,313.683,48,1.683,1.683,0,0,1,315.367,49.683Zm0,0" transform="translate(-279.174 -42.95)" fill="#ef7385"/>
      <path id="Trazado_1257809" data-name="Trazado 1257809" d="M50.4,43.767H48.818V30.3H50.5V25.25H38.718V30.3H40.4V43.767h-5.05V30.3h1.683V25.25H25.251V30.3h1.683V43.767H24.646l.47-1.878a4.4,4.4,0,0,0,.136-1.1,4.534,4.534,0,0,0-2.186-3.862L18.2,34.016A2.84,2.84,0,0,1,16.834,31.6V26.934H20.2v-5.05H13.468V8.417h4.208A7.564,7.564,0,0,0,25.251.842V0H19.359a7.577,7.577,0,0,0-6.733,4.121A7.577,7.577,0,0,0,5.892,0H0V.842A7.584,7.584,0,0,0,7.576,8.417h4.208v5.35a7.56,7.56,0,0,0-5.892-2.825H0v.842a7.584,7.584,0,0,0,7.575,7.575h4.208v2.525H5.051v5.05H8.417V31.6A2.84,2.84,0,0,1,7.05,34.014L2.184,36.927A4.535,4.535,0,0,0,0,40.788a4.369,4.369,0,0,0,.135,1.1l2.575,10.3H51.455ZM19.359,1.683h4.15a5.883,5.883,0,0,1-5.833,5.05h-3a9.255,9.255,0,0,1,6.364-2.525V2.525A10.921,10.921,0,0,0,14.05,5.034a5.9,5.9,0,0,1,5.309-3.351Zm-17.616,0H5.892A5.9,5.9,0,0,1,11.2,5.034,10.921,10.921,0,0,0,4.209,2.525V4.208a9.255,9.255,0,0,1,6.364,2.525h-3a5.9,5.9,0,0,1-5.832-5.05Zm0,10.942H5.892A5.9,5.9,0,0,1,11.2,15.976a10.921,10.921,0,0,0-6.993-2.509V15.15a9.255,9.255,0,0,1,6.364,2.525h-3a5.9,5.9,0,0,1-5.832-5.05ZM40.4,26.934h8.417v1.683H40.4ZM47.135,30.3v2.525H44.61v1.683h2.525v1.683H44.61v1.683h2.525v1.683H44.61v1.683h2.525v3.367a2.525,2.525,0,1,1-5.05,0V30.3Zm-20.2-3.367h8.417v1.683H26.934ZM33.668,30.3v2.525H31.143v1.683h2.525v1.683H31.143v1.683h2.525v1.683H31.143v1.683h2.525v3.367a2.525,2.525,0,1,1-5.05,0V30.3ZM6.734,25.25V23.567H18.518V25.25ZM4.024,50.5l-2.257-9.03a2.683,2.683,0,0,1-.083-.683,2.84,2.84,0,0,1,1.367-2.417l4.866-2.913A4.535,4.535,0,0,0,10.1,31.6V26.934h5.05V31.6a4.534,4.534,0,0,0,2.186,3.862L22.2,38.369a2.84,2.84,0,0,1,1.369,2.419,2.712,2.712,0,0,1-.084.688L21.227,50.5Zm18.938,0,1.263-5.05h2.8a4.207,4.207,0,0,0,8.245,0h5.222a4.207,4.207,0,0,0,8.245,0h.184l.631,5.05Zm0,0" transform="translate(0 0)"/>
      <path id="Trazado_1257810" data-name="Trazado 1257810" d="M169.623,362.963l-3.03-1.818-.866,1.443,2.675,1.6-1.678,6.73,1.634.408,1.793-7.188.024-.2A1.183,1.183,0,0,0,169.623,362.963Zm0,0" transform="translate(-148.29 -323.149)"/>
      <path id="Trazado_1257811" data-name="Trazado 1257811" d="M131.193,338.414l-1.282,1.092a7.764,7.764,0,0,0,1.889,1.614l.871-1.44A6.039,6.039,0,0,1,131.193,338.414Zm0,0" transform="translate(-116.242 -302.809)"/>
      <path id="Trazado_1257812" data-name="Trazado 1257812" d="M259.784,23.567A11.784,11.784,0,1,0,248,11.784,11.8,11.8,0,0,0,259.784,23.567Zm0-21.884a10.1,10.1,0,1,1-10.1,10.1A10.111,10.111,0,0,1,259.784,1.683Zm0,0" transform="translate(-221.907 0)"/>
      <path id="Trazado_1257813" data-name="Trazado 1257813" d="M364.208,88.417A4.208,4.208,0,1,0,360,84.208,4.213,4.213,0,0,0,364.208,88.417Zm0-6.733a2.525,2.525,0,1,1-2.525,2.525A2.528,2.528,0,0,1,364.208,81.683Zm0,0" transform="translate(-322.124 -71.583)"/>
      <path id="Trazado_1257814" data-name="Trazado 1257814" d="M306.525,45.05A2.525,2.525,0,1,0,304,42.525,2.528,2.528,0,0,0,306.525,45.05Zm0-3.367a.842.842,0,1,1-.842.842A.843.843,0,0,1,306.525,41.683Zm0,0" transform="translate(-272.016 -35.792)"/>
      <path id="Trazado_1257815" data-name="Trazado 1257815" d="M298.525,133.05A2.525,2.525,0,1,0,296,130.525,2.528,2.528,0,0,0,298.525,133.05Zm0-3.367a.842.842,0,1,1-.842.842A.843.843,0,0,1,298.525,129.683Zm0,0" transform="translate(-264.857 -114.533)"/>
      <path id="Trazado_1257816" data-name="Trazado 1257816" d="M392,112h1.683v1.683H392Zm0,0" transform="translate(-350.757 -100.217)"/>
    </g>
  </g>
</svg>
