<svg xmlns="http://www.w3.org/2000/svg" xmlns:xlink="http://www.w3.org/1999/xlink" width="106.16" height="106.16" viewBox="0 0 106.16 106.16">
  <defs>
    <filter id="Trazado_982547" x="0" y="0" width="106.16" height="106.16" filterUnits="userSpaceOnUse">
      <feOffset dy="3" input="SourceAlpha"/>
      <feGaussianBlur stdDeviation="3" result="blur"/>
      <feFlood flood-opacity="0.161"/>
      <feComposite operator="in" in2="blur"/>
      <feComposite in="SourceGraphic"/>
    </filter>
  </defs>
  <g id="Grupo_1237533" data-name="Grupo 1237533" transform="translate(-168 -5726.65)">
    <g id="Grupo_1237154" data-name="Grupo 1237154" transform="translate(-47 4697.65)">
      <g id="Grupo_1234666" data-name="Grupo 1234666" transform="translate(224 1035)">
        <g id="Grupo_1232498" data-name="Grupo 1232498" transform="translate(0)">
          <g id="Grupo_1230692" data-name="Grupo 1230692">
            <g id="Grupo_1224852" data-name="Grupo 1224852">
              <g id="Grupo_1206130" data-name="Grupo 1206130">
                <g id="Grupo_1203672" data-name="Grupo 1203672">
                  <g id="Grupo_1203344" data-name="Grupo 1203344">
                    <g id="Grupo_1177900" data-name="Grupo 1177900">
                      <g id="Grupo_1172010" data-name="Grupo 1172010">
                        <g id="Grupo_1171046" data-name="Grupo 1171046">
                          <g id="Grupo_1148525" data-name="Grupo 1148525">
                            <g transform="matrix(1, 0, 0, 1, -9, -6)" filter="url(#Trazado_982547)">
                              <g id="Trazado_982547-2" data-name="Trazado 982547" transform="translate(9 6)" fill="#f0edfe">
                                <path d="M 44.0802001953125 86.660400390625 C 38.33124923706055 86.660400390625 32.75506210327148 85.53479766845703 27.50652503967285 83.31484985351562 C 22.43628692626953 81.17032623291016 17.88242530822754 78.09992218017578 13.97144985198975 74.18894958496094 C 10.06047534942627 70.27797698974609 6.99007511138916 65.72411346435547 4.845550060272217 60.65387344360352 C 2.625600099563599 55.40533828735352 1.500000238418579 49.82915115356445 1.500000238418579 44.0802001953125 C 1.500000238418579 38.33124923706055 2.625600099563599 32.75506210327148 4.845550060272217 27.50652503967285 C 6.99007511138916 22.43628692626953 10.06047534942627 17.88242530822754 13.97144985198975 13.97144985198975 C 17.88242530822754 10.06047534942627 22.43628692626953 6.99007511138916 27.50652503967285 4.845550060272217 C 32.75506210327148 2.625600099563599 38.33124923706055 1.500000238418579 44.0802001953125 1.500000238418579 C 49.82915115356445 1.500000238418579 55.40533828735352 2.625600099563599 60.65387344360352 4.845550060272217 C 65.72411346435547 6.99007511138916 70.27797698974609 10.06047534942627 74.18894958496094 13.97144985198975 C 78.09992218017578 17.88242530822754 81.17032623291016 22.43628692626953 83.31484985351562 27.50652503967285 C 85.53479766845703 32.75506210327148 86.660400390625 38.33124923706055 86.660400390625 44.0802001953125 C 86.660400390625 49.82915115356445 85.53479766845703 55.40533828735352 83.31484985351562 60.65387344360352 C 81.17032623291016 65.72411346435547 78.09992218017578 70.27797698974609 74.18894958496094 74.18894958496094 C 70.27797698974609 78.09992218017578 65.72411346435547 81.17032623291016 60.65387344360352 83.31484985351562 C 55.40533828735352 85.53479766845703 49.82915115356445 86.660400390625 44.0802001953125 86.660400390625 Z" stroke="none"/>
                                <path d="M 44.0802001953125 3 C 38.53308486938477 3 33.15349960327148 4.085746765136719 28.09085845947266 6.227058410644531 C 23.19941711425781 8.29595947265625 18.80581665039062 11.25841522216797 15.03211212158203 15.03211212158203 C 11.25841522216797 18.80581665039062 8.29595947265625 23.19941711425781 6.227058410644531 28.09085845947266 C 4.085746765136719 33.15349960327148 3 38.53308486938477 3 44.0802001953125 C 3 49.62731552124023 4.085746765136719 55.00691604614258 6.227058410644531 60.06954193115234 C 8.29595947265625 64.96098327636719 11.25841522216797 69.35458374023438 15.03211212158203 73.12828826904297 C 18.80581665039062 76.90198516845703 23.19941711425781 79.86444091796875 28.09085845947266 81.93334197998047 C 33.15349960327148 84.07466125488281 38.53308486938477 85.160400390625 44.0802001953125 85.160400390625 C 49.62731552124023 85.160400390625 55.00691604614258 84.07466125488281 60.06954193115234 81.93334197998047 C 64.96099853515625 79.86444091796875 69.35458374023438 76.90198516845703 73.12828826904297 73.12828826904297 C 76.90198516845703 69.35458374023438 79.86444091796875 64.96099853515625 81.93334197998047 60.06954193115234 C 84.07466125488281 55.00691604614258 85.160400390625 49.62731552124023 85.160400390625 44.0802001953125 C 85.160400390625 38.53308486938477 84.07466125488281 33.15349960327148 81.93334197998047 28.09085845947266 C 79.86444091796875 23.19941711425781 76.90198516845703 18.80581665039062 73.12828826904297 15.03211212158203 C 69.35458374023438 11.25841522216797 64.96098327636719 8.29595947265625 60.06954193115234 6.227058410644531 C 55.00691604614258 4.085746765136719 49.62731552124023 3 44.0802001953125 3 M 44.0802001953125 0 C 68.42502593994141 0 88.160400390625 19.73538970947266 88.160400390625 44.0802001953125 C 88.160400390625 68.42502593994141 68.42502593994141 88.160400390625 44.0802001953125 88.160400390625 C 19.73538970947266 88.160400390625 0 68.42502593994141 0 44.0802001953125 C 0 19.73538970947266 19.73538970947266 0 44.0802001953125 0 Z" stroke="none" fill="#d6ccfe"/>
                              </g>
                            </g>
                          </g>
                        </g>
                      </g>
                    </g>
                  </g>
                </g>
              </g>
            </g>
          </g>
        </g>
      </g>
    </g>
    <g id="Layer_35" transform="translate(185.28 5741.555)">
      <g id="Grupo_1237532" data-name="Grupo 1237532" transform="translate(6.8 5)">
        <g id="Grupo_1237527" data-name="Grupo 1237527" transform="translate(1.007 41.889)">
          <path id="Trazado_1256472" data-name="Trazado 1256472" d="M16.557,83.108V67.4H8.3V84.921h8.257Z" transform="translate(-8.3 -67.4)" fill="#c9ebfa" fill-rule="evenodd"/>
        </g>
        <g id="Grupo_1237528" data-name="Grupo 1237528" transform="translate(9.331 41.623)">
          <path id="Trazado_1256473" data-name="Trazado 1256473" d="M40.436,75.46a3.16,3.16,0,0,0,.738-1.745,3.492,3.492,0,0,0-2.954-3.826l-2.484-.47a9.447,9.447,0,0,1-3.424-1.208,8.547,8.547,0,0,0-9.2.269L20.7,70.224V82.978l10.2,1.544c5.5.738,8.66-.2,13.426-2.887L57.42,75.46c2.685-1.275.671-6.512-4.095-4.766Z" transform="translate(-20.7 -67.004)" fill="#fce0c4" fill-rule="evenodd"/>
        </g>
        <g id="Grupo_1237529" data-name="Grupo 1237529" transform="translate(13.057 1.024)">
          <path id="Trazado_1256474" data-name="Trazado 1256474" d="M54.814,38.932A13.066,13.066,0,0,1,53.2,32.89V29.2l8.526-4.229,4.431,2.215.067-.067C76.967,15.974,60.722-1.01,49.981,10.2l-2.014,2.014L46.02,10.2C35.279-1.01,19.034,15.974,29.775,27.117l16.581,17.32a2.193,2.193,0,0,0,3.222,0Z" transform="translate(-26.251 -6.525)" fill="#f17171" fill-rule="evenodd"/>
        </g>
        <g id="Grupo_1237530" data-name="Grupo 1237530" transform="translate(40.01 19.467)">
          <path id="Trazado_1256475" data-name="Trazado 1256475" d="M83.384,41.988V38.3l-4.095-2.081L74.926,34,66.4,38.3v3.692a13.289,13.289,0,0,0,1.611,6.042c1.813,3.424,4.833,5.907,6.914,6.512,3.155-.94,8.458-6.31,8.458-12.553Z" transform="translate(-66.4 -34)" fill="#77dbc7" fill-rule="evenodd"/>
        </g>
        <g id="Grupo_1237531" data-name="Grupo 1237531">
          <path id="Trazado_1256476" data-name="Trazado 1256476" d="M48.286,69.27,37.613,73.164a4.5,4.5,0,0,0-3.826-4.9l-2.484-.47a7.392,7.392,0,0,1-3.088-1.141,9.585,9.585,0,0,0-10.271.336l-.873.6V66.585a1.032,1.032,0,0,0-1.007-1.007H7.807A1.032,1.032,0,0,0,6.8,66.585V84.106a1.032,1.032,0,0,0,1.007,1.007h8.257a1.032,1.032,0,0,0,1.007-1.007v-.6l9.063,1.41a33.237,33.237,0,0,0,3.424.269c4.028,0,6.982-1.141,10.539-3.222l13.09-6.109a3.251,3.251,0,0,0,1.477-4.363c-.806-1.88-3.155-3.424-6.377-2.215ZM15.057,83.234H8.814V67.726h6.243Zm37.257-9.2-13.09,6.176a.066.066,0,0,0-.067.067C34.323,83.032,31.37,83.7,26.4,83.032l-9.331-1.41V70.21l2.014-1.477a7.675,7.675,0,0,1,8.123-.2,10.982,10.982,0,0,0,3.759,1.343l2.484.47A2.465,2.465,0,0,1,35.6,73.1a3.056,3.056,0,0,1-.537,1.275,2.273,2.273,0,0,1-2.148.873l-5.706-.873a1.016,1.016,0,1,0-.269,2.014l5.706.873a2.284,2.284,0,0,0,.671.067,4.186,4.186,0,0,0,3.155-1.41L49.025,71.15c2.148-.806,3.357.134,3.826,1.141.134.47.269,1.41-.537,1.745Z" transform="translate(-6.8 -24.831)"/>
          <path id="Trazado_1256477" data-name="Trazado 1256477" d="M70.129,27.892l-2.954-1.477a12.3,12.3,0,0,0,2.484-11.546,13.946,13.946,0,0,0-9.667-9.532c-4.028-1.007-8.056.269-11.278,3.625l-1.275,1.275L46.163,8.961C42.941,5.6,38.913,4.329,34.818,5.336a13.946,13.946,0,0,0-9.667,9.532,12.512,12.512,0,0,0,3.289,12.486L45.089,44.607a3.245,3.245,0,0,0,4.7,0l4.3-4.5c1.947,3.021,4.632,5.169,6.847,5.773a.741.741,0,0,0,.537,0c3.759-1.074,9.2-6.847,9.2-13.493V28.7a.872.872,0,0,0-.537-.806ZM48.311,43.2a1.22,1.22,0,0,1-1.813,0L29.918,25.945A10.548,10.548,0,0,1,27.1,15.472a11.959,11.959,0,0,1,8.19-8.19,9.6,9.6,0,0,1,9.4,3.088l1.947,2.081a1.054,1.054,0,0,0,1.477,0l1.947-2.081a9.6,9.6,0,0,1,9.4-3.088,12.083,12.083,0,0,1,8.257,8.123,10.276,10.276,0,0,1-2.417,10l-3.759-1.88a1.144,1.144,0,0,0-.94,0l-8.526,4.3a1.048,1.048,0,0,0-.537.873v3.692a13.373,13.373,0,0,0,1.41,5.84Zm20.34-10.741c0,5.639-4.7,10.472-7.519,11.479-2.752-1.007-7.451-5.84-7.451-11.479V29.435L61.2,25.676l7.519,3.759Z" transform="translate(-12.665 -5)"/>
          <path id="Trazado_1256478" data-name="Trazado 1256478" d="M74.994,47.48a1,1,0,1,0-1.275,1.544L75.732,50.7a1.193,1.193,0,0,0,.671.269h.067a.826.826,0,0,0,.671-.336L80.9,46.2a1,1,0,0,0-1.544-1.275l-3.088,3.692Z" transform="translate(-28.674 -18.01)"/>
        </g>
      </g>
    </g>
  </g>
</svg>
